<svg width="80" height="80" viewBox="0 0 80 80" fill="none" xmlns="http://www.w3.org/2000/svg">
<g filter="url(#filter0_b_347_81)">
<path d="M0 39.8954C0 17.8618 17.9664 0 40 0C62.0336 0 80 17.8618 80 39.8954C80 61.929 62.0336 79.7908 40 79.7908C17.9664 79.7908 0 61.929 0 39.8954Z" fill="url(#paint0_radial_347_81)"/>
<path d="M0.5 39.8954C0.5 18.1396 18.2408 0.5 40 0.5C61.7592 0.5 79.5 18.1396 79.5 39.8954C79.5 61.6512 61.7592 79.2908 40 79.2908C18.2408 79.2908 0.5 61.6512 0.5 39.8954Z" stroke="url(#paint1_radial_347_81)"/>
<path d="M0.5 39.8954C0.5 18.1396 18.2408 0.5 40 0.5C61.7592 0.5 79.5 18.1396 79.5 39.8954C79.5 61.6512 61.7592 79.2908 40 79.2908C18.2408 79.2908 0.5 61.6512 0.5 39.8954Z" stroke="url(#paint2_radial_347_81)"/>
<path d="M0.5 39.8954C0.5 18.1396 18.2408 0.5 40 0.5C61.7592 0.5 79.5 18.1396 79.5 39.8954C79.5 61.6512 61.7592 79.2908 40 79.2908C18.2408 79.2908 0.5 61.6512 0.5 39.8954Z" stroke="url(#paint3_radial_347_81)"/>
</g>
<path d="M56.0781 25.4534H56.019V22.2812C56.019 21.7152 55.5596 21.2559 54.9936 21.2559C54.4276 21.2559 53.9682 21.7152 53.9682 22.2812V25.4534H53.9092C52.4392 25.4534 51.2432 26.6494 51.2432 28.1194V48.7445C51.2432 50.2145 52.4392 51.4105 53.9092 51.4105H53.9682V54.5827C53.9682 55.1487 54.4276 55.6081 54.9936 55.6081C55.5596 55.6081 56.019 55.1487 56.019 54.5827V51.4105H56.0781C57.5481 51.4105 58.7441 50.2145 58.7441 48.7445V28.1194C58.7441 26.6494 57.5481 25.4534 56.0781 25.4534Z" fill="#46DF83"/>
<path d="M46.083 35.398H46.0239V33.8255C46.0239 33.2595 45.5645 32.8001 44.9985 32.8001C44.4325 32.8001 43.9731 33.2595 43.9731 33.8255V35.398H43.9141C42.4441 35.398 41.248 36.5941 41.248 38.0641V53.4794C41.248 54.9494 42.4441 56.1454 43.9141 56.1454H43.9731V57.7179C43.9731 58.2839 44.4325 58.7433 44.9985 58.7433C45.5645 58.7433 46.0239 58.2839 46.0239 57.7179V56.1454H46.083C47.553 56.1454 48.749 54.9494 48.749 53.4794V38.0641C48.749 36.5941 47.553 35.398 46.083 35.398Z" fill="#46DF83"/>
<path d="M36.0869 32.0192H36.0278V29.8921C36.0278 29.3261 35.5684 28.8667 35.0024 28.8667C34.4364 28.8667 33.977 29.3261 33.977 29.8921V32.0192H33.918C32.448 32.0192 31.252 33.2152 31.252 34.6852V44.1311C31.252 45.6011 32.448 46.7971 33.918 46.7971H33.977V48.9242C33.977 49.4902 34.4364 49.9496 35.0024 49.9496C35.5684 49.9496 36.0278 49.4902 36.0278 48.9242V46.7971H36.0869C37.5569 46.7971 38.7529 45.6011 38.7529 44.1311V34.6852C38.7529 33.2152 37.5569 32.0192 36.0869 32.0192Z" fill="#46DF83"/>
<path d="M26.0908 25.9349H26.0317V22.2813C26.0317 21.7152 25.5723 21.2559 25.0063 21.2559C24.4403 21.2559 23.9809 21.7152 23.9809 22.2813V25.9349H23.9219C22.4519 25.9349 21.2559 27.1309 21.2559 28.6009V47.642C21.2559 49.112 22.4519 50.3081 23.9219 50.3081H23.9809V53.9617C23.9809 54.5277 24.4403 54.9871 25.0063 54.9871C25.5723 54.9871 26.0317 54.5277 26.0317 53.9617V50.3081H26.0908C27.5608 50.3081 28.7568 49.112 28.7568 47.642V28.6009C28.7568 27.1309 27.5608 25.9349 26.0908 25.9349Z" fill="#46DF83"/>
<defs>
<filter id="filter0_b_347_81" x="-5" y="-5" width="90" height="89.7908" filterUnits="userSpaceOnUse" color-interpolation-filters="sRGB">
<feFlood flood-opacity="0" result="BackgroundImageFix"/>
<feGaussianBlur in="BackgroundImageFix" stdDeviation="2.5"/>
<feComposite in2="SourceAlpha" operator="in" result="effect1_backgroundBlur_347_81"/>
<feBlend mode="normal" in="SourceGraphic" in2="effect1_backgroundBlur_347_81" result="shape"/>
</filter>
<radialGradient id="paint0_radial_347_81" cx="0" cy="0" r="1" gradientUnits="userSpaceOnUse" gradientTransform="translate(6.69204) rotate(47.9449) scale(119.431 86.7751)">
<stop stop-color="white" stop-opacity="0.36"/>
<stop offset="1" stop-color="white" stop-opacity="0"/>
</radialGradient>
<radialGradient id="paint1_radial_347_81" cx="0" cy="0" r="1" gradientUnits="userSpaceOnUse" gradientTransform="translate(-42.5965 8.1628) rotate(35.0407) scale(92.1512 54.3882)">
<stop stop-color="white"/>
<stop offset="1" stop-color="white" stop-opacity="0.06"/>
</radialGradient>
<radialGradient id="paint2_radial_347_81" cx="0" cy="0" r="1" gradientUnits="userSpaceOnUse" gradientTransform="translate(103.421 53.4008) rotate(161.385) scale(66.8428 45.1784)">
<stop stop-color="#8470FF"/>
<stop offset="1" stop-color="#865CFF" stop-opacity="0"/>
</radialGradient>
<radialGradient id="paint3_radial_347_81" cx="0" cy="0" r="1" gradientUnits="userSpaceOnUse" gradientTransform="translate(40.871 -18.2359) rotate(47.2149) scale(44.643 32.0879)">
<stop/>
<stop offset="1" stop-color="white" stop-opacity="0"/>
</radialGradient>
</defs>
</svg>
