<svg width="80" height="80" viewBox="0 0 80 80" fill="none" xmlns="http://www.w3.org/2000/svg">
<g filter="url(#filter0_b_348_166)">
<path d="M0 39.8954C0 17.8618 17.9664 0 40 0C62.0336 0 80 17.8618 80 39.8954C80 61.929 62.0336 79.7908 40 79.7908C17.9664 79.7908 0 61.929 0 39.8954Z" fill="url(#paint0_radial_348_166)"/>
<path d="M0.5 39.8954C0.5 18.1396 18.2408 0.5 40 0.5C61.7592 0.5 79.5 18.1396 79.5 39.8954C79.5 61.6512 61.7592 79.2908 40 79.2908C18.2408 79.2908 0.5 61.6512 0.5 39.8954Z" stroke="url(#paint1_radial_348_166)"/>
<path d="M0.5 39.8954C0.5 18.1396 18.2408 0.5 40 0.5C61.7592 0.5 79.5 18.1396 79.5 39.8954C79.5 61.6512 61.7592 79.2908 40 79.2908C18.2408 79.2908 0.5 61.6512 0.5 39.8954Z" stroke="url(#paint2_radial_348_166)"/>
<path d="M0.5 39.8954C0.5 18.1396 18.2408 0.5 40 0.5C61.7592 0.5 79.5 18.1396 79.5 39.8954C79.5 61.6512 61.7592 79.2908 40 79.2908C18.2408 79.2908 0.5 61.6512 0.5 39.8954Z" stroke="url(#paint3_radial_348_166)"/>
</g>
<path fill-rule="evenodd" clip-rule="evenodd" d="M56.5579 23.2558V58.6044C56.5579 59.1216 56.2714 59.596 55.8138 59.8379C55.3561 60.0798 54.8035 60.0481 54.3756 59.756L49.7338 56.5877L45.345 59.7374C44.8185 60.117 44.1003 60.0816 43.6129 59.6537L40.279 56.7384L36.945 59.6537C36.4576 60.0816 35.7395 60.117 35.213 59.7374L30.8241 56.5877L26.1823 59.756C25.7544 60.0481 25.2019 60.0798 24.7442 59.8379C24.2865 59.596 24 59.1216 24 58.6044V23.2558C24 21.4586 25.4567 20 27.2558 20H53.3021C55.1012 20 56.5579 21.4586 56.5579 23.2558ZM32.8372 37.6743H47.7208C48.491 37.6743 49.1161 37.0492 49.1161 36.279C49.1161 35.5087 48.491 34.8836 47.7208 34.8836H32.8372C32.0669 34.8836 31.4418 35.5087 31.4418 36.279C31.4418 37.0492 32.0669 37.6743 32.8372 37.6743ZM32.8372 30.2325H47.7208C48.491 30.2325 49.1161 29.6074 49.1161 28.8372C49.1161 28.0669 48.491 27.4418 47.7208 27.4418H32.8372C32.0669 27.4418 31.4418 28.0669 31.4418 28.8372C31.4418 29.6074 32.0669 30.2325 32.8372 30.2325ZM32.8372 45.1161H40.279C41.0492 45.1161 41.6743 44.491 41.6743 43.7208C41.6743 42.9506 41.0492 42.3254 40.279 42.3254H32.8372C32.0669 42.3254 31.4418 42.9506 31.4418 43.7208C31.4418 44.491 32.0669 45.1161 32.8372 45.1161Z" fill="#46DF83"/>
<defs>
<filter id="filter0_b_348_166" x="-5" y="-5" width="90" height="89.7908" filterUnits="userSpaceOnUse" color-interpolation-filters="sRGB">
<feFlood flood-opacity="0" result="BackgroundImageFix"/>
<feGaussianBlur in="BackgroundImageFix" stdDeviation="2.5"/>
<feComposite in2="SourceAlpha" operator="in" result="effect1_backgroundBlur_348_166"/>
<feBlend mode="normal" in="SourceGraphic" in2="effect1_backgroundBlur_348_166" result="shape"/>
</filter>
<radialGradient id="paint0_radial_348_166" cx="0" cy="0" r="1" gradientUnits="userSpaceOnUse" gradientTransform="translate(6.69204) rotate(47.9449) scale(119.431 86.7751)">
<stop stop-color="white" stop-opacity="0.36"/>
<stop offset="1" stop-color="white" stop-opacity="0"/>
</radialGradient>
<radialGradient id="paint1_radial_348_166" cx="0" cy="0" r="1" gradientUnits="userSpaceOnUse" gradientTransform="translate(-42.5965 8.1628) rotate(35.0407) scale(92.1512 54.3882)">
<stop stop-color="white"/>
<stop offset="1" stop-color="white" stop-opacity="0.06"/>
</radialGradient>
<radialGradient id="paint2_radial_348_166" cx="0" cy="0" r="1" gradientUnits="userSpaceOnUse" gradientTransform="translate(103.421 53.4008) rotate(161.385) scale(66.8428 45.1784)">
<stop stop-color="#8470FF"/>
<stop offset="1" stop-color="#865CFF" stop-opacity="0"/>
</radialGradient>
<radialGradient id="paint3_radial_348_166" cx="0" cy="0" r="1" gradientUnits="userSpaceOnUse" gradientTransform="translate(40.871 -18.2359) rotate(47.2149) scale(44.643 32.0879)">
<stop/>
<stop offset="1" stop-color="white" stop-opacity="0"/>
</radialGradient>
</defs>
</svg>
