<svg width="80" height="80" viewBox="0 0 80 80" fill="none" xmlns="http://www.w3.org/2000/svg">
<g filter="url(#filter0_b_348_117)">
<path d="M0 39.8954C0 17.8618 17.9664 0 40 0C62.0336 0 80 17.8618 80 39.8954C80 61.929 62.0336 79.7908 40 79.7908C17.9664 79.7908 0 61.929 0 39.8954Z" fill="url(#paint0_radial_348_117)"/>
<path d="M0.5 39.8954C0.5 18.1396 18.2408 0.5 40 0.5C61.7592 0.5 79.5 18.1396 79.5 39.8954C79.5 61.6512 61.7592 79.2908 40 79.2908C18.2408 79.2908 0.5 61.6512 0.5 39.8954Z" stroke="url(#paint1_radial_348_117)"/>
<path d="M0.5 39.8954C0.5 18.1396 18.2408 0.5 40 0.5C61.7592 0.5 79.5 18.1396 79.5 39.8954C79.5 61.6512 61.7592 79.2908 40 79.2908C18.2408 79.2908 0.5 61.6512 0.5 39.8954Z" stroke="url(#paint2_radial_348_117)"/>
<path d="M0.5 39.8954C0.5 18.1396 18.2408 0.5 40 0.5C61.7592 0.5 79.5 18.1396 79.5 39.8954C79.5 61.6512 61.7592 79.2908 40 79.2908C18.2408 79.2908 0.5 61.6512 0.5 39.8954Z" stroke="url(#paint3_radial_348_117)"/>
</g>
<g clip-path="url(#clip0_348_117)">
<path d="M40.0001 56.3208C35.4163 56.3208 31.2753 54.4261 28.3139 51.3774C28.269 51.418 22.9117 56.7929 22.8662 56.8259C31.7589 66.3287 48.1617 66.3528 57.0825 56.8787L51.6352 51.4298C48.6773 54.4477 44.5575 56.3208 40.0001 56.3208Z" fill="#46DF83"/>
<path d="M23.7011 40.0065C23.7011 31.4993 30.2068 24.5142 38.5099 23.7607L38.5064 16.0313C19.594 16.9695 9.2755 39.7002 20.9075 54.5619L26.4422 49.0633C24.7112 46.4723 23.7011 43.3576 23.7011 40.0065Z" fill="#46DF83"/>
<path d="M41.4937 16.0313C41.4902 16.1204 41.5003 23.6765 41.4902 23.7606C53.6378 24.703 60.4724 39.0834 53.5242 49.1145L59.0475 54.6207C70.7493 39.7648 60.4331 16.9694 41.4937 16.0313Z" fill="#46DF83"/>
<path d="M37.2646 37.4259V46.042H41.6456V37.4259C41.6456 36.9473 41.2576 36.5593 40.779 36.5593H38.1314C37.6526 36.5593 37.2646 36.9473 37.2646 37.4259Z" fill="#46DF83"/>
<path d="M48.7206 45.1587V32.6336C48.7206 32.155 48.3326 31.767 47.854 31.767H45.2065C44.7278 31.767 44.3398 32.155 44.3398 32.6336V46.042H47.8375C48.3252 46.042 48.7206 45.6466 48.7206 45.1587Z" fill="#46DF83"/>
<path d="M31.1518 40.8715C30.6731 40.8715 30.2852 41.2594 30.2852 41.7381V45.1587C30.2852 45.6466 30.6806 46.042 31.1684 46.042H34.5724V41.7381C34.5724 41.2594 34.1844 40.8715 33.7057 40.8715H31.1518Z" fill="#46DF83"/>
</g>
<defs>
<filter id="filter0_b_348_117" x="-5" y="-5" width="90" height="89.7908" filterUnits="userSpaceOnUse" color-interpolation-filters="sRGB">
<feFlood flood-opacity="0" result="BackgroundImageFix"/>
<feGaussianBlur in="BackgroundImageFix" stdDeviation="2.5"/>
<feComposite in2="SourceAlpha" operator="in" result="effect1_backgroundBlur_348_117"/>
<feBlend mode="normal" in="SourceGraphic" in2="effect1_backgroundBlur_348_117" result="shape"/>
</filter>
<radialGradient id="paint0_radial_348_117" cx="0" cy="0" r="1" gradientUnits="userSpaceOnUse" gradientTransform="translate(6.69204) rotate(47.9449) scale(119.431 86.7751)">
<stop stop-color="white" stop-opacity="0.36"/>
<stop offset="1" stop-color="white" stop-opacity="0"/>
</radialGradient>
<radialGradient id="paint1_radial_348_117" cx="0" cy="0" r="1" gradientUnits="userSpaceOnUse" gradientTransform="translate(-42.5965 8.1628) rotate(35.0407) scale(92.1512 54.3882)">
<stop stop-color="white"/>
<stop offset="1" stop-color="white" stop-opacity="0.06"/>
</radialGradient>
<radialGradient id="paint2_radial_348_117" cx="0" cy="0" r="1" gradientUnits="userSpaceOnUse" gradientTransform="translate(103.421 53.4008) rotate(161.385) scale(66.8428 45.1784)">
<stop stop-color="#8470FF"/>
<stop offset="1" stop-color="#865CFF" stop-opacity="0"/>
</radialGradient>
<radialGradient id="paint3_radial_348_117" cx="0" cy="0" r="1" gradientUnits="userSpaceOnUse" gradientTransform="translate(40.871 -18.2359) rotate(47.2149) scale(44.643 32.0879)">
<stop/>
<stop offset="1" stop-color="white" stop-opacity="0"/>
</radialGradient>
<clipPath id="clip0_348_117">
<rect width="48" height="48" fill="white" transform="translate(16 16)"/>
</clipPath>
</defs>
</svg>
