<svg width="131" height="19" viewBox="0 0 131 19" fill="none" xmlns="http://www.w3.org/2000/svg">
<path d="M130.5 9.5C130.5 9.9066 130.213 10.4166 129.38 11.0067C128.564 11.5849 127.329 12.1629 125.69 12.7249C122.419 13.8465 117.659 14.8648 111.744 15.7227C99.9209 17.4375 83.571 18.5 65.5 18.5C47.429 18.5 31.0791 17.4375 19.2563 15.7227C13.3411 14.8648 8.58054 13.8465 5.3095 12.7249C3.67076 12.1629 2.43561 11.5849 1.61986 11.0067C0.787372 10.4166 0.5 9.9066 0.5 9.5C0.5 9.0934 0.787372 8.5834 1.61986 7.99334C2.43561 7.41515 3.67076 6.83707 5.3095 6.27514C8.58054 5.15347 13.3411 4.13524 19.2563 3.27731C31.0791 1.56255 47.429 0.5 65.5 0.5C83.571 0.5 99.9209 1.56255 111.744 3.27731C117.659 4.13524 122.419 5.15347 125.69 6.27514C127.329 6.83707 128.564 7.41515 129.38 7.99334C130.213 8.5834 130.5 9.0934 130.5 9.5Z" stroke="#46DF83"/>
</svg>
