<svg width="19" height="19" viewBox="0 0 19 19" fill="none" xmlns="http://www.w3.org/2000/svg">
<circle cx="9.5" cy="9.5" r="9.5" fill="#46DF83"/>
<path d="M7.40287 12.4843L5.10914 10.2576C5.04916 10.1987 4.97773 10.1519 4.89898 10.12C4.82023 10.088 4.73574 10.0716 4.6504 10.0716C4.56505 10.0716 4.48056 10.088 4.40181 10.12C4.32306 10.1519 4.25163 10.1987 4.19165 10.2576C4.13094 10.3159 4.08274 10.3852 4.04984 10.4617C4.01694 10.5381 4 10.6201 4 10.703C4 10.7858 4.01694 10.8678 4.04984 10.9443C4.08274 11.0207 4.13094 11.0901 4.19165 11.1483L6.93757 13.8139C7.19316 14.062 7.60603 14.062 7.86162 13.8139L14.8083 7.07671C14.8691 7.01848 14.9173 6.94914 14.9502 6.87269C14.9831 6.79625 15 6.71422 15 6.63138C15 6.54853 14.9831 6.46651 14.9502 6.39006C14.9173 6.31362 14.8691 6.24427 14.8083 6.18605C14.7484 6.12711 14.6769 6.08032 14.5982 6.04838C14.5194 6.01644 14.4349 6 14.3496 6C14.2643 6 14.1798 6.01644 14.101 6.04838C14.0223 6.08032 13.9508 6.12711 13.8909 6.18605L7.40287 12.4843Z" fill="white"/>
</svg>
