<svg width="32" height="32" viewBox="0 0 32 32" fill="none" xmlns="http://www.w3.org/2000/svg">
<path d="M16.0001 29.3334C21.6701 29.3334 26.6667 25.3334 26.6667 20C26.6667 14.6667 22.6667 12 21.3334 10.6667C19.2682 8.60156 18.7631 5.82186 18.6612 4.14165C18.6184 3.43553 17.941 2.92997 17.3316 3.28924C15.7963 4.19437 13.3186 6.27143 12 10.6667C11.1433 13.5224 12 16 12 16C12 16 10.6667 15.3334 10 13.3334C9.70656 12.4529 9.28388 11.3141 8.90263 10.315C8.58152 9.47349 7.43556 9.47956 7.14507 10.3321C6.3651 12.6212 5.33337 16.1288 5.33337 18.6667C5.33337 25.3334 10.33 29.3334 16.0001 29.3334Z" fill="#7B839A"/>
</svg>
