<svg width="32" height="32" viewBox="0 0 32 32" fill="none" xmlns="http://www.w3.org/2000/svg">
<path d="M26.6667 16C26.6667 10.109 21.8911 5.33332 16 5.33332C12.644 5.33332 9.69496 6.88465 7.75705 9.32426L9.99613 9.3177C10.7325 9.31555 11.3312 9.91075 11.3334 10.6471C11.3355 11.3835 10.7403 11.9822 10.0039 11.9844L5.41346 11.9978C5.36225 12.0009 5.31071 12.0011 5.25907 11.9983L4.67061 12C4.31632 12.001 3.97617 11.861 3.72528 11.6108C3.47439 11.3607 3.33337 11.021 3.33337 10.6667L3.33338 5.33332C3.33338 4.59694 3.93033 3.99999 4.66671 3.99999C5.40309 3.99999 6.00005 4.59694 6.00004 5.33332L6.00004 7.26595C8.41677 4.45383 11.9694 2.66666 16 2.66666C23.3638 2.66666 29.3334 8.63619 29.3334 16C29.3334 23.3638 23.3638 29.3333 16 29.3333C10.7521 29.3333 6.31452 26.3037 4.13936 21.9267C3.81164 21.2673 4.08056 20.467 4.74 20.1393C5.39943 19.8116 6.19968 20.0805 6.52739 20.7399C8.27944 24.2655 11.8247 26.6667 16 26.6667C21.8911 26.6667 26.6667 21.891 26.6667 16Z" fill="#7B839A"/>
<path fill-rule="evenodd" clip-rule="evenodd" d="M16 9.33334C16.7363 9.33334 17.3333 9.9303 17.3333 10.6667V15.4477L19.6094 17.7239C20.1301 18.2446 20.1301 19.0888 19.6094 19.6095C19.0887 20.1302 18.2445 20.1302 17.7238 19.6095L15.4477 17.3333C14.9476 16.8332 14.6666 16.155 14.6666 15.4477V10.6667C14.6666 9.9303 15.2636 9.33334 16 9.33334Z" fill="#7B839A"/>
</svg>
