<svg width="202" height="40" viewBox="0 0 202 40" fill="none" xmlns="http://www.w3.org/2000/svg">
<path fill-rule="evenodd" clip-rule="evenodd" d="M25.5557 11.6853C23.9112 10.5865 21.9778 10 20 10V0C23.9556 0 27.8224 1.17298 31.1114 3.37061C34.4004 5.56823 36.9638 8.69181 38.4776 12.3463C39.9913 16.0008 40.3874 20.0222 39.6157 23.9018C38.844 27.7814 36.9392 31.3451 34.1421 34.1421C31.3451 36.9392 27.7814 38.844 23.9018 39.6157C20.0222 40.3874 16.0008 39.9913 12.3463 38.4776C8.6918 36.9638 5.56823 34.4004 3.37061 31.1114C1.17298 27.8224 0 23.9556 0 20H10C10 21.9778 10.5865 23.9112 11.6853 25.5557C12.7841 27.2002 14.3459 28.4819 16.1732 29.2388C18.0004 29.9957 20.0111 30.1937 21.9509 29.8078C23.8907 29.422 25.6725 28.4696 27.0711 27.0711C28.4696 25.6725 29.422 23.8907 29.8078 21.9509C30.1937 20.0111 29.9957 18.0004 29.2388 16.1732C28.4819 14.3459 27.2002 12.7841 25.5557 11.6853Z" fill="#40FF8D"/>
<path fill-rule="evenodd" clip-rule="evenodd" d="M9.99999 5.28493e-06C9.99999 1.31322 9.74134 2.61358 9.23879 3.82684C8.73624 5.04009 7.99965 6.14248 7.07106 7.07107C6.14248 7.99966 5.04009 8.73625 3.82683 9.2388C2.61357 9.74134 1.31321 10 4.3711e-07 10L0 20C2.62643 20 5.22715 19.4827 7.65367 18.4776C10.0802 17.4725 12.285 15.9993 14.1421 14.1421C15.9993 12.285 17.4725 10.0802 18.4776 7.65367C19.4827 5.22715 20 2.62643 20 0L9.99999 5.28493e-06Z" fill="#40FF8D"/>
<path d="M54.4606 10.2H60.9886C62.6846 10.2 64.1086 10.752 65.2606 11.856C66.4126 12.96 66.9886 14.368 66.9886 16.08C66.9886 17.792 66.4126 19.2 65.2606 20.304C64.1086 21.408 62.6846 21.96 60.9886 21.96H58.7566V27H54.4606V10.2ZM58.7566 17.88H60.9886C61.4686 17.88 61.8686 17.712 62.1886 17.376C62.5246 17.04 62.6926 16.608 62.6926 16.08C62.6926 15.552 62.5246 15.128 62.1886 14.808C61.8686 14.472 61.4686 14.304 60.9886 14.304H58.7566V17.88ZM72.3626 15V17.232C72.5866 16.464 73.0266 15.864 73.6826 15.432C74.3546 14.984 75.1146 14.76 75.9626 14.76V19.176C75.0506 19.032 74.2186 19.2 73.4666 19.68C72.7306 20.16 72.3626 20.944 72.3626 22.032V27H68.3786V15H72.3626ZM82.9996 27.336C81.2076 27.336 79.6956 26.728 78.4636 25.512C77.2156 24.296 76.5916 22.792 76.5916 21C76.5916 19.24 77.2156 17.744 78.4636 16.512C79.7276 15.28 81.2396 14.664 82.9996 14.664C84.7916 14.664 86.3036 15.28 87.5356 16.512C88.7836 17.744 89.4076 19.24 89.4076 21C89.4076 22.792 88.7836 24.296 87.5356 25.512C86.3196 26.728 84.8076 27.336 82.9996 27.336ZM82.9996 23.496C83.7036 23.496 84.2796 23.264 84.7276 22.8C85.1916 22.336 85.4236 21.736 85.4236 21C85.4236 20.264 85.1916 19.664 84.7276 19.2C84.2796 18.736 83.7036 18.504 82.9996 18.504C82.3116 18.504 81.7356 18.744 81.2716 19.224C80.8236 19.688 80.5996 20.28 80.5996 21C80.5996 21.72 80.8236 22.32 81.2716 22.8C81.7356 23.264 82.3116 23.496 82.9996 23.496ZM98.5518 14.664C100.152 14.664 101.488 15.272 102.56 16.488C103.648 17.704 104.192 19.208 104.192 21C104.192 22.792 103.648 24.304 102.56 25.536C101.472 26.736 100.136 27.336 98.5518 27.336C97.0958 27.336 95.9598 26.856 95.1438 25.896V31.8H91.1598V15H95.1438V16.104C95.9598 15.144 97.0958 14.664 98.5518 14.664ZM95.8398 22.896C96.3038 23.376 96.9118 23.616 97.6638 23.616C98.4158 23.616 99.0238 23.376 99.4878 22.896C99.9518 22.4 100.184 21.768 100.184 21C100.184 20.232 99.9518 19.6 99.4878 19.104C99.0238 18.624 98.4158 18.384 97.6638 18.384C96.9118 18.384 96.3038 18.624 95.8398 19.104C95.3758 19.6 95.1438 20.232 95.1438 21C95.1438 21.768 95.3758 22.4 95.8398 22.896ZM117.757 22.464H109.477C109.877 23.44 110.773 23.928 112.165 23.928C113.013 23.928 113.741 23.648 114.349 23.088L117.229 25.104C116.061 26.592 114.341 27.336 112.069 27.336C110.037 27.336 108.405 26.744 107.173 25.56C105.957 24.36 105.349 22.848 105.349 21.024C105.349 19.216 105.949 17.704 107.149 16.488C108.349 15.272 109.877 14.664 111.733 14.664C113.525 14.664 115.005 15.264 116.173 16.464C117.341 17.648 117.925 19.152 117.925 20.976C117.925 21.536 117.869 22.032 117.757 22.464ZM109.429 19.704H114.037C113.733 18.584 112.981 18.024 111.781 18.024C110.549 18.024 109.765 18.584 109.429 19.704ZM123.62 15V17.232C123.844 16.464 124.284 15.864 124.94 15.432C125.612 14.984 126.372 14.76 127.22 14.76V19.176C126.308 19.032 125.476 19.2 124.724 19.68C123.988 20.16 123.62 20.944 123.62 22.032V27H119.636V15H123.62ZM133.256 10.2H145.856V14.352H141.704V27H137.408V14.352H133.256V10.2ZM150.011 15V17.232C150.235 16.464 150.675 15.864 151.331 15.432C152.003 14.984 152.763 14.76 153.611 14.76V19.176C152.699 19.032 151.867 19.2 151.115 19.68C150.379 20.16 150.011 20.944 150.011 22.032V27H146.027V15H150.011ZM163.288 16.104V15H167.272V27H163.288V25.896C162.472 26.856 161.336 27.336 159.88 27.336C158.264 27.336 156.92 26.736 155.848 25.536C154.776 24.32 154.24 22.808 154.24 21C154.24 19.176 154.776 17.672 155.848 16.488C156.92 15.272 158.264 14.664 159.88 14.664C161.336 14.664 162.472 15.144 163.288 16.104ZM158.944 22.896C159.392 23.376 160 23.616 160.768 23.616C161.536 23.616 162.144 23.376 162.592 22.896C163.056 22.4 163.288 21.768 163.288 21C163.288 20.232 163.056 19.6 162.592 19.104C162.144 18.624 161.536 18.384 160.768 18.384C160 18.384 159.392 18.624 158.944 19.104C158.48 19.6 158.248 20.232 158.248 21C158.248 21.768 158.48 22.4 158.944 22.896ZM178.03 16.104V10.2H182.014V27H178.03V25.896C177.214 26.856 176.078 27.336 174.622 27.336C173.006 27.336 171.662 26.736 170.59 25.536C169.518 24.32 168.982 22.808 168.982 21C168.982 19.176 169.518 17.672 170.59 16.488C171.662 15.272 173.006 14.664 174.622 14.664C176.078 14.664 177.214 15.144 178.03 16.104ZM173.686 22.896C174.134 23.376 174.742 23.616 175.51 23.616C176.278 23.616 176.886 23.376 177.334 22.896C177.798 22.4 178.03 21.768 178.03 21C178.03 20.232 177.798 19.6 177.334 19.104C176.886 18.624 176.278 18.384 175.51 18.384C174.742 18.384 174.134 18.624 173.686 19.104C173.222 19.6 172.99 20.232 172.99 21C172.99 21.768 173.222 22.4 173.686 22.896ZM196.132 22.464H187.852C188.252 23.44 189.148 23.928 190.54 23.928C191.388 23.928 192.116 23.648 192.724 23.088L195.604 25.104C194.436 26.592 192.716 27.336 190.444 27.336C188.412 27.336 186.78 26.744 185.548 25.56C184.332 24.36 183.724 22.848 183.724 21.024C183.724 19.216 184.324 17.704 185.524 16.488C186.724 15.272 188.252 14.664 190.108 14.664C191.9 14.664 193.38 15.264 194.548 16.464C195.716 17.648 196.3 19.152 196.3 20.976C196.3 21.536 196.244 22.032 196.132 22.464ZM187.804 19.704H192.412C192.108 18.584 191.356 18.024 190.156 18.024C188.924 18.024 188.14 18.584 187.804 19.704Z" fill="white"/>
</svg>
