<svg width="29" height="25" viewBox="0 0 29 25" fill="none" xmlns="http://www.w3.org/2000/svg">
<path d="M4.83333 0C3.55145 0 2.32208 0.509225 1.41565 1.41565C0.509225 2.32208 0 3.55145 0 4.83333V5.31908L14.5 13.1273L29 5.3215V4.83333C29 3.55145 28.4908 2.32208 27.5843 1.41565C26.6779 0.509225 25.4485 0 24.1667 0H4.83333Z" fill="white"/>
<path d="M29 8.0639L15.0728 15.5628C14.8967 15.6576 14.6999 15.7072 14.5 15.7072C14.3001 15.7072 14.1033 15.6576 13.9273 15.5628L0 8.0639V19.3328C0 20.6147 0.509225 21.8441 1.41565 22.7505C2.32208 23.6569 3.55145 24.1662 4.83333 24.1662H24.1667C25.4485 24.1662 26.6779 23.6569 27.5843 22.7505C28.4908 21.8441 29 20.6147 29 19.3328V8.0639Z" fill="white"/>
</svg>
