<svg width="148" height="125" viewBox="0 0 148 125" fill="none" xmlns="http://www.w3.org/2000/svg">
<path d="M134.708 11.9392L143.952 25.8306C150.959 36.3594 148.733 52.8288 135.921 71.0423C114.446 101.57 71.2457 125.614 39.6185 124.643C34.5724 124.95 29.5273 124.026 24.919 121.95C20.3107 119.875 16.2776 116.711 13.1682 112.731L3.92276 98.8392C7.03237 102.819 11.0656 105.983 15.6741 108.059C20.2826 110.134 25.3278 111.058 30.3739 110.75C62.0011 111.722 105.202 87.6776 126.676 57.1509C139.488 38.9373 141.714 22.4679 134.708 11.9392Z" fill="#37AB65"/>
<path d="M108.259 0.0284209C139.886 1.0001 148.146 26.6263 126.674 57.1513C105.2 87.6781 61.9994 111.723 30.3721 110.751C-1.25861 109.78 -9.52036 84.1556 11.9542 53.6289C33.4263 23.1047 76.6284 -0.942382 108.259 0.0284209Z" fill="#71FFA9"/>
<path d="M106.314 2.79551C76.2159 1.87123 35.2536 24.6693 14.8207 53.7171C-5.61295 82.7648 2.22509 107.056 32.3218 107.979C62.4141 108.904 103.372 86.1108 123.806 57.0631C144.239 28.0153 136.405 3.71892 106.314 2.79551Z" fill="#49D581"/>
<path d="M138.608 26.7498C138.619 26.3469 138.616 25.951 138.612 25.5551C138.61 25.4024 138.616 25.2471 138.613 25.0952L138.609 24.867V24.8117C138.59 24.1674 138.549 23.5319 138.485 22.9104L138.463 22.6954C138.444 22.4988 138.421 22.3022 138.393 22.1099L138.376 21.9686L138.362 21.8721C138.325 21.607 138.289 21.3463 138.243 21.0856L138.233 21.0399L138.215 20.9425C138.174 20.702 138.13 20.4627 138.081 20.2245L138.063 20.1306C138.023 19.919 137.976 19.7128 137.925 19.5056L137.867 19.2344L137.844 19.1431C137.78 18.878 137.711 18.6129 137.634 18.3522C137.565 18.1003 137.491 17.8537 137.409 17.607L137.354 17.4332L137.317 17.3235C137.254 17.1225 137.184 16.9259 137.116 16.7293L137.111 16.7249C137.07 16.6011 137.024 16.4826 136.974 16.3588L136.819 15.9524L136.713 15.6961C136.626 15.4855 136.535 15.2801 136.443 15.0791L136.315 14.8043C136.237 14.6261 136.155 14.4567 136.068 14.2838L135.948 14.0547L135.71 13.6018L135.587 13.3824L135.555 13.3192L135.426 13.1041L135.244 12.7881V12.7837L135.202 12.7196L135.061 12.4914L135.042 12.4589L134.914 12.2579L134.799 12.0841L134.708 11.9384L134.575 11.7418C134.227 11.2292 133.852 10.7315 133.458 10.247C133.197 9.9266 132.927 9.61149 132.647 9.30515C132.487 9.13135 132.327 8.96195 132.162 8.79254C131.887 8.50903 131.604 8.23079 131.31 7.95605C131.072 7.73661 130.829 7.52154 130.578 7.30736L130.129 6.93258C129.873 6.72191 129.608 6.51593 129.332 6.31463C127.69 5.10205 125.916 4.0777 124.045 3.2609C123.394 2.97299 122.721 2.70321 122.025 2.45159C121.333 2.20055 120.619 1.96764 119.882 1.75288C119.392 1.61068 118.893 1.47815 118.385 1.35C117.877 1.22711 117.36 1.10774 116.833 0.998018C116.307 0.888298 115.771 0.788218 115.225 0.696931C114.682 0.604766 114.128 0.522272 113.564 0.449417C112.722 0.339697 111.856 0.248407 110.972 0.175552C110.382 0.129909 109.782 0.0930361 109.177 0.0658255C108.871 0.0517814 108.564 0.0386151 108.257 0.0289597C107.974 0.0201821 107.694 0.0149324 107.41 0.0105436C105.021 -0.0267891 102.632 0.0663868 100.254 0.289666H100.249C98.5965 0.436252 96.9254 0.64195 95.2359 0.906741C94.5448 1.01207 93.8485 1.13057 93.1524 1.25872C91.7107 1.51503 90.2607 1.81377 88.8025 2.15492C88.1528 2.30151 87.4979 2.45687 86.8386 2.6254C86.6232 2.67631 86.4034 2.73511 86.1889 2.79041C85.6527 2.92734 85.1175 3.07394 84.5812 3.21964C84.0413 3.36623 83.5007 3.52159 82.9609 3.68222C82.466 3.82793 81.9675 3.9789 81.4726 4.12987L81.3354 4.17112H81.3258C80.8317 4.32649 80.3374 4.48652 79.8429 4.65125L79.7056 4.6925C79.1606 4.86542 78.6155 5.04888 78.0705 5.23585C77.6863 5.36839 77.3013 5.50095 76.9171 5.63876C76.409 5.81694 75.9009 5.99951 75.3972 6.19174C74.1014 6.66222 72.8102 7.16517 71.5142 7.69095C70.4241 8.13949 69.3344 8.60118 68.2449 9.07605C67.1504 9.55619 66.0612 10.0548 64.9711 10.5621C64.0691 10.9922 63.1672 11.4258 62.2698 11.8744C59.7247 13.1357 57.192 14.4892 54.6927 15.9244C54.0193 16.3088 53.3512 16.702 52.6822 17.0953C51.753 17.6483 50.8314 18.2121 49.9175 18.7867C49.07 19.3072 48.2322 19.8427 47.3944 20.3869C46.1488 21.2006 44.9139 22.0324 43.6899 22.8823C41.8676 24.1446 40.076 25.4492 38.3151 26.7963C37.3349 27.5459 36.3641 28.3064 35.4027 29.0776C34.9271 29.4612 34.4509 29.8497 33.9742 30.2433C32.5553 31.4133 31.1586 32.6159 29.7941 33.8359C26.6074 36.6843 23.5859 39.6564 20.7649 42.7277C20.3623 43.1665 19.964 43.6107 19.5702 44.054C16.8485 47.0962 14.3045 50.2924 11.9511 53.6268C9.80076 56.6625 7.85514 59.8376 6.12706 63.1312C5.40884 64.5076 4.75567 65.8669 4.16755 67.2093C4.02162 67.5472 3.87481 67.8808 3.73767 68.2152C3.45829 68.8823 3.19574 69.545 2.95 70.2033C2.70298 70.8617 2.46912 71.5156 2.25392 72.1599C2.03837 72.8138 1.83847 73.4587 1.65422 74.0944C-0.502056 80.5643 -0.551584 87.5498 1.5127 94.0495C1.7272 94.6437 1.96543 95.2283 2.22652 95.7953C2.40058 96.1754 2.58343 96.545 2.77596 96.911C2.96848 97.277 3.17417 97.6378 3.38515 97.9941C3.57257 98.3005 3.76493 98.6068 3.96624 98.9088L3.98908 98.936L4.05327 99.0369C4.15876 99.1923 4.26424 99.3477 4.37852 99.4986C4.59829 99.805 4.82688 100.102 5.06511 100.399L5.30774 100.701L5.41763 100.834C5.57323 101.016 5.72882 101.199 5.89409 101.378L5.94419 101.432C6.09557 101.602 6.251 101.77 6.411 101.935L6.44792 101.972L6.68176 102.205L6.8604 102.383L7.08897 102.602C7.26725 102.776 7.45099 102.941 7.63402 103.105C7.8035 103.261 7.98196 103.412 8.16041 103.563L8.34764 103.722C8.53137 103.873 8.71863 104.024 8.91116 104.171C9.06693 104.289 9.21797 104.409 9.37796 104.523C9.5107 104.623 9.64871 104.724 9.78585 104.82C10.2713 105.163 10.7748 105.492 11.2917 105.803L11.5071 105.935L11.9194 106.173L12.1392 106.297L12.2492 106.356C12.3396 106.412 12.4329 106.464 12.5286 106.511C12.7844 106.653 13.0455 106.79 13.311 106.918L13.3207 106.923C13.5264 107.024 13.7321 107.129 13.9431 107.225L14.3 107.389C14.5242 107.49 14.7536 107.591 14.9822 107.686L15.2433 107.8C15.4404 107.883 15.6371 107.96 15.8384 108.038C16.1452 108.157 16.4564 108.276 16.7729 108.386C17.0612 108.491 17.3496 108.587 17.6476 108.683C17.9535 108.784 18.2656 108.885 18.5812 108.976C19.1218 109.136 19.676 109.286 20.2436 109.428L20.3438 109.451C20.5137 109.496 20.6831 109.538 20.8519 109.574L21.1457 109.639C21.36 109.689 21.5798 109.734 21.7952 109.78C22.4228 109.912 23.0593 110.027 23.709 110.132C23.9613 110.173 24.2171 110.21 24.4738 110.247C24.6434 110.274 24.8122 110.297 24.9819 110.315C25.6228 110.407 26.2733 110.479 26.937 110.539C27.2579 110.571 27.5779 110.594 27.9031 110.622L28.1414 110.64C28.4851 110.663 28.8323 110.68 29.1848 110.699L29.4556 110.713C29.7624 110.727 30.0692 110.74 30.3752 110.75C34.565 110.856 38.7559 110.588 42.8979 109.949C43.9422 109.794 44.9857 109.616 46.0433 109.419C47.1008 109.222 48.1637 109.007 49.23 108.765C50.2972 108.527 51.3671 108.268 52.4396 107.988C55.1323 107.293 57.8413 106.478 60.5668 105.542C61.6569 105.167 62.7461 104.779 63.8362 104.368C67.6593 102.937 71.4869 101.286 75.2873 99.4345C77.4525 98.383 79.6133 97.263 81.7522 96.0832C82.2875 95.7907 82.8232 95.4922 83.3593 95.188C84.4211 94.5841 85.4786 93.9652 86.5318 93.3315C87.0628 93.0207 87.5893 92.696 88.1115 92.3712C89.1606 91.7269 90.2014 91.0671 91.2341 90.3918H91.2384C92.2688 89.7195 93.2929 89.0322 94.3109 88.33H94.3153C96.3487 86.9309 98.3539 85.4817 100.313 83.9825H100.318C101.294 83.2372 102.264 82.4788 103.221 81.7011C103.702 81.3219 104.182 80.9287 104.654 80.5355C106.073 79.3651 107.467 78.1673 108.834 76.9419H108.839C115.513 71.0383 121.498 64.3994 126.677 57.1519C128.826 54.1159 130.772 50.9408 132.501 47.6475C133.22 46.2712 133.873 44.9118 134.46 43.5694C134.607 43.2306 134.754 42.8971 134.891 42.5635C135.449 41.2285 135.944 39.9133 136.375 38.618C136.589 37.9641 136.791 37.3198 136.974 36.6843C137.427 35.1296 137.795 33.5517 138.078 31.9575C138.374 30.2604 138.55 28.5445 138.604 26.8226L138.608 26.7498ZM123.806 57.065C103.372 86.1128 62.4164 108.902 32.3215 107.979C2.2265 107.055 -5.61237 82.7667 14.8222 53.7181C30.6911 32.4988 52.5418 16.4917 77.5764 7.74624C86.4645 4.5352 95.8339 2.85324 105.286 2.77196C105.629 2.77635 105.973 2.78602 106.316 2.7948C110.591 2.62269 114.856 3.32011 118.853 4.84472C122.85 6.36933 126.495 8.6893 129.566 11.6637C131.867 14.3585 133.54 17.5294 134.464 20.9478C135.389 24.3663 135.542 27.947 134.914 31.4318C133.318 40.7401 129.509 49.5305 123.806 57.065Z" fill="#71FFA9"/>
<path d="M103.209 7.20611L102.742 7.19208L101.029 9.6656L101.469 9.67528C101.876 9.68844 102.279 9.70657 102.678 9.72969L104.482 7.26142C104.06 7.2386 103.638 7.22015 103.209 7.20611ZM106.455 7.41153L104.55 9.87189C104.994 9.91754 105.425 9.96755 105.855 10.022L107.828 7.56777C107.376 7.51247 106.917 7.45805 106.455 7.41153ZM109.692 7.86005L107.623 10.2967C108.149 10.3924 108.662 10.4933 109.17 10.6074L111.322 8.18923C110.786 8.06546 110.246 7.95572 109.692 7.86005ZM91.5421 8.0198L90.3977 10.4477C91.0482 10.3467 91.703 10.2511 92.3483 10.1642L93.5983 7.71784C92.9162 7.81001 92.2287 7.91008 91.5421 8.0198ZM88.6763 8.53682L87.6829 10.9366C88.3466 10.8041 89.0103 10.6803 89.674 10.5706L90.7729 8.14798C90.0776 8.26647 89.3813 8.39463 88.6763 8.53682ZM84.2852 9.53307L83.5801 11.7046L83.5204 11.8828L83.7683 11.8231C84.3309 11.6774 84.8946 11.5449 85.4526 11.4167L86.3275 9.03975C85.6495 9.19512 84.9688 9.35957 84.2852 9.53307ZM118.158 10.589L115.649 12.8843C116.02 13.0713 116.381 13.2679 116.733 13.4689L119.298 11.2017C118.927 10.9919 118.547 10.7856 118.158 10.589ZM81.4053 10.3195L81.0255 10.4293L80.4259 12.7378C81.1354 12.528 81.8404 12.3261 82.5454 12.1391L82.825 11.2289L83.2594 9.80255C82.6465 9.96757 82.0233 10.137 81.4053 10.3195ZM119.879 11.5493L117.287 13.7981C117.654 14.0228 118.006 14.251 118.35 14.4889L121.001 12.2805C120.639 12.0294 120.264 11.7828 119.879 11.5493ZM122.223 13.1995L119.508 15.3623C119.847 15.6361 120.177 15.9196 120.488 16.2076L123.258 14.0913C122.924 13.7852 122.579 13.4879 122.223 13.1995ZM70.6548 14.1097L70.5906 16.226C71.2912 15.9337 71.9963 15.6546 72.7015 15.3807L72.8798 13.2179C72.1389 13.5058 71.3972 13.8031 70.6548 14.1097ZM68.1918 15.1613C67.4865 15.472 66.7829 15.7918 66.0809 16.1207L66.2505 18.1325C66.9142 17.8217 67.5812 17.5201 68.2513 17.2275L68.1918 15.1613ZM126.412 17.8534L123.482 19.7783C123.716 20.139 123.936 20.5139 124.142 20.8939L127.104 19.0287C126.889 18.6258 126.656 18.2378 126.412 17.8534ZM65.0321 16.6149C64.3684 16.93 63.7047 17.2503 63.0409 17.5839L63.3655 19.522C63.993 19.2069 64.6198 18.9005 65.2519 18.5986L65.0321 16.6149ZM127.397 19.586L124.417 21.4241C124.6 21.7804 124.765 22.1465 124.925 22.5169L127.928 20.7386C127.764 20.3497 127.585 19.9652 127.397 19.586ZM128.46 22.1368L125.429 23.8423C125.566 24.2496 125.69 24.6657 125.804 25.0861L128.858 23.4447C128.738 23.0014 128.606 22.5669 128.46 22.1368ZM128.981 23.9433L125.923 25.5566C126.024 25.9823 126.115 26.4159 126.193 26.8548L129.265 25.3099C129.188 24.8482 129.091 24.3909 128.981 23.9433ZM52.8076 23.2893C52.0936 23.7326 51.3789 24.1802 50.6738 24.6376L51.6259 26.2193C52.2993 25.7857 52.9738 25.3591 53.6496 24.9395L52.8076 23.2893ZM48.3477 26.1781C47.7983 26.5485 47.2489 26.9232 46.7091 27.3077L47.8625 28.7481C48.3802 28.3865 48.8972 28.0301 49.4193 27.6781L48.3477 26.1781ZM44.4375 28.9263C43.7968 29.3968 43.1607 29.8722 42.529 30.3527L43.9023 31.6368C44.5017 31.1795 45.1021 30.7319 45.7105 30.2886L44.4375 28.9263ZM126.431 33.4248C126.389 33.8953 126.335 34.3667 126.271 34.8415L129.352 33.7312C129.421 33.2282 129.476 32.7296 129.522 32.2355L126.431 33.4248ZM125.997 36.5242C125.923 36.9306 125.836 37.3379 125.744 37.7496L128.794 36.7937C128.894 36.3592 128.981 35.93 129.064 35.5043L125.997 36.5242ZM125.309 39.4866C125.163 40.0124 125.002 40.5426 124.833 41.0772L127.837 40.3047C128.015 39.7377 128.18 39.1803 128.336 38.6273L125.309 39.4866ZM33.6097 37.818C33.0093 38.371 32.4194 38.924 31.833 39.4866L33.7556 40.3003C34.3147 39.7702 34.873 39.24 35.4408 38.7186L33.6097 37.818ZM31.1966 40.1037C30.6199 40.6707 30.0505 41.2393 29.4885 41.8092L31.535 42.5035C32.0669 41.9593 32.6067 41.4247 33.1517 40.8902L31.1966 40.1037ZM27.6714 43.7104C27.1633 44.2546 26.664 44.7989 26.169 45.3518L28.3852 45.8636C28.8522 45.3431 29.3285 44.8217 29.8093 44.3047L27.6714 43.7104ZM121.601 48.7716C121.344 49.2702 121.079 49.7678 120.799 50.2708L123.584 49.9969C123.876 49.4659 124.156 48.941 124.426 48.4152L121.601 48.7716ZM25.4367 46.1839C24.9145 46.7782 24.4017 47.3771 23.8983 47.9807L26.2288 48.3599C26.7097 47.7841 27.1949 47.2171 27.689 46.65L25.4367 46.1839ZM120.355 51.0661C120.053 51.5971 119.739 52.1305 119.412 52.6662L122.122 52.5205C122.462 51.9579 122.796 51.3952 123.111 50.8378L120.355 51.0661ZM118.24 54.5315C117.874 55.0941 117.498 55.6567 117.109 56.2229L119.692 56.2685C120.099 55.6699 120.502 55.0757 120.882 54.4858L118.24 54.5315ZM18.9305 54.513C18.5182 55.1082 18.12 55.7009 17.7359 56.2914L20.3819 56.251C20.7485 55.6883 21.1239 55.1257 21.5133 54.5595L18.9305 54.513ZM16.499 58.2619C16.1561 58.8246 15.8265 59.382 15.51 59.9446L18.2668 59.7111C18.5692 59.1809 18.8848 58.6508 19.2101 58.1162L16.499 58.2619ZM112.389 62.4225C111.913 62.994 111.427 63.5654 110.932 64.1271L113.185 64.5985C113.707 63.9999 114.22 63.3995 114.724 62.7973L112.389 62.4225ZM15.0388 60.7767C14.7504 61.3069 14.4665 61.8371 14.1966 62.3584L17.0212 62.0065C17.2779 61.5079 17.5433 61.0093 17.8229 60.5073L15.0388 60.7767ZM110.237 64.9136C109.769 65.4394 109.294 65.9564 108.813 66.4725L110.951 67.072C111.459 66.5278 111.959 65.9792 112.452 65.4262L110.237 64.9136ZM107.086 68.2737C106.555 68.8179 106.018 69.3545 105.475 69.8835L107.43 70.67C108.007 70.1073 108.57 69.5403 109.128 68.9733L107.086 68.2737ZM104.866 70.4777C104.312 71.0079 103.748 71.538 103.181 72.0594L105.017 72.96C105.612 72.4114 106.207 71.8488 106.789 71.2914L104.866 70.4777ZM10.7901 70.4733C10.6064 71.0351 10.4376 71.5978 10.2864 72.1551L13.3122 71.2958C13.4592 70.7656 13.619 70.2355 13.7887 69.7L10.7901 70.4733ZM9.82857 73.9844C9.7273 74.418 9.64027 74.8481 9.55851 75.2729L12.6257 74.2538C12.6995 73.8466 12.7865 73.4402 12.878 73.0285L9.82857 73.9844ZM9.27015 77.0513C9.2007 77.5499 9.14621 78.0484 9.10489 78.5417L12.1905 77.3532C12.2318 76.8871 12.2828 76.4114 12.3516 75.9356L9.27015 77.0513ZM94.7244 79.1403C94.1251 79.5977 93.5209 80.0474 92.9119 80.4895L94.1838 81.8474C94.8256 81.3813 95.462 80.9073 96.0932 80.4254L94.7244 79.1403ZM90.7641 82.0299C90.2463 82.3916 89.7259 82.7482 89.2029 83.0999L90.2746 84.6035C90.8239 84.2287 91.3735 83.8495 91.9175 83.4704L90.7641 82.0299ZM86.9956 84.5623C86.3275 84.9924 85.6495 85.4225 84.9718 85.8429L85.8192 87.4843C86.533 87.0455 87.2428 86.5972 87.9484 86.1396L86.9956 84.5623ZM12.4288 83.9276L9.35717 85.4681C9.43893 85.9298 9.53035 86.3871 9.64024 86.8348L12.6995 85.2258C12.5984 84.8001 12.507 84.3665 12.4288 83.9276ZM12.8182 85.6919L9.76861 87.3334C9.88289 87.7766 10.0165 88.2111 10.1626 88.6403L13.1936 86.9357C13.0564 86.5285 12.9325 86.1124 12.8182 85.6919ZM13.6973 88.2612L10.6934 90.0351C10.8587 90.4283 11.0371 90.8119 11.2253 91.1867L14.201 89.354C14.0226 88.9976 13.8529 88.6316 13.6973 88.2612ZM75.256 91.2604C74.6289 91.5712 74.0018 91.8772 73.3747 92.1786L73.5945 94.1632C74.2582 93.8481 74.919 93.5266 75.5769 93.1986L75.256 91.2604ZM14.4806 89.8841L11.518 91.7494C11.7334 92.147 11.9663 92.5402 12.209 92.9238L15.1399 90.9998C14.906 90.6381 14.6863 90.2633 14.4806 89.8841ZM72.3717 92.65C71.7081 92.9563 71.0412 93.258 70.3708 93.5549L70.4306 95.6168C71.1356 95.3061 71.8407 94.9857 72.5413 94.6618L72.3717 92.65ZM65.9209 95.4017L65.7415 97.5601C66.4835 97.2722 67.2255 96.975 67.9674 96.6683L68.036 94.552C67.331 94.8443 66.626 95.1276 65.9209 95.4017ZM18.1341 94.5696L15.3685 96.6868C15.6981 96.9931 16.0415 97.2901 16.3988 97.5777L19.109 95.4158C18.775 95.141 18.4453 94.8628 18.1341 94.5696ZM20.2722 96.2892L17.6207 98.4967C17.9829 98.7486 18.3583 98.9953 18.7433 99.2288L21.334 96.9834C20.9727 96.7596 20.6158 96.527 20.2722 96.2892ZM56.0768 98.6389L55.362 100.979C56.1084 100.778 56.8548 100.568 57.6011 100.349L58.2006 98.0447C57.4868 98.2545 56.7862 98.4511 56.0768 98.6389ZM21.8887 97.3082L19.3244 99.5755C19.6953 99.7861 20.0751 99.9915 20.4646 100.188L22.9735 97.8937C22.6025 97.7059 22.2414 97.5092 21.8887 97.3082ZM53.174 99.3657L52.2993 101.743C52.977 101.583 53.6548 101.423 54.3372 101.245L55.101 98.8943C54.4557 99.0594 53.8148 99.2147 53.174 99.3657ZM48.9525 100.211L47.8494 102.634C48.5402 102.515 49.2453 102.388 49.9459 102.246L50.9393 99.8414C50.2758 99.974 49.6119 100.097 48.9525 100.211ZM46.2739 100.614L45.0239 103.059C45.706 102.972 46.393 102.874 47.0847 102.763L48.2247 100.33C47.5741 100.436 46.9192 100.531 46.2739 100.614ZM29.4524 100.171L27.3004 102.593C27.8314 102.712 28.3764 102.821 28.9303 102.922L30.9997 100.481C30.4731 100.39 29.9562 100.285 29.4524 100.171ZM32.7666 100.755L30.794 103.21C31.2467 103.27 31.7005 103.32 32.1671 103.366L34.0677 100.906C33.6281 100.861 33.193 100.815 32.7666 100.755ZM37.1577 101.103C36.7465 101.089 36.3428 101.076 35.9446 101.053L34.1407 103.521C34.5618 103.544 34.9875 103.562 35.418 103.576L35.8804 103.585L37.5929 101.117L37.1577 101.103Z" fill="#71FFA9"/>
<path d="M118.953 27.6371C117.249 23.5303 114.265 20.0815 110.443 17.8028C106.621 15.524 102.164 14.5368 97.7357 14.9877C95.1042 14.9177 92.4711 15.0536 89.8608 15.3941C64.8775 19.885 42.5549 33.7325 27.4547 54.1068C11.7822 76.38 17.8075 95.0825 40.8969 95.7908C63.9776 96.4992 95.5011 78.9536 111.174 56.676C114.597 52.7452 117.077 48.0864 118.425 43.0543C119.773 38.0222 119.953 32.7494 118.953 27.6371ZM110.052 56.6392C94.8057 78.3181 64.12 95.3976 41.6617 94.7076C19.1947 94.0168 13.325 75.8174 28.5711 54.1384C43.6641 33.6922 66.2674 20.0632 91.4168 16.2446C93.2633 16.08 95.1178 16.0234 96.9709 16.0752C101.042 15.7141 105.129 16.5659 108.715 18.5228C112.302 20.4797 115.227 23.454 117.122 27.07C120.308 34.5222 118.179 45.087 110.052 56.6392Z" fill="#71FFA9"/>
<path d="M119.783 56.9401L119.236 56.9226L116.676 56.8445L113.976 56.7611C112.707 58.5192 111.394 60.2809 109.922 62.0224L112.393 62.4217L114.725 62.7983L115.211 62.8764C116.868 60.912 118.354 58.9265 119.783 56.9401Z" fill="#71FFA9"/>
<path d="M108.551 63.6347L107.892 64.372L110.239 64.9162L112.454 65.4253L112.92 65.5306L113.667 64.6968L113.184 64.6002L110.933 64.1262L108.551 63.6347Z" fill="#71FFA9"/>
<path d="M106.556 65.8468L104.938 67.5408L107.092 68.2781L109.131 68.9715L109.571 69.1207L111.408 67.1985L110.951 67.0668L108.815 66.47L106.556 65.8468Z" fill="#71FFA9"/>
<path d="M91.5764 79.0657L89.5457 80.514L90.7676 82.0237L91.9192 83.4721L92.1742 83.788L94.4686 82.1466L94.1873 81.8482L92.9126 80.4877L91.5764 79.0657Z" fill="#71FFA9"/>
<path d="M88.0784 81.5236L87.0411 82.2258L85.9949 82.9017L86.9971 84.5607L87.9465 86.1407L88.1575 86.483L89.3443 85.7193L90.5047 84.9293L90.2762 84.6045L89.2037 83.1036L88.0784 81.5236Z" fill="#71FFA9"/>
<path d="M103.415 69.0602C103.219 69.2481 103.04 69.4359 102.843 69.6176L104.868 70.4761L106.79 71.2906L107.207 71.467C107.426 71.2599 107.633 71.0475 107.851 70.8359L107.433 70.6683L105.477 69.8853L103.415 69.0602Z" fill="#71FFA9"/>
<path d="M73.1406 90.0815L72.2 90.538L72.3758 92.6446L72.5429 94.6634L72.578 95.1023L73.6417 94.5932L73.5978 94.1631L73.3692 92.1794L73.1406 90.0815Z" fill="#71FFA9"/>
<path d="M70.3105 91.3808L69.2116 91.8723L68.1039 92.32L68.0336 94.5495L67.9721 96.6649L67.9545 97.1301L69.2028 96.6122L70.4423 96.0592L70.4335 95.6204L70.372 93.5576L70.3105 91.3808Z" fill="#71FFA9"/>
<path d="M66.1075 93.1277L65.3778 93.3999L64.8768 98.3417L65.7031 98.0345L65.7383 97.5605L65.9229 95.4012L66.1075 93.1277Z" fill="#71FFA9"/>
<path d="M101.254 71.1116C98.739 73.4271 96.071 75.661 93.2798 77.7843L94.7244 79.1405L96.0938 80.4272L96.3892 80.7046C99.5452 78.3022 102.563 75.7734 105.409 73.1533L105.017 72.9601L103.185 72.0604L101.254 71.1116Z" fill="#71FFA9"/>
<path d="M84.0853 84.1139C81.092 85.9765 78.0186 87.6837 74.9174 89.2224L75.2565 91.2606L75.5791 93.1978L75.6503 93.6226C79.1527 91.882 82.6198 89.9527 86.0044 87.8479L85.8188 87.4862L84.9732 85.8404L84.0853 84.1139Z" fill="#71FFA9"/>
<path d="M65.3798 93.4043C63.1812 94.2575 60.9975 94.9544 58.8305 95.6206L58.2011 98.0433L57.6024 100.348L57.4714 100.852C59.9179 100.102 62.3919 99.3081 64.8769 98.3461L65.3798 93.4043Z" fill="#71FFA9"/>
<path d="M56.8301 96.1751C56.5242 96.2576 56.2165 96.3498 55.9114 96.4165L55.1027 98.8953L54.3372 101.247L54.1717 101.753C54.5101 101.678 54.8592 101.572 55.2117 101.475L55.3629 100.978L56.0767 98.6407L56.8301 96.1751Z" fill="#71FFA9"/>
<path d="M54.0962 96.8546C53.3833 97.0362 52.6985 97.1477 51.9961 97.2996L50.9421 99.8424L49.9469 102.246L49.7368 102.752C50.5307 102.584 51.3104 102.449 52.1139 102.245L52.2996 101.741L53.1732 99.3641L54.0962 96.8546Z" fill="#71FFA9"/>
<path d="M36.0876 98.2967L34.0698 100.906L32.1668 103.368L31.7693 103.881C32.411 103.966 33.0941 103.993 33.7701 104.028L34.1411 103.52L35.9432 101.051L37.8545 98.4328C37.2601 98.3994 36.6544 98.3757 36.0876 98.2967Z" fill="#71FFA9"/>
<path d="M33.1945 97.8975L31.0011 100.483L28.9335 102.921L28.502 103.429C29.1278 103.53 29.7352 103.656 30.3822 103.726L30.7972 103.21L32.7681 100.757L34.8551 98.1625C34.2819 98.0993 33.7503 97.9861 33.1945 97.8975Z" fill="#71FFA9"/>
<path d="M50.1275 97.6393L49.433 97.7621L48.2286 100.334L47.0858 102.757L46.8484 103.266L47.6221 103.143L47.8506 102.634L48.9495 100.211L50.1275 97.6393Z" fill="#71FFA9"/>
<path d="M24.0606 94.6199L21.3354 96.981L18.7421 99.2281L18.1795 99.7197L18.7773 100.053L19.3223 99.5792L21.8893 97.3058L24.5969 94.9183L24.0606 94.6199Z" fill="#71FFA9"/>
<path d="M21.9791 93.1353L19.1143 95.4166L16.3985 97.5777L15.8177 98.0412C16.2113 98.3759 16.6252 98.6861 17.0572 98.9698L17.624 98.4976L20.2754 96.2883L23.0727 93.9578C22.6905 93.7078 22.3251 93.4331 21.9791 93.1353Z" fill="#71FFA9"/>
<path d="M20.7309 92.0306L17.7948 94.2425L15.008 96.3404L14.4015 96.7968L14.7707 97.1391L15.3685 96.6827L18.1376 94.5673L21.0474 92.3466L20.7309 92.0306Z" fill="#71FFA9"/>
<path d="M47.5969 98.0246C44.8853 98.3953 42.1488 98.5529 39.4125 98.4959L37.5945 101.115L35.8794 103.587L35.5207 104.103C38.6096 104.164 41.6985 103.986 44.76 103.572L45.022 103.06L46.2721 100.615L47.5969 98.0246Z" fill="#71FFA9"/>
<path d="M25.611 95.4766L22.9737 97.8931L20.4683 100.19L19.9259 100.687C22.1279 101.769 24.4539 102.579 26.8523 103.098L27.3033 102.591L29.4553 100.17L31.7357 97.6034C29.6142 97.149 27.5571 96.4346 25.611 95.4766Z" fill="#71FFA9"/>
<path d="M18.2117 88.9827L15.1403 90.9998L12.2119 92.9221L11.5684 93.3443C12.3781 94.5994 13.3294 95.7578 14.4035 96.7965L15.0065 96.3427L17.7924 94.244L20.7285 92.0329C19.7769 91.1144 18.9326 90.0911 18.2117 88.9827Z" fill="#71FFA9"/>
<path d="M17.3352 87.4239L14.203 89.3541L11.2255 91.1895L10.5769 91.5888C10.6601 91.7851 10.7573 91.9752 10.8677 92.1576L11.5182 91.7486L14.4816 89.886L17.591 87.9304C17.4966 87.7663 17.4112 87.5972 17.3352 87.4239Z" fill="#71FFA9"/>
<path d="M16.3787 85.1485L13.1964 86.9392L10.1635 88.642L9.49536 89.0194L10.0228 90.4326L10.6909 90.0376L13.6974 88.2646L16.8446 86.4037L16.3787 85.1485Z" fill="#71FFA9"/>
<path d="M15.8509 73.1762L12.6246 74.2559L9.55657 75.274L8.89725 75.4935L8.58957 77.2928L9.27526 77.0471L12.3521 75.9323L15.5784 74.7649L15.8509 73.1762Z" fill="#71FFA9"/>
<path d="M16.5039 70.3876L13.3145 71.2943L10.2878 72.1545L9.63551 72.3406C9.43947 72.9708 9.32254 73.5721 9.1731 74.1891L9.8289 73.9837L12.8785 73.0305L16.0969 72.0246C16.227 71.4786 16.3272 70.9476 16.5039 70.3876Z" fill="#71FFA9"/>
<path d="M15.9121 83.5337L12.7034 85.2278L9.64413 86.834L8.96722 87.1939L9.09909 87.6942L9.76721 87.3343L12.8177 85.6929L16.0352 83.9726L15.9121 83.5337Z" fill="#71FFA9"/>
<path d="M21.1869 59.4655L18.2683 59.7113L15.5079 59.9395L14.9365 59.9922L14.453 60.8348L15.042 60.7822L17.8199 60.5013L20.7649 60.2204L21.1869 59.4655Z" fill="#71FFA9"/>
<path d="M23.1736 56.2002L20.3781 56.2528L17.7408 56.2967L17.1694 56.3055L15.9298 58.2892L16.5012 58.2629L19.2089 58.1137L22.0747 57.9644L23.1736 56.2002Z" fill="#71FFA9"/>
<path d="M24.6522 54.0234L21.9534 53.9356L19.3864 53.8566L18.8414 53.839L18.393 54.5061L18.9293 54.5149L21.5138 54.5588L24.2478 54.6027L24.6522 54.0234Z" fill="#71FFA9"/>
<path d="M15.4388 76.1018L12.1921 77.3517L9.10475 78.5411L8.43667 78.7983C8.21343 81.1346 8.29734 83.4901 8.68631 85.8047L9.35794 85.4685L12.4304 83.9262L15.6646 82.3032C15.3213 80.2545 15.2454 78.17 15.4388 76.1018Z" fill="#71FFA9"/>
<path d="M20.0135 61.6282L17.0237 62.0047L14.1983 62.3602L13.6084 62.4348C12.2283 65.0707 11.0666 67.8149 10.1351 70.6401L10.79 70.4716L13.7904 69.7L16.9411 68.889C17.768 66.3901 18.7954 63.962 20.0135 61.6282Z" fill="#71FFA9"/>
<path d="M23.4116 47.9036C21.7553 49.8681 20.2697 51.8535 18.8402 53.8408L19.3871 53.8575L21.9479 53.9356L24.6476 54.019C25.9196 52.2556 27.2321 50.4948 28.7019 48.7577L26.2308 48.3583L23.8986 47.9817L23.4116 47.9036Z" fill="#71FFA9"/>
<path d="M25.7045 45.2459L24.9573 46.0797L25.432 46.1851L27.6913 46.6503L30.0648 47.1418L30.733 46.4045L28.3858 45.8691L26.1704 45.3512L25.7045 45.2459Z" fill="#71FFA9"/>
<path d="M29.0558 41.6558L27.2185 43.5781L27.6756 43.7097L29.8118 44.3066L32.0623 44.9386L33.6886 43.2358L31.5348 42.5072L29.4953 41.805L29.0558 41.6558Z" fill="#71FFA9"/>
<path d="M46.4514 26.9883L44.157 28.6297L44.4383 28.9281L45.713 30.2886L47.0492 31.7106L49.0799 30.2623L47.8668 28.7438L46.7064 27.3042L46.4514 26.9883Z" fill="#71FFA9"/>
<path d="M50.4703 24.2935L49.2836 25.0571L48.1143 25.8559L48.3517 26.1807L49.4242 27.6817L50.5494 29.2528L51.578 28.5594L52.6329 27.8835L51.6307 26.2158L50.6725 24.6446L50.4703 24.2935Z" fill="#71FFA9"/>
<path d="M31.4174 39.313C31.1985 39.5202 30.991 39.7317 30.7818 39.9398L31.1968 40.1056L33.1527 40.8895L35.2125 41.7146C35.405 41.532 35.5843 41.3442 35.7848 41.1572L33.7593 40.3014L31.8341 39.4886L31.4174 39.313Z" fill="#71FFA9"/>
<path d="M66.0474 15.683L64.9837 16.1833L65.0276 16.6134L65.2562 18.5972L65.4848 20.695L66.4254 20.2474L66.2496 18.132L66.0825 16.1219L66.0474 15.683Z" fill="#71FFA9"/>
<path d="M70.6698 13.6552L69.4215 14.1643L68.182 14.7173L68.1908 15.165L68.2523 17.2277L68.3138 19.3958L69.4127 18.9042L70.5204 18.4565L70.5907 16.2271L70.6522 14.1117L70.6698 13.6552Z" fill="#71FFA9"/>
<path d="M73.7482 12.4349L72.9218 12.7421L72.8867 13.2161L72.7021 15.3754L72.5175 17.6487L73.2471 17.3766L73.4757 15.0857L73.6955 12.9001L73.7482 12.4349Z" fill="#71FFA9"/>
<path d="M42.2355 30.0752C39.0796 32.4776 36.0616 35.0065 33.2195 37.6222L33.6116 37.8153L35.4419 38.7176L37.3706 39.6683C39.8848 37.3528 42.5537 35.1188 45.3484 32.9911L43.9031 31.6376L42.5309 30.3517L42.2355 30.0752Z" fill="#71FFA9"/>
<path d="M62.9729 17.1574C59.4705 18.8971 56.0034 20.8273 52.6215 22.9269L52.8079 23.2903L53.6529 24.9379L54.5379 26.6662C57.5304 24.8036 60.6037 23.0964 63.706 21.5576L63.3669 19.5203L63.0432 17.5814L62.9729 17.1574Z" fill="#71FFA9"/>
<path d="M81.1599 9.92807C78.7083 10.6768 76.2431 11.4668 73.7491 12.4341L73.7008 12.9037L73.4792 15.0814L73.2463 17.3758C75.4484 16.5174 77.6277 15.8257 79.7947 15.1595L80.4267 12.736L81.0291 10.4302L81.1599 9.92807Z" fill="#71FFA9"/>
<path d="M84.4514 9.02692C84.113 9.1024 83.764 9.20862 83.415 9.29991L83.262 9.80197L82.5464 12.1394L81.7932 14.6051C82.099 14.5226 82.4093 14.4251 82.7152 14.3584L83.5204 11.8849L84.2861 9.53426L84.4514 9.02692Z" fill="#71FFA9"/>
<path d="M88.8877 8.02777C88.0939 8.1963 87.3135 8.33061 86.5142 8.52987L86.3269 9.03896L85.4522 11.416L84.5318 13.9202C85.2412 13.7438 85.9296 13.6271 86.632 13.4761L87.6827 10.9376L88.6776 8.53425L88.8877 8.02777Z" fill="#71FFA9"/>
<path d="M104.858 6.74622L104.483 7.25973L102.681 9.72888L100.77 12.3472C101.363 12.3806 101.969 12.4043 102.539 12.478L104.554 9.87283L106.458 7.41245L106.854 6.89894C106.213 6.81379 105.53 6.78747 104.858 6.74622Z" fill="#71FFA9"/>
<path d="M108.244 7.05438L107.83 7.56963L105.857 10.023L103.774 12.6124C104.348 12.6755 104.876 12.7941 105.435 12.8774L107.624 10.2968L109.693 7.85843L110.123 7.35108C109.498 7.25014 108.89 7.1246 108.244 7.05438Z" fill="#71FFA9"/>
<path d="M91.7773 7.51071L91.0037 7.64237L90.7752 8.14269L89.6763 10.5653L88.5071 13.1284L89.184 13.0231L90.3971 10.4512L91.54 8.0198L91.7773 7.51071Z" fill="#71FFA9"/>
<path d="M119.84 10.7236L119.304 11.2063L116.737 13.471L114.029 15.8585L114.565 16.1569L117.291 13.7957L119.884 11.5487L120.447 11.0659L119.84 10.7236Z" fill="#71FFA9"/>
<path d="M121.572 11.8049L121.002 12.2798L118.351 14.49L115.553 16.8221C115.935 17.0723 116.301 17.347 116.647 17.6446L119.512 15.3625L122.227 13.1996L122.812 12.7336C122.408 12.4158 122.016 12.0884 121.572 11.8049Z" fill="#71FFA9"/>
<path d="M123.856 13.6375L123.258 14.094L120.489 16.2094L117.58 18.439L117.896 18.7462L124.217 13.9799L123.856 13.6375Z" fill="#71FFA9"/>
<path d="M103.106 6.67257C100.016 6.6105 96.9259 6.78953 93.8639 7.20801L93.6018 7.72062L92.3509 10.166L91.0261 12.7554C93.741 12.3854 96.4805 12.2263 99.2201 12.2797L101.032 9.66485L102.745 7.19308L103.106 6.67257Z" fill="#71FFA9"/>
<path d="M111.77 7.68222L111.321 8.18866L109.168 10.6095L106.891 13.1717C109.012 13.6278 111.067 14.3439 113.012 15.3038L115.65 12.8864L118.156 10.5894L118.698 10.0934C116.498 9.00605 114.171 8.19609 111.77 7.68222Z" fill="#71FFA9"/>
<path d="M124.223 13.9836L117.897 18.7472C118.851 19.6633 119.695 20.6866 120.414 21.7965L123.486 19.7785L126.415 17.8545L127.061 17.4306C126.248 16.1786 125.296 15.0223 124.223 13.9836Z" fill="#71FFA9"/>
<path d="M127.761 18.6172L127.108 19.028L124.144 20.8933L121.034 22.8489C121.135 23.0052 121.204 23.1851 121.293 23.351L124.422 21.4235L127.401 19.5872L128.052 19.186C127.966 18.9911 127.869 18.8012 127.761 18.6172Z" fill="#71FFA9"/>
<path d="M128.604 20.3435L127.927 20.7385L124.929 22.5204L121.773 24.3812L122.248 25.6276L125.43 23.837L128.463 22.1342L129.131 21.7567L128.604 20.3435Z" fill="#71FFA9"/>
<path d="M130.035 33.4836L129.349 33.7294L126.272 34.8442L123.046 36.0116L122.774 37.6003L126 36.5295L129.059 35.5025L129.727 35.283L130.035 33.4836Z" fill="#71FFA9"/>
<path d="M129.451 36.5909L128.798 36.7955L125.747 37.7496L122.528 38.7555C122.397 39.3015 122.298 39.8325 122.12 40.3925L125.311 39.4858L128.338 38.6247L128.99 38.4395C129.185 37.8093 129.306 37.2027 129.451 36.5909Z" fill="#71FFA9"/>
<path d="M129.525 23.0912L128.857 23.4511L125.798 25.0838L122.589 26.8042L122.712 27.243L125.921 25.5578L128.98 23.9427L129.657 23.5828L129.525 23.0912Z" fill="#71FFA9"/>
<path d="M124.172 49.9417L123.583 49.9943L120.805 50.2664L117.86 50.5561L117.43 51.311L120.357 51.0652L123.108 50.837L123.689 50.7931L124.172 49.9417Z" fill="#71FFA9"/>
<path d="M122.698 52.4875L122.127 52.5226L119.419 52.663L116.553 52.821L115.454 54.5765L118.241 54.5326L120.887 54.4887L121.45 54.48L122.698 52.4875Z" fill="#71FFA9"/>
<path d="M120.233 56.2792L119.688 56.2704L117.103 56.2178L114.37 56.1739L113.974 56.762L116.673 56.841L119.231 56.92L119.785 56.9376L120.233 56.2792Z" fill="#71FFA9"/>
<path d="M129.936 24.9755L129.268 25.3108L126.193 26.8539L122.958 28.4769C123.302 30.5256 123.378 32.61 123.184 34.6782L126.432 33.4257L129.52 32.2354L130.19 31.9765C130.412 29.6418 130.327 27.288 129.936 24.9755Z" fill="#71FFA9"/>
<path d="M128.491 40.1354L127.835 40.3039L124.833 41.0781L121.682 41.8909C120.856 44.3879 119.83 46.8143 118.614 49.1464L121.603 48.7707L124.428 48.4144L125.019 48.3406C126.397 45.7041 127.559 42.96 128.491 40.1354Z" fill="#71FFA9"/>
<path d="M95.7322 18.4758C95.705 18.3521 95.581 18.288 95.4157 18.2792L95.3524 18.2836C95.1304 18.3014 94.9185 18.3841 94.7432 18.5215L42.7851 57.5449C42.63 57.6549 42.5056 57.8027 42.4238 57.9742C42.3937 58.0294 42.3827 58.093 42.3926 58.1551C42.4025 58.2172 42.4327 58.2742 42.4785 58.3174L57.9636 71.1362C58.03 71.1807 58.108 71.2045 58.188 71.2047C58.2923 71.206 58.3961 71.1891 58.4946 71.1546L90.9842 59.8078C91.1765 59.735 91.3522 59.6246 91.5011 59.4831C91.6276 59.368 91.7144 59.2159 91.749 59.0485L95.7366 18.5487L95.7322 18.4758ZM93.0167 20.8572L75.1878 46.2025L45.5323 56.511L93.0167 20.8572ZM44.3235 57.8741L74.3086 47.4454L58.6414 69.7186L44.3235 57.8741ZM59.7904 69.7555L75.4629 47.4779L89.8212 59.2724L59.7904 69.7555ZM90.535 57.8969L76.342 46.2341L94.1753 20.8844L90.535 57.8969Z" fill="#71FFA9"/>
<path d="M88.7826 62.5508C88.6762 62.5506 88.5706 62.569 88.4705 62.6052L56.3475 73.8239L41.0231 61.1473C40.9594 61.1009 40.8821 61.0768 40.8033 61.0788C40.5978 61.0847 40.398 61.1479 40.2266 61.2614C40.0913 61.3274 39.9745 61.4258 39.8866 61.5479C39.7987 61.67 39.7425 61.8119 39.7229 61.961L42.6301 92.6642C42.6397 92.8055 42.7496 92.8924 42.9281 92.8968C43.1453 92.8894 43.3555 92.8179 43.532 92.6914L88.6042 63.4602C88.9154 63.2548 89.1167 62.9669 89.0799 62.7606C89.0613 62.628 88.947 62.5552 88.7826 62.5508ZM41.2982 63.3504L55.093 74.7657L43.8845 90.698L41.2982 63.3504ZM45.0335 90.7392L56.242 74.8026L85.1739 64.6987L45.0335 90.7392Z" fill="#71FFA9"/>
</svg>
