<svg width="83" height="53" viewBox="0 0 83 53" fill="none" xmlns="http://www.w3.org/2000/svg">
<g filter="url(#filter0_f_72_578)">
<path d="M75.7336 29.1511L74.2712 36.7393C73.3589 41.4722 66.9588 45.0459 56.3608 45.8385C39.881 47.0714 19.4877 41.1115 10.8117 32.5264C9.51075 31.5063 8.48447 30.1789 7.82539 28.664C7.1663 27.149 6.89513 25.4941 7.03632 23.8485L8.4987 16.2603C8.35761 17.906 8.6289 19.5609 9.28807 21.0758C9.94724 22.5907 10.9736 23.9181 12.2746 24.9382C20.9501 33.5233 41.3438 39.4832 57.8232 38.2503C68.4211 37.4577 74.8213 33.884 75.7336 29.1511Z" fill="#37AB65"/>
<path d="M26.4073 7.16151C42.8892 5.92858 63.2823 11.888 71.9583 20.4736C80.6343 29.0592 74.3052 37.0178 57.8233 38.2503C41.344 39.4832 20.9502 33.5233 12.2747 24.9382C3.59874 16.3526 9.92796 8.39396 26.4073 7.16151Z" fill="#3CAE6A"/>
<path d="M62.7767 21.1606C56.7793 15.226 42.632 11.0913 31.2417 11.9431C19.849 12.7954 15.4593 18.3164 21.4567 24.2514C27.4536 30.186 41.6008 34.3207 52.9936 33.4684C64.3839 32.6166 68.7735 27.0951 62.7767 21.1606Z" fill="#49D581"/>
<path d="M74.8915 24.3253L74.7619 24.0809C74.6778 23.926 74.5881 23.773 74.4967 23.6152C74.3361 23.3508 74.1602 23.0853 73.969 22.8187C73.877 22.6862 73.7801 22.5513 73.6783 22.4189C73.293 21.9102 72.8786 21.4241 72.4371 20.9631C72.2839 20.8004 72.1234 20.6377 71.9604 20.4745H71.958C70.47 19.0315 68.8338 17.7493 67.0765 16.6491C57.3629 11.0233 46.4561 7.76721 35.244 7.14575C34.7492 7.11497 34.2549 7.08711 33.763 7.06659C33.2785 7.04362 32.7915 7.02847 32.3099 7.01576C31.8078 7.0055 31.3081 7.00045 30.8109 7.00061C30.4594 7.00061 30.1075 7.00306 29.7556 7.01039L29.6357 7.01332C28.9324 7.02603 28.2316 7.05144 27.538 7.08711L27.4437 7.092C27.0995 7.11252 26.753 7.13549 26.4114 7.1609C24.5769 7.29248 22.7518 7.53301 20.946 7.88121C10.6402 9.91705 6.16152 15.2241 9.47295 21.3326C9.64131 21.6429 9.8322 21.9586 10.0412 22.2743L10.0466 22.2816C10.5043 22.962 11.0138 23.6062 11.5706 24.2085C11.7185 24.3712 11.8716 24.5315 12.0322 24.6947L12.2744 24.939C12.7129 25.3715 13.1794 25.7991 13.6762 26.2164C14.1608 26.6264 14.6705 27.0294 15.2056 27.4254C15.5139 27.6522 15.8301 27.876 16.1541 28.0998L16.1565 28.1027C16.4829 28.3241 16.8143 28.543 17.156 28.7615L17.1584 28.7644C18.3511 29.5253 19.6358 30.2534 20.9974 30.9454L20.9998 30.9478C29.3124 34.9588 38.2956 37.4017 47.4971 38.1534C47.7467 38.1739 47.9939 38.194 48.2416 38.212C51.4309 38.4636 54.6346 38.4764 57.8259 38.2502L57.8744 38.2453C58.1876 38.2223 58.4989 38.1969 58.8048 38.1685C59.6128 38.0923 60.3944 38 61.1496 37.8915C61.3003 37.8709 61.4506 37.848 61.5984 37.825L61.8915 37.7791C62.0242 37.759 62.1539 37.7361 62.2841 37.7131C62.4676 37.6828 62.6511 37.6496 62.8346 37.6163C62.9878 37.5885 63.1405 37.5606 63.2908 37.5298C63.4464 37.4995 63.5996 37.4663 63.7523 37.4355L63.8086 37.4228C63.9359 37.3974 64.0631 37.3696 64.1884 37.3417H64.1909L64.4331 37.2855C64.7875 37.2039 65.134 37.1174 65.4731 37.0285H65.478C65.756 36.9522 66.0262 36.876 66.294 36.7993H66.2989C74.318 34.4248 77.6318 29.7007 74.8915 24.3253ZM72.7709 31.5768L72.7557 31.5944L72.7146 31.6481C68.8635 35.273 63.781 37.308 58.4886 37.3441C58.0168 37.3925 57.5327 37.4355 57.0409 37.4712C56.5514 37.5093 56.0586 37.5399 55.5623 37.5631C40.1837 38.2883 21.7517 32.7271 13.7681 24.8266C6.58732 17.7208 10.2247 11.0674 21.6317 8.69535C23.4685 8.3245 25.3272 8.07118 27.1964 7.93692C27.4387 7.91933 27.6858 7.90418 27.9305 7.88854C43.4516 6.94442 62.3531 12.5564 70.4667 20.5864C74.5554 24.6307 75.1363 28.5303 72.7709 31.5768Z" fill="#49D280"/>
<path d="M70.4664 20.5864C62.3527 12.5565 43.4512 6.94448 27.9302 7.8886C27.6855 7.90424 27.4384 7.91939 27.1961 7.93698C25.3269 8.07124 23.4682 8.32456 21.6314 8.69541C10.2244 11.0675 6.58699 17.7208 13.7678 24.8267C21.7513 32.7272 40.1834 38.2883 55.562 37.5631C56.0588 37.5402 56.5516 37.5095 57.0405 37.4712C57.5324 37.4356 58.0165 37.3926 58.4883 37.3442C63.7807 37.308 68.8632 35.273 72.7143 31.6482L72.7554 31.5944L72.7706 31.5768C75.136 28.5304 74.5551 24.6307 70.4664 20.5864ZM68.7964 24.1523L68.957 24.5164C69.0632 24.7532 69.1544 24.9963 69.2302 25.2445L67.1501 25.0486C67.0806 24.8209 66.998 24.5973 66.9029 24.3791L66.7497 24.0429C66.6964 23.9309 66.6273 23.8166 66.5686 23.7047L68.6002 23.7887C68.6638 23.908 68.7382 24.0301 68.7964 24.1523ZM66.3493 20.8948C66.6782 21.2383 67.0199 21.5819 67.3027 21.9303L65.3705 21.9889C65.1131 21.6684 64.7944 21.3502 64.491 21.0321L64.3765 20.9275L66.227 20.7799L66.3493 20.8948ZM62.7428 18.0238L63.2548 18.3673L63.7442 18.7158C64.076 18.9474 64.3765 19.1844 64.6746 19.4209L62.9439 19.6731C62.6659 19.4542 62.3909 19.2352 62.085 19.0212L61.6338 18.6982L61.1596 18.3825L62.7428 18.0238ZM57.9298 15.3664C58.799 15.7661 59.61 16.1859 60.4024 16.6135L59.0031 17.0821C58.2665 16.6873 57.5197 16.2983 56.7165 15.9318L57.9298 15.3664ZM52.2481 13.1292L52.4777 13.2054C53.1658 13.44 53.849 13.6765 54.5117 13.9311L53.5638 14.6055C52.952 14.369 52.3171 14.15 51.6848 13.9336L51.4709 13.8647L52.2481 13.1292ZM46.3393 11.495C47.3769 11.7345 48.4091 11.9867 49.4237 12.2716L48.8628 13.0706C47.9251 12.8086 46.9717 12.5745 46.0134 12.3532L46.3393 11.495ZM43.0157 10.8388L42.9466 11.7497C41.9756 11.5791 41.0017 11.4442 40.0331 11.3221L39.86 10.3779C40.9102 10.5104 41.9629 10.6555 43.0157 10.8388ZM33.7651 9.96305C34.4708 9.96549 35.1923 10.0012 35.9166 10.0344L36.3933 11.0064C35.7277 10.9761 35.0601 10.9428 34.4048 10.9404L34.188 10.9355L33.5253 9.95816L33.7651 9.96305ZM29.3349 10.0852C29.8062 10.0574 30.2755 10.0241 30.7493 10.0012L31.6263 10.9761C31.1854 10.9966 30.7493 11.0269 30.3137 11.0523C29.8928 11.0934 29.4597 11.1237 29.0441 11.172L27.961 10.2128C28.4094 10.1614 28.8758 10.1287 29.3349 10.0852ZM25.2178 10.6145L26.5104 11.5434C25.7381 11.6812 25.0191 11.8567 24.3183 12.0448L22.8451 11.1593C23.5993 10.9555 24.3795 10.7674 25.2178 10.6145ZM18.9576 12.6816C19.3453 12.4626 19.7833 12.2667 20.2195 12.0707L21.9015 12.8849C21.4938 13.0657 21.091 13.2465 20.7342 13.4498L20.6094 13.5162L18.825 12.7524L18.9576 12.6816ZM17.3949 13.6765L19.2914 14.369C18.897 14.6738 18.5311 15.0136 18.1981 15.3844L16.2095 14.776C16.5701 14.374 16.9669 14.006 17.3949 13.6765ZM15.0422 16.6848C15.1186 16.4713 15.2234 16.2597 15.3227 16.0461L17.3748 16.5578C17.2829 16.7537 17.1884 16.9497 17.1174 17.1481C17.0449 17.3467 16.9861 17.5499 16.9412 17.7565L14.8533 17.344C14.8991 17.1197 14.9622 16.8993 15.0422 16.6848ZM14.9757 20.0904C14.8844 19.7595 14.8164 19.4226 14.7722 19.0823L16.8698 19.3598C16.9075 19.6749 16.9707 19.9864 17.0587 20.2913L17.0944 20.3983L15.0169 20.2048L14.9757 20.0904ZM16.0514 22.3149L15.8098 21.9459L15.608 21.5794L17.6421 21.6659L17.8285 22.0046L18.0502 22.3427C18.2006 22.5776 18.3632 22.8045 18.5372 23.0225L16.5795 23.0503C16.396 22.8036 16.1992 22.5592 16.0514 22.3149ZM19.6126 26.0332C19.0399 25.5819 18.4904 25.1021 17.9661 24.5955L19.819 24.4504C20.3024 24.9198 20.8105 25.3632 21.3411 25.7786L19.6126 26.0332ZM23.8925 28.828L23.7041 28.7263L22.8931 28.2631C22.6259 28.1077 22.3733 27.9474 22.1184 27.7895L23.6503 27.4001C23.8901 27.5452 24.1196 27.6928 24.3667 27.8379L25.116 28.2655L25.2868 28.3598L23.8925 28.828ZM28.8963 31.1619C28.4402 30.9762 27.9762 30.793 27.5377 30.597L26.8726 30.3067L26.2251 30.0062L27.4408 29.4467L28.0398 29.7237L28.6516 29.991C29.0593 30.1719 29.4875 30.34 29.9109 30.513L28.8963 31.1619ZM34.9021 33.1675C34.3969 33.0248 33.8899 32.885 33.3956 32.7296C32.8906 32.5796 32.4012 32.4217 31.9118 32.259L32.6943 31.526C33.1431 31.6736 33.5967 31.8236 34.0607 31.9585C34.5222 32.1036 34.9886 32.2336 35.4601 32.3655L34.9021 33.1675ZM41.2949 34.5851L41.0477 34.5421L40.4893 34.4454L39.9338 34.3383C39.5589 34.2645 39.1869 34.1981 38.8175 34.117L39.072 33.2412C39.4135 33.3175 39.7551 33.3786 40.0992 33.4475L40.617 33.5467L41.1319 33.6356L41.3609 33.6737L41.2949 34.5851ZM45.8475 35.1911C45.3248 35.1373 44.7996 35.0841 44.2749 35.0205L44.1115 34.0759C44.5936 34.1346 45.0776 34.1854 45.5621 34.2338C46.0388 34.2719 46.5253 34.3256 46.9996 34.3535L47.4023 35.3181C46.8899 35.2903 46.3677 35.2341 45.8475 35.1911ZM52.1155 35.4506C51.6236 35.4506 51.1366 35.4657 50.6321 35.453L49.9767 34.4756C50.4436 34.4884 50.8895 34.4732 51.3486 34.4732C51.8023 34.4678 52.2432 34.4454 52.6915 34.4326L53.571 35.4071C53.087 35.4198 52.6103 35.4452 52.1155 35.4506ZM53.3087 33.7783C41.5856 34.6565 27.0277 30.4011 20.859 24.295C14.6879 18.189 19.2048 12.5081 30.928 11.6329C42.6486 10.7547 57.2035 15.0101 63.3747 21.1162C69.5458 27.2217 65.0289 32.9026 53.3087 33.7783ZM58.8832 34.8192L58.4398 34.9008L57.9861 34.9721C57.6778 35.0151 57.3792 35.0689 57.0606 35.1046L55.9163 34.1551C56.2144 34.1218 56.487 34.071 56.7704 34.0329L57.1932 33.9664L57.5985 33.8902L57.782 33.857L59.0796 34.7835L58.8832 34.8192ZM62.4164 33.944C62.0517 34.0534 61.6998 34.1702 61.3176 34.2719L59.8469 33.3839C60.1988 33.2921 60.5223 33.1826 60.859 33.081C61.1747 32.9691 61.5036 32.862 61.8046 32.7423L63.4412 33.5745C63.1124 33.7045 62.758 33.8189 62.4164 33.944ZM66.1634 32.2082C65.8981 32.3655 65.6588 32.5336 65.368 32.6812L63.5812 31.9179C63.8538 31.783 64.073 31.6252 64.3177 31.4801C64.5497 31.3271 64.7667 31.1697 64.978 31.0119L66.8799 31.7014C66.6479 31.872 66.413 32.0425 66.1634 32.2082ZM68.8758 29.431L68.6184 29.8689L68.3124 30.2916L66.3038 29.711L66.5867 29.3191L66.8212 28.9145L66.8769 28.8255L68.9317 29.3318L68.8758 29.431ZM69.4772 27.4333C69.4616 27.6607 69.4266 27.8863 69.3725 28.1077L67.2851 27.6952C67.3332 27.4894 67.3646 27.2801 67.3791 27.0692C67.3869 26.9647 67.4021 26.8606 67.4021 26.7535L67.3949 26.433L69.4949 26.7433L69.5052 27.0922C69.5027 27.2066 69.4851 27.3185 69.4772 27.4333Z" fill="#3FC976"/>
<path d="M63.3738 21.1162C57.2026 15.0101 42.6477 10.7547 30.9271 11.6329C19.2039 12.5081 14.6871 18.189 20.8582 24.295C27.0268 30.4011 41.5847 34.6565 53.3078 33.7783C65.028 32.9026 69.5449 27.2217 63.3738 21.1162ZM52.9941 33.468C41.5999 34.3203 27.4527 30.187 21.4573 24.2515C15.4594 18.3165 19.849 12.7959 31.2408 11.9432C42.6321 11.0904 56.7793 15.2266 62.7747 21.1621C68.7726 27.0947 64.3834 32.6177 52.9941 33.468Z" fill="#71FFA9"/>
<path d="M66.349 20.8932L64.4902 21.0325C64.7951 21.3511 65.1133 21.6688 65.3712 21.9899L67.3034 21.9293C67.0191 21.5823 66.6794 21.2373 66.349 20.8932Z" fill="#71FFA9"/>
<path d="M66.8763 28.8235L66.8224 28.9163L68.8731 29.4295L68.9319 29.3317L66.8763 28.8235Z" fill="#71FFA9"/>
<path d="M66.5694 23.7041C66.6286 23.8175 66.6976 23.9308 66.7499 24.0428L66.9017 24.379C66.998 24.5969 67.0811 24.8205 67.1504 25.0484L69.2308 25.2434C69.154 24.9961 69.0625 24.7536 68.9567 24.5173L68.7967 24.1532C68.737 24.0315 68.665 23.9089 68.5999 23.7872L66.5694 23.7041Z" fill="#71FFA9"/>
<path d="M67.3926 26.4326L67.4024 26.7542C67.4009 26.8612 67.3872 26.9643 67.3784 27.0703C67.3635 27.2805 67.3319 27.4892 67.284 27.6944L69.3723 28.1083C69.4259 27.8868 69.4608 27.6612 69.4765 27.4339C69.4844 27.3191 69.5005 27.2067 69.5036 27.0918L69.4952 26.7434L67.3926 26.4326Z" fill="#71FFA9"/>
<path d="M66.8226 28.9166L66.5876 29.3173L66.3038 29.7131L68.3104 30.2897L68.6188 29.8695L68.8733 29.4297L66.8226 28.9166Z" fill="#71FFA9"/>
<path d="M57.7819 33.8571L57.5959 33.8913L58.8831 34.8198L59.0789 34.7856L57.7819 33.8571Z" fill="#71FFA9"/>
<path d="M64.9784 31.0119C64.7664 31.1707 64.5501 31.3281 64.3186 31.4796C64.0734 31.6257 63.8532 31.7821 63.582 31.9169L65.369 32.6812C65.6596 32.5346 65.898 32.365 66.1642 32.2082C66.4138 32.0435 66.6483 31.8725 66.8803 31.7014L64.9784 31.0119Z" fill="#71FFA9"/>
<path d="M61.8043 32.7418C61.5042 32.862 61.1749 32.9681 60.8597 33.0819C60.522 33.1821 60.1999 33.2921 59.847 33.3835L61.3187 34.2709C61.699 34.1702 62.0509 34.052 62.4176 33.9435C62.7581 33.8203 63.1126 33.705 63.4405 33.575L61.8043 32.7418Z" fill="#71FFA9"/>
<path d="M57.5992 33.8917L57.1934 33.9669L56.7706 34.0319C56.4867 34.071 56.2141 34.1218 55.918 34.1541L57.0623 35.1041C57.3799 35.0699 57.6779 35.0156 57.9858 34.9716L58.441 34.9013L58.8845 34.8202L57.5992 33.8917Z" fill="#71FFA9"/>
<path d="M41.1321 33.6372L41.0489 34.5413L41.2936 34.5852L41.3621 33.6763L41.1321 33.6372Z" fill="#71FFA9"/>
<path d="M49.9749 34.4751L50.6303 35.4524C51.1349 35.4656 51.6223 35.4505 52.1151 35.4495C52.6095 35.4441 53.0857 35.4207 53.5712 35.407L52.6912 34.433C52.2419 34.4458 51.8019 34.4677 51.3482 34.4731C50.8887 34.4731 50.4418 34.4883 49.9749 34.4751Z" fill="#71FFA9"/>
<path d="M44.1104 34.0775L44.2748 35.0206C44.7985 35.0836 45.3236 35.1379 45.8463 35.1921C46.3661 35.2346 46.8902 35.2899 47.4022 35.3192L46.9979 34.3536C46.5253 34.3257 46.0387 34.2734 45.5611 34.2353C45.078 34.1855 44.5929 34.1346 44.1104 34.0775Z" fill="#71FFA9"/>
<path d="M39.0727 33.2411L38.8191 34.1164C39.1881 34.1985 39.5606 34.2639 39.933 34.3387L40.4895 34.4457L41.0494 34.5425L41.1317 33.635L40.6168 33.5456L40.1014 33.4474C39.7574 33.378 39.4133 33.3184 39.0727 33.2411Z" fill="#71FFA9"/>
<path d="M25.116 28.2666L23.704 28.7269L23.8934 28.8286L25.2873 28.359L25.116 28.2666Z" fill="#71FFA9"/>
<path d="M32.6947 31.5261L31.9127 32.2586C32.4025 32.4208 32.8924 32.5797 33.3957 32.7287C33.8909 32.8841 34.3974 33.0253 34.904 33.1666L35.4604 32.3651C34.9906 32.2347 34.5237 32.1042 34.0626 31.9595C33.5982 31.8227 33.145 31.6746 32.6947 31.5261Z" fill="#71FFA9"/>
<path d="M27.4413 29.4466L26.2252 30.0071L26.8731 30.3076L27.5387 30.5979C27.9768 30.7939 28.4407 30.9757 28.8969 31.1614L29.9106 30.5124C29.4886 30.3409 29.059 30.1728 28.6532 29.991L28.0394 29.7237L27.4413 29.4466Z" fill="#71FFA9"/>
<path d="M23.6504 27.399L22.1174 27.7889C22.3744 27.9458 22.6245 28.1081 22.8932 28.2625L23.7036 28.7267L25.1156 28.2664L24.3678 27.8373C24.1182 27.6937 23.8902 27.5451 23.6504 27.399Z" fill="#71FFA9"/>
<path d="M14.9768 20.0909L15.0159 20.2033L17.096 20.3987L17.0568 20.2912L14.9768 20.0909Z" fill="#71FFA9"/>
<path d="M19.8191 24.4504L17.9661 24.595C18.4908 25.102 19.0406 25.5823 19.6135 26.0342L21.3412 25.7796C20.8111 25.3632 20.303 24.9195 19.8191 24.4504Z" fill="#71FFA9"/>
<path d="M15.6099 21.5798L15.8115 21.9454L16.0513 22.3143C16.2005 22.5587 16.3968 22.8045 16.5808 23.0498L18.5375 23.0219C18.3633 22.8038 18.2005 22.5769 18.0496 22.3422L17.8288 22.0035L17.6433 21.6654L15.6099 21.5798Z" fill="#71FFA9"/>
<path d="M14.7735 19.0828C14.8164 19.4234 14.8846 19.7604 14.9776 20.0909L17.0581 20.2918C16.9713 19.9868 16.9088 19.6756 16.8712 19.3608L14.7735 19.0828Z" fill="#71FFA9"/>
<path d="M18.9565 12.6826L18.8243 12.751L20.6107 13.5133L20.7331 13.4498L18.9565 12.6826Z" fill="#71FFA9"/>
<path d="M15.321 16.0471C15.2231 16.2591 15.1183 16.4703 15.041 16.6853C14.9614 16.9 14.8984 17.1206 14.8526 17.345L16.941 17.756C16.9856 17.5499 17.0438 17.347 17.1152 17.1485C17.1881 16.9487 17.2826 16.7537 17.3746 16.5587L15.321 16.0471Z" fill="#71FFA9"/>
<path d="M17.395 13.6769C16.9667 14.0062 16.57 14.3744 16.21 14.777L18.1966 15.3854C18.5294 15.0141 18.8953 14.6739 19.29 14.3689L17.395 13.6769Z" fill="#71FFA9"/>
<path d="M20.2199 12.0693C19.7832 12.2663 19.3467 12.4627 18.9581 12.6817L20.7338 13.4503C21.0925 13.2471 21.4948 13.0653 21.901 12.8845L20.2199 12.0693Z" fill="#71FFA9"/>
<path d="M33.5261 9.95575L34.1868 10.938H34.4022L33.7659 9.96064L33.5261 9.95575Z" fill="#71FFA9"/>
<path d="M25.2172 10.6155C24.3793 10.7665 23.6002 10.9561 22.844 11.1599L24.3186 12.0444C25.0201 11.8578 25.738 11.6823 26.5103 11.5435L25.2172 10.6155Z" fill="#71FFA9"/>
<path d="M29.3341 10.0862C28.8765 10.1277 28.4091 10.1629 27.9603 10.2128L29.0444 11.1715C29.4589 11.1241 29.8925 11.0933 30.3139 11.0528C30.7505 11.0274 31.1842 10.9966 31.6256 10.9756L30.7505 10.0012C30.2748 10.0246 29.8075 10.0569 29.3341 10.0862Z" fill="#71FFA9"/>
<path d="M33.7649 9.96265L34.405 10.9395C35.059 10.9429 35.7275 10.9757 36.3936 11.006L35.9159 10.033C35.1935 10.0017 34.4711 9.96656 33.7649 9.96265Z" fill="#71FFA9"/>
<path d="M52.2463 13.1273L51.4731 13.8652L51.6835 13.9336L52.4763 13.2054L52.2463 13.1273Z" fill="#71FFA9"/>
<path d="M39.861 10.3776L40.0338 11.3232C41.0033 11.4448 41.9758 11.5782 42.9483 11.7493L43.0174 10.8399C41.9646 10.6551 40.9103 10.51 39.861 10.3776Z" fill="#71FFA9"/>
<path d="M46.3391 11.494L46.0146 12.3535C46.9724 12.5754 47.9268 12.808 48.864 13.0719L49.4244 12.2714C48.4109 11.9861 47.3787 11.7339 46.3391 11.494Z" fill="#71FFA9"/>
<path d="M52.4778 13.2048L51.6834 13.9339C52.3177 14.1495 52.952 14.3684 53.5628 14.6044L54.5108 13.93C53.8491 13.6754 53.1654 13.4389 52.4778 13.2048Z" fill="#71FFA9"/>
<path d="M66.23 20.7799L64.3799 20.9265L64.4925 21.034L66.3474 20.8923L66.23 20.7799Z" fill="#71FFA9"/>
<path d="M57.9311 15.3672L56.7183 15.9302C57.5195 16.2977 58.2683 16.6872 59.0029 17.082L60.4022 16.6148C59.6113 16.1863 58.7988 15.7655 57.9311 15.3672Z" fill="#71FFA9"/>
<path d="M62.7418 18.0242L61.159 18.3819L61.6347 18.6986L62.0854 19.0216C62.3904 19.2347 62.6664 19.4536 62.9449 19.6721L64.6755 19.4204C64.376 19.1839 64.0765 18.9478 63.7446 18.7167L63.2552 18.3668L62.7418 18.0242Z" fill="#71FFA9"/>
<path d="M60.9145 27.6523C60.0157 26.2699 58.677 25.2298 57.1141 24.6997C54.5837 23.6364 51.8572 23.1178 49.1125 23.1779C48.489 23.1935 47.8693 23.0762 47.2948 22.8339L47.0961 22.7503C46.5097 22.4957 46.1608 22.1492 46.1887 21.8516C46.2141 21.5741 46.5557 21.3678 47.1039 21.3019C49.5074 21.014 51.009 20.111 51.1235 18.8839C51.3095 16.8324 47.6036 14.496 42.8646 13.6741C41.4372 13.4173 39.9839 13.3353 38.5366 13.4297C35.9035 13.6257 34.0554 14.5293 33.9301 15.9034C33.8181 17.1432 35.1336 18.5428 37.4506 19.6477C37.9351 19.8793 38.2102 20.1745 38.1871 20.4364L38.172 20.5967C38.1466 20.8792 37.774 21.0781 37.198 21.1211L37.0835 21.1313C36.4862 21.1607 35.8894 21.0636 35.3324 20.8464C32.7719 19.8601 30.0303 19.4296 27.2901 19.5837C26.4843 19.5461 25.6799 19.6824 24.9316 19.9833C24.1833 20.2842 23.5087 20.7426 22.9539 21.3273C22.3524 22.2895 22.7909 23.4398 24.1932 24.5672C27.173 26.5696 30.6956 27.6124 34.2869 27.5555C34.6339 27.5501 34.9677 27.5374 35.2888 27.5144C37.7868 27.3263 39.4949 26.5219 39.8389 25.3335C39.9153 25.0535 40.3029 24.8599 40.8662 24.8169L41.0776 24.8013C41.7433 24.7647 42.4086 24.8805 43.0226 25.14C43.5659 25.374 43.9022 25.6848 43.9275 25.9722C44.0347 27.2374 45.5309 28.6115 47.935 29.6524C50.6525 30.7965 53.596 31.305 56.5404 31.139C57.6704 31.0909 58.7787 30.8138 59.798 30.3244C61.0265 29.6627 61.4219 28.7137 60.9145 27.6523ZM59.2499 30.0878C58.3082 30.541 57.2838 30.7974 56.2394 30.8414C53.5162 30.9954 50.7939 30.5243 48.2814 29.4643C46.0585 28.5045 44.672 27.2295 44.575 26.064C44.5393 25.6795 44.091 25.2675 43.3696 24.9543C42.551 24.6092 41.6644 24.4552 40.7771 24.5037L40.5657 24.5188C39.8135 24.575 39.301 24.8296 39.194 25.1986C38.8782 26.2981 37.3003 27.0414 34.9907 27.2144C34.6927 27.2374 34.3789 27.2501 34.0579 27.2525C30.7376 27.3058 27.4806 26.342 24.7256 24.491C23.4305 23.4477 23.0253 22.3838 23.5814 21.4954C24.0945 20.955 24.7183 20.5314 25.4101 20.2534C26.102 19.9754 26.8457 19.8495 27.5907 19.8842C30.1249 19.74 32.6608 20.1374 35.029 21.0497C35.7785 21.3407 36.5813 21.4699 37.3845 21.4289L37.499 21.4192C38.2791 21.363 38.7862 21.0883 38.8194 20.7086L38.8346 20.5483C38.8655 20.1921 38.493 19.7928 37.8303 19.4771C35.6916 18.4563 34.4734 17.1633 34.5776 16.0153C34.6926 14.7428 36.4002 13.9082 38.84 13.7274C40.1765 13.6405 41.5186 13.7166 42.8366 13.9541C47.2209 14.7125 50.6493 16.8759 50.476 18.7695C50.3742 19.9072 48.9848 20.7418 46.7598 21.0092C46.0331 21.0957 45.5769 21.3678 45.5412 21.7373C45.5055 22.1395 45.9719 22.5974 46.752 22.936L46.9507 23.0225C47.7149 23.3433 48.5387 23.4986 49.3675 23.478C51.9056 23.4235 54.4267 23.903 56.7671 24.8854C58.2129 25.3767 59.4517 26.3385 60.285 27.6166C60.7539 28.5988 60.3868 29.4745 59.2499 30.0878Z" fill="#71FFA9"/>
</g>
<defs>
<filter id="filter0_f_72_578" x="-6.10352e-05" y="0" width="82.847" height="53" filterUnits="userSpaceOnUse" color-interpolation-filters="sRGB">
<feFlood flood-opacity="0" result="BackgroundImageFix"/>
<feBlend mode="normal" in="SourceGraphic" in2="BackgroundImageFix" result="shape"/>
<feGaussianBlur stdDeviation="3.5" result="effect1_foregroundBlur_72_578"/>
</filter>
</defs>
</svg>
