<svg width="69" height="51" viewBox="0 0 69 51" fill="none" xmlns="http://www.w3.org/2000/svg">
<g filter="url(#filter0_f_72_422)">
<path d="M4.53057 37.5971L8.12743 44.1019C10.2659 47.9697 18.7735 48.0789 30.354 43.7467C45.6991 38.0067 60.7153 26.6104 63.8285 18.3438C64.1991 17.5743 64.3954 16.7328 64.4034 15.879C64.4115 15.0252 64.231 14.1801 63.8749 13.4038L60.2778 6.89902C60.634 7.67526 60.8146 8.52031 60.8067 9.37409C60.7988 10.2279 60.6026 11.0694 60.2321 11.839C57.1191 20.1056 42.1022 31.5019 26.7572 37.2419C15.1766 41.5741 6.66906 41.465 4.53057 37.5971Z" fill="#37AB65"/>
<path d="M38.0492 7.25428C22.7041 12.9942 7.68941 24.3894 4.57637 32.6577C1.46333 40.9243 11.4116 42.9818 26.7566 37.2419C42.1015 31.5019 57.1185 20.1056 60.2315 11.839C63.3444 3.57074 53.3941 1.51433 38.0492 7.25428Z" fill="#71FFA9"/>
<path d="M5.96846 32.1368C8.93055 24.2696 23.1686 13.4645 37.7673 8.00361C52.3683 2.54167 61.8033 4.49156 58.8408 12.3588C55.8783 20.226 41.6412 31.03 27.0397 36.4914C12.441 41.9528 3.00584 40.004 5.96846 32.1368Z" fill="#49D581"/>
<path d="M4.57652 32.6582C4.62666 32.5277 4.67626 32.3999 4.73174 32.2667C4.96254 31.7185 5.22511 31.1841 5.51804 30.6662C5.74901 30.2588 6.00448 29.8455 6.27919 29.4263C7.55253 27.5625 9.01025 25.8312 10.6303 24.2584C14.1194 20.8767 17.955 17.8709 22.0738 15.2903C25.6884 12.9795 29.4675 10.9361 33.3809 9.17645C33.9869 8.90429 34.595 8.63798 35.2063 8.38286C35.5733 8.22734 35.9424 8.07767 36.312 7.93067C36.8897 7.69473 37.468 7.4705 38.0483 7.25372L38.2958 7.16211C38.8901 6.94055 39.4794 6.7323 40.0572 6.53843C40.5266 6.37758 40.988 6.22472 41.4435 6.08304C45.1653 4.81251 49.0578 4.11025 52.9895 4C53.4455 4.00266 53.8813 4.01918 54.2985 4.05273C55.7086 4.11478 57.0906 4.46806 58.3571 5.09026C58.7711 5.30586 59.1535 5.57739 59.4933 5.89717H59.4961C59.8072 6.18838 60.0707 6.52641 60.277 6.899C60.6809 7.65913 60.86 8.51827 60.7934 9.37618C60.7827 9.58976 60.7575 9.80866 60.7241 10.0334C60.6882 10.2608 60.6409 10.4909 60.5827 10.7295C60.5214 10.9681 60.452 11.2126 60.3688 11.4619H60.3656C60.324 11.587 60.2797 11.7117 60.2322 11.8395C60.0411 12.3434 59.8195 12.8351 59.5687 13.3122C55.3706 21.4121 41.2099 31.8342 26.7579 37.2408C21.902 39.2428 16.7211 40.3436 11.4695 40.4892C11.3442 40.4865 11.2167 40.4833 11.094 40.478L10.9889 40.4727C10.8524 40.4668 10.7164 40.4583 10.5857 40.4476C10.4662 40.4418 10.3467 40.4306 10.2331 40.4199L9.94398 40.389L9.71355 40.3613C9.63034 40.3534 9.54976 40.3422 9.46921 40.3283C9.39666 40.3198 9.32736 40.3086 9.26068 40.2948C9.1604 40.2809 9.06328 40.2644 8.9662 40.2447C8.86591 40.2282 8.76619 40.2064 8.66911 40.184C8.59923 40.1728 8.53252 40.1563 8.46904 40.1398C8.38263 40.1227 8.29943 40.1009 8.21888 40.0785L8.11861 40.0508C8.04126 40.0311 7.96339 40.012 7.88818 39.9869C7.77723 39.9566 7.66891 39.9203 7.5633 39.8841L7.54356 39.8788L7.32701 39.7984L7.23793 39.7648C7.13231 39.7259 7.03258 39.6844 6.93229 39.6402L6.76584 39.5651L6.73223 39.5486L6.56049 39.4655L6.55194 39.4596C6.48793 39.4293 6.42714 39.3963 6.3658 39.36L6.14656 39.2354L6.04091 39.1656C5.98223 39.13 5.92676 39.0911 5.87129 39.0522L5.79075 38.9936L5.62381 38.869L5.60192 38.8525L5.43762 38.7135L5.40458 38.6831L5.35175 38.6362L5.22694 38.5169L5.17944 38.4695L5.02956 38.306L4.99594 38.2671C4.94313 38.2059 4.89035 38.1425 4.84341 38.0759L4.73512 37.9257L4.71806 37.898L4.68497 37.8565L4.65991 37.8149L4.64603 37.7926C4.61296 37.7372 4.57669 37.6818 4.54628 37.6237C4.18145 36.8458 3.99486 35.9965 4.00009 35.1376C4.00532 34.2786 4.20224 33.4316 4.57652 32.6582ZM27.0383 36.4919C40.6849 31.3874 54.012 21.6177 58.1155 13.9391C58.3914 13.4285 58.6336 12.9004 58.8404 12.3583C59.3617 11.4226 59.5557 10.3401 59.3917 9.28196C59.2276 8.22384 58.7149 7.25054 57.9347 6.51606H57.932C57.555 6.20532 57.1372 5.94762 56.6901 5.75016C56.1732 5.52057 55.6341 5.34408 55.0814 5.22341C53.9538 4.98594 52.8025 4.87978 51.6504 4.90704C50.8289 4.91663 50.0083 4.96765 49.1919 5.0599C47.8223 5.21896 46.4625 5.45312 45.1187 5.76134C44.2906 5.94989 43.4379 6.16933 42.5545 6.41912C41.2434 6.79355 39.8755 7.23739 38.4509 7.75065C38.2455 7.82522 38.0401 7.90031 37.8316 7.97807L37.7676 8.0031C37.3787 8.15011 36.9899 8.29711 36.601 8.4521C35.9315 8.71574 35.2648 8.98737 34.6007 9.27339C30.5231 11.0246 26.5914 13.0968 22.8428 15.4703C15.7556 19.3247 9.90532 25.1027 5.96806 32.1368C3.00667 40.0034 12.4413 41.9539 27.0383 36.4919Z" fill="#71FFA9"/>
<path d="M11.2556 33.1768L17.0592 31.0075L20.6902 21.3566L31.8698 23.6676L40.332 17.2459L48.7392 10.8657L46.5026 16.8017L45.105 20.5134L50.906 18.3441L50.9119 18.3415L50.8174 18.4608C50.7534 18.5412 50.6866 18.619 50.6201 18.6994L50.6142 18.702L44.4633 21.0019L46.0245 16.8603L47.9445 11.7589L40.7294 17.2347L31.7141 24.075L20.9622 21.8503L17.4812 31.0964L11.3329 33.3957L11.3276 33.3984C11.3071 33.3505 11.2895 33.3014 11.2748 33.2514L11.2497 33.1795L11.2556 33.1768ZM12.3192 34.7107L20.3846 31.6924L22.8212 25.2239L30.6696 26.8494L42.5185 17.8557L40.0822 24.3248L48.1471 21.3097L48.1582 21.3038L48.0613 21.3981L47.7225 21.7145L47.7113 21.7203L39.4407 24.8132L41.7242 18.7521L30.517 27.2568L23.0933 25.7203L20.8097 31.7814L12.5417 34.8743L12.5305 34.8801L12.3582 34.7523L12.3112 34.7134L12.3192 34.7107Z" fill="#71FFA9"/>
<path d="M10.7419 30.9964L10.7446 30.9853L10.7611 30.9272L10.7723 30.8825L10.7947 30.8106L10.8139 30.7525L10.8251 30.7136L10.8529 30.622L10.8614 30.597L10.8918 30.5112L10.8977 30.4915L10.9334 30.3919L10.9419 30.3669L10.9809 30.2614C11.0449 30.0894 11.1169 29.912 11.1975 29.7342C12.2555 27.6111 13.6738 25.6871 15.3896 24.0475C15.4984 23.9367 15.6094 23.8286 15.7204 23.7172C15.9428 23.4983 16.1706 23.2792 16.4037 23.06C16.9872 22.5109 17.604 21.9626 18.2541 21.4153C20.0461 19.9177 21.9266 18.529 23.8855 17.2567C24.1996 17.0516 24.5165 16.8492 24.8387 16.6468C25.1416 16.4551 25.45 16.2639 25.761 16.078L25.8084 16.0476C26.1359 15.8506 26.464 15.6535 26.7974 15.4591C27.2945 15.171 27.7974 14.8862 28.3059 14.6048C28.6473 14.4189 28.9892 14.233 29.3311 14.053C31.7309 12.7805 34.2094 11.662 36.7517 10.7045C37.5988 10.3854 38.4272 10.1 39.23 9.84484C39.688 9.69784 40.1357 9.56203 40.5774 9.43952H40.5801C41.2304 9.25098 41.8635 9.08746 42.4775 8.94313C42.861 8.85418 43.2387 8.77376 43.6057 8.70186C43.9252 8.63528 44.2388 8.57988 44.5472 8.52982C44.9334 8.46324 45.3115 8.40786 45.678 8.36365C47.3183 8.12151 48.9868 8.142 50.6207 8.42436L50.7619 8.45525L50.7652 8.45791C51.4184 8.50397 52.0492 8.71524 52.598 9.07184C53.1469 9.42843 53.5959 9.91862 53.9027 10.4963C54.2095 11.0739 54.364 11.72 54.3517 12.3737C54.3394 13.0274 54.1607 13.6673 53.8324 14.233C53.6607 14.6815 53.4592 15.1179 53.2291 15.5395C52.6785 16.5381 52.0348 17.4827 51.3067 18.3608C50.4305 19.4262 49.4857 20.4335 48.4785 21.3764C43.2329 26.1373 37.2185 29.978 30.6899 32.7359C29.8144 33.1104 28.9338 33.4624 28.0557 33.7927C27.1804 34.1202 26.3266 34.4151 25.4942 34.6773C23.3715 35.6974 21.0579 36.2608 18.7032 36.3311C16.3484 36.4014 14.0052 35.977 11.8253 35.0853C11.3063 34.6966 10.9179 34.1596 10.7115 33.5455C10.4731 32.711 10.4837 31.8251 10.7419 30.9964ZM11.2503 33.1796L11.2753 33.2515C11.29 33.3015 11.3077 33.3506 11.3282 33.3985C11.5304 33.9179 11.8704 34.3725 12.3118 34.7135L12.3587 34.7524L12.531 34.8802C16.4471 36.4167 20.8139 36.3378 24.6717 34.6608L24.6941 34.6555C25.4249 34.4419 26.1722 34.2033 26.9419 33.937C27.2001 33.8454 27.461 33.7538 27.725 33.6568L27.7917 33.6318L27.8642 33.6041L27.956 33.5705L28.0168 33.5487L28.1699 33.4928L28.3224 33.4347L28.3838 33.4124L28.475 33.3767L28.5502 33.349L28.6169 33.3213C29.2922 33.063 29.9674 32.7892 30.6424 32.5C30.8675 32.4057 31.09 32.3088 31.3146 32.2087C37.3089 29.6055 42.8483 26.0629 47.7231 21.7146L48.0619 21.3983L48.1588 21.304C49.0279 20.4828 49.8498 19.6133 50.6207 18.6995C50.6872 18.6191 50.754 18.5413 50.8181 18.4609L50.9125 18.3416C51.0233 18.2026 51.1317 18.0641 51.2347 17.9283C51.3429 17.7893 51.4459 17.6508 51.5456 17.5123C51.6486 17.3733 51.743 17.2375 51.8347 17.1017C51.9932 16.8742 52.1372 16.6522 52.2738 16.4301C52.3874 16.2474 52.493 16.0695 52.5901 15.8921C52.6349 15.817 52.6738 15.7424 52.7096 15.67C52.8152 15.4788 52.9069 15.2929 52.9933 15.107L52.9987 15.0959L53.0515 14.9824L53.068 14.9403L53.0904 14.8881L53.1294 14.8045L53.1432 14.7688L53.1736 14.6937L53.1849 14.666L53.2238 14.5691L53.235 14.5441L53.2739 14.4413C54.5184 11.1348 52.9763 9.15138 49.5176 8.67683L49.5123 8.67416H49.509C46.8872 8.44169 44.245 8.69171 41.7136 9.41182H41.711C39.9909 9.84597 38.297 10.3777 36.6376 11.0043C32.9742 12.3913 29.4452 14.109 26.0944 16.136C19.9995 19.2768 14.944 24.1098 11.5367 30.0532L11.4978 30.156L11.4892 30.181L11.4562 30.278L11.4476 30.3003L11.4226 30.3749L11.4114 30.4084L11.3863 30.4915L11.3724 30.5331L11.3586 30.5831L11.3308 30.6747L11.3255 30.6971C11.2713 30.8841 11.2268 31.0738 11.1921 31.2654C11.0588 31.899 11.0787 32.5552 11.2503 33.1796Z" fill="#71FFA9"/>
<path d="M37.4125 9.48966L37.6014 9.42041L38.0623 9.25371L37.9876 9.42894L37.8622 9.71708L37.2344 9.9445L37.4125 9.48966ZM38.5653 9.44278L38.7738 9.00712C38.9765 8.93788 39.1792 8.86864 39.3793 8.80472L39.1318 9.28194C38.9707 9.33467 38.8126 9.38686 38.6511 9.44278L38.5487 9.47847L38.5653 9.44278ZM34.3176 10.7269C34.5422 10.63 34.77 10.533 34.9983 10.4382L34.9033 10.8601C34.6839 10.9517 34.4675 11.0433 34.2478 11.1376L34.3176 10.7269ZM39.6821 8.70459L40.2434 8.52723L39.9655 9.01244C39.7879 9.07103 39.6044 9.12641 39.4235 9.18713L39.6821 8.70459ZM33.3756 11.1376C33.5842 11.0459 33.7922 10.9517 34.0035 10.8627L33.9453 11.268C33.7421 11.3538 33.5421 11.4427 33.3394 11.5343L33.3756 11.1376ZM32.6395 11.4704L32.6283 11.856C32.4144 11.953 32.2031 12.0531 31.9892 12.1527L31.9754 11.781C32.1946 11.6755 32.4169 11.5732 32.6395 11.4704ZM31.7311 11.8976L31.753 12.2667C31.5391 12.3663 31.3251 12.4718 31.1139 12.5745L31.067 12.2166C31.2861 12.1112 31.5086 12.0031 31.7311 11.8976ZM43.1132 7.73097C43.3271 7.67825 43.541 7.62818 43.7496 7.58132C45.0226 7.28942 46.3121 7.07456 47.611 6.93792C49.1777 6.75321 50.7628 6.79518 52.3174 7.06255L52.3926 7.07639L51.6837 7.61753C51.3112 7.54124 50.9347 7.48558 50.5561 7.45083C47.9221 7.28559 45.2788 7.55461 42.7323 8.24708L43.1132 7.73097ZM24.5239 15.8368C25.6435 15.1401 26.7994 14.4664 27.9772 13.8198L28.133 14.1197C27.0715 14.7023 26.0324 15.307 25.0157 15.9337C22.3484 17.5602 19.8051 19.3812 17.4064 21.3818L16.8533 21.3514C19.2735 19.3308 21.837 17.4877 24.5239 15.8368ZM37.6014 9.42041C37.7289 9.42308 37.8596 9.42894 37.9876 9.42894L37.8622 9.71708L37.2344 9.9445L37.4125 9.48966L37.6014 9.42041ZM38.6511 9.44278L38.5487 9.47847L38.5653 9.44278H38.6511ZM52.5286 7.10676C52.6481 7.13445 52.7676 7.16215 52.8812 7.19304L52.1563 7.72831C52.0454 7.69795 51.9314 7.67026 51.8144 7.64522L52.5286 7.10676ZM53.2536 7.30116C53.359 7.33418 53.4595 7.36774 53.5592 7.40395L52.8092 7.93071L52.5148 7.83111L53.2536 7.30116ZM53.7064 7.45934C53.7955 7.49502 53.8871 7.53391 53.9731 7.57279L53.5704 7.84762L53.2066 8.09422L52.9676 7.99195H52.965L52.9506 7.9861L53.7064 7.45934ZM16.6143 21.5538L17.1754 21.5789C17.0229 21.7094 16.8698 21.8393 16.7226 21.9698L16.1449 21.9586C16.3006 21.8228 16.4559 21.687 16.6143 21.5538ZM15.6115 22.4305L16.2062 22.4247C16.0531 22.5637 15.9032 22.6995 15.756 22.8353L15.1421 22.8577C15.2978 22.716 15.453 22.5717 15.6115 22.4305ZM14.9724 23.0159L15.5923 22.9882C15.445 23.1266 15.3005 23.2624 15.1559 23.4015L14.5227 23.4403C14.6694 23.2987 14.8226 23.157 14.9724 23.0159ZM55.1542 8.30513C55.2235 8.36371 55.29 8.4271 55.3568 8.49101L54.5428 8.97941C54.4788 8.91816 54.4148 8.85745 54.3455 8.79886L55.1542 8.30513ZM55.5595 8.71045C55.607 8.76318 55.6513 8.81856 55.6929 8.87396L54.8677 9.34851L54.7402 9.19033L55.5595 8.71045ZM55.8598 9.11524C55.9041 9.18448 55.9458 9.25691 55.9847 9.33148L55.1482 9.78951C55.1093 9.71974 55.0704 9.64785 55.0261 9.58127L55.8598 9.11524ZM12.5998 25.4206L13.3028 25.3098C13.1892 25.4376 13.0777 25.5623 12.9667 25.6901L12.2498 25.8174C12.364 25.6842 12.4803 25.5537 12.5998 25.4206ZM11.861 26.2754L12.5918 26.1311C12.5027 26.2366 12.4195 26.3388 12.3331 26.4443L11.5943 26.5998C11.6802 26.4917 11.7691 26.3836 11.861 26.2754ZM11.2385 27.052L11.9917 26.8799C11.8887 27.0104 11.7916 27.1409 11.6972 27.2682L10.9328 27.4541C11.0305 27.3209 11.1329 27.1851 11.2385 27.052ZM56.3622 10.5298C56.3735 10.6215 56.3847 10.7157 56.3901 10.8132L55.5403 11.218L55.5121 10.9464L56.3622 10.5298ZM56.3959 10.9181C56.3986 11.0156 56.4013 11.1125 56.3986 11.2127L55.5457 11.6036C55.5483 11.5067 55.5483 11.4124 55.5457 11.3208L56.3959 10.9181ZM55.5291 11.9253L56.3794 11.5482C56.3709 11.6451 56.3597 11.7421 56.3458 11.8422L55.4955 12.2113C55.5094 12.1165 55.5206 12.0196 55.5291 11.9253ZM9.72728 29.2905L10.536 29.0381C10.472 29.1489 10.4106 29.257 10.3525 29.3656L9.54113 29.6288C9.59928 29.5153 9.66327 29.404 9.72728 29.2905ZM55.4735 12.3551L56.3206 11.9919C56.304 12.1027 56.2816 12.214 56.2565 12.3248L55.4122 12.6768C55.4347 12.5687 55.4566 12.4606 55.4737 12.3551H55.4735ZM9.44656 29.8034L10.2632 29.5345L10.0936 29.8732L9.2716 30.156C9.32724 30.0394 9.38538 29.9227 9.44672 29.8034H9.44656ZM9.0881 30.5555L9.91864 30.2615C9.86903 30.3749 9.82155 30.4916 9.77461 30.6056L8.94086 30.9134C8.98849 30.7968 9.03545 30.6775 9.08826 30.5555H9.0881ZM55.0345 13.8896L55.8677 13.5812C55.8207 13.7005 55.7733 13.8198 55.7205 13.9391L54.8926 14.2331C54.9429 14.117 54.9899 14.003 55.0347 13.8896H55.0345ZM54.715 14.6219L55.537 14.3412L55.362 14.6911L54.548 14.9574C54.6068 14.8461 54.6623 14.7327 54.7151 14.6219H54.715ZM8.552 32.1698L9.39911 31.8178C9.37457 31.9259 9.35482 32.0314 9.33562 32.1368L8.48798 32.5001C8.50468 32.3919 8.52709 32.2806 8.55216 32.1698H8.552ZM54.4093 15.2152L54.4562 15.1295L55.2676 14.8658L55.2095 14.974L55.0814 15.204L54.276 15.4565C54.3231 15.3761 54.3679 15.2957 54.4095 15.2152H54.4093ZM8.46291 32.6524L9.31319 32.2838C9.29932 32.3781 9.28815 32.4724 9.27962 32.5666L8.42987 32.9464C8.43803 32.8495 8.44921 32.7525 8.46308 32.6524H8.46291ZM9.26305 32.891C9.26039 32.9885 9.26039 33.0827 9.26305 33.1743L8.41278 33.5765C8.40744 33.479 8.40746 33.3821 8.41013 33.2825L9.26305 32.891ZM9.26891 33.2766C9.27425 33.3709 9.2828 33.4598 9.29667 33.5514L8.44374 33.9674C8.43254 33.8731 8.42401 33.7789 8.41868 33.6846L9.26891 33.2766ZM53.1147 17.2237L53.8786 17.0405C53.7815 17.1736 53.6785 17.3068 53.5756 17.4426L52.8229 17.6146C52.9228 17.4841 53.0201 17.3538 53.1149 17.2237H53.1147ZM52.4117 18.1334L52.4783 18.0503L53.2202 17.8948L53.1478 17.9811L52.9535 18.2197L52.2227 18.3608L52.4117 18.1334ZM51.8478 18.8018L52.5647 18.6772C52.4479 18.8077 52.3338 18.9408 52.2143 19.0713L51.5118 19.1848C51.6254 19.0575 51.7365 18.9297 51.848 18.8018H51.8478ZM9.65513 34.7083C9.69407 34.7775 9.73249 34.8494 9.7773 34.916L8.94354 35.382C8.89927 35.3128 8.85767 35.2407 8.81873 35.1658L9.65513 34.7083ZM9.93569 35.1493C9.9773 35.202 10.0189 35.2574 10.0632 35.3075L9.2412 35.79L9.11052 35.6233L9.93569 35.1493ZM10.2606 35.521C10.3219 35.5818 10.3854 35.643 10.4553 35.701L9.64658 36.198C9.57724 36.1367 9.50792 36.0728 9.44391 36.0089L10.2606 35.521ZM49.417 21.3237C49.5004 21.2487 49.5783 21.1709 49.6588 21.0931L50.2947 21.0516L50.045 21.2902L49.845 21.4787L49.225 21.5064L49.417 21.3237ZM49.0614 21.6593L49.6754 21.6369C49.5196 21.7786 49.3644 21.9229 49.2059 22.0641L48.6085 22.0699C48.7609 21.9341 48.9115 21.7951 49.0614 21.6593ZM48.0975 22.5248L48.6725 22.536C48.5194 22.6718 48.3642 22.8076 48.2058 22.9407L47.6446 22.9157L48.0975 22.5248ZM11.589 36.4115C11.6722 36.4472 11.7554 36.4861 11.8445 36.5197L11.0859 37.0464C10.9968 37.0107 10.9083 36.9719 10.8219 36.933L11.589 36.4115ZM47.4135 23.1101L47.9666 23.1431C47.7944 23.2901 47.6193 23.4345 47.4413 23.5815L46.9078 23.5346C47.0776 23.3929 47.2472 23.2513 47.4137 23.1101H47.4135ZM11.9858 36.5751C12.0802 36.6113 12.1778 36.6443 12.2776 36.6747L11.5361 37.2073C11.4332 37.1743 11.3302 37.138 11.2331 37.1018L11.9858 36.5751ZM12.636 36.7833L12.9753 36.8664L12.2584 37.4043C12.1389 37.3766 12.0221 37.3489 11.9079 37.3186L12.636 36.7833ZM13.1054 36.8941C16.1042 37.3213 19.1597 37.1047 22.068 36.2587L21.6877 36.7748C18.6722 37.6523 15.5039 37.8772 12.3944 37.4347L13.1054 36.8941ZM32.1806 32.6417C36.7108 30.5686 41.007 28.0197 44.9966 25.0382L45.4607 25.1404C41.3231 28.2327 36.8676 30.8764 32.1694 33.0268L32.1806 32.6417ZM30.8641 33.2297L31.4695 32.9634L31.4365 33.3597L30.8054 33.6345L30.8641 33.2297ZM24.8379 35.4848C25.0182 35.4294 25.2017 35.3708 25.3852 35.3101L25.127 35.7927C24.9376 35.8539 24.7488 35.9146 24.56 35.9732L24.8379 35.4848ZM29.9054 33.6372C30.1246 33.5456 30.3417 33.4545 30.5611 33.3597L30.4918 33.7703C30.2638 33.8678 30.0388 33.9621 29.811 34.0563L29.9054 33.6372ZM25.6743 35.2158C25.8684 35.1519 26.0632 35.0854 26.2573 35.0188L26.0322 35.4901C25.8295 35.5599 25.6295 35.6265 25.4268 35.6931L25.6743 35.2158ZM26.9465 34.7802C27.1551 34.7056 27.3631 34.6278 27.5717 34.5501L27.3935 35.0049C27.1769 35.0854 26.9604 35.1631 26.7465 35.2409L26.9465 34.7802Z" fill="#71FFA9"/>
<path d="M7.59876 31.5267L8.89123 31.0431L9.72764 30.7305L9.85303 30.6836C9.7201 31.0358 9.61136 31.3967 9.52761 31.7637L9.39958 31.817L8.55145 32.169L7.24241 32.7128C7.33362 32.3097 7.4527 31.9134 7.59876 31.5267Z" fill="#71FFA9"/>
<path d="M9.4649 32.083L9.44356 32.2268L9.31554 32.2854L8.46204 32.6529L7.1498 33.2228L7.17112 33.063L8.48872 32.5038L9.33689 32.1363L9.4649 32.083Z" fill="#71FFA9"/>
<path d="M9.4104 32.509C9.3992 32.6187 9.39545 32.7257 9.39225 32.8312L9.2621 32.8908L8.41024 33.2823L7.09269 33.8873C7.09536 33.7718 7.10069 33.6551 7.11349 33.5342L8.42945 32.9468L9.28078 32.567L9.4104 32.509Z" fill="#71FFA9"/>
<path d="M9.90315 34.845C9.95329 34.9238 10.0056 35.0016 10.0616 35.0772L9.93567 35.1491L9.10888 35.6242L7.82921 36.3597C7.76733 36.2772 7.70974 36.1909 7.65373 36.1051L8.943 35.3829L9.77618 34.9163L9.90315 34.845Z" fill="#71FFA9"/>
<path d="M10.1862 35.2354C10.2497 35.3067 10.3131 35.3781 10.382 35.4463L10.2587 35.5198L9.44368 36.0087L8.18105 36.7656C8.10584 36.6905 8.03649 36.6122 7.96715 36.5339L9.23991 35.7887L10.0624 35.3078L10.1862 35.2354Z" fill="#71FFA9"/>
<path d="M9.39469 33.1109L9.40002 33.2174L9.26668 33.276L8.41854 33.6808L7.10098 34.3093L7.09565 34.1974L8.41321 33.5743L9.26135 33.1748L9.39469 33.1109Z" fill="#71FFA9"/>
<path d="M11.9669 36.4343L12.1162 36.4822L11.9882 36.5727L11.236 37.1L10.0838 37.9096L9.92379 37.851L11.0867 37.0468L11.8441 36.5195L11.9669 36.4343Z" fill="#71FFA9"/>
<path d="M12.4054 36.584C12.5208 36.6298 12.6403 36.6647 12.7622 36.6884L12.6353 36.7816L11.9071 37.3169L10.7982 38.1323C10.6642 38.1041 10.5324 38.0662 10.4039 38.0189L11.5364 37.2072L12.2773 36.6762L12.4054 36.584Z" fill="#71FFA9"/>
<path d="M13.1033 36.7697L13.226 36.8017L13.1033 36.8922L12.3939 37.4355L11.311 38.2557L11.1723 38.2238L12.2605 37.4035L12.9753 36.8656L13.1033 36.7697Z" fill="#71FFA9"/>
<path d="M9.42468 33.4868C9.47359 33.8888 9.59504 34.2785 9.78314 34.6373L9.65511 34.7076L8.81765 35.1661L7.52193 35.8761C7.31658 35.4803 7.18313 35.0513 7.12774 34.609L8.44425 33.9662L9.29453 33.5502L9.42468 33.4868Z" fill="#71FFA9"/>
<path d="M10.5773 35.6257C10.7439 35.7634 10.9206 35.8884 11.1059 35.9996C11.3 36.1239 11.5039 36.2322 11.7156 36.3235L11.5876 36.4108L10.8216 36.9322L9.64914 37.7306C9.41563 37.6321 9.19125 37.5132 8.97861 37.3754C8.7746 37.2519 8.57975 37.114 8.39558 36.9626L9.64646 36.1962L10.4546 35.7014L10.5773 35.6257Z" fill="#71FFA9"/>
<path d="M25.4243 35.2307L25.7177 35.1348L25.675 35.2147L25.4296 35.6941L25.0509 36.4238L24.7361 36.525L25.1256 35.7899L25.3816 35.3106L25.4243 35.2307Z" fill="#71FFA9"/>
<path d="M26.2931 34.9482L26.9813 34.7032L26.9439 34.7778L26.7466 35.2412L26.4372 35.9495L25.685 36.2158L26.0318 35.4915L26.2558 35.0175L26.2931 34.9482Z" fill="#71FFA9"/>
<path d="M27.6006 34.4797L27.83 34.3998L27.3712 35.6142L27.1205 35.6994L27.3926 35.007L27.5739 34.549L27.6006 34.4797Z" fill="#71FFA9"/>
<path d="M22.1297 36.1739L23.4873 35.8203L24.8816 35.4086L24.8384 35.4842L24.5605 35.9721L24.1327 36.723L22.5986 37.1752C22.0982 37.3089 21.6032 37.4351 21.1045 37.5645L21.6875 36.7736L22.0684 36.2575L22.1297 36.1739Z" fill="#71FFA9"/>
<path d="M29.9212 33.5657L29.9057 33.636L29.8129 34.0568L29.671 34.6997L29.0912 34.942C28.9008 35.0187 28.7098 35.0911 28.5183 35.1667L27.3736 35.612L27.8307 34.3977L28.872 33.9918C29.0464 33.9231 29.2198 33.8571 29.3947 33.7873L29.9212 33.5657Z" fill="#71FFA9"/>
<path d="M30.8771 33.1642L30.8665 33.2281L30.8078 33.6329L30.7171 34.2613L30.3864 34.3998L30.4931 33.7713L30.5624 33.3612L30.5731 33.292L30.8771 33.1642Z" fill="#71FFA9"/>
<path d="M32.1825 32.5781L32.1772 32.642L32.1718 33.0255L32.1558 33.6167L31.3824 33.9629L31.4357 33.3611L31.473 32.9616L31.4784 32.8977L32.1825 32.5781Z" fill="#71FFA9"/>
<path d="M45.113 24.8715L45.1931 24.8874L45.6678 24.9886L46.3826 25.1324L46.1692 25.2976L45.4598 25.1431L44.9957 25.0366L44.921 25.0206L45.113 24.8715Z" fill="#71FFA9"/>
<path d="M46.8174 23.5253L46.9097 23.5333L47.4431 23.5812L48.2576 23.6542C47.9513 23.9018 47.6538 24.15 47.3386 24.3977L46.3838 25.1343L45.6669 24.9862L45.1958 24.8888L45.1135 24.8717L45.9842 24.2006C46.2691 23.9759 46.539 23.7495 46.8174 23.5253Z" fill="#71FFA9"/>
<path d="M47.5506 22.9113L47.6467 22.9166L48.2067 22.9432L49.0656 22.9805L48.8148 23.1935L47.9667 23.1456L47.4173 23.1083H47.3266L47.5506 22.9113Z" fill="#71FFA9"/>
<path d="M48.5139 22.0708L48.6104 22.0698L49.2063 22.0639L50.1227 22.0543C49.9466 22.22 49.752 22.3877 49.5589 22.5528L48.6744 22.5363L48.0973 22.5252L48.0013 22.5236C48.1783 22.3723 48.3538 22.221 48.5139 22.0708Z" fill="#71FFA9"/>
<path d="M52.1143 18.3837L52.2242 18.3618L52.9534 18.2191L54.0815 17.9986C53.9482 18.1589 53.8122 18.3197 53.6719 18.4811L52.564 18.6771L51.8486 18.8033L51.7404 18.8225C51.8684 18.6761 51.9922 18.5296 52.1143 18.3837Z" fill="#71FFA9"/>
<path d="M52.7075 17.6405L52.8222 17.6144L53.5748 17.4435L54.7382 17.1788C54.6161 17.337 54.4918 17.4962 54.3632 17.6544L53.2196 17.8941L52.4791 18.0496L52.3661 18.073C52.4851 17.9276 52.5976 17.7838 52.7075 17.6405Z" fill="#71FFA9"/>
<path d="M49.125 21.5105L49.2263 21.5052L49.8451 21.4785L50.7946 21.4359L50.6132 21.601L49.6744 21.6383L49.0609 21.6596H48.9596L49.125 21.5105Z" fill="#71FFA9"/>
<path d="M54.421 15.0019L54.549 14.9593L55.3598 14.6877L56.624 14.2722L56.528 14.4586L55.2692 14.8687L54.4584 15.1297L54.3303 15.167L54.421 15.0019Z" fill="#71FFA9"/>
<path d="M54.7648 14.2786L54.8928 14.2328L55.7196 13.9377L57.0015 13.4813C56.9401 13.6208 56.8761 13.762 56.8073 13.9047L55.5356 14.3399L54.7152 14.6211L54.5893 14.6637C54.6512 14.5343 54.7104 14.4054 54.7648 14.2786Z" fill="#71FFA9"/>
<path d="M54.9538 13.8142L55.0818 13.7663L55.9193 13.4521L57.2102 12.9674L57.1569 13.1059L55.866 13.5799L55.0338 13.8888L54.9058 13.9368L54.9538 13.8142Z" fill="#71FFA9"/>
<path d="M51.405 19.2012L51.5111 19.1841L52.2137 19.0723L53.3029 18.8981C52.6836 19.5879 52.0083 20.2842 51.2769 20.987L50.2933 21.0525L49.6585 21.0946L49.562 21.101C50.2261 20.4629 50.8404 19.8297 51.405 19.2012Z" fill="#71FFA9"/>
<path d="M54.1526 15.4942L54.2767 15.4558L55.0822 15.2049L56.3268 14.8177C55.9427 15.4875 55.5189 16.1338 55.0578 16.7532L53.8795 17.0392L53.1162 17.2246L52.9999 17.2528C53.4183 16.6896 53.8032 16.1024 54.1526 15.4942Z" fill="#71FFA9"/>
<path d="M57.5641 11.7824C57.5119 11.9779 57.4729 12.1675 57.411 12.3657L57.21 12.9686L55.9174 13.4522L55.0837 13.7643L54.9562 13.8117L55.1386 13.2636C55.1962 13.082 55.2309 12.91 55.2757 12.7331L55.4112 12.6772L56.2572 12.3252L57.5641 11.7824Z" fill="#71FFA9"/>
<path d="M57.653 11.2737L57.6316 11.4335L56.3194 11.9927L55.4712 12.3549L55.3379 12.4135L55.3592 12.2697L55.4979 12.2111L56.3461 11.8436L57.653 11.2737Z" fill="#71FFA9"/>
<path d="M57.7126 10.6079L57.6966 10.9595L56.379 11.5453L55.5308 11.9288L55.3975 11.9874L55.4134 11.6625L55.5468 11.6039L56.4003 11.2098L57.7126 10.6079Z" fill="#71FFA9"/>
<path d="M56.9766 8.13666L57.1526 8.39231L55.8617 9.11667L55.0296 9.58004L54.9016 9.64928L54.7469 9.42026L54.8696 9.35102L55.691 8.87699L56.9766 8.13666Z" fill="#71FFA9"/>
<path d="M56.624 7.7319L56.8374 7.96626L55.5625 8.71191L54.741 9.19126L54.613 9.26582L54.4263 9.04746L54.5437 8.97822L55.3545 8.49354L56.624 7.7319Z" fill="#71FFA9"/>
<path d="M57.7019 10.1873L57.7126 10.2991L56.395 10.9169L55.5469 11.3217L55.4082 11.3856L55.4028 11.2791L55.5415 11.2152L56.3897 10.8104L57.7019 10.1873Z" fill="#71FFA9"/>
<path d="M54.7317 6.58151L54.8811 6.64543L53.7076 7.46032L52.9501 7.98228L52.8435 8.06217L52.7048 8.00358L52.8114 7.92902L53.5582 7.40706L54.7317 6.58151Z" fill="#71FFA9"/>
<path d="M54.014 6.35944C54.1553 6.38979 54.2759 6.4356 54.405 6.47501L53.2544 7.30055L52.5145 7.83103L52.4057 7.90932C52.2887 7.86848 52.1698 7.83364 52.0494 7.80493L52.1555 7.72717L52.8815 7.19244L54.014 6.35944Z" fill="#71FFA9"/>
<path d="M53.5032 6.23529L53.6365 6.27257L52.527 7.10878L51.8122 7.64139L51.7109 7.72128L51.5828 7.68932L51.6842 7.61476L52.3937 7.07682L53.5032 6.23529Z" fill="#71FFA9"/>
<path d="M57.2815 8.6214L57.425 8.91434C57.4634 9.0166 57.4943 9.12366 57.5306 9.22698C57.5979 9.44199 57.6481 9.66191 57.681 9.88475L56.3624 10.5292L55.5127 10.9447L55.3842 11.0075C55.3541 10.8053 55.3085 10.6056 55.2476 10.4104C55.2145 10.3162 55.1889 10.2176 55.15 10.1271L55.0204 9.86025L55.1489 9.78941L55.9853 9.33137L57.2815 8.6214Z" fill="#71FFA9"/>
<path d="M55.1621 6.76254C55.2815 6.81085 55.3973 6.86726 55.5089 6.93138C55.6173 6.99316 55.7363 7.04855 55.836 7.11566C56.0364 7.24057 56.2266 7.38089 56.405 7.53536L55.1532 8.30392L54.3467 8.79924L54.2246 8.87381C54.0625 8.73345 53.89 8.60544 53.7087 8.49086C53.6175 8.43014 53.5093 8.38008 53.4095 8.32469C53.3092 8.2649 53.2043 8.21307 53.0959 8.16969L53.2078 8.093L53.9726 7.5721L55.1621 6.76254Z" fill="#71FFA9"/>
<path d="M39.7597 8.06755C39.8685 8.03027 39.9747 7.99405 40.0792 7.9621L39.6813 8.70455L39.4237 9.18603L39.384 9.25952C39.2892 9.28828 39.1906 9.3213 39.094 9.35539L39.1324 9.28135L39.3794 8.80308L39.7597 8.06755Z" fill="#71FFA9"/>
<path d="M38.3702 8.54531C38.6254 8.45157 38.8729 8.36582 39.1209 8.28326L38.7737 9.00654L38.5475 9.47737L38.5118 9.55247C38.2882 9.62651 38.0605 9.70479 37.8306 9.78948L37.8626 9.71704L38.0626 9.25527L38.3702 8.54531Z" fill="#71FFA9"/>
<path d="M37.4375 8.8822L37.6882 8.79166L37.4162 9.48936L37.2348 9.94209L37.2081 10.0166L36.9788 10.0965L37.0054 10.0273L37.1761 9.57991L37.4375 8.8822Z" fill="#71FFA9"/>
<path d="M40.6711 7.77605C41.1933 7.60774 41.6968 7.47033 42.2094 7.32013C42.4628 7.24716 42.7087 7.18751 42.9578 7.12147C43.2079 7.05649 43.4603 6.98672 43.6998 6.93292L43.1131 7.7297L42.7322 8.24581L42.6744 8.3241C42.4557 8.3731 42.2276 8.43647 42.0009 8.49613C41.7736 8.55631 41.5517 8.60958 41.3195 8.67669C40.8551 8.81304 40.398 8.93553 39.9227 9.09052L39.9659 9.01383L40.2438 8.52595L40.6711 7.77605Z" fill="#71FFA9"/>
<path d="M37.4359 8.88336L37.1739 9.57949L37.0043 10.0301L36.9787 10.0977L35.9364 10.5004C35.588 10.6367 35.2376 10.7848 34.8898 10.9254L34.9042 10.8593L34.997 10.4391L35.14 9.792C35.5235 9.63701 35.9092 9.47509 36.2927 9.3249L37.4359 8.88336Z" fill="#71FFA9"/>
<path d="M34.4225 10.0966L34.3159 10.725L34.2465 11.1351L34.2359 11.1991L33.9372 11.3322L33.9425 11.2683L34.0012 10.8635L34.0918 10.2404L34.4225 10.0966Z" fill="#71FFA9"/>
<path d="M33.4301 10.5282L33.3714 11.1354L33.3394 11.5348L33.334 11.5934L32.6246 11.913L32.6299 11.8544L32.6406 11.4709L32.6513 10.8797L33.4301 10.5282Z" fill="#71FFA9"/>
<path d="M31.9546 11.2099L31.9759 11.7798L31.9919 12.1526V12.2112L31.7572 12.3231V12.2645L31.7305 11.897L31.6985 11.3271L31.9546 11.2099Z" fill="#71FFA9"/>
<path d="M30.9938 11.6651L31.0664 12.2174L31.1128 12.5748L31.1198 12.6276C30.6231 12.8784 30.1242 13.117 29.6319 13.3791C29.3849 13.5085 29.14 13.6336 28.8925 13.7647L28.1564 14.1652L28.1329 14.1194L27.9761 13.8195L27.7339 13.3562L28.5426 12.9168C28.8115 12.7745 29.0835 12.6345 29.3571 12.4917C29.8975 12.2052 30.4469 11.9405 30.9938 11.6651Z" fill="#71FFA9"/>
<path d="M15.9937 21.3027L16.8525 21.3507L17.4072 21.3826L17.4872 21.388L17.2579 21.5797H17.1725L16.6124 21.5531L15.743 21.5158L15.9937 21.3027Z" fill="#71FFA9"/>
<path d="M15.2472 21.9418L16.1433 21.9578L16.7247 21.9685H16.8047L16.2927 22.4212L16.2073 22.4265L15.6099 22.4318L14.6818 22.4425L15.2472 21.9418Z" fill="#71FFA9"/>
<path d="M11.1454 26.0126L12.2511 25.8166L12.9675 25.6899L13.0774 25.6702C12.951 25.8172 12.8128 25.9663 12.7008 26.1101L12.5914 26.1314L11.8612 26.2747L10.7309 26.4957C10.8573 26.337 11.0072 26.1735 11.1454 26.0126Z" fill="#71FFA9"/>
<path d="M10.4523 26.8383L11.5933 26.5991L12.3336 26.4441L12.4473 26.4202C12.3278 26.5656 12.2083 26.7115 12.1059 26.8532L11.9901 26.8793L11.237 27.0503L10.0752 27.3144C10.1899 27.1578 10.3211 26.9975 10.4523 26.8383Z" fill="#71FFA9"/>
<path d="M14.1902 22.8902L15.1397 22.8582L15.7531 22.8369L15.8438 22.8316L15.6838 22.9861H15.5931L14.9743 23.0127L14.0142 23.0553L14.1902 22.8902Z" fill="#71FFA9"/>
<path d="M8.28552 30.034L9.54009 29.6281L10.3535 29.3656L10.4783 29.3251C10.4458 29.3793 10.4168 29.4355 10.3914 29.4934L10.2639 29.5349L9.44726 29.8044L8.19001 30.2193C8.21935 30.1586 8.24872 30.0979 8.28552 30.034Z" fill="#71FFA9"/>
<path d="M8.00765 30.5872L9.27187 30.1547L10.0949 29.873L10.2256 29.8282C10.159 29.9603 10.0976 30.0887 10.0485 30.2133L9.91785 30.2602L9.08837 30.5563L7.81349 31.0112C7.87051 30.8665 7.93532 30.725 8.00765 30.5872Z" fill="#71FFA9"/>
<path d="M7.65676 31.3851L8.9423 30.911L9.77441 30.6075L9.90778 30.5542L9.85444 30.682L9.72641 30.73L8.88896 31.0442L7.5981 31.5289L7.65676 31.3851Z" fill="#71FFA9"/>
<path d="M13.5401 23.5077L14.5216 23.4438L15.1564 23.4012L15.2524 23.3959L14.7616 23.8699L14.2922 24.3439L14.0575 24.5836L13.8441 24.818L13.4014 25.292L13.3054 25.308L12.6013 25.4198L11.5077 25.5956L11.9878 25.0789L12.2279 24.818L12.4839 24.557L12.996 24.0297L13.5401 23.5077Z" fill="#71FFA9"/>
<path d="M9.75388 27.7409L10.9328 27.4549L11.6961 27.2696L11.8118 27.2413C11.6918 27.3942 11.5979 27.5407 11.4928 27.6887C11.3947 27.8357 11.2811 27.988 11.1904 28.1324C11.0122 28.4216 10.8101 28.7188 10.6618 28.9989L10.5348 29.0384L9.72771 29.2897L8.4875 29.6754C8.65339 29.3664 8.86998 29.0421 9.06788 28.7236C9.16923 28.5627 9.29191 28.396 9.40233 28.2341C9.51809 28.0706 9.62426 27.9076 9.75388 27.7409Z" fill="#71FFA9"/>
</g>
<defs>
<filter id="filter0_f_72_422" x="0" y="0" width="68.4037" height="51" filterUnits="userSpaceOnUse" color-interpolation-filters="sRGB">
<feFlood flood-opacity="0" result="BackgroundImageFix"/>
<feBlend mode="normal" in="SourceGraphic" in2="BackgroundImageFix" result="shape"/>
<feGaussianBlur stdDeviation="2" result="effect1_foregroundBlur_72_422"/>
</filter>
</defs>
</svg>
