<svg width="804" height="824" viewBox="0 0 804 824" fill="none" xmlns="http://www.w3.org/2000/svg">
<g opacity="0.5">
<path opacity="0.0344828" d="M102.516 631.362C106.339 635.918 112.113 638.757 119.74 639.901C127.375 641.046 136.804 640.481 147.817 638.28C169.843 633.877 197.998 622.974 230.381 606.499C295.134 573.558 376.597 518.446 459.402 448.965C542.206 379.483 610.627 308.828 654.312 250.779C676.16 221.748 691.786 195.915 699.947 174.988C704.027 164.524 706.221 155.337 706.419 147.619C706.616 139.909 704.824 133.73 701.001 129.173C697.177 124.617 691.403 121.779 683.776 120.635C676.141 119.489 666.712 120.054 655.699 122.256C633.673 126.658 605.519 137.562 573.135 154.036C508.382 186.978 426.919 242.089 344.114 311.571C261.31 381.052 192.89 451.707 149.204 509.756C127.357 538.787 111.73 564.62 103.57 585.547C99.4894 596.011 97.2956 605.199 97.0976 612.917C96.8998 620.626 98.6925 626.806 102.516 631.362Z" stroke="url(#paint0_linear_72_13)" stroke-opacity="0.35" stroke-width="2"/>
<path opacity="0.0689655" d="M125.538 659.613C129.744 663.818 135.744 666.143 143.441 666.618C151.147 667.093 160.491 665.709 171.271 662.556C192.829 656.25 219.926 642.935 250.751 623.7C312.386 585.241 388.736 523.239 465.17 446.805C541.603 370.371 603.605 294.022 642.065 232.386C661.299 201.561 674.615 174.464 680.92 152.906C684.073 142.126 685.458 132.782 684.982 125.077C684.508 117.379 682.183 111.379 677.977 107.174C673.772 102.968 667.772 100.644 660.075 100.169C652.369 99.6934 643.025 101.078 632.245 104.231C610.687 110.536 583.59 123.852 552.765 143.086C491.13 181.546 414.78 243.548 338.346 319.982C261.912 396.416 199.911 472.765 161.451 534.401C142.217 565.225 128.901 592.322 122.595 613.88C119.443 624.66 118.058 634.004 118.533 641.71C119.008 649.408 121.333 655.407 125.538 659.613Z" stroke="url(#paint1_linear_72_13)" stroke-opacity="0.35" stroke-width="2"/>
<path opacity="0.103448" d="M150.664 685.763C155.22 689.586 161.399 691.379 169.109 691.181C176.827 690.983 186.015 688.789 196.479 684.709C217.405 676.548 243.239 660.922 272.27 639.074C330.319 595.389 400.974 526.969 470.455 444.164C539.937 361.359 595.048 279.897 627.99 215.144C644.464 182.76 655.368 154.605 659.77 132.58C661.971 121.566 662.536 112.137 661.391 104.502C660.247 96.8751 657.409 91.1009 652.852 87.2778C648.296 83.4547 642.117 81.662 634.407 81.8598C626.689 82.0578 617.501 84.2516 607.038 88.3319C586.111 96.4921 560.278 112.119 531.247 133.967C473.198 177.652 402.542 246.072 333.061 328.877C263.58 411.681 208.468 493.144 175.527 557.897C159.052 590.281 148.149 618.435 143.746 640.461C141.545 651.474 140.98 660.903 142.125 668.539C143.269 676.166 146.108 681.94 150.664 685.763Z" stroke="url(#paint2_linear_72_13)" stroke-opacity="0.35" stroke-width="2"/>
<path opacity="0.137931" d="M177.7 709.635C182.572 713.047 188.884 714.294 196.547 713.425C204.218 712.555 213.18 709.569 223.248 704.592C243.384 694.639 267.757 676.82 294.773 652.526C348.794 603.947 413.217 529.629 475.217 441.084C537.217 352.539 585.019 266.583 612.192 199.205C625.781 165.509 634.189 136.511 636.655 114.186C637.888 103.022 637.629 93.5799 635.823 86.0736C634.019 78.5754 630.688 73.0706 625.816 69.6591C620.944 66.2477 614.632 65.0003 606.969 65.8694C599.297 66.7393 590.336 69.7255 580.267 74.7022C560.131 84.6553 535.758 102.474 508.742 126.769C454.721 175.347 390.298 249.665 328.298 338.21C266.298 426.756 218.496 512.712 191.324 580.089C177.734 613.786 169.326 642.783 166.86 665.109C165.627 676.272 165.886 685.715 167.692 693.221C169.497 700.719 172.828 706.224 177.7 709.635Z" stroke="url(#paint3_linear_72_13)" stroke-opacity="0.35" stroke-width="2"/>
<path opacity="0.172414" d="M206.441 731.072C211.592 734.046 217.989 734.738 225.547 733.205C233.113 731.67 241.781 727.914 251.377 722.078C270.569 710.408 293.296 690.533 318.092 663.976C367.673 610.874 425.374 531.225 479.421 437.613C533.468 344 573.596 254.205 594.793 184.716C605.394 149.963 611.243 120.343 611.754 97.8877C612.009 86.6594 610.928 77.2754 608.474 69.9551C606.023 62.6427 602.225 57.4492 597.075 54.4753C591.924 51.5015 585.527 50.809 577.969 52.3426C570.402 53.8779 561.735 57.6337 552.139 63.469C532.947 75.1392 510.22 95.0145 485.424 121.571C435.842 174.673 378.142 254.323 324.095 347.935C270.048 441.547 229.92 531.342 208.723 600.832C198.122 635.584 192.273 665.204 191.762 687.66C191.507 698.888 192.588 708.272 195.041 715.592C197.492 722.905 201.29 728.098 206.441 731.072Z" stroke="url(#paint4_linear_72_13)" stroke-opacity="0.35" stroke-width="2"/>
<path opacity="0.206897" d="M236.669 749.935C242.059 752.448 248.492 752.581 255.888 750.394C263.292 748.205 271.599 743.708 280.65 737.059C298.751 723.76 319.66 701.98 342.047 673.363C386.812 616.142 437.351 531.766 483.033 433.8C528.716 335.834 560.865 242.883 575.925 171.81C583.457 136.266 586.702 106.249 585.253 83.8344C584.529 72.6266 582.635 63.3725 579.552 56.2939C576.473 49.2229 572.237 44.3802 566.847 41.8666C561.456 39.353 555.023 39.2207 547.628 41.4072C540.224 43.5961 531.917 48.093 522.866 54.7425C504.764 68.0409 483.856 89.8214 461.468 118.438C416.704 175.659 366.165 260.035 320.482 358.001C274.8 455.968 242.65 548.918 227.591 619.991C220.059 655.535 216.814 685.552 218.262 707.967C218.986 719.175 220.881 728.429 223.963 735.507C227.042 742.578 231.279 747.421 236.669 749.935Z" stroke="url(#paint5_linear_72_13)" stroke-opacity="0.35" stroke-width="2"/>
<path opacity="0.241379" d="M268.153 766.104C273.742 768.138 280.162 767.709 287.339 764.886C294.524 762.061 302.408 756.857 310.845 749.444C327.718 734.618 346.649 711.098 366.457 680.639C406.064 619.734 449.057 531.275 486.027 429.7C522.998 328.125 546.924 232.726 555.732 160.611C560.137 124.546 560.753 94.3602 557.357 72.1571C555.659 61.055 552.965 52.0013 549.277 45.2183C545.594 38.4426 540.951 33.9875 535.362 31.9533C529.773 29.919 523.354 30.3479 516.176 33.1706C508.992 35.9964 501.108 41.2003 492.671 48.6134C475.797 63.4388 456.867 86.9587 437.059 117.418C397.452 178.323 354.459 266.782 317.489 368.357C280.518 469.932 256.592 565.331 247.784 637.446C243.379 673.511 242.763 703.697 246.159 725.9C247.857 737.002 250.551 746.056 254.239 752.839C257.922 759.614 262.564 764.07 268.153 766.104Z" stroke="url(#paint6_linear_72_13)" stroke-opacity="0.35" stroke-width="2"/>
<path opacity="0.275862" d="M300.655 779.476C306.4 781.016 312.758 780.029 319.661 776.591C326.573 773.15 333.972 767.279 341.731 759.159C357.249 742.919 374.057 717.839 391.135 685.769C425.283 621.644 460.403 529.774 488.38 425.364C516.357 320.953 531.877 223.832 534.366 151.224C535.611 114.912 533.595 84.787 528.276 62.9644C525.617 52.0526 522.144 43.2682 517.879 36.8323C513.619 30.4034 508.606 26.3699 502.861 24.8305C497.116 23.2911 490.758 24.2779 483.854 27.7154C476.943 31.1567 469.543 37.0278 461.784 45.148C446.267 61.3877 429.458 86.468 412.38 118.538C378.232 182.663 343.113 274.532 315.136 378.943C287.159 483.354 271.639 580.475 269.149 653.083C267.905 689.395 269.921 719.52 275.24 741.342C277.899 752.254 281.372 761.039 285.637 767.474C289.897 773.903 294.91 777.937 300.655 779.476Z" stroke="url(#paint7_linear_72_13)" stroke-opacity="0.35" stroke-width="2"/>
<path opacity="0.310345" d="M333.925 789.979C339.783 791.012 346.03 789.475 352.608 785.448C359.193 781.418 366.053 774.924 373.075 766.159C387.118 748.628 401.677 722.178 415.895 688.742C444.324 621.885 471.303 527.304 490.073 420.852C508.843 314.401 515.84 216.296 511.992 143.748C510.067 107.465 505.433 77.6311 498.232 56.3551C494.632 45.7166 490.407 37.2682 485.598 31.2285C480.793 25.1954 475.448 21.6141 469.591 20.5813C463.733 19.5485 457.486 21.0856 450.908 25.1118C444.323 29.1423 437.463 35.636 430.441 44.4016C416.398 61.9319 401.839 88.3817 387.621 121.818C359.192 188.675 332.213 283.256 313.443 389.708C294.672 496.159 287.676 594.264 291.524 666.812C293.449 703.095 298.083 732.929 305.283 754.205C308.884 764.844 313.109 773.292 317.918 779.332C322.723 785.365 328.068 788.946 333.925 789.979Z" stroke="url(#paint8_linear_72_13)" stroke-opacity="0.35" stroke-width="2"/>
<path opacity="0.344828" d="M367.712 797.554C373.637 798.072 379.727 795.996 385.929 791.412C392.138 786.823 398.406 779.756 404.637 770.412C417.099 751.724 429.297 724.106 440.546 689.558C463.04 620.478 481.673 523.905 491.094 416.223C500.515 308.54 498.935 210.199 488.778 138.262C483.699 102.285 476.482 72.9688 467.455 52.4012C462.941 42.117 457.995 34.0691 452.678 28.4715C447.366 22.8801 441.729 19.7783 435.804 19.2599C429.879 18.7415 423.789 20.8173 417.587 25.4015C411.378 29.9906 405.11 37.0575 398.879 46.4017C386.418 65.0892 374.22 92.7072 362.97 127.255C340.476 196.336 321.843 292.908 312.422 400.591C303.001 508.273 304.581 606.614 314.738 678.551C319.817 714.528 327.034 743.845 336.062 764.412C340.575 774.697 345.521 782.745 350.838 788.342C356.15 793.933 361.787 797.035 367.712 797.554Z" stroke="url(#paint9_linear_72_13)" stroke-opacity="0.35" stroke-width="2"/>
<path opacity="0.37931" d="M401.758 802.168C407.706 802.168 413.592 799.569 419.371 794.462C425.156 789.349 430.784 781.763 436.177 771.911C446.962 752.209 456.707 723.633 464.903 688.236C481.29 617.458 491.436 519.629 491.436 411.535C491.436 303.441 481.29 205.612 464.903 134.834C456.707 99.4366 446.962 70.8605 436.177 51.158C430.784 41.3063 425.156 33.7201 419.371 28.6073C413.592 23.5 407.706 20.9014 401.758 20.9014C395.811 20.9014 389.925 23.5 384.146 28.6073C378.361 33.7201 372.733 41.3063 367.34 51.158C356.554 70.8605 346.809 99.4366 338.614 134.834C322.226 205.612 312.081 303.441 312.081 411.535C312.081 519.629 322.226 617.458 338.614 688.236C346.809 723.633 356.554 752.209 367.34 771.911C372.733 781.763 378.361 789.349 384.146 794.462C389.925 799.569 395.811 802.168 401.758 802.168Z" stroke="url(#paint10_linear_72_13)" stroke-opacity="0.35" stroke-width="2"/>
<path opacity="0.413793" d="M435.804 803.809C441.729 803.291 447.366 800.189 452.678 794.598C457.995 789 462.941 780.952 467.455 770.668C476.482 750.1 483.699 720.784 488.778 684.807C498.935 612.87 500.516 514.529 491.095 406.846C481.674 299.164 463.04 202.591 440.546 133.511C429.297 98.9628 417.099 71.3447 404.637 52.6572C398.406 43.313 392.138 36.2462 385.929 31.657C379.727 27.0729 373.637 24.9971 367.712 25.5155C361.787 26.0339 356.15 29.1356 350.838 34.7271C345.521 40.3246 340.575 48.3726 336.062 58.6568C327.034 79.2243 319.817 108.541 314.738 144.518C304.581 216.455 303.001 314.796 312.422 422.478C321.843 530.161 340.476 626.733 362.97 695.814C374.22 730.362 386.418 757.98 398.879 776.667C405.11 786.012 411.378 793.079 417.587 797.668C423.789 802.252 429.879 804.328 435.804 803.809Z" stroke="url(#paint11_linear_72_13)" stroke-opacity="0.35" stroke-width="2"/>
<path opacity="0.448276" d="M469.591 802.488C475.448 801.455 480.794 797.874 485.598 791.841C490.407 785.801 494.632 777.353 498.233 766.715C505.433 745.438 510.067 715.604 511.992 679.322C515.84 606.773 508.844 508.669 490.073 402.217C471.303 295.765 444.324 201.184 415.895 134.327C401.677 100.891 387.118 74.4413 373.075 56.911C366.053 48.1454 359.193 41.6517 352.608 37.6212C346.031 33.595 339.783 32.0579 333.925 33.0907C328.068 34.1235 322.723 37.7048 317.919 43.7379C313.109 49.7776 308.884 58.226 305.284 68.8645C298.083 90.1405 293.449 119.975 291.524 156.257C287.676 228.806 294.673 326.91 313.443 433.362C332.213 539.813 359.192 634.395 387.622 701.252C401.839 734.688 416.398 761.138 430.441 778.668C437.463 787.434 444.323 793.927 450.908 797.958C457.486 801.984 463.734 803.521 469.591 802.488Z" stroke="url(#paint12_linear_72_13)" stroke-opacity="0.35" stroke-width="2"/>
<path opacity="0.482759" d="M502.861 798.238C508.606 796.698 513.619 792.665 517.879 786.236C522.144 779.8 525.617 771.016 528.276 760.104C533.595 738.281 535.611 708.157 534.366 671.845C531.877 599.237 516.357 502.115 488.38 397.705C460.403 293.294 425.284 201.424 391.135 137.299C374.058 105.23 357.249 80.1493 341.732 63.9096C333.973 55.7894 326.573 49.9183 319.661 46.477C312.758 43.0395 306.4 42.0527 300.655 43.5921C294.91 45.1315 289.897 49.165 285.637 55.5939C281.372 62.0297 277.899 70.8142 275.24 81.726C269.921 103.549 267.905 133.673 269.15 169.985C271.639 242.593 287.159 339.715 315.136 444.125C343.113 548.536 378.233 640.406 412.381 704.531C429.458 736.6 446.267 761.681 461.785 777.92C469.544 786.041 476.943 791.912 483.855 795.353C490.758 798.79 497.116 799.777 502.861 798.238Z" stroke="url(#paint13_linear_72_13)" stroke-opacity="0.35" stroke-width="2"/>
<path opacity="0.517241" d="M535.363 791.117C540.952 789.083 545.594 784.628 549.277 777.853C552.965 771.069 555.659 762.016 557.357 750.914C560.754 728.711 560.137 698.525 555.732 662.459C546.924 590.345 522.998 494.946 486.028 393.371C449.057 291.796 406.064 203.336 366.457 142.432C346.649 111.972 327.719 88.4525 310.845 73.6271C302.408 66.214 294.524 61.0102 287.34 58.1843C280.163 55.3616 273.743 54.9327 268.154 56.967C262.565 59.0012 257.922 63.4563 254.239 70.232C250.551 77.015 247.857 86.0687 246.159 97.1708C242.763 119.374 243.379 149.56 247.784 185.625C256.593 257.74 280.519 353.139 317.489 454.714C354.459 556.289 397.452 644.748 437.059 705.653C456.867 736.112 475.798 759.632 492.671 774.457C501.109 781.87 508.992 787.074 516.177 789.9C523.354 792.723 529.774 793.152 535.363 791.117Z" stroke="url(#paint14_linear_72_13)" stroke-opacity="0.35" stroke-width="2"/>
<path opacity="0.551724" d="M566.847 781.202C572.237 778.689 576.473 773.846 579.552 766.775C582.635 759.696 584.529 750.442 585.254 739.235C586.702 716.82 583.457 686.803 575.925 651.259C560.865 580.186 528.716 487.235 483.033 389.269C437.351 291.303 386.812 206.927 342.047 149.706C319.66 121.089 298.752 99.3086 280.65 86.0102C271.599 79.3607 263.292 74.8637 255.888 72.6749C248.492 70.4884 242.06 70.6207 236.669 73.1343C231.279 75.6479 227.042 80.4906 223.963 87.5616C220.881 94.6402 218.986 103.894 218.262 115.102C216.814 137.517 220.059 167.534 227.591 203.078C242.65 274.151 274.8 367.101 320.482 465.068C366.165 563.034 416.704 647.41 461.468 704.631C483.856 733.248 504.764 755.028 522.866 768.326C531.917 774.976 540.224 779.473 547.628 781.662C555.023 783.848 561.456 783.716 566.847 781.202Z" stroke="url(#paint15_linear_72_13)" stroke-opacity="0.35" stroke-width="2"/>
<path opacity="0.586207" d="M597.075 768.594C602.226 765.62 606.024 760.426 608.475 753.114C610.928 745.794 612.009 736.41 611.754 725.181C611.243 702.726 605.394 673.106 594.793 638.353C573.597 568.864 533.468 479.069 479.421 385.457C425.374 291.845 367.674 212.195 318.092 159.093C293.296 132.536 270.569 112.661 251.377 100.991C241.781 95.1555 233.114 91.3996 225.547 89.8643C217.989 88.3308 211.592 89.0232 206.441 91.9971C201.291 94.9709 197.493 100.164 195.042 107.477C192.588 114.797 191.507 124.181 191.762 135.409C192.273 157.865 198.122 187.485 208.723 222.238C229.92 291.727 270.048 381.522 324.095 475.134C378.142 568.746 435.843 648.396 485.424 701.498C510.22 728.055 532.947 747.93 552.139 759.6C561.735 765.435 570.403 769.191 577.969 770.727C585.527 772.26 591.924 771.568 597.075 768.594Z" stroke="url(#paint16_linear_72_13)" stroke-opacity="0.35" stroke-width="2"/>
<path opacity="0.62069" d="M625.816 753.41C630.688 749.998 634.019 744.494 635.823 736.995C637.63 729.489 637.889 720.047 636.656 708.883C634.19 686.558 625.781 657.56 612.192 623.864C585.019 556.486 537.218 470.53 475.217 381.985C413.217 293.439 348.794 219.122 294.774 170.543C267.757 146.249 243.384 128.43 223.248 118.477C213.18 113.5 204.218 110.514 196.547 109.644C188.884 108.775 182.572 110.022 177.7 113.434C172.828 116.845 169.497 122.35 167.692 129.848C165.886 137.354 165.627 146.797 166.86 157.96C169.326 180.286 177.734 209.283 191.324 242.98C218.496 310.357 266.298 396.313 328.298 484.859C390.298 573.404 454.721 647.722 508.742 696.3C535.759 720.595 560.132 738.414 580.267 748.367C590.336 753.343 599.297 756.33 606.969 757.2C614.632 758.069 620.944 756.821 625.816 753.41Z" stroke="url(#paint17_linear_72_13)" stroke-opacity="0.35" stroke-width="2"/>
<path opacity="0.655172" d="M652.852 735.792C657.409 731.969 660.247 726.195 661.391 718.568C662.536 710.933 661.971 701.504 659.77 690.49C655.368 668.464 644.464 640.31 627.99 607.926C595.048 543.173 539.937 461.711 470.455 378.906C400.974 296.101 330.319 227.681 272.27 183.996C243.239 162.148 217.405 146.521 196.479 138.361C186.015 134.281 176.827 132.087 169.109 131.889C161.399 131.691 155.22 133.484 150.664 137.307C146.108 141.13 143.269 146.904 142.125 154.531C140.98 162.166 141.545 171.595 143.746 182.609C148.149 204.635 159.052 232.789 175.527 265.173C208.468 329.926 263.58 411.388 333.061 494.193C402.542 576.998 473.198 645.418 531.247 689.103C560.278 710.951 586.111 726.578 607.038 734.738C617.501 738.818 626.689 741.012 634.407 741.21C642.117 741.408 648.296 739.615 652.852 735.792Z" stroke="url(#paint18_linear_72_13)" stroke-opacity="0.35" stroke-width="2"/>
<path opacity="0.689655" d="M677.977 715.895C682.183 711.69 684.507 705.69 684.982 697.993C685.458 690.287 684.073 680.943 680.92 670.163C674.615 648.605 661.299 621.508 642.065 590.683C603.605 529.048 541.603 452.698 465.169 376.264C388.736 299.83 312.386 237.829 250.751 199.369C219.926 180.135 192.829 166.819 171.271 160.513C160.491 157.361 151.147 155.976 143.441 156.451C135.744 156.926 129.744 159.251 125.538 163.456C121.333 167.662 119.008 173.662 118.533 181.359C118.058 189.065 119.443 198.409 122.595 209.189C128.901 230.747 142.217 257.844 161.451 288.669C199.911 350.304 261.912 426.654 338.346 503.088C414.78 579.521 491.13 641.523 552.765 679.983C583.59 699.217 610.687 712.533 632.245 718.838C643.025 721.991 652.369 723.376 660.075 722.9C667.772 722.426 673.772 720.101 677.977 715.895Z" stroke="url(#paint19_linear_72_13)" stroke-opacity="0.35" stroke-width="2"/>
<path opacity="0.724138" d="M701.001 693.897C704.824 689.341 706.616 683.161 706.419 675.452C706.221 667.734 704.027 658.546 699.946 648.082C691.786 627.155 676.159 601.322 654.312 572.291C610.627 514.242 542.206 443.587 459.402 374.106C376.597 304.624 295.134 249.513 230.381 216.571C197.997 200.097 169.843 189.193 147.817 184.791C136.804 182.589 127.375 182.024 119.74 183.17C112.113 184.314 106.339 187.152 102.516 191.708C98.6925 196.265 96.8997 202.444 97.0976 210.154C97.2956 217.872 99.4893 227.059 103.57 237.523C111.73 258.45 127.357 284.283 149.204 313.314C192.89 371.363 261.31 442.018 344.114 511.5C426.919 580.981 508.382 636.093 573.135 669.034C605.519 685.509 633.673 696.412 655.699 700.815C666.712 703.016 676.141 703.581 683.776 702.436C691.403 701.292 697.177 698.453 701.001 693.897Z" stroke="url(#paint20_linear_72_13)" stroke-opacity="0.35" stroke-width="2"/>
<path opacity="0.758621" d="M721.746 669.988C725.158 665.116 726.405 658.804 725.536 651.141C724.666 643.469 721.68 634.508 716.703 624.439C706.75 604.304 688.931 579.931 664.636 552.914C616.058 498.893 541.74 434.47 453.195 372.47C364.65 310.47 278.694 262.668 211.316 235.496C177.62 221.906 148.622 213.498 126.296 211.032C115.133 209.799 105.691 210.058 98.1843 211.864C90.6862 213.669 85.1814 217 81.7699 221.872C78.3585 226.744 77.1111 233.056 77.9801 240.719C78.8501 248.391 81.8363 257.352 86.813 267.42C96.7661 287.556 114.585 311.929 138.88 338.946C187.458 392.966 261.776 457.389 350.321 519.39C438.866 581.39 524.822 629.191 592.2 656.364C625.896 669.953 654.894 678.362 677.22 680.828C688.383 682.061 697.825 681.802 705.332 679.995C712.83 678.191 718.335 674.86 721.746 669.988Z" stroke="url(#paint21_linear_72_13)" stroke-opacity="0.35" stroke-width="2"/>
<path opacity="0.793103" d="M740.056 644.373C743.03 639.222 743.723 632.826 742.189 625.267C740.654 617.701 736.898 609.034 731.063 599.437C719.393 580.246 699.517 557.519 672.96 532.722C619.859 483.141 540.209 425.44 446.597 371.393C352.985 317.347 263.19 277.218 193.7 256.021C158.948 245.42 129.328 239.572 106.872 239.061C95.6437 238.805 86.2597 239.886 78.9394 242.34C71.627 244.791 66.4335 248.589 63.4596 253.74C60.4858 258.891 59.7933 265.287 61.3269 272.846C62.8621 280.412 66.618 289.079 72.4533 298.676C84.1235 317.867 103.999 340.595 130.556 365.391C183.657 414.972 263.307 472.673 356.919 526.72C450.531 580.767 540.326 620.895 609.816 642.092C644.568 652.693 674.188 658.542 696.644 659.052C707.872 659.308 717.256 658.227 724.577 655.773C731.889 653.322 737.083 649.524 740.056 644.373Z" stroke="url(#paint22_linear_72_13)" stroke-opacity="0.35" stroke-width="2"/>
<path opacity="0.827586" d="M755.792 617.273C758.306 611.882 758.438 605.449 756.251 598.054C754.063 590.65 749.566 582.343 742.916 573.292C729.618 555.19 707.837 534.282 679.22 511.894C621.999 467.13 537.624 416.591 439.657 370.908C341.691 325.226 248.74 293.076 177.668 278.016C142.123 270.485 112.106 267.24 89.6917 268.688C78.4838 269.412 69.2298 271.307 62.1511 274.389C55.0802 277.468 50.2375 281.704 47.7239 287.095C45.2102 292.485 45.0779 298.918 47.2644 306.314C49.4533 313.718 53.9503 322.025 60.5998 331.076C73.8982 349.177 95.6786 370.086 124.296 392.473C181.517 437.238 265.892 487.777 363.859 533.459C461.825 579.142 554.776 611.291 625.848 626.351C661.392 633.883 691.409 637.128 713.824 635.679C725.032 634.955 734.286 633.06 741.365 629.978C748.436 626.899 753.278 622.663 755.792 617.273Z" stroke="url(#paint23_linear_72_13)" stroke-opacity="0.35" stroke-width="2"/>
<path opacity="0.862069" d="M768.833 588.915C770.867 583.326 770.438 576.906 767.615 569.729C764.79 562.544 759.586 554.661 752.173 546.223C737.347 529.35 713.827 510.419 683.368 490.611C622.463 451.004 534.004 408.011 432.429 371.041C330.854 334.071 235.455 310.145 163.34 301.336C127.275 296.931 97.0892 296.315 74.8861 299.711C63.784 301.409 54.7303 304.103 47.9473 307.791C41.1716 311.475 36.7165 316.117 34.6823 321.706C32.6481 327.295 33.0769 333.715 35.8996 340.892C38.7255 348.076 43.9293 355.96 51.3424 364.397C66.1678 381.271 89.6877 400.201 120.147 420.009C181.052 459.616 269.511 502.609 371.086 539.58C472.661 576.55 568.06 600.476 640.175 609.284C676.24 613.689 706.426 614.306 728.629 610.909C739.731 609.211 748.785 606.517 755.568 602.829C762.343 599.146 766.799 594.504 768.833 588.915Z" stroke="url(#paint24_linear_72_13)" stroke-opacity="0.35" stroke-width="2"/>
<path opacity="0.896552" d="M779.081 559.54C780.62 553.795 779.633 547.437 776.196 540.533C772.755 533.622 766.883 526.222 758.763 518.463C742.524 502.946 717.443 486.137 685.374 469.059C621.249 434.911 529.379 399.792 424.968 371.815C320.557 343.838 223.436 328.318 150.828 325.828C114.516 324.583 84.3915 326.6 62.5689 331.919C51.6571 334.578 42.8726 338.051 36.4368 342.316C30.0079 346.576 25.9744 351.588 24.435 357.333C22.8956 363.079 23.8824 369.437 27.3199 376.34C30.7612 383.251 36.6323 390.651 44.7525 398.41C60.9922 413.928 86.0725 430.736 118.142 447.814C182.267 481.962 274.137 517.082 378.548 545.059C482.958 573.035 580.08 588.556 652.688 591.045C689 592.29 719.124 590.274 740.947 584.955C751.859 582.296 760.643 578.823 767.079 574.558C773.508 570.298 777.541 565.285 779.081 559.54Z" stroke="url(#paint25_linear_72_13)" stroke-opacity="0.35" stroke-width="2"/>
<path opacity="0.931035" d="M786.457 529.397C787.489 523.539 785.952 517.292 781.926 510.714C777.896 504.129 771.402 497.269 762.636 490.247C745.106 476.204 718.656 461.645 685.22 447.427C618.363 418.998 523.782 392.019 417.33 373.249C310.879 354.478 212.774 347.482 140.225 351.33C103.943 353.255 74.1089 357.889 52.8328 365.089C42.1943 368.69 33.746 372.915 27.7063 377.724C21.6732 382.529 18.0919 387.874 17.0591 393.731C16.0263 399.589 17.5634 405.836 21.5896 412.414C25.6201 418.999 32.1138 425.859 40.8794 432.881C58.4097 446.924 84.8595 461.483 118.296 475.701C185.153 504.13 279.734 531.109 386.186 549.879C492.637 568.649 590.742 575.646 663.29 571.798C699.573 569.873 729.407 565.239 750.683 558.038C761.321 554.438 769.77 550.213 775.809 545.404C781.842 540.599 785.424 535.254 786.457 529.397Z" stroke="url(#paint26_linear_72_13)" stroke-opacity="0.35" stroke-width="2"/>
<path opacity="0.965517" d="M790.904 498.736C791.423 492.811 789.347 486.721 784.763 480.519C780.174 474.31 773.107 468.042 763.763 461.811C745.075 449.349 717.457 437.151 682.909 425.902C613.829 403.408 517.256 384.774 409.574 375.353C301.891 365.933 203.55 367.513 131.613 377.67C95.6363 382.749 66.3196 389.966 45.7521 398.993C35.4678 403.507 27.4199 408.453 21.8224 413.77C16.2309 419.082 13.1291 424.719 12.6108 430.644C12.0924 436.569 14.1682 442.659 18.7523 448.861C23.3414 455.07 30.4083 461.338 39.7525 467.569C58.44 480.03 86.0581 492.228 120.606 503.478C189.687 525.972 286.259 544.605 393.942 554.026C501.624 563.447 599.965 561.867 671.902 551.71C707.879 546.631 737.196 539.414 757.763 530.386C768.047 525.873 776.095 520.927 781.693 515.61C787.284 510.298 790.386 504.661 790.904 498.736Z" stroke="url(#paint27_linear_72_13)" stroke-opacity="0.35" stroke-width="2"/>
<path d="M792.391 467.817C792.391 461.87 789.793 455.984 784.685 450.205C779.573 444.42 771.986 438.792 762.135 433.399C742.432 422.613 713.856 412.868 678.459 404.673C607.681 388.285 509.852 378.14 401.758 378.14C293.664 378.14 195.835 388.285 125.057 404.673C89.66 412.868 61.0839 422.613 41.3814 433.399C31.5297 438.792 23.9434 444.42 18.8306 450.205C13.7234 455.984 11.1247 461.87 11.1247 467.817C11.1247 473.765 13.7234 479.651 18.8306 485.43C23.9434 491.215 31.5297 496.843 41.3814 502.236C61.0839 513.021 89.66 522.766 125.057 530.962C195.835 547.349 293.664 557.495 401.758 557.495C509.852 557.495 607.681 547.349 678.459 530.962C713.856 522.766 742.432 513.021 762.135 502.236C771.986 496.843 779.573 491.215 784.685 485.43C789.793 479.651 792.391 473.765 792.391 467.817Z" stroke="url(#paint28_linear_72_13)" stroke-opacity="0.35" stroke-width="2"/>
</g>
<defs>
<linearGradient id="paint0_linear_72_13" x1="343.472" y1="310.805" x2="460.045" y2="449.731" gradientUnits="userSpaceOnUse">
<stop stop-color="#46DF83"/>
<stop offset="1" stop-color="#46DF83" stop-opacity="0"/>
</linearGradient>
<linearGradient id="paint1_linear_72_13" x1="337.639" y1="319.275" x2="465.877" y2="447.512" gradientUnits="userSpaceOnUse">
<stop stop-color="#46DF83"/>
<stop offset="1" stop-color="#46DF83" stop-opacity="0"/>
</linearGradient>
<linearGradient id="paint2_linear_72_13" x1="332.295" y1="328.234" x2="471.221" y2="444.807" gradientUnits="userSpaceOnUse">
<stop stop-color="#46DF83"/>
<stop offset="1" stop-color="#46DF83" stop-opacity="0"/>
</linearGradient>
<linearGradient id="paint3_linear_72_13" x1="327.479" y1="337.637" x2="476.036" y2="441.658" gradientUnits="userSpaceOnUse">
<stop stop-color="#46DF83"/>
<stop offset="1" stop-color="#46DF83" stop-opacity="0"/>
</linearGradient>
<linearGradient id="paint4_linear_72_13" x1="323.229" y1="347.435" x2="480.287" y2="438.113" gradientUnits="userSpaceOnUse">
<stop stop-color="#46DF83"/>
<stop offset="1" stop-color="#46DF83" stop-opacity="0"/>
</linearGradient>
<linearGradient id="paint5_linear_72_13" x1="319.576" y1="357.579" x2="483.94" y2="434.223" gradientUnits="userSpaceOnUse">
<stop stop-color="#46DF83"/>
<stop offset="1" stop-color="#46DF83" stop-opacity="0"/>
</linearGradient>
<linearGradient id="paint6_linear_72_13" x1="316.549" y1="368.015" x2="486.967" y2="430.042" gradientUnits="userSpaceOnUse">
<stop stop-color="#46DF83"/>
<stop offset="1" stop-color="#46DF83" stop-opacity="0"/>
</linearGradient>
<linearGradient id="paint7_linear_72_13" x1="314.17" y1="378.684" x2="489.346" y2="425.622" gradientUnits="userSpaceOnUse">
<stop stop-color="#46DF83"/>
<stop offset="1" stop-color="#46DF83" stop-opacity="0"/>
</linearGradient>
<linearGradient id="paint8_linear_72_13" x1="312.458" y1="389.534" x2="491.058" y2="421.026" gradientUnits="userSpaceOnUse">
<stop stop-color="#46DF83"/>
<stop offset="1" stop-color="#46DF83" stop-opacity="0"/>
</linearGradient>
<linearGradient id="paint9_linear_72_13" x1="311.426" y1="400.504" x2="492.091" y2="416.31" gradientUnits="userSpaceOnUse">
<stop stop-color="#46DF83"/>
<stop offset="1" stop-color="#46DF83" stop-opacity="0"/>
</linearGradient>
<linearGradient id="paint10_linear_72_13" x1="311.081" y1="411.535" x2="492.436" y2="411.535" gradientUnits="userSpaceOnUse">
<stop stop-color="#46DF83"/>
<stop offset="1" stop-color="#46DF83" stop-opacity="0"/>
</linearGradient>
<linearGradient id="paint11_linear_72_13" x1="311.426" y1="422.565" x2="492.091" y2="406.759" gradientUnits="userSpaceOnUse">
<stop stop-color="#46DF83"/>
<stop offset="1" stop-color="#46DF83" stop-opacity="0"/>
</linearGradient>
<linearGradient id="paint12_linear_72_13" x1="312.458" y1="433.535" x2="491.058" y2="402.043" gradientUnits="userSpaceOnUse">
<stop stop-color="#46DF83"/>
<stop offset="1" stop-color="#46DF83" stop-opacity="0"/>
</linearGradient>
<linearGradient id="paint13_linear_72_13" x1="314.17" y1="444.384" x2="489.346" y2="397.446" gradientUnits="userSpaceOnUse">
<stop stop-color="#46DF83"/>
<stop offset="1" stop-color="#46DF83" stop-opacity="0"/>
</linearGradient>
<linearGradient id="paint14_linear_72_13" x1="316.549" y1="455.056" x2="486.967" y2="393.029" gradientUnits="userSpaceOnUse">
<stop stop-color="#46DF83"/>
<stop offset="1" stop-color="#46DF83" stop-opacity="0"/>
</linearGradient>
<linearGradient id="paint15_linear_72_13" x1="319.576" y1="465.49" x2="483.94" y2="388.846" gradientUnits="userSpaceOnUse">
<stop stop-color="#46DF83"/>
<stop offset="1" stop-color="#46DF83" stop-opacity="0"/>
</linearGradient>
<linearGradient id="paint16_linear_72_13" x1="323.229" y1="475.634" x2="480.287" y2="384.957" gradientUnits="userSpaceOnUse">
<stop stop-color="#46DF83"/>
<stop offset="1" stop-color="#46DF83" stop-opacity="0"/>
</linearGradient>
<linearGradient id="paint17_linear_72_13" x1="327.479" y1="485.432" x2="476.037" y2="381.411" gradientUnits="userSpaceOnUse">
<stop stop-color="#46DF83"/>
<stop offset="1" stop-color="#46DF83" stop-opacity="0"/>
</linearGradient>
<linearGradient id="paint18_linear_72_13" x1="332.295" y1="494.836" x2="471.221" y2="378.263" gradientUnits="userSpaceOnUse">
<stop stop-color="#46DF83"/>
<stop offset="1" stop-color="#46DF83" stop-opacity="0"/>
</linearGradient>
<linearGradient id="paint19_linear_72_13" x1="337.639" y1="503.795" x2="465.877" y2="375.557" gradientUnits="userSpaceOnUse">
<stop stop-color="#46DF83"/>
<stop offset="1" stop-color="#46DF83" stop-opacity="0"/>
</linearGradient>
<linearGradient id="paint20_linear_72_13" x1="343.472" y1="512.266" x2="460.045" y2="373.34" gradientUnits="userSpaceOnUse">
<stop stop-color="#46DF83"/>
<stop offset="1" stop-color="#46DF83" stop-opacity="0"/>
</linearGradient>
<linearGradient id="paint21_linear_72_13" x1="349.748" y1="520.209" x2="453.769" y2="371.651" gradientUnits="userSpaceOnUse">
<stop stop-color="#46DF83"/>
<stop offset="1" stop-color="#46DF83" stop-opacity="0"/>
</linearGradient>
<linearGradient id="paint22_linear_72_13" x1="356.419" y1="527.586" x2="447.097" y2="370.527" gradientUnits="userSpaceOnUse">
<stop stop-color="#46DF83"/>
<stop offset="1" stop-color="#46DF83" stop-opacity="0"/>
</linearGradient>
<linearGradient id="paint23_linear_72_13" x1="363.436" y1="534.366" x2="440.08" y2="370.002" gradientUnits="userSpaceOnUse">
<stop stop-color="#46DF83"/>
<stop offset="1" stop-color="#46DF83" stop-opacity="0"/>
</linearGradient>
<linearGradient id="paint24_linear_72_13" x1="370.744" y1="540.519" x2="432.771" y2="370.101" gradientUnits="userSpaceOnUse">
<stop stop-color="#46DF83"/>
<stop offset="1" stop-color="#46DF83" stop-opacity="0"/>
</linearGradient>
<linearGradient id="paint25_linear_72_13" x1="378.289" y1="546.025" x2="425.227" y2="370.849" gradientUnits="userSpaceOnUse">
<stop stop-color="#46DF83"/>
<stop offset="1" stop-color="#46DF83" stop-opacity="0"/>
</linearGradient>
<linearGradient id="paint26_linear_72_13" x1="386.012" y1="550.864" x2="417.504" y2="372.264" gradientUnits="userSpaceOnUse">
<stop stop-color="#46DF83"/>
<stop offset="1" stop-color="#46DF83" stop-opacity="0"/>
</linearGradient>
<linearGradient id="paint27_linear_72_13" x1="393.855" y1="555.022" x2="409.661" y2="374.357" gradientUnits="userSpaceOnUse">
<stop stop-color="#46DF83"/>
<stop offset="1" stop-color="#46DF83" stop-opacity="0"/>
</linearGradient>
<linearGradient id="paint28_linear_72_13" x1="401.758" y1="558.495" x2="401.758" y2="377.14" gradientUnits="userSpaceOnUse">
<stop stop-color="#46DF83"/>
<stop offset="1" stop-color="#46DF83" stop-opacity="0"/>
</linearGradient>
</defs>
</svg>
