<svg width="100" height="71" viewBox="0 0 100 71" fill="none" xmlns="http://www.w3.org/2000/svg">
<path d="M98.6728 55.3693L92.7451 66.0894C89.2208 72.4637 75.2001 72.6436 56.1149 65.5039C30.8257 56.0443 6.07858 37.2628 0.947921 23.6391C0.337073 22.371 0.0135797 20.9841 0.000361064 19.577C-0.0128576 18.1699 0.284545 16.7772 0.871462 15.4979L6.79948 4.7778C6.2125 6.05707 5.91489 7.44974 5.92791 8.85681C5.94093 10.2639 6.26424 11.6508 6.8748 12.919C12.0052 26.5428 36.7535 45.3242 62.0427 54.7838C81.1278 61.9235 95.1485 61.7436 98.6728 55.3693Z" fill="#37AB65"/>
<path d="M43.4329 5.36332C68.7221 14.8229 93.4669 33.6026 98.5973 47.229C103.728 60.8527 87.3325 64.2435 62.0436 54.7839C36.7547 45.3242 12.0061 26.5428 6.87573 12.9191C1.74559 -0.707274 18.144 -4.0963 43.4329 5.36332Z" fill="#71FFA9"/>
<path d="M96.3031 46.3705C91.4215 33.4051 67.9567 15.5979 43.8976 6.59824C19.8347 -2.40321 4.28552 0.810273 9.16776 13.7757C14.05 26.7411 37.5133 44.5465 61.577 53.547C85.6361 62.5476 101.186 59.3359 96.3031 46.3705Z" fill="#49D581"/>
<path d="M98.5971 47.2298C98.5144 47.0147 98.4327 46.8041 98.3413 46.5846C97.9609 45.6811 97.5282 44.8004 97.0454 43.947C96.6648 43.2755 96.2437 42.5943 95.791 41.9035C93.6925 38.8319 91.2901 35.9786 88.6202 33.3866C82.87 27.8136 76.5489 22.8597 69.7609 18.6069C63.804 14.7987 57.5759 11.4311 51.1265 8.53108C50.1278 8.08255 49.1257 7.64367 48.1182 7.22322C47.5134 6.96691 46.9051 6.72026 46.2959 6.478C45.3438 6.08915 44.3909 5.71962 43.4344 5.36237L43.0265 5.21139C42.0472 4.84624 41.076 4.50304 40.1237 4.18353C39.3501 3.91845 38.5897 3.66653 37.839 3.43304C31.7055 1.33916 25.2905 0.181812 18.8109 0.00012207C18.0593 0.00451087 17.3411 0.0317306 16.6536 0.0870295C14.3297 0.189291 12.0522 0.771496 9.96491 1.7969C9.28257 2.15223 8.65244 2.59971 8.0924 3.12671H8.08777C7.57511 3.60665 7.14085 4.16373 6.80077 4.77777C6.13512 6.03048 5.83998 7.44639 5.94979 8.86025C5.96737 9.21223 6.00896 9.57299 6.06407 9.9434C6.12324 10.3182 6.20119 10.6974 6.29701 11.0906C6.3981 11.4839 6.51239 11.8868 6.64953 12.2976H6.65482C6.72339 12.5038 6.79637 12.7092 6.87461 12.9199C7.18961 13.7502 7.55479 14.5607 7.96818 15.3469C14.8867 28.6959 38.224 45.8719 62.0414 54.782C70.0441 58.0814 78.5824 59.8956 87.2371 60.1355C87.4437 60.1311 87.6538 60.1258 87.856 60.117L88.0292 60.1083C88.2542 60.0986 88.4784 60.0846 88.6938 60.067C88.8907 60.0574 89.0876 60.0389 89.2748 60.0214L89.7513 59.9705L90.1311 59.9248C90.2682 59.9116 90.401 59.8932 90.5338 59.8704C90.6533 59.8564 90.7675 59.8379 90.8774 59.8151C91.0427 59.7923 91.2027 59.7651 91.3627 59.7326C91.528 59.7054 91.6923 59.6694 91.8523 59.6325C91.9675 59.6141 92.0774 59.5869 92.1821 59.5597C92.3245 59.5316 92.4616 59.4956 92.5943 59.4587L92.7596 59.4131C92.8871 59.3806 93.0154 59.349 93.1393 59.3078C93.3222 59.2577 93.5007 59.198 93.6748 59.1383L93.7073 59.1296L94.0642 58.997L94.211 58.9417C94.385 58.8777 94.5494 58.8092 94.7147 58.7363L94.989 58.6126L95.0444 58.5854L95.3274 58.4484L95.3415 58.4388C95.447 58.3887 95.5472 58.3343 95.6483 58.2746L96.0096 58.0692L96.1837 57.9543C96.2804 57.8954 96.3718 57.8314 96.4632 57.7673L96.596 57.6707L96.8711 57.4654L96.9072 57.4381L97.1779 57.209L97.2324 57.159L97.3195 57.0818L97.5252 56.8851L97.6034 56.807L97.8504 56.5376L97.9058 56.4735C97.9929 56.3725 98.0799 56.2681 98.1572 56.1583L98.3357 55.9108L98.3638 55.8652L98.4183 55.7967L98.4596 55.7282L98.4825 55.6914C98.537 55.6001 98.5968 55.5088 98.6469 55.4131C99.2481 54.1311 99.5557 52.7314 99.547 51.3158C99.5384 49.9003 99.2139 48.5044 98.5971 47.2298ZM61.5792 53.5479C39.0893 45.1355 17.1257 29.0347 10.3631 16.38C9.9083 15.5386 9.50919 14.6684 9.16839 13.7748C8.30922 12.2328 7.98952 10.4488 8.25987 8.70496C8.53022 6.96115 9.37519 5.35713 10.6611 4.14667H10.6655C11.2868 3.63457 11.9754 3.20987 12.7121 2.88444C13.5641 2.50608 14.4524 2.21521 15.3634 2.01634C17.2217 1.62498 19.1191 1.45003 21.0177 1.49496C22.3717 1.51076 23.724 1.59484 25.0695 1.74688C27.3266 2.00901 29.5676 2.39492 31.7823 2.90287C33.1469 3.2136 34.5523 3.57525 36.0081 3.98692C38.1689 4.60398 40.4232 5.33545 42.771 6.18132C43.1094 6.3042 43.4479 6.42797 43.7916 6.55612L43.8971 6.59737C44.5379 6.83963 45.1788 7.0819 45.8197 7.33733C46.9229 7.77182 48.0218 8.21948 49.1163 8.69083C55.8363 11.5769 62.3158 14.9919 68.4936 18.9036C80.1736 25.2557 89.815 34.7781 96.3038 46.3704C101.184 59.335 85.6357 62.5493 61.5792 53.5479Z" fill="#71FFA9"/>
<path d="M87.5898 48.0845L78.0253 44.5093L72.0412 28.6043L53.6169 32.4129L39.6709 21.8297L25.8156 11.315L29.5016 21.0977L31.8048 27.2148L22.2446 23.6397L22.235 23.6353L22.3906 23.8319C22.4961 23.9645 22.6063 24.0926 22.7159 24.2252L22.7255 24.2295L32.8624 28.0197L30.2895 21.1942L27.1254 12.787L39.016 21.8113L53.8736 33.0844L71.5929 29.418L77.3299 44.6559L87.4624 48.4452L87.4711 48.4496C87.5049 48.3706 87.534 48.2897 87.5582 48.2074L87.5995 48.0889L87.5898 48.0845ZM85.8369 50.6124L72.545 45.6381L68.5293 34.9777L55.5949 37.6566L36.0676 22.8348L40.0826 33.4961L26.7914 28.5271L26.7731 28.5174L26.9329 28.6728L27.4911 29.1942L27.5095 29.2038L41.1399 34.301L37.3765 24.312L55.8463 38.3281L68.0809 35.7958L71.8443 45.7847L85.4703 50.8819L85.4888 50.8915L85.7727 50.6809L85.8501 50.6168L85.8369 50.6124Z" fill="#71FFA9"/>
<path d="M88.4364 44.4911L88.432 44.4727L88.4048 44.377L88.3863 44.3033L88.3494 44.1848L88.3177 44.0891L88.2993 44.025L88.2535 43.8741L88.2395 43.8328L88.1894 43.6915L88.1797 43.659L88.1208 43.4949L88.1068 43.4536L88.0426 43.2798C87.9371 42.9963 87.8184 42.704 87.6857 42.4108C85.942 38.912 83.6046 35.7411 80.7769 33.039C80.5975 32.8564 80.4146 32.6782 80.2318 32.4948C79.8652 32.134 79.4899 31.7729 79.1057 31.4116C78.144 30.5066 77.1274 29.6031 76.0561 28.7011C73.1028 26.2331 70.0036 23.9444 66.7755 21.8475C66.2577 21.5096 65.7355 21.176 65.2046 20.8425C64.7052 20.5265 64.1971 20.2114 63.6846 19.905L63.6063 19.855C63.0666 19.5302 62.5259 19.2054 61.9765 18.8851C61.1572 18.4102 60.3285 17.9409 59.4904 17.4771C58.9278 17.1708 58.3643 16.8645 57.8008 16.5678C53.8459 14.4706 49.7612 12.6274 45.5714 11.0493C44.1754 10.5235 42.8102 10.053 41.4872 9.63258C40.7323 9.39032 39.9944 9.1665 39.2665 8.96461H39.2621C38.1905 8.65388 37.147 8.3844 36.1352 8.14653C35.5031 7.99995 34.8807 7.86741 34.2759 7.74891C33.7493 7.63919 33.2324 7.54789 32.7243 7.46538C32.0878 7.35566 31.4646 7.26439 30.8606 7.19154C28.1573 6.79248 25.4076 6.82624 22.7149 7.29159L22.4822 7.3425L22.4767 7.34688C21.4002 7.42279 20.3607 7.77097 19.4562 8.35865C18.5516 8.94633 17.8117 9.75417 17.3061 10.7061C16.8005 11.6581 16.5459 12.7229 16.5661 13.8003C16.5864 14.8776 16.8809 15.9321 17.4219 16.8645C17.7048 17.6035 18.037 18.3228 18.4161 19.0176C19.3237 20.6633 20.3845 22.22 21.5844 23.6671C23.0284 25.423 24.5853 27.0831 26.2454 28.637C34.8903 36.4832 44.8021 42.8128 55.5615 47.3579C57.0043 47.9749 58.4557 48.5552 59.9027 49.0994C61.3453 49.6392 62.7524 50.1252 64.1241 50.5573C67.6224 52.2385 71.4354 53.167 75.3161 53.2828C79.1967 53.3987 83.0584 52.6992 86.651 51.2297C87.5063 50.5891 88.1464 49.7042 88.4865 48.6921C88.8795 47.3167 88.8621 45.8568 88.4364 44.4911ZM87.5987 48.0891L87.5574 48.2076C87.5331 48.29 87.504 48.3708 87.4703 48.4498C87.137 49.3058 86.5766 50.055 85.8492 50.617L85.7719 50.6811L85.4879 50.8918C79.0341 53.4239 71.8375 53.2939 65.4797 50.5301L65.4428 50.5213C64.2384 50.1694 63.0068 49.7761 61.7383 49.3372C61.3128 49.1863 60.8829 49.0353 60.4478 48.8755L60.3378 48.8343L60.2183 48.7886L60.0671 48.7333L59.9669 48.6974L59.7146 48.6052L59.4632 48.5095L59.362 48.4726L59.2117 48.4138L59.0878 48.3682L58.9779 48.3226C57.865 47.8968 56.7523 47.4457 55.6397 46.969C55.2688 46.8137 54.9021 46.6539 54.532 46.4889C44.6531 42.1989 35.5241 36.3604 27.4902 29.1944L26.932 28.673L26.7722 28.5176C25.3399 27.1643 23.9853 25.7313 22.7149 24.2254C22.6053 24.0928 22.4951 23.9647 22.3897 23.8321L22.2341 23.6355C22.0515 23.4064 21.8727 23.1782 21.7031 22.9544C21.5246 22.7253 21.355 22.4971 21.1906 22.2688C21.0209 22.0397 20.8653 21.8159 20.7141 21.5921C20.453 21.2173 20.2156 20.8513 19.9906 20.4852C19.8033 20.1842 19.6293 19.891 19.4693 19.5987C19.3955 19.4749 19.3313 19.352 19.2724 19.2327C19.0983 18.9175 18.9471 18.6112 18.8047 18.3049L18.7959 18.2864L18.7089 18.0995L18.6816 18.0301L18.6447 17.9441L18.5805 17.8063L18.5577 17.7475L18.5076 17.6237L18.4891 17.5781L18.4249 17.4183L18.4064 17.3771L18.3423 17.2077C16.2913 11.7585 18.8328 8.48974 24.5329 7.70766L24.5417 7.70327H24.547C28.8677 7.32015 33.2223 7.73219 37.3941 8.91896H37.3985C40.2332 9.63445 43.0247 10.5107 45.7596 11.5435C51.7969 13.8292 57.6128 16.66 63.1351 20.0007C73.1796 25.1767 81.5112 33.1418 87.1266 42.9366L87.1908 43.106L87.2048 43.1473L87.2593 43.307L87.2734 43.3439L87.3147 43.4668L87.3331 43.5221L87.3745 43.659L87.3973 43.7275L87.4202 43.81L87.4659 43.961L87.4747 43.9978C87.564 44.3061 87.6373 44.6187 87.6945 44.9344C87.9142 45.9786 87.8814 47.0601 87.5987 48.0891Z" fill="#71FFA9"/>
<path d="M44.4822 9.04716L44.171 8.93305L43.4115 8.65831L43.5345 8.9471L43.7411 9.42196L44.7759 9.79677L44.4822 9.04716ZM42.5825 8.96992L42.2388 8.25192C41.9047 8.13781 41.5707 8.0237 41.241 7.91837L41.6489 8.70484C41.9144 8.79174 42.1749 8.87775 42.441 8.96992L42.6098 9.02873L42.5825 8.96992ZM49.5827 11.0862C49.2126 10.9264 48.8373 10.7667 48.461 10.6105L48.6175 11.3056C48.979 11.4566 49.3357 11.6076 49.6979 11.763L49.5827 11.0862ZM40.742 7.75334L39.8169 7.46105L40.2749 8.26069C40.5676 8.35725 40.87 8.44852 41.168 8.54859L40.742 7.75334ZM51.1352 11.763C50.7915 11.612 50.4486 11.4566 50.1005 11.31L50.1964 11.978C50.5313 12.1193 50.8609 12.2659 51.195 12.4169L51.1352 11.763ZM52.3484 12.3116L52.3668 12.9471C52.7193 13.1068 53.0675 13.2718 53.42 13.436L53.4429 12.8233C53.0816 12.6495 52.7152 12.481 52.3484 12.3116ZM53.8455 13.0155L53.8094 13.6238C54.1619 13.788 54.5145 13.9618 54.8626 14.1312L54.9399 13.5413C54.5789 13.3675 54.2121 13.1893 53.8455 13.0155ZM35.0873 6.14879C34.7348 6.0619 34.3823 5.9794 34.0385 5.90215C31.9406 5.42109 29.8155 5.067 27.6748 4.84182C25.0929 4.53741 22.4806 4.60658 19.9185 5.04721L19.7946 5.07003L20.9629 5.96184C21.5768 5.8361 22.1972 5.74438 22.8213 5.6871C27.1622 5.4148 31.5184 5.85814 35.715 6.99935L35.0873 6.14879ZM65.7232 19.5074C63.878 18.3593 61.973 17.249 60.0319 16.1834L59.7753 16.6775C61.5247 17.6378 63.2371 18.6344 64.9127 19.6672C69.3085 22.3477 73.5 25.3487 77.4529 28.6458L78.3646 28.5958C74.376 25.2656 70.1512 22.2283 65.7232 19.5074ZM44.171 8.93305C43.9609 8.93744 43.7455 8.9471 43.5345 8.9471L43.7411 9.42196L44.7759 9.79677L44.4822 9.04716L44.171 8.93305ZM42.441 8.96992L42.6098 9.02873L42.5825 8.96992H42.441ZM19.5704 5.12007C19.3735 5.16571 19.1766 5.21135 18.9893 5.26226L20.184 6.14441C20.3669 6.09438 20.5547 6.04873 20.7475 6.00748L19.5704 5.12007ZM18.3757 5.44044C18.2019 5.49486 18.0364 5.55017 17.872 5.60985L19.108 6.47796L19.5933 6.31382L18.3757 5.44044ZM17.6293 5.70113C17.4825 5.75994 17.3316 5.82403 17.1898 5.88811L17.8536 6.34103L18.4531 6.74744L18.8469 6.5789H18.8513L18.875 6.56925L17.6293 5.70113ZM78.7585 28.9293L77.8336 28.9706C78.0851 29.1856 78.3374 29.3998 78.58 29.6149L79.532 29.5964C79.2753 29.3726 79.0195 29.1488 78.7585 28.9293ZM80.4111 30.3741L79.431 30.3645C79.6833 30.5936 79.9303 30.8174 80.1729 31.0412L81.1847 31.0781C80.928 30.8446 80.6722 30.6067 80.4111 30.3741ZM81.4642 31.3388L80.4428 31.2931C80.6854 31.5214 80.9237 31.7452 81.1619 31.9743L82.2054 32.0384C81.9636 31.8049 81.7113 31.5714 81.4642 31.3388ZM15.2435 7.09502C15.1292 7.19157 15.0196 7.29603 14.9095 7.40136L16.2509 8.20626C16.3564 8.10532 16.4619 8.00526 16.5762 7.90871L15.2435 7.09502ZM14.5754 7.763C14.4972 7.8499 14.4242 7.94118 14.3556 8.03247L15.7156 8.81455L15.9257 8.55386L14.5754 7.763ZM14.0805 8.4301C14.0075 8.54421 13.9389 8.66359 13.8747 8.78647L15.2532 9.54134C15.3174 9.42635 15.3815 9.30786 15.4545 9.19814L14.0805 8.4301ZM85.3745 35.3019L84.2158 35.1193C84.4031 35.33 84.5869 35.5354 84.7697 35.746L85.9512 35.9558C85.7631 35.7364 85.5714 35.5213 85.3745 35.3019ZM86.5921 36.7107L85.3877 36.4728C85.5345 36.6466 85.6716 36.8151 85.814 36.9889L87.0316 37.2452C86.89 37.067 86.7436 36.8889 86.5921 36.7107ZM87.618 37.9904L86.3767 37.7069C86.5464 37.922 86.7063 38.137 86.8619 38.3468L88.1217 38.6532C87.9608 38.4337 87.792 38.2099 87.618 37.9904ZM13.2526 10.7614C13.2339 10.9124 13.2154 11.0678 13.2066 11.2284L14.607 11.8955L14.6536 11.4478L13.2526 10.7614ZM13.197 11.4013C13.1926 11.5619 13.1882 11.7217 13.1925 11.8867L14.5983 12.531C14.5939 12.3712 14.5939 12.2159 14.5983 12.0649L13.197 11.4013ZM14.6255 13.0612L13.2242 12.4397C13.2383 12.5995 13.2567 12.7592 13.2796 12.9242L14.6809 13.5325C14.658 13.3763 14.6396 13.2165 14.6255 13.0612ZM90.1085 41.6797L88.7757 41.2636C88.8812 41.4462 88.9823 41.6244 89.0781 41.8034L90.4152 42.2371C90.3194 42.0501 90.2139 41.8666 90.1085 41.6797ZM14.7172 13.7695L13.3212 13.1709C13.3484 13.3535 13.3854 13.5369 13.4267 13.7195L14.8183 14.2997C14.7811 14.1215 14.745 13.9433 14.7169 13.7695H14.7172ZM90.5711 42.525L89.2252 42.0817L89.5048 42.64L90.8594 43.106C90.7677 42.9138 90.6719 42.7216 90.5708 42.525H90.5711ZM91.1618 43.7644L89.7931 43.2798C89.8748 43.4668 89.9531 43.659 90.0304 43.8469L91.4045 44.3542C91.326 44.162 91.2486 43.9654 91.1616 43.7644H91.1618ZM15.4407 16.2983L14.0675 15.7901C14.1449 15.9867 14.2231 16.1834 14.3101 16.38L15.6745 16.8645C15.5916 16.6732 15.5142 16.4853 15.4404 16.2983H15.4407ZM15.9673 17.5053L14.6125 17.0427L14.9009 17.6194L16.2424 18.0583C16.1454 17.8748 16.0541 17.6878 15.967 17.5053H15.9673ZM92.0454 46.4249L90.6493 45.8447C90.6897 46.0228 90.7223 46.1966 90.7539 46.3704L92.1509 46.9691C92.1233 46.7909 92.0864 46.6074 92.0451 46.4249H92.0454ZM16.471 18.4831L16.3937 18.3418L15.0565 17.9073L15.1523 18.0855L15.3633 18.4647L16.6908 18.8807C16.6131 18.7482 16.5393 18.6156 16.4707 18.4831H16.471ZM92.1922 47.2201L90.7909 46.6127C90.8137 46.7681 90.8322 46.9234 90.8462 47.0788L92.2466 47.7046C92.2332 47.5449 92.2148 47.3851 92.1919 47.2201H92.1922ZM90.8735 47.6133C90.8779 47.774 90.8779 47.9293 90.8735 48.0803L92.2748 48.743C92.2836 48.5824 92.2836 48.4226 92.2792 48.2585L90.8735 47.6133ZM90.8639 48.2488C90.8551 48.4042 90.841 48.5508 90.8181 48.7018L92.2238 49.3873C92.2422 49.2319 92.2563 49.0766 92.2651 48.9212L90.8639 48.2488ZM18.6045 21.7931L17.3457 21.4912C17.5057 21.7106 17.6754 21.9301 17.845 22.1539L19.0854 22.4374C18.9209 22.2223 18.7605 22.0076 18.6043 21.7931H18.6045ZM19.7632 23.2923L19.6533 23.1554L18.4308 22.8991L18.55 23.0413L18.8703 23.4345L20.0746 23.6671L19.7632 23.2923ZM20.6924 24.3939L19.5109 24.1885C19.7034 24.4036 19.8915 24.623 20.0885 24.8381L21.2462 25.025C21.059 24.8153 20.8759 24.6046 20.6921 24.3939H20.6924ZM90.2274 50.6083C90.1632 50.7224 90.0999 50.8409 90.026 50.9506L91.4001 51.7186C91.473 51.6045 91.5416 51.4857 91.6058 51.3623L90.2274 50.6083ZM89.765 51.335C89.6964 51.4219 89.6278 51.5132 89.5549 51.5957L90.9095 52.391L91.1249 52.1163L89.765 51.335ZM89.2296 51.9477C89.1285 52.0478 89.0239 52.1487 88.9087 52.2444L90.2414 53.0633C90.3557 52.9624 90.47 52.8571 90.5755 52.7517L89.2296 51.9477ZM24.6984 28.5501C24.561 28.4264 24.4327 28.2982 24.3 28.1701L23.2521 28.1016L23.6635 28.4948L23.9931 28.8056L25.0149 28.8512L24.6984 28.5501ZM25.2845 29.1031L24.2727 29.0663C24.5294 29.2997 24.7852 29.5376 25.0463 29.7702L26.0309 29.7799C25.7797 29.556 25.5316 29.327 25.2845 29.1031ZM26.8731 30.5295L25.9254 30.5479C26.1777 30.7718 26.4335 30.9956 26.6946 31.215L27.6194 31.1738L26.8731 30.5295ZM87.0404 53.4153C86.9032 53.4741 86.7661 53.5382 86.6193 53.5935L87.8694 54.4616C88.0162 54.4028 88.1621 54.3387 88.3045 54.2747L87.0404 53.4153ZM28.0003 31.4941L27.0887 31.5486C27.3727 31.7908 27.6612 32.0287 27.9546 32.271L28.8337 32.1937C28.5539 31.9602 28.2743 31.7268 28.0001 31.4941H28.0003ZM86.3864 53.6848C86.2308 53.7445 86.0699 53.7989 85.9055 53.8489L87.1274 54.7267C87.2971 54.6723 87.4667 54.6126 87.6267 54.5529L86.3864 53.6848ZM85.3147 54.028L84.7556 54.1649L85.9371 55.0515C86.134 55.0058 86.3265 54.9602 86.5147 54.9102L85.3147 54.028ZM84.5411 54.2106C79.5991 54.9147 74.5634 54.5576 69.7706 53.1634L70.3974 54.014C75.367 55.4601 80.5884 55.8308 85.713 55.1015L84.5411 54.2106ZM53.1046 47.2026C45.6388 43.786 38.5585 39.5853 31.9835 34.6716L31.2187 34.8402C38.0375 39.9363 45.3804 44.2932 53.1231 47.8372L53.1046 47.2026ZM55.2743 48.1716L54.2765 47.7327L54.331 48.3858L55.371 48.8387L55.2743 48.1716ZM65.2057 51.888C64.9086 51.7967 64.6061 51.7002 64.3037 51.6001L64.7292 52.3954C65.0413 52.4963 65.3525 52.5964 65.6637 52.6929L65.2057 51.888ZM56.8542 48.8431C56.4929 48.6921 56.1352 48.542 55.7736 48.3858L55.8879 49.0625C56.2635 49.2232 56.6345 49.3785 57.0098 49.5339L56.8542 48.8431ZM63.8273 51.4448C63.5073 51.3394 63.1864 51.2297 62.8664 51.12L63.2374 51.8968C63.5714 52.0118 63.9011 52.1215 64.2351 52.2312L63.8273 51.4448ZM61.7306 50.7268C61.3869 50.6039 61.044 50.4757 60.7003 50.3476L60.9939 51.0972C61.3508 51.2297 61.7077 51.3579 62.0603 51.486L61.7306 50.7268Z" fill="#71FFA9"/>
<path d="M93.6164 45.365L91.4864 44.568L90.108 44.0528L89.9013 43.9755C90.1204 44.556 90.2996 45.1508 90.4376 45.7556L90.6486 45.8434L92.0464 46.4236L94.2037 47.3198C94.0534 46.6555 93.8571 46.0023 93.6164 45.365Z" fill="#71FFA9"/>
<path d="M90.5409 46.2818L90.5761 46.5188L90.787 46.6153L92.1936 47.221L94.3563 48.1602L94.3211 47.8969L92.1497 46.9752L90.7519 46.3696L90.5409 46.2818Z" fill="#71FFA9"/>
<path d="M90.6308 46.9838C90.6493 47.1646 90.6554 47.341 90.6607 47.5148L90.8752 47.6131L92.2791 48.2583L94.4505 49.2554C94.4461 49.0649 94.4373 48.8727 94.4162 48.6734L92.2474 47.7053L90.8444 47.0795L90.6308 46.9838Z" fill="#71FFA9"/>
<path d="M89.8188 50.8336C89.7361 50.9635 89.65 51.0917 89.5577 51.2163L89.7652 51.3348L91.1278 52.1178L93.2367 53.33C93.3387 53.1939 93.4336 53.0517 93.5259 52.9104L91.4011 51.7201L90.028 50.9512L89.8188 50.8336Z" fill="#71FFA9"/>
<path d="M89.3522 51.477C89.2476 51.5946 89.143 51.7122 89.0296 51.8246L89.2327 51.9457L90.5759 52.7515L92.6568 53.9988C92.7807 53.875 92.895 53.746 93.0093 53.617L90.9117 52.389L89.5562 51.5963L89.3522 51.477Z" fill="#71FFA9"/>
<path d="M90.6566 47.9758L90.6478 48.1514L90.8676 48.2479L92.2653 48.915L94.4367 49.9508L94.4455 49.7664L92.2741 48.7395L90.8764 48.0812L90.6566 47.9758Z" fill="#71FFA9"/>
<path d="M86.4176 53.4528L86.1714 53.5318L86.3825 53.681L87.622 54.55L89.5209 55.8842L89.7846 55.7877L87.8681 54.4622L86.6198 53.5933L86.4176 53.4528Z" fill="#71FFA9"/>
<path d="M85.6949 53.6997C85.5047 53.7751 85.3078 53.8327 85.1069 53.8718L85.3161 54.0254L86.5161 54.9075L88.3437 56.2513C88.5645 56.2049 88.7817 56.1424 88.9934 56.0644L87.127 54.7267L85.9059 53.8516L85.6949 53.6997Z" fill="#71FFA9"/>
<path d="M84.5448 54.0057L84.3426 54.0583L84.5448 54.2076L85.714 55.1029L87.4986 56.4546L87.7272 56.402L85.9338 55.0502L84.7558 54.1637L84.5448 54.0057Z" fill="#71FFA9"/>
<path d="M90.6072 48.5953C90.5266 49.2577 90.3265 49.9001 90.0165 50.4912L90.2275 50.6071L91.6076 51.3628L93.743 52.5329C94.0814 51.8806 94.3014 51.1736 94.3927 50.4447L92.223 49.3853L90.8217 48.6997L90.6072 48.5953Z" fill="#71FFA9"/>
<path d="M88.7078 52.1204C88.4332 52.3472 88.1419 52.5532 87.8365 52.7366C87.5166 52.9414 87.1806 53.1199 86.8317 53.2702L87.0427 53.4142L88.3051 54.2735L90.2374 55.5893C90.6222 55.4269 90.992 55.231 91.3424 55.0038C91.6787 54.8004 91.9998 54.573 92.3033 54.3236L90.2418 53.0605L88.9099 52.245L88.7078 52.1204Z" fill="#71FFA9"/>
<path d="M64.2393 51.4693L63.7558 51.3113L63.8261 51.443L64.2305 52.2329L64.8547 53.4355L65.3735 53.6023L64.7317 52.3909L64.3097 51.6009L64.2393 51.4693Z" fill="#71FFA9"/>
<path d="M62.8075 51.0038L61.6734 50.6L61.7349 50.7229L62.0602 51.4866L62.5701 52.6539L63.8096 53.0928L63.2382 51.8991L62.869 51.1179L62.8075 51.0038Z" fill="#71FFA9"/>
<path d="M60.6526 50.2317L60.2747 50.1L61.0307 52.1013L61.4438 52.2417L60.9955 51.1007L60.6966 50.3458L60.6526 50.2317Z" fill="#71FFA9"/>
<path d="M69.6689 53.0238L67.4316 52.441L65.1337 51.7625L65.2049 51.8871L65.6628 52.6911L66.3679 53.9288L68.8962 54.674C69.7207 54.8943 70.5365 55.1023 71.3585 55.3156L70.3976 54.0122L69.7699 53.1616L69.6689 53.0238Z" fill="#71FFA9"/>
<path d="M56.8283 48.7254L56.8539 48.8412L57.0068 49.5347L57.2406 50.5941L58.1962 50.9935C58.51 51.1199 58.8247 51.2393 59.1403 51.3639L61.0268 52.0977L60.2735 50.0964L58.5575 49.4276C58.27 49.3143 57.9843 49.2055 57.696 49.0905L56.8283 48.7254Z" fill="#71FFA9"/>
<path d="M55.2528 48.0637L55.2704 48.169L55.3671 48.8361L55.5165 49.8718L56.0615 50.1L55.8857 49.0643L55.7714 48.3884L55.7539 48.2743L55.2528 48.0637Z" fill="#71FFA9"/>
<path d="M53.1017 47.0978L53.1105 47.2031L53.1193 47.8351L53.1456 48.8095L54.4203 49.38L54.3324 48.3881L54.2709 47.7298L54.2621 47.6245L53.1017 47.0978Z" fill="#71FFA9"/>
<path d="M31.7917 34.3969L31.6598 34.4232L30.8774 34.59L29.6994 34.827L30.051 35.0991L31.2202 34.8446L31.9851 34.669L32.1081 34.6427L31.7917 34.3969Z" fill="#71FFA9"/>
<path d="M28.9828 32.1784L28.8307 32.1916L27.9516 32.2706L26.6093 32.3909C27.1142 32.799 27.6044 33.2081 28.1239 33.6162L29.6975 34.8302L30.879 34.5862L31.6553 34.4255L31.7909 34.3974L30.3559 33.2915C29.8865 32.921 29.4417 32.548 28.9828 32.1784Z" fill="#71FFA9"/>
<path d="M27.7745 31.1664L27.6162 31.1752L26.6932 31.2191L25.2778 31.2805L25.691 31.6316L27.0888 31.5526L27.9942 31.4912H28.1437L27.7745 31.1664Z" fill="#71FFA9"/>
<path d="M26.1869 29.7814L26.0279 29.7796L25.0459 29.77L23.5356 29.7542C23.8257 30.0272 24.1465 30.3037 24.4648 30.5758L25.9224 30.5486L26.8735 30.5301L27.0318 30.5275C26.7399 30.2782 26.4507 30.0289 26.1869 29.7814Z" fill="#71FFA9"/>
<path d="M20.2533 23.7049L20.0722 23.6689L18.8705 23.4336L17.0112 23.0703C17.231 23.3345 17.4551 23.5995 17.6863 23.8655L19.5122 24.1885L20.6911 24.3965L20.8696 24.4281C20.6586 24.1867 20.4546 23.9454 20.2533 23.7049Z" fill="#71FFA9"/>
<path d="M19.2757 22.4801L19.0867 22.4371L17.8464 22.1554L15.9291 21.7191C16.1304 21.9798 16.3352 22.2423 16.547 22.503L18.4318 22.898L19.6523 23.1543L19.8384 23.1929C19.6423 22.9533 19.4568 22.7163 19.2757 22.4801Z" fill="#71FFA9"/>
<path d="M25.1799 28.858L25.0129 28.8492L23.9931 28.8053L22.4282 28.7351L22.7271 29.0073L24.2744 29.0687L25.2854 29.1038H25.4524L25.1799 28.858Z" fill="#71FFA9"/>
<path d="M16.4519 18.1316L16.241 18.0614L14.9047 17.6137L12.8213 16.929L12.9795 17.2363L15.0542 17.9121L16.3904 18.3422L16.6014 18.4037L16.4519 18.1316Z" fill="#71FFA9"/>
<path d="M15.8851 16.9396L15.6741 16.8641L14.3115 16.3778L12.199 15.6256C12.3001 15.8556 12.4056 16.0882 12.519 16.3234L14.6148 17.0405L15.9669 17.504L16.1743 17.5742C16.0723 17.3609 15.9748 17.1485 15.8851 16.9396Z" fill="#71FFA9"/>
<path d="M15.5738 16.1743L15.3628 16.0953L13.9826 15.5774L11.8551 14.7786L11.943 15.0068L14.0705 15.788L15.4419 16.2972L15.6529 16.3762L15.5738 16.1743Z" fill="#71FFA9"/>
<path d="M21.4223 25.0521L21.2473 25.024L20.0896 24.8397L18.2944 24.5527C19.3151 25.6894 20.4281 26.8369 21.6333 27.9953L23.2543 28.1032L24.3005 28.1726L24.4596 28.1831C23.3651 27.1315 22.3527 26.0879 21.4223 25.0521Z" fill="#71FFA9"/>
<path d="M16.8941 18.9428L16.6896 18.8796L15.3621 18.4662L13.3109 17.8281C13.944 18.9318 14.6424 19.997 15.4023 21.0178L17.3442 21.4892L18.6022 21.7946L18.7938 21.8412C18.1043 20.913 17.47 19.9452 16.8941 18.9428Z" fill="#71FFA9"/>
<path d="M11.2719 12.8258C11.358 13.1479 11.4222 13.4604 11.5242 13.787L11.8556 14.7806L13.9857 15.5776L15.3598 16.0919L15.5699 16.1701L15.2692 15.2669C15.1742 14.9675 15.1171 14.684 15.0433 14.3926L14.82 14.3004L13.4257 13.7202L11.2719 12.8258Z" fill="#71FFA9"/>
<path d="M11.1255 11.9873L11.1607 12.2507L13.3233 13.1723L14.721 13.7692L14.9408 13.8657L14.9056 13.6287L14.6771 13.5322L13.2793 12.9265L11.1255 11.9873Z" fill="#71FFA9"/>
<path d="M11.0272 10.8902L11.0536 11.4695L13.225 12.435L14.6228 13.067L14.8426 13.1635L14.8163 12.6281L14.5965 12.5315L13.1899 11.882L11.0272 10.8902Z" fill="#71FFA9"/>
<path d="M12.2401 6.81744L11.9501 7.23877L14.0775 8.43253L15.4489 9.19619L15.6598 9.3103L15.9148 8.93287L15.7126 8.81875L14.3588 8.03754L12.2401 6.81744Z" fill="#71FFA9"/>
<path d="M12.8212 6.15036L12.4695 6.53658L14.5706 7.76544L15.9244 8.55542L16.1354 8.67831L16.4431 8.31844L16.2497 8.20433L14.9134 7.40557L12.8212 6.15036Z" fill="#71FFA9"/>
<path d="M11.0448 10.1969L11.0272 10.3812L13.1986 11.3994L14.5964 12.0665L14.825 12.1718L14.8338 11.9963L14.6052 11.891L13.2074 11.2239L11.0448 10.1969Z" fill="#71FFA9"/>
<path d="M15.9397 4.25452L15.6935 4.35986L17.6275 5.70283L18.8758 6.56302L19.0517 6.69468L19.2802 6.59813L19.1044 6.47525L17.8737 5.61505L15.9397 4.25452Z" fill="#71FFA9"/>
<path d="M17.1226 3.88849C16.8897 3.93852 16.691 4.01401 16.4783 4.07896L18.3745 5.43948L19.5939 6.31372L19.7732 6.44275C19.9659 6.37544 20.1618 6.31802 20.3604 6.27071L20.1855 6.14255L18.989 5.2613L17.1226 3.88849Z" fill="#71FFA9"/>
<path d="M17.9644 3.6839L17.7446 3.74534L19.5732 5.12343L20.7512 6.0012L20.9182 6.13286L21.1292 6.08019L20.9621 5.95731L19.7929 5.07076L17.9644 3.6839Z" fill="#71FFA9"/>
<path d="M11.7376 7.61627L11.5012 8.09904C11.4379 8.26757 11.3869 8.44401 11.3271 8.6143C11.2163 8.96863 11.1334 9.33107 11.0792 9.69832L13.2523 10.7604L14.6527 11.4451L14.8645 11.5486C14.914 11.2153 14.9893 10.8864 15.0896 10.5647C15.1441 10.4093 15.1863 10.2469 15.2504 10.0977L15.4641 9.65794L15.2523 9.5412L13.8738 8.78634L11.7376 7.61627Z" fill="#71FFA9"/>
<path d="M15.2304 4.55283C15.0338 4.63243 14.8428 4.7254 14.6589 4.83108C14.4802 4.9329 14.2842 5.02418 14.1198 5.13478C13.7896 5.34063 13.4761 5.57189 13.1821 5.82645L15.2451 7.09307L16.5742 7.90937L16.7755 8.03226C17.0427 7.80094 17.3269 7.58998 17.6256 7.40115C17.776 7.30109 17.9544 7.21858 18.1188 7.12729C18.2841 7.02876 18.457 6.94335 18.6357 6.87186L18.4511 6.74547L17.1908 5.88701L15.2304 4.55283Z" fill="#71FFA9"/>
<path d="M40.6141 6.70352C40.4347 6.64208 40.2598 6.58239 40.0875 6.52972L40.7433 7.75331L41.1679 8.5468L41.2332 8.66792C41.3894 8.71532 41.552 8.76974 41.7112 8.82592L41.6478 8.7039L41.2409 7.91569L40.6141 6.70352Z" fill="#71FFA9"/>
<path d="M42.904 7.49088C42.4836 7.33639 42.0757 7.19507 41.6669 7.05902L42.2392 8.25101L42.612 9.02695L42.6708 9.15072C43.0392 9.27273 43.4146 9.40174 43.7935 9.54131L43.7407 9.42194L43.411 8.66092L42.904 7.49088Z" fill="#71FFA9"/>
<path d="M44.4412 8.04616L44.028 7.89694L44.4764 9.04679L44.7753 9.79289L44.8192 9.91577L45.1972 10.0474L45.1533 9.93333L44.872 9.19601L44.4412 8.04616Z" fill="#71FFA9"/>
<path d="M39.1122 6.22311C38.2516 5.94574 37.4217 5.71928 36.5769 5.47175C36.1594 5.3515 35.7541 5.25319 35.3435 5.14435C34.9315 5.03726 34.5154 4.92227 34.1207 4.83362L35.0877 6.14674L35.7154 6.99729L35.8106 7.12632C36.171 7.20708 36.5471 7.31152 36.9207 7.40983C37.2952 7.50902 37.6609 7.5968 38.0435 7.7074C38.809 7.93211 39.5623 8.13399 40.3456 8.38942L40.2744 8.26301L39.8164 7.45898L39.1122 6.22311Z" fill="#71FFA9"/>
<path d="M44.4439 8.048L44.8756 9.19524L45.1551 9.93781L45.1973 10.0493L46.9151 10.7129C47.4892 10.9376 48.0667 11.1816 48.6399 11.4133L48.6161 11.3045L48.4631 10.6119L48.2276 9.54546C47.5955 9.29004 46.9599 9.0232 46.3278 8.77567L44.4439 8.048Z" fill="#71FFA9"/>
<path d="M49.41 10.0474L49.5858 11.0832L49.7001 11.7591L49.7176 11.8644L50.2099 12.0838L50.2011 11.9785L50.1044 11.3114L49.955 10.2844L49.41 10.0474Z" fill="#71FFA9"/>
<path d="M51.0457 10.7588L51.1424 11.7594L51.1951 12.4177L51.2039 12.5143L52.3731 13.0409L52.3643 12.9444L52.3467 12.3124L52.3291 11.3381L51.0457 10.7588Z" fill="#71FFA9"/>
<path d="M53.4772 11.8823L53.442 12.8214L53.4156 13.4359V13.5324L53.8025 13.7168V13.6202L53.8465 13.0146L53.8992 12.0754L53.4772 11.8823Z" fill="#71FFA9"/>
<path d="M55.0606 12.6324L54.941 13.5427L54.8646 14.1316L54.8531 14.2186C55.6715 14.632 56.4938 15.0252 57.3052 15.4571C57.7122 15.6704 58.1157 15.8766 58.5236 16.0926L59.7368 16.7526L59.7755 16.6772L60.0339 16.183L60.433 15.4193L59.1003 14.6952C58.6572 14.4608 58.2089 14.23 57.758 13.9947C56.8674 13.5225 55.9619 13.0862 55.0606 12.6324Z" fill="#71FFA9"/>
<path d="M79.7814 28.5156L78.3661 28.5946L77.4518 28.6472L77.3199 28.656L77.698 28.972H77.8386L78.7617 28.9281L80.1946 28.8667L79.7814 28.5156Z" fill="#71FFA9"/>
<path d="M81.0116 29.5689L79.5348 29.5952L78.5766 29.6128H78.4447L79.2886 30.3589L79.4293 30.3676L80.4138 30.3764L81.9434 30.394L81.0116 29.5689Z" fill="#71FFA9"/>
<path d="M87.7715 36.2777L85.9492 35.9546L84.7686 35.7457L84.5875 35.7133C84.7958 35.9555 85.0235 36.2013 85.2081 36.4383L85.3883 36.4734L86.5918 36.7095L88.4546 37.0738C88.2462 36.8123 87.9992 36.5428 87.7715 36.2777Z" fill="#71FFA9"/>
<path d="M88.9136 37.6383L87.0332 37.2442L85.8131 36.9887L85.6259 36.9492C85.8228 37.1889 86.0196 37.4294 86.1884 37.6629L86.3792 37.7059L87.6205 37.9877L89.5351 38.423C89.3461 38.165 89.1299 37.9007 88.9136 37.6383Z" fill="#71FFA9"/>
<path d="M82.7536 31.1317L81.1888 31.079L80.1778 31.0439L80.0284 31.0351L80.2921 31.2897H80.4415L81.4613 31.3336L83.0437 31.4038L82.7536 31.1317Z" fill="#71FFA9"/>
<path d="M92.4846 42.9049L90.417 42.236L89.0764 41.8033L88.8707 41.7366C88.9243 41.8259 88.9722 41.9186 89.014 42.014L89.2241 42.0824L90.57 42.5266L92.642 43.2104C92.5936 43.1103 92.5452 43.0102 92.4846 42.9049Z" fill="#71FFA9"/>
<path d="M92.9426 43.8167L90.8591 43.104L89.5027 42.6396L89.2872 42.5659C89.3971 42.7836 89.4982 42.9951 89.5791 43.2005L89.7945 43.2778L91.1615 43.7658L93.2625 44.5154C93.1686 44.2769 93.0618 44.0437 92.9426 43.8167Z" fill="#71FFA9"/>
<path d="M93.5209 45.1316L91.4023 44.3504L90.0309 43.85L89.8112 43.7623L89.8991 43.9729L90.11 44.0519L91.4902 44.5698L93.6176 45.3685L93.5209 45.1316Z" fill="#71FFA9"/>
<path d="M83.825 32.1494L82.2074 32.0441L81.1613 31.9739L81.0031 31.9651L81.8118 32.7463L82.5854 33.5276L82.9722 33.9226L83.3239 34.3088L84.0535 35.09L84.2118 35.1163L85.3722 35.3006L87.1744 35.5903L86.3832 34.7389L85.9875 34.3088L85.5656 33.8787L84.7217 33.0097L83.825 32.1494Z" fill="#71FFA9"/>
<path d="M90.0648 39.1259L88.1219 38.6546L86.864 38.3491L86.6732 38.3026C86.871 38.5545 87.0257 38.7959 87.1989 39.0399C87.3607 39.2822 87.5479 39.5332 87.6974 39.7711C87.991 40.2477 88.3242 40.7375 88.5686 41.1992L88.7778 41.2641L90.1079 41.6784L92.1518 42.3139C91.8784 41.8048 91.5215 41.2703 91.1953 40.7454C91.0283 40.4803 90.8261 40.2056 90.6441 39.9387C90.4534 39.6692 90.2784 39.4007 90.0648 39.1259Z" fill="#71FFA9"/>
</svg>
