<svg width="69" height="51" viewBox="0 0 69 51" fill="none" xmlns="http://www.w3.org/2000/svg">
<g filter="url(#filter0_f_72_352)">
<path d="M63.8731 37.5971L60.2762 44.1019C58.1377 47.9697 49.6302 48.0789 38.0496 43.7467C22.7046 38.0067 7.68839 26.6104 4.57519 18.3438C4.20454 17.5743 4.00825 16.7328 4.00023 15.879C3.9922 15.0252 4.17266 14.1801 4.5288 13.4038L8.12582 6.89902C7.76965 7.67526 7.58907 8.52031 7.59697 9.37409C7.60487 10.2279 7.80105 11.0694 8.17152 11.839C11.2846 20.1056 26.3014 31.5019 41.6465 37.2419C53.2271 41.5741 61.7346 41.465 63.8731 37.5971Z" fill="#37AB65"/>
<path d="M30.3544 7.25428C45.6995 12.9942 60.7142 24.3894 63.8273 32.6577C66.9403 40.9243 56.992 42.9818 41.6471 37.2419C26.3022 31.5019 11.2852 20.1056 8.17212 11.839C5.05924 3.57074 15.0095 1.51433 30.3544 7.25428Z" fill="#71FFA9"/>
<path d="M62.4352 32.1368C59.4731 24.2696 45.2351 13.4645 30.6364 8.00361C16.0354 2.54167 6.6004 4.49156 9.56286 12.3588C12.5253 20.226 26.7625 31.03 41.364 36.4914C55.9627 41.9528 65.3978 40.004 62.4352 32.1368Z" fill="#49D581"/>
<path d="M63.8271 32.6582C63.777 32.5277 63.7274 32.3999 63.6719 32.2667C63.4411 31.7185 63.1785 31.1841 62.8856 30.6662C62.6546 30.2588 62.3991 29.8455 62.1244 29.4263C60.8511 27.5625 59.3934 25.8312 57.7733 24.2584C54.2842 20.8767 50.4486 17.8709 46.3298 15.2903C42.7153 12.9795 38.9361 10.9361 35.0227 9.17645C34.4168 8.90429 33.8087 8.63798 33.1974 8.38286C32.8304 8.22734 32.4612 8.07767 32.0916 7.93067C31.5139 7.69473 30.9357 7.4705 30.3553 7.25372L30.1078 7.16211C29.5135 6.94055 28.9243 6.7323 28.3464 6.53843C27.877 6.37758 27.4156 6.22472 26.9601 6.08304C23.2384 4.81251 19.3458 4.11025 15.4142 4C14.9581 4.00266 14.5223 4.01918 14.1051 4.05273C12.695 4.11478 11.3131 4.46806 10.0465 5.09026C9.6325 5.30586 9.25015 5.57739 8.91032 5.89717H8.90751C8.59644 6.18838 8.33294 6.52641 8.12658 6.899C7.72268 7.65913 7.54359 8.51827 7.61022 9.37618C7.62089 9.58976 7.64612 9.80866 7.67957 10.0334C7.71547 10.2608 7.76277 10.4909 7.82091 10.7295C7.88225 10.9681 7.9516 11.2126 8.03481 11.4619H8.03803C8.07963 11.587 8.12392 11.7117 8.17139 11.8395C8.36253 12.3434 8.58411 12.8351 8.83495 13.3122C13.033 21.4121 27.1937 31.8342 41.6457 37.2408C46.5016 39.2428 51.6825 40.3436 56.9341 40.4892C57.0594 40.4865 57.1869 40.4833 57.3096 40.478L57.4147 40.4727C57.5512 40.4668 57.6873 40.4583 57.8179 40.4476C57.9374 40.4418 58.0569 40.4306 58.1705 40.4199L58.4596 40.389L58.6901 40.3613C58.7733 40.3534 58.8539 40.3422 58.9344 40.3283C59.007 40.3198 59.0763 40.3086 59.1429 40.2948C59.2432 40.2809 59.3403 40.2644 59.4374 40.2447C59.5377 40.2282 59.6374 40.2064 59.7345 40.184C59.8044 40.1728 59.8711 40.1563 59.9346 40.1398C60.021 40.1227 60.1042 40.1009 60.1847 40.0785L60.285 40.0508C60.3624 40.0311 60.4402 40.012 60.5154 39.9869C60.6264 39.9566 60.7347 39.9203 60.8403 39.8841L60.8601 39.8788L61.0766 39.7984L61.1657 39.7648C61.2713 39.7259 61.371 39.6844 61.4713 39.6402L61.6378 39.5651L61.6714 39.5486L61.8431 39.4655L61.8517 39.4596C61.9157 39.4293 61.9765 39.3963 62.0378 39.36L62.2571 39.2354L62.3627 39.1656C62.4214 39.13 62.4769 39.0911 62.5323 39.0522L62.6129 38.9936L62.7798 38.869L62.8017 38.8525L62.966 38.7135L62.9991 38.6831L63.0519 38.6362L63.1767 38.5169L63.2242 38.4695L63.3741 38.306L63.4077 38.2671C63.4605 38.2059 63.5133 38.1425 63.5602 38.0759L63.6685 37.9257L63.6856 37.898L63.7187 37.8565L63.7437 37.8149L63.7576 37.7926C63.7907 37.7372 63.8269 37.6818 63.8573 37.6237C64.2222 36.8458 64.4088 35.9965 64.4035 35.1376C64.3983 34.2786 64.2014 33.4316 63.8271 32.6582ZM41.3653 36.4919C27.7188 31.3874 14.3916 21.6177 10.2882 13.9391C10.0122 13.4285 9.77001 12.9004 9.56322 12.3583C9.04189 11.4226 8.8479 10.3401 9.01194 9.28196C9.17599 8.22384 9.6887 7.25054 10.469 6.51606H10.4717C10.8486 6.20532 11.2664 5.94762 11.7135 5.75016C12.2305 5.52057 12.7695 5.34408 13.3223 5.22341C14.4498 4.98594 15.6011 4.87978 16.7532 4.90704C17.5748 4.91663 18.3953 4.96765 19.2117 5.0599C20.5813 5.21896 21.9411 5.45312 23.285 5.76134C24.113 5.94989 24.9658 6.16933 25.8491 6.41912C27.1603 6.79355 28.5281 7.23739 29.9527 7.75065C30.1581 7.82522 30.3635 7.90031 30.572 7.97807L30.636 8.0031C31.0249 8.15011 31.4138 8.29711 31.8026 8.4521C32.4721 8.71574 33.1389 8.98737 33.803 9.27339C37.8805 11.0246 41.8122 13.0968 45.5608 15.4703C52.648 19.3247 58.4983 25.1027 62.4356 32.1368C65.397 40.0034 55.9623 41.9539 41.3653 36.4919Z" fill="#71FFA9"/>
<path d="M57.1481 33.1768L51.3444 31.0075L47.7134 21.3566L36.5339 23.6676L28.0717 17.2459L19.6644 10.8657L21.9011 16.8017L23.2986 20.5134L17.4977 18.3441L17.4918 18.3415L17.5862 18.4608C17.6502 18.5412 17.7171 18.619 17.7836 18.6994L17.7895 18.702L23.9403 21.0019L22.3792 16.8603L20.4592 11.7589L27.6743 17.2347L36.6896 24.075L47.4414 21.8503L50.9225 31.0964L57.0707 33.3957L57.0761 33.3984C57.0965 33.3505 57.1142 33.3014 57.1289 33.2514L57.154 33.1795L57.1481 33.1768ZM56.0844 34.7107L48.0191 31.6924L45.5824 25.2239L37.7341 26.8494L25.8852 17.8557L28.3215 24.3248L20.2565 21.3097L20.2455 21.3038L20.3424 21.3981L20.6811 21.7145L20.6923 21.7203L28.963 24.8132L26.6794 18.7521L37.8866 27.2568L45.3104 25.7203L47.594 31.7814L55.862 34.8743L55.8732 34.8801L56.0455 34.7523L56.0924 34.7134L56.0844 34.7107Z" fill="#71FFA9"/>
<path d="M57.6618 30.9964L57.6591 30.9853L57.6425 30.9272L57.6314 30.8825L57.6089 30.8106L57.5897 30.7525L57.5785 30.7136L57.5508 30.622L57.5423 30.597L57.5119 30.5112L57.506 30.4915L57.4702 30.3919L57.4617 30.3669L57.4228 30.2614C57.3588 30.0894 57.2867 29.912 57.2062 29.7342C56.1482 27.6111 54.7298 25.6871 53.0141 24.0475C52.9052 23.9367 52.7943 23.8286 52.6833 23.7172C52.4609 23.4983 52.2331 23.2792 52 23.06C51.4164 22.5109 50.7996 21.9626 50.1496 21.4153C48.3575 19.9177 46.477 18.529 44.5182 17.2567C44.204 17.0516 43.8872 16.8492 43.565 16.6468C43.262 16.4551 42.9537 16.2639 42.6427 16.078L42.5953 16.0476C42.2677 15.8506 41.9397 15.6535 41.6063 15.4591C41.1091 15.171 40.6063 14.8862 40.0978 14.6048C39.7564 14.4189 39.4145 14.233 39.0725 14.053C36.6728 12.7805 34.1942 11.662 31.652 10.7045C30.8049 10.3854 29.9765 10.1 29.1737 9.84484C28.7156 9.69784 28.2679 9.56203 27.8262 9.43952H27.8236C27.1733 9.25098 26.5402 9.08746 25.9262 8.94313C25.5427 8.85418 25.165 8.77376 24.798 8.70186C24.4785 8.63528 24.1648 8.57988 23.8565 8.52982C23.4703 8.46324 23.0921 8.40786 22.7257 8.36365C21.0853 8.12151 19.4169 8.142 17.783 8.42436L17.6418 8.45525L17.6384 8.45791C16.9852 8.50397 16.3545 8.71524 15.8056 9.07184C15.2568 9.42843 14.8078 9.91862 14.501 10.4963C14.1942 11.0739 14.0397 11.72 14.052 12.3737C14.0643 13.0274 14.243 13.6673 14.5712 14.233C14.743 14.6815 14.9445 15.1179 15.1745 15.5395C15.7252 16.5381 16.3689 17.4827 17.097 18.3608C17.9732 19.4262 18.9179 20.4335 19.9252 21.3764C25.1708 26.1373 31.1852 29.978 37.7137 32.7359C38.5893 33.1104 39.4699 33.4624 40.3479 33.7927C41.2233 34.1202 42.0771 34.4151 42.9094 34.6773C45.0321 35.6974 47.3458 36.2608 49.7005 36.3311C52.0552 36.4014 54.3984 35.977 56.5784 35.0853C57.0973 34.6966 57.4858 34.1596 57.6922 33.5455C57.9306 32.711 57.92 31.8251 57.6618 30.9964ZM57.1534 33.1796L57.1283 33.2515C57.1136 33.3015 57.096 33.3506 57.0755 33.3985C56.8733 33.9179 56.5332 34.3725 56.0919 34.7135L56.0449 34.7524L55.8726 34.8802C51.9566 36.4167 47.5898 36.3378 43.732 34.6608L43.7096 34.6555C42.9788 34.4419 42.2315 34.2033 41.4617 33.937C41.2035 33.8454 40.9427 33.7538 40.6787 33.6568L40.612 33.6318L40.5395 33.6041L40.4477 33.5705L40.3869 33.5487L40.2338 33.4928L40.0812 33.4347L40.0199 33.4124L39.9287 33.3767L39.8535 33.349L39.7868 33.3213C39.1115 33.063 38.4363 32.7892 37.7612 32.5C37.5361 32.4057 37.3137 32.3088 37.0891 32.2087C31.0947 29.6055 25.5554 26.0629 20.6805 21.7146L20.3418 21.3983L20.2449 21.304C19.3758 20.4828 18.5538 19.6133 17.783 18.6995C17.7165 18.6191 17.6496 18.5413 17.5856 18.4609L17.4912 18.3416C17.3804 18.2026 17.272 18.0641 17.169 17.9283C17.0607 17.7893 16.9578 17.6508 16.858 17.5123C16.7551 17.3733 16.6607 17.2375 16.5689 17.1017C16.4105 16.8742 16.2665 16.6522 16.1299 16.4301C16.0163 16.2474 15.9107 16.0695 15.8136 15.8921C15.7688 15.817 15.7299 15.7424 15.6941 15.67C15.5885 15.4788 15.4967 15.2929 15.4103 15.107L15.405 15.0959L15.3522 14.9824L15.3357 14.9403L15.3132 14.8881L15.2743 14.8045L15.2604 14.7688L15.23 14.6937L15.2188 14.666L15.1799 14.5691L15.1687 14.5441L15.1297 14.4413C13.8853 11.1348 15.4274 9.15138 18.8861 8.67683L18.8914 8.67416H18.8946C21.5164 8.44169 24.1587 8.69171 26.6901 9.41182H26.6927C28.4128 9.84597 30.1067 10.3777 31.7661 11.0043C35.4295 12.3913 38.9585 14.109 42.3093 16.136C48.4041 19.2768 53.4596 24.1098 56.8669 30.0532L56.9059 30.156L56.9144 30.181L56.9475 30.278L56.956 30.3003L56.9811 30.3749L56.9923 30.4084L57.0174 30.4915L57.0312 30.5331L57.0451 30.5831L57.0728 30.6747L57.0782 30.6971C57.1324 30.8841 57.1768 31.0738 57.2115 31.2654C57.3449 31.899 57.325 32.5552 57.1534 33.1796Z" fill="#71FFA9"/>
<path d="M30.9911 9.48966L30.8023 9.42041L30.3414 9.25371L30.4161 9.42894L30.5414 9.71708L31.1693 9.9445L30.9911 9.48966ZM29.8384 9.44278L29.6298 9.00712C29.4271 8.93788 29.2244 8.86864 29.0244 8.80472L29.2719 9.28194C29.433 9.33467 29.591 9.38686 29.7525 9.44278L29.8549 9.47847L29.8384 9.44278ZM34.086 10.7269C33.8614 10.63 33.6337 10.533 33.4054 10.4382L33.5003 10.8601C33.7197 10.9517 33.9361 11.0433 34.1559 11.1376L34.086 10.7269ZM28.7216 8.70459L28.1602 8.52723L28.4381 9.01244C28.6158 9.07103 28.7993 9.12641 28.9801 9.18713L28.7216 8.70459ZM35.028 11.1376C34.8195 11.0459 34.6114 10.9517 34.4002 10.8627L34.4583 11.268C34.6616 11.3538 34.8616 11.4427 35.0643 11.5343L35.028 11.1376ZM35.7641 11.4704L35.7753 11.856C35.9892 11.953 36.2005 12.0531 36.4144 12.1527L36.4283 11.781C36.209 11.6755 35.9867 11.5732 35.7641 11.4704ZM36.6726 11.8976L36.6507 12.2667C36.8646 12.3663 37.0785 12.4718 37.2897 12.5745L37.3367 12.2166C37.1176 12.1112 36.895 12.0031 36.6726 11.8976ZM25.2904 7.73097C25.0765 7.67825 24.8626 7.62818 24.654 7.58132C23.381 7.28942 22.0915 7.07456 20.7926 6.93792C19.226 6.75321 17.6408 6.79518 16.0862 7.06255L16.011 7.07639L16.72 7.61753C17.0925 7.54124 17.4689 7.48558 17.8476 7.45083C20.4816 7.28559 23.1249 7.55461 25.6713 8.24708L25.2904 7.73097ZM43.8798 15.8368C42.7601 15.1401 41.6042 14.4664 40.4264 13.8198L40.2707 14.1197C41.3322 14.7023 42.3713 15.307 43.388 15.9337C46.0553 17.5602 48.5986 19.3812 50.9972 21.3818L51.5504 21.3514C49.1301 19.3308 46.5666 17.4877 43.8798 15.8368ZM30.8023 9.42041C30.6748 9.42308 30.5441 9.42894 30.4161 9.42894L30.5414 9.71708L31.1693 9.9445L30.9911 9.48966L30.8023 9.42041ZM29.7525 9.44278L29.8549 9.47847L29.8384 9.44278H29.7525ZM15.875 7.10676C15.7555 7.13445 15.636 7.16215 15.5224 7.19304L16.2473 7.72831C16.3583 7.69795 16.4723 7.67026 16.5893 7.64522L15.875 7.10676ZM15.1501 7.30116C15.0446 7.33418 14.9442 7.36774 14.8444 7.40395L15.5944 7.93071L15.8889 7.83111L15.1501 7.30116ZM14.6972 7.45934C14.6081 7.49502 14.5166 7.53391 14.4305 7.57279L14.8332 7.84762L15.197 8.09422L15.436 7.99195H15.4387L15.4531 7.9861L14.6972 7.45934ZM51.7894 21.5538L51.2282 21.5789C51.3808 21.7094 51.5338 21.8393 51.6811 21.9698L52.2588 21.9586C52.103 21.8228 51.9478 21.687 51.7894 21.5538ZM52.7922 22.4305L52.1974 22.4247C52.3505 22.5637 52.5004 22.6995 52.6476 22.8353L53.2616 22.8577C53.1058 22.716 52.9506 22.5717 52.7922 22.4305ZM53.4312 23.0159L52.8114 22.9882C52.9586 23.1266 53.1032 23.2624 53.2477 23.4015L53.8809 23.4403C53.7342 23.2987 53.5811 23.157 53.4312 23.0159ZM13.2495 8.30513C13.1801 8.36371 13.1137 8.4271 13.0468 8.49101L13.8608 8.97941C13.9248 8.91816 13.9888 8.85745 14.0582 8.79886L13.2495 8.30513ZM12.8441 8.71045C12.7966 8.76318 12.7524 8.81856 12.7107 8.87396L13.536 9.34851L13.6635 9.19033L12.8441 8.71045ZM12.5438 9.11524C12.4995 9.18448 12.4579 9.25691 12.4189 9.33148L13.2554 9.78951C13.2943 9.71974 13.3332 9.64785 13.3775 9.58127L12.5438 9.11524ZM55.8039 25.4206L55.1008 25.3098C55.2144 25.4376 55.3259 25.5623 55.4369 25.6901L56.1538 25.8174C56.0397 25.6842 55.9233 25.5537 55.8039 25.4206ZM56.5427 26.2754L55.8119 26.1311C55.901 26.2366 55.9842 26.3388 56.0706 26.4443L56.8094 26.5998C56.7235 26.4917 56.6346 26.3836 56.5427 26.2754ZM57.1652 27.052L56.412 26.8799C56.5149 27.0104 56.612 27.1409 56.7064 27.2682L57.4708 27.4541C57.3732 27.3209 57.2708 27.1851 57.1652 27.052ZM12.0415 10.5298C12.0301 10.6215 12.0189 10.7157 12.0136 10.8132L12.8633 11.218L12.8916 10.9464L12.0415 10.5298ZM12.0077 10.9181C12.005 11.0156 12.0024 11.1125 12.005 11.2127L12.858 11.6036C12.8553 11.5067 12.8553 11.4124 12.858 11.3208L12.0077 10.9181ZM12.8745 11.9253L12.0242 11.5482C12.0328 11.6451 12.044 11.7421 12.0578 11.8422L12.9081 12.2113C12.8943 12.1165 12.883 12.0196 12.8745 11.9253ZM58.6764 29.2905L57.8677 29.0381C57.9317 29.1489 57.993 29.257 58.0512 29.3656L58.8625 29.6288C58.8044 29.5153 58.7404 29.404 58.6764 29.2905ZM12.9301 12.3551L12.0831 11.9919C12.0996 12.1027 12.122 12.214 12.1471 12.3248L12.9915 12.6768C12.9689 12.5687 12.947 12.4606 12.93 12.3551H12.9301ZM58.9571 29.8034L58.1404 29.5345L58.31 29.8732L59.132 30.156C59.0764 30.0394 59.0183 29.9227 58.9569 29.8034H58.9571ZM59.3155 30.5555L58.485 30.2615C58.5346 30.3749 58.5821 30.4916 58.629 30.6056L59.4628 30.9134C59.4151 30.7968 59.3682 30.6775 59.3154 30.5555H59.3155ZM13.3691 13.8896L12.536 13.5812C12.5829 13.7005 12.6303 13.8198 12.6832 13.9391L13.511 14.2331C13.4607 14.117 13.4138 14.003 13.369 13.8896H13.3691ZM13.6887 14.6219L12.8667 14.3412L13.0417 14.6911L13.8556 14.9574C13.7968 14.8461 13.7413 14.7327 13.6885 14.6219H13.6887ZM59.8516 32.1698L59.0045 31.8178C59.0291 31.9259 59.0488 32.0314 59.068 32.1368L59.9157 32.5001C59.899 32.3919 59.8765 32.2806 59.8515 32.1698H59.8516ZM13.9943 15.2152L13.9474 15.1295L13.136 14.8658L13.1942 14.974L13.3222 15.204L14.1277 15.4565C14.0806 15.3761 14.0358 15.2957 13.9942 15.2152H13.9943ZM59.9407 32.6524L59.0904 32.2838C59.1043 32.3781 59.1155 32.4724 59.124 32.5666L59.9738 32.9464C59.9656 32.8495 59.9544 32.7525 59.9406 32.6524H59.9407ZM59.1406 32.891C59.1433 32.9885 59.1433 33.0827 59.1406 33.1743L59.9909 33.5765C59.9962 33.479 59.9962 33.3821 59.9935 33.2825L59.1406 32.891ZM59.1347 33.2766C59.1294 33.3709 59.1208 33.4598 59.107 33.5514L59.9599 33.9674C59.9711 33.8731 59.9796 33.7789 59.985 33.6846L59.1347 33.2766ZM15.2889 17.2237L14.5251 17.0405C14.6222 17.1736 14.7251 17.3068 14.8281 17.4426L15.5807 17.6146C15.4809 17.4841 15.3835 17.3538 15.2888 17.2237H15.2889ZM15.992 18.1334L15.9253 18.0503L15.1835 17.8948L15.2558 17.9811L15.4502 18.2197L16.181 18.3608L15.992 18.1334ZM16.5558 18.8018L15.8389 18.6772C15.9557 18.8077 16.0699 18.9408 16.1893 19.0713L16.8919 19.1848C16.7782 19.0575 16.6671 18.9297 16.5557 18.8018H16.5558ZM58.7485 34.7083C58.7096 34.7775 58.6712 34.8494 58.6263 34.916L59.4601 35.382C59.5044 35.3128 59.546 35.2407 59.5849 35.1658L58.7485 34.7083ZM58.4679 35.1493C58.4263 35.202 58.3847 35.2574 58.3404 35.3075L59.1624 35.79L59.2931 35.6233L58.4679 35.1493ZM58.1431 35.521C58.0817 35.5818 58.0183 35.643 57.9484 35.701L58.7571 36.198C58.8264 36.1367 58.8957 36.0728 58.9597 36.0089L58.1431 35.521ZM18.9866 21.3237C18.9032 21.2487 18.8254 21.1709 18.7448 21.0931L18.109 21.0516L18.3586 21.2902L18.5586 21.4787L19.1786 21.5064L18.9866 21.3237ZM19.3422 21.6593L18.7283 21.6369C18.884 21.7786 19.0393 21.9229 19.1977 22.0641L19.7951 22.0699C19.6427 21.9341 19.4921 21.7951 19.3422 21.6593ZM20.3062 22.5248L19.7311 22.536C19.8842 22.6718 20.0394 22.8076 20.1979 22.9407L20.759 22.9157L20.3062 22.5248ZM56.8147 36.4115C56.7315 36.4472 56.6483 36.4861 56.5592 36.5197L57.3177 37.0464C57.4068 37.0107 57.4954 36.9719 57.5818 36.933L56.8147 36.4115ZM20.9901 23.1101L20.437 23.1431C20.6093 23.2901 20.7844 23.4345 20.9624 23.5815L21.4958 23.5346C21.3261 23.3929 21.1564 23.2513 20.99 23.1101H20.9901ZM56.4178 36.5751C56.3234 36.6113 56.2258 36.6443 56.1261 36.6747L56.8675 37.2073C56.9705 37.1743 57.0734 37.138 57.1705 37.1018L56.4178 36.5751ZM55.7676 36.7833L55.4283 36.8664L56.1453 37.4043C56.2647 37.3766 56.3815 37.3489 56.4957 37.3186L55.7676 36.7833ZM55.2982 36.8941C52.2994 37.3213 49.2439 37.1047 46.3357 36.2587L46.716 36.7748C49.7315 37.6523 52.8997 37.8772 56.0093 37.4347L55.2982 36.8941ZM36.223 32.6417C31.6929 30.5686 27.3967 28.0197 23.4071 25.0382L22.943 25.1404C27.0806 28.2327 31.5361 30.8764 36.2342 33.0268L36.223 32.6417ZM37.5395 33.2297L36.9341 32.9634L36.9672 33.3597L37.5982 33.6345L37.5395 33.2297ZM43.5658 35.4848C43.3855 35.4294 43.202 35.3708 43.0185 35.3101L43.2766 35.7927C43.466 35.8539 43.6548 35.9146 43.8437 35.9732L43.5658 35.4848ZM38.4982 33.6372C38.279 33.5456 38.0619 33.4545 37.8425 33.3597L37.9119 33.7703C38.1398 33.8678 38.3649 33.9621 38.5927 34.0563L38.4982 33.6372ZM42.7294 35.2158C42.5352 35.1519 42.3405 35.0854 42.1463 35.0188L42.3714 35.4901C42.5741 35.5599 42.7741 35.6265 42.9768 35.6931L42.7294 35.2158ZM41.4571 34.7802C41.2486 34.7056 41.0405 34.6278 40.832 34.5501L41.0101 35.0049C41.2267 35.0854 41.4433 35.1631 41.6572 35.2409L41.4571 34.7802Z" fill="#71FFA9"/>
<path d="M60.8049 31.5267L59.5124 31.0431L58.676 30.7305L58.5506 30.6836C58.6835 31.0358 58.7923 31.3967 58.876 31.7637L59.004 31.817L59.8522 32.169L61.1612 32.7128C61.07 32.3097 60.9509 31.9134 60.8049 31.5267Z" fill="#71FFA9"/>
<path d="M58.9388 32.083L58.9601 32.2268L59.0881 32.2854L59.9416 32.6529L61.2539 33.2228L61.2325 33.063L59.9149 32.5038L59.0668 32.1363L58.9388 32.083Z" fill="#71FFA9"/>
<path d="M58.9933 32.509C59.0045 32.6187 59.0082 32.7257 59.0114 32.8312L59.1416 32.8908L59.9934 33.2823L61.311 33.8873C61.3083 33.7718 61.303 33.6551 61.2902 33.5342L59.9742 32.9468L59.1229 32.567L58.9933 32.509Z" fill="#71FFA9"/>
<path d="M58.5005 34.845C58.4504 34.9238 58.3981 35.0016 58.3421 35.0772L58.468 35.1491L59.2948 35.6242L60.5745 36.3597C60.6364 36.2772 60.694 36.1909 60.75 36.1051L59.4607 35.3829L58.6275 34.9164L58.5005 34.845Z" fill="#71FFA9"/>
<path d="M58.2174 35.2354C58.1539 35.3067 58.0905 35.3781 58.0217 35.4463L58.1449 35.5198L58.9599 36.0087L60.2226 36.7656C60.2978 36.6905 60.3671 36.6122 60.4365 36.5339L59.1637 35.7887L58.3412 35.3078L58.2174 35.2354Z" fill="#71FFA9"/>
<path d="M59.009 33.1109L59.0036 33.2174L59.137 33.276L59.9851 33.6808L61.3027 34.3093L61.308 34.1974L59.9904 33.5743L59.1423 33.1748L59.009 33.1109Z" fill="#71FFA9"/>
<path d="M56.4368 36.4343L56.2874 36.4822L56.4155 36.5727L57.1676 37.1L58.3198 37.9096L58.4799 37.851L57.317 37.0468L56.5595 36.5195L56.4368 36.4343Z" fill="#71FFA9"/>
<path d="M55.9982 36.5841C55.8828 36.6298 55.7634 36.6648 55.6414 36.6885L55.7684 36.7817L56.4965 37.3169L57.6055 38.1323C57.7394 38.1042 57.8712 38.0662 57.9997 38.0189L56.8672 37.2072L56.1263 36.6762L55.9982 36.5841Z" fill="#71FFA9"/>
<path d="M55.3003 36.7697L55.1776 36.8017L55.3003 36.8922L56.0098 37.4355L57.0927 38.2557L57.2314 38.2238L56.1431 37.4035L55.4284 36.8656L55.3003 36.7697Z" fill="#71FFA9"/>
<path d="M58.9789 33.4868C58.93 33.8887 58.8086 34.2785 58.6205 34.6372L58.7485 34.7075L59.586 35.1661L60.8817 35.8761C61.087 35.4803 61.2205 35.0513 61.2759 34.609L59.9594 33.9661L59.1091 33.5502L58.9789 33.4868Z" fill="#71FFA9"/>
<path d="M57.8264 35.6257C57.6597 35.7634 57.483 35.8884 57.2977 35.9996C57.1036 36.1239 56.8997 36.2322 56.688 36.3235L56.8161 36.4108L57.5821 36.9322L58.7545 37.7306C58.988 37.6321 59.2124 37.5132 59.425 37.3754C59.6291 37.2519 59.8239 37.114 60.0081 36.9626L58.7572 36.1962L57.949 35.7014L57.8264 35.6257Z" fill="#71FFA9"/>
<path d="M42.9794 35.2307L42.686 35.1348L42.7286 35.2147L42.974 35.694L43.3528 36.4237L43.6675 36.5249L43.2781 35.7899L43.022 35.3106L42.9794 35.2307Z" fill="#71FFA9"/>
<path d="M42.1105 34.9482L41.4224 34.7032L41.4597 34.7778L41.6571 35.2412L41.9665 35.9495L42.7186 36.2158L42.3719 35.4915L42.1478 35.0175L42.1105 34.9482Z" fill="#71FFA9"/>
<path d="M40.803 34.4798L40.5737 34.3999L41.0324 35.6142L41.2831 35.6994L41.0111 35.007L40.8297 34.549L40.803 34.4798Z" fill="#71FFA9"/>
<path d="M46.2739 36.174L44.9164 35.8203L43.522 35.4086L43.5653 35.4842L43.8431 35.9721L44.2709 36.7231L45.8051 37.1753C46.3054 37.3089 46.8004 37.4352 47.2992 37.5646L46.7161 36.7737L46.3353 36.2576L46.2739 36.174Z" fill="#71FFA9"/>
<path d="M38.4825 33.5657L38.498 33.636L38.5908 34.0568L38.7327 34.6997L39.3125 34.942C39.5029 35.0187 39.6939 35.0911 39.8854 35.1667L41.0301 35.612L40.573 34.3977L39.5317 33.9918C39.3573 33.9231 39.1839 33.8571 39.009 33.7873L38.4825 33.5657Z" fill="#71FFA9"/>
<path d="M37.5265 33.1642L37.5372 33.2281L37.5958 33.6329L37.6865 34.2614L38.0172 34.3999L37.9105 33.7714L37.8412 33.3613L37.8305 33.292L37.5265 33.1642Z" fill="#71FFA9"/>
<path d="M36.2212 32.5781L36.2265 32.642L36.2319 33.0255L36.2478 33.6167L37.0213 33.9629L36.968 33.3611L36.9306 32.9616L36.9253 32.8977L36.2212 32.5781Z" fill="#71FFA9"/>
<path d="M23.2906 24.8714L23.2106 24.8874L22.7359 24.9886L22.0211 25.1324L22.2344 25.2975L22.9439 25.1431L23.408 25.0365L23.4826 25.0206L23.2906 24.8714Z" fill="#71FFA9"/>
<path d="M21.5862 23.5253L21.4939 23.5333L20.9605 23.5812L20.146 23.6542C20.4524 23.9019 20.7498 24.1501 21.0651 24.3977L22.0199 25.1343L22.7368 24.9863L23.2078 24.8888L23.2901 24.8718L22.4194 24.2007C22.1346 23.9759 21.8647 23.7495 21.5862 23.5253Z" fill="#71FFA9"/>
<path d="M20.853 22.9113L20.757 22.9166L20.1969 22.9432L19.3381 22.9805L19.5888 23.1935L20.437 23.1456L20.9864 23.1083H21.0771L20.853 22.9113Z" fill="#71FFA9"/>
<path d="M19.8898 22.0708L19.7932 22.0698L19.1974 22.0639L18.281 22.0543C18.457 22.22 18.6517 22.3877 18.8448 22.5528L19.7292 22.5363L20.3064 22.5252L20.4024 22.5236C20.2253 22.3723 20.0498 22.221 19.8898 22.0708Z" fill="#71FFA9"/>
<path d="M16.2893 18.3837L16.1794 18.3618L15.4503 18.2191L14.3221 17.9986C14.4555 18.1589 14.5915 18.3197 14.7317 18.4811L15.8397 18.6771L16.555 18.8033L16.6633 18.8225C16.5353 18.6761 16.4115 18.5296 16.2893 18.3837Z" fill="#71FFA9"/>
<path d="M15.6961 17.6405L15.5815 17.6144L14.8288 17.4435L13.6654 17.1788C13.7876 17.337 13.9119 17.4962 14.0404 17.6544L15.1841 17.8941L15.9246 18.0496L16.0375 18.073C15.9186 17.9276 15.806 17.7838 15.6961 17.6405Z" fill="#71FFA9"/>
<path d="M19.2787 21.5105L19.1774 21.5052L18.5586 21.4786L17.6091 21.4359L17.7904 21.6011L18.7293 21.6384L19.3427 21.6597H19.4441L19.2787 21.5105Z" fill="#71FFA9"/>
<path d="M13.9827 15.0019L13.8547 14.9593L13.0439 14.6877L11.7797 14.2722L11.8757 14.4586L13.1345 14.8687L13.9453 15.1297L14.0734 15.167L13.9827 15.0019Z" fill="#71FFA9"/>
<path d="M13.6388 14.2786L13.5108 14.2328L12.684 13.9377L11.4022 13.4813C11.4635 13.6208 11.5275 13.762 11.5963 13.9047L12.868 14.3399L13.6884 14.6211L13.8143 14.6637C13.7524 14.5343 13.6932 14.4054 13.6388 14.2786Z" fill="#71FFA9"/>
<path d="M13.4499 13.8142L13.3218 13.7663L12.4844 13.4521L11.1935 12.9674L11.2468 13.1059L12.5377 13.5799L13.3699 13.8888L13.4979 13.9368L13.4499 13.8142Z" fill="#71FFA9"/>
<path d="M16.9987 19.2012L16.8925 19.1841L16.19 19.0723L15.1007 18.8981C15.72 19.5879 16.3954 20.2842 17.1267 20.987L18.1103 21.0525L18.7451 21.0946L18.8416 21.101C18.1775 20.4629 17.5632 19.8297 16.9987 19.2012Z" fill="#71FFA9"/>
<path d="M14.251 15.4942L14.1269 15.4558L13.3214 15.2049L12.0768 14.8177C12.461 15.4875 12.8847 16.1338 13.3458 16.7532L14.5242 17.0392L15.2875 17.2246L15.4037 17.2528C14.9854 16.6896 14.6005 16.1024 14.251 15.4942Z" fill="#71FFA9"/>
<path d="M10.8395 11.7824C10.8918 11.9779 10.9307 12.1675 10.9926 12.3657L11.1937 12.9686L12.4862 13.4522L13.32 13.7643L13.4475 13.8117L13.265 13.2636C13.2074 13.082 13.1728 12.91 13.128 12.7331L12.9925 12.6772L12.1464 12.3252L10.8395 11.7824Z" fill="#71FFA9"/>
<path d="M10.7507 11.2737L10.772 11.4335L12.0843 11.9927L12.9324 12.3549L13.0658 12.4135L13.0444 12.2697L12.9057 12.2111L12.0576 11.8436L10.7507 11.2737Z" fill="#71FFA9"/>
<path d="M10.6911 10.6079L10.7071 10.9595L12.0247 11.5453L12.8728 11.9288L13.0062 11.9874L12.9902 11.6625L12.8568 11.6039L12.0033 11.2098L10.6911 10.6079Z" fill="#71FFA9"/>
<path d="M11.4271 8.13666L11.2511 8.39231L12.542 9.11667L13.3741 9.58004L13.5021 9.64928L13.6568 9.42026L13.5341 9.35102L12.7127 8.87699L11.4271 8.13666Z" fill="#71FFA9"/>
<path d="M11.7796 7.7319L11.5662 7.96626L12.8411 8.71191L13.6626 9.19126L13.7906 9.26582L13.9773 9.04746L13.86 8.97822L13.0492 8.49354L11.7796 7.7319Z" fill="#71FFA9"/>
<path d="M10.7018 10.1873L10.6911 10.2991L12.0086 10.9169L12.8568 11.3217L12.9955 11.3856L13.0008 11.2791L12.8621 11.2152L12.014 10.8104L10.7018 10.1873Z" fill="#71FFA9"/>
<path d="M13.6719 6.58151L13.5226 6.64543L14.6961 7.46032L15.4535 7.98228L15.5602 8.06217L15.6989 8.00358L15.5922 7.92902L14.8454 7.40706L13.6719 6.58151Z" fill="#71FFA9"/>
<path d="M14.3896 6.35944C14.2483 6.38979 14.1277 6.4356 13.9987 6.47501L15.1493 7.30055L15.8891 7.83103L15.998 7.90932C16.1149 7.86848 16.2338 7.83364 16.3543 7.80493L16.2481 7.72717L15.5221 7.19244L14.3896 6.35944Z" fill="#71FFA9"/>
<path d="M14.9005 6.23529L14.7671 6.27257L15.8766 7.10878L16.5914 7.64139L16.6928 7.72128L16.8208 7.68932L16.7195 7.61476L16.01 7.07682L14.9005 6.23529Z" fill="#71FFA9"/>
<path d="M11.1221 8.6214L10.9786 8.91434C10.9402 9.0166 10.9093 9.12366 10.873 9.22698C10.8058 9.44199 10.7555 9.66191 10.7226 9.88475L12.0412 10.5292L12.8909 10.9447L13.0195 11.0075C13.0495 10.8053 13.0952 10.6056 13.1561 10.4104C13.1891 10.3162 13.2147 10.2176 13.2537 10.1271L13.3833 9.86025L13.2548 9.78941L12.4183 9.33137L11.1221 8.6214Z" fill="#71FFA9"/>
<path d="M13.2415 6.76254C13.1222 6.81085 13.0064 6.86726 12.8948 6.93138C12.7863 6.99316 12.6674 7.04855 12.5676 7.11566C12.3673 7.24057 12.1771 7.38089 11.9986 7.53536L13.2504 8.30392L14.057 8.79924L14.1791 8.87381C14.3412 8.73345 14.5136 8.60544 14.6949 8.49086C14.7861 8.43014 14.8944 8.38008 14.9942 8.32469C15.0945 8.2649 15.1994 8.21307 15.3078 8.16969L15.1958 8.093L14.431 7.5721L13.2415 6.76254Z" fill="#71FFA9"/>
<path d="M28.6439 8.06755C28.5351 8.03027 28.429 7.99405 28.3244 7.9621L28.7223 8.70455L28.98 9.18603L29.0196 9.25952C29.1144 9.28828 29.2131 9.3213 29.3096 9.35539L29.2712 9.28135L29.0243 8.80308L28.6439 8.06755Z" fill="#71FFA9"/>
<path d="M30.0334 8.54531C29.7783 8.45157 29.5308 8.36582 29.2827 8.28326L29.63 9.00654L29.8562 9.47737L29.8919 9.55247C30.1154 9.62651 30.3432 9.70479 30.5731 9.78948L30.5411 9.71704L30.341 9.25527L30.0334 8.54531Z" fill="#71FFA9"/>
<path d="M30.9661 8.8822L30.7154 8.79166L30.9875 9.48936L31.1688 9.94209L31.1955 10.0166L31.4249 10.0965L31.3982 10.0273L31.2275 9.57991L30.9661 8.8822Z" fill="#71FFA9"/>
<path d="M27.7326 7.77605C27.2104 7.60774 26.7068 7.47033 26.1942 7.32013C25.9409 7.24716 25.6949 7.18751 25.4458 7.12147C25.1958 7.05649 24.9433 6.98672 24.7038 6.93292L25.2906 7.7297L25.6715 8.24581L25.7292 8.3241C25.9479 8.3731 26.1761 8.43647 26.4028 8.49613C26.63 8.55631 26.8519 8.60958 27.0841 8.67669C27.5486 8.81304 28.0057 8.93553 28.481 9.09052L28.4378 9.01383L28.1599 8.52595L27.7326 7.77605Z" fill="#71FFA9"/>
<path d="M30.9678 8.88336L31.2297 9.57949L31.3994 10.0301L31.425 10.0977L32.4673 10.5004C32.8156 10.6367 33.1661 10.7848 33.5139 10.9254L33.4995 10.8593L33.4066 10.4391L33.2637 9.792C32.8802 9.63701 32.4945 9.47509 32.111 9.3249L30.9678 8.88336Z" fill="#71FFA9"/>
<path d="M33.9811 10.0966L34.0878 10.725L34.1571 11.1351L34.1678 11.1991L34.4665 11.3322L34.4611 11.2683L34.4025 10.8635L34.3118 10.2404L33.9811 10.0966Z" fill="#71FFA9"/>
<path d="M34.9736 10.5282L35.0323 11.1354L35.0643 11.5348L35.0696 11.5934L35.779 11.913L35.7737 11.8544L35.763 11.4709L35.7524 10.8797L34.9736 10.5282Z" fill="#71FFA9"/>
<path d="M36.4491 11.2099L36.4277 11.7798L36.4117 12.1526V12.2112L36.6465 12.3231V12.2645L36.6731 11.897L36.7052 11.3271L36.4491 11.2099Z" fill="#71FFA9"/>
<path d="M37.4098 11.6651L37.3372 12.2174L37.2908 12.5748L37.2839 12.6276C37.7805 12.8784 38.2794 13.117 38.7718 13.3791C39.0187 13.5085 39.2636 13.6336 39.5111 13.7647L40.2472 14.1652L40.2707 14.1194L40.4275 13.8195L40.6697 13.3562L39.861 12.9168C39.5922 12.7745 39.3201 12.6345 39.0465 12.4917C38.5061 12.2052 37.9567 11.9405 37.4098 11.6651Z" fill="#71FFA9"/>
<path d="M52.41 21.3028L51.5512 21.3507L50.9965 21.3827L50.9164 21.388L51.1458 21.5797H51.2312L51.7913 21.5531L52.6607 21.5158L52.41 21.3028Z" fill="#71FFA9"/>
<path d="M53.1565 21.9419L52.2603 21.9578L51.6789 21.9685H51.5989L52.111 22.4212L52.1963 22.4265L52.7937 22.4319L53.7219 22.4425L53.1565 21.9419Z" fill="#71FFA9"/>
<path d="M57.2583 26.0126L56.1526 25.8166L55.4362 25.6899L55.3263 25.6702C55.4527 25.8172 55.5908 25.9663 55.7029 26.1101L55.8122 26.1314L56.5425 26.2747L57.6728 26.4957C57.5463 26.337 57.3965 26.1735 57.2583 26.0126Z" fill="#71FFA9"/>
<path d="M57.9513 26.8383L56.8103 26.5991L56.07 26.4441L55.9564 26.4202C56.0758 26.5656 56.1953 26.7115 56.2977 26.8532L56.4135 26.8793L57.1667 27.0503L58.3285 27.3144C58.2138 27.1578 58.0825 26.9975 57.9513 26.8383Z" fill="#71FFA9"/>
<path d="M54.2135 22.8902L53.264 22.8582L52.6505 22.8369L52.5599 22.8316L52.7199 22.986H52.8106L53.4293 23.0127L54.3895 23.0553L54.2135 22.8902Z" fill="#71FFA9"/>
<path d="M60.1181 30.034L58.8636 29.6281L58.0501 29.3656L57.9253 29.3251C57.9578 29.3793 57.9869 29.4355 58.0122 29.4934L58.1397 29.5349L58.9564 29.8044L60.2136 30.2193C60.1843 30.1586 60.1549 30.0979 60.1181 30.034Z" fill="#71FFA9"/>
<path d="M60.396 30.5872L59.1318 30.1547L58.3087 29.873L58.178 29.8282C58.2447 29.9603 58.306 30.0887 58.3551 30.2133L58.4858 30.2602L59.3153 30.5563L60.5902 31.0112C60.5331 30.8665 60.4683 30.725 60.396 30.5872Z" fill="#71FFA9"/>
<path d="M60.7469 31.3851L59.4614 30.911L58.6292 30.6075L58.4959 30.5542L58.5492 30.682L58.6772 30.73L59.5147 31.0442L60.8056 31.5289L60.7469 31.3851Z" fill="#71FFA9"/>
<path d="M54.8635 23.5077L53.882 23.4438L53.2472 23.4012L53.1512 23.3959L53.642 23.8699L54.1114 24.3439L54.3461 24.5836L54.5595 24.818L55.0022 25.292L55.0982 25.308L55.8024 25.4198L56.8959 25.5956L56.4158 25.0789L56.1758 24.818L55.9197 24.557L55.4076 24.0297L54.8635 23.5077Z" fill="#71FFA9"/>
<path d="M58.6498 27.7409L57.4709 27.4549L56.7076 27.2696L56.5919 27.2413C56.7119 27.3942 56.8058 27.5407 56.9108 27.6887C57.009 27.8357 57.1226 27.988 57.2133 28.1324C57.3915 28.4216 57.5936 28.7188 57.7419 28.9989L57.8689 29.0384L58.676 29.2897L59.9162 29.6754C59.7503 29.3664 59.5337 29.0421 59.3358 28.7236C59.2345 28.5627 59.1118 28.396 59.0014 28.2341C58.8856 28.0706 58.7794 27.9076 58.6498 27.7409Z" fill="#71FFA9"/>
</g>
<defs>
<filter id="filter0_f_72_352" x="-3.05176e-05" y="0" width="68.4037" height="51" filterUnits="userSpaceOnUse" color-interpolation-filters="sRGB">
<feFlood flood-opacity="0" result="BackgroundImageFix"/>
<feBlend mode="normal" in="SourceGraphic" in2="BackgroundImageFix" result="shape"/>
<feGaussianBlur stdDeviation="2" result="effect1_foregroundBlur_72_352"/>
</filter>
</defs>
</svg>
