<svg width="125" height="71" viewBox="0 0 125 71" fill="none" xmlns="http://www.w3.org/2000/svg">
<path d="M124.238 39.7877L121.612 53.4175C119.973 61.9186 108.477 68.3377 89.4412 69.7614C59.8402 71.976 23.21 61.2708 7.6263 45.8503C5.28949 44.018 3.44611 41.6338 2.26227 38.9126C1.07843 36.1915 0.591337 33.219 0.844952 30.2631L3.47167 16.6332C3.21824 19.5892 3.70553 22.5617 4.88952 25.2828C6.07351 28.004 7.91699 30.3881 10.2539 32.2205C25.8368 47.641 62.4678 58.3461 92.0679 56.1316C111.104 54.7078 122.6 48.2888 124.238 39.7877Z" fill="#37AB65"/>
<path d="M35.6389 0.290118C65.2435 -1.92447 101.874 8.77982 117.457 24.2012C133.041 39.6226 121.673 53.9178 92.0681 56.1315C62.4681 58.3461 25.837 47.6409 10.2541 32.2204C-5.32959 16.799 6.03891 2.50383 35.6389 0.290118Z" fill="#3CAE6A"/>
<path d="M100.965 25.4351C90.1929 14.7756 64.7817 7.34885 44.3225 8.87878C23.8589 10.4096 15.9743 20.3265 26.7467 30.9869C37.5183 41.6465 62.9295 49.0732 83.3931 47.5424C103.852 46.0124 111.737 36.0946 100.965 25.4351Z" fill="#49D581"/>
<path d="M122.726 31.1195L122.493 30.6806C122.342 30.4023 122.181 30.1276 122.017 29.8441C121.728 29.3692 121.412 28.8923 121.069 28.4133C120.904 28.1755 120.73 27.9332 120.547 27.6953C119.855 26.7815 119.11 25.9084 118.317 25.0805C118.042 24.7882 117.754 24.4959 117.461 24.2027H117.457C114.784 21.6109 111.845 19.3078 108.689 17.3316C91.2411 7.22666 71.6505 1.37804 51.5113 0.261788C50.6225 0.206489 49.7347 0.156456 48.8512 0.11959C47.9809 0.0783351 47.1062 0.0511219 46.2412 0.0283001C45.3392 0.00986712 44.4417 0.000797645 43.5486 0.00109023C42.9173 0.00109023 42.2852 0.00548195 41.6531 0.0186484L41.4378 0.0239137C40.1745 0.0467355 38.9158 0.0923791 37.6699 0.156456L37.5004 0.165233C36.8823 0.202099 36.2599 0.243354 35.6463 0.288998C32.3512 0.525343 29.073 0.95738 25.8294 1.58282C7.31824 5.23957 -0.726361 14.7721 5.2216 25.7441C5.52401 26.3014 5.86689 26.8685 6.24227 27.4355L6.25193 27.4487C7.07404 28.6708 7.98927 29.8279 8.98944 30.9097C9.25511 31.202 9.53008 31.4899 9.81842 31.7831L10.2536 32.2219C11.0412 32.9988 11.879 33.7668 12.7715 34.5164C13.6418 35.2528 14.5574 35.9767 15.5185 36.688C16.0723 37.0953 16.6402 37.4973 17.2222 37.8993L17.2265 37.9046C17.8129 38.3022 18.4081 38.6954 19.0219 39.0878L19.0261 39.093C21.1684 40.4597 23.4761 41.7676 25.9217 43.0105L25.9261 43.0149C40.857 50.2194 56.9926 54.6072 73.5203 55.9575C73.9687 55.9943 74.4126 56.0303 74.8574 56.0628C80.5861 56.5147 86.3407 56.5376 92.0728 56.1313L92.1598 56.1225C92.7224 56.0812 93.2816 56.0356 93.831 55.9847C95.2824 55.8477 96.6863 55.6819 98.0427 55.487C98.3135 55.4501 98.5834 55.4089 98.8489 55.3676L99.3754 55.2851C99.6137 55.2491 99.8466 55.2079 100.08 55.1666C100.41 55.1122 100.74 55.0525 101.069 54.9928C101.345 54.9428 101.619 54.8927 101.889 54.8374C102.168 54.783 102.443 54.7233 102.718 54.668L102.819 54.6452C103.047 54.5996 103.276 54.5495 103.501 54.4995H103.505L103.941 54.3986C104.577 54.252 105.2 54.0966 105.809 53.9369H105.817C106.317 53.7999 106.802 53.663 107.283 53.5252H107.292C121.696 49.2602 127.648 40.7748 122.726 31.1195ZM118.917 44.1446L118.89 44.1762L118.816 44.2727C111.898 50.7836 102.769 54.4389 93.2631 54.5039C92.4157 54.5908 91.5462 54.668 90.6627 54.7321C89.7836 54.8006 88.8984 54.8556 88.007 54.8971C60.384 56.1997 27.2765 46.2108 12.9366 32.0201C0.038466 19.2565 6.57195 7.30582 27.061 3.04517C30.3604 2.37905 33.6989 1.92403 37.0563 1.68288C37.4916 1.65128 37.9354 1.62407 38.375 1.59598C66.2537 -0.0998504 100.204 9.98035 114.778 24.4037C122.122 31.6681 123.166 38.6726 118.917 44.1446Z" fill="#49D280"/>
<path d="M114.777 24.4039C100.204 9.98051 66.2531 -0.0996897 38.3744 1.59614C37.9348 1.62423 37.491 1.65144 37.0557 1.68304C33.6983 1.92419 30.3598 2.37921 27.0605 3.04533C6.57137 7.30598 0.0378842 19.2567 12.936 32.0202C27.276 46.211 60.3835 56.1999 88.0064 54.8973C88.8987 54.856 89.7839 54.801 90.6621 54.7322C91.5456 54.6682 92.4151 54.5909 93.2625 54.504C102.769 54.4391 111.898 50.7838 118.815 44.2729L118.889 44.1763L118.916 44.1447C123.165 38.6727 122.122 31.6682 114.777 24.4039ZM111.778 30.8089L112.066 31.4628C112.257 31.8881 112.421 32.3249 112.557 32.7707L108.821 32.4187C108.696 32.0097 108.548 31.6082 108.377 31.2162L108.102 30.6123C108.006 30.4113 107.882 30.2059 107.776 30.0049L111.425 30.1558C111.54 30.37 111.673 30.5894 111.778 30.8089ZM107.383 24.9577C107.973 25.5748 108.587 26.1919 109.095 26.8177L105.624 26.923C105.162 26.3472 104.59 25.7758 104.045 25.2044L103.839 25.0165L107.163 24.7515L107.383 24.9577ZM100.904 19.8009L101.824 20.418L102.703 21.0438C103.299 21.4599 103.839 21.8856 104.374 22.3104L101.266 22.7633C100.766 22.3701 100.272 21.9769 99.723 21.5924L98.9124 21.0122L98.0608 20.4452L100.904 19.8009ZM92.2594 15.0276C93.8207 15.7456 95.2774 16.4996 96.7007 17.2677L94.1873 18.1094C92.8643 17.4002 91.5227 16.7015 90.0801 16.0432L92.2594 15.0276ZM82.0541 11.0092L82.4663 11.1462C83.7023 11.5675 84.9296 11.9923 86.1199 12.4497L84.4172 13.661C83.3183 13.2361 82.178 12.8429 81.0422 12.454L80.658 12.3303L82.0541 11.0092ZM71.4407 8.07401C73.3044 8.50411 75.1584 8.95704 76.9808 9.46877L75.9733 10.9039C74.289 10.4334 72.5765 10.013 70.8552 9.61536L71.4407 8.07401ZM65.4708 6.89518L65.3468 8.53132C63.6027 8.22499 61.8533 7.98273 60.1135 7.76329L59.8025 6.06745C61.6889 6.30533 63.5799 6.56602 65.4708 6.89518ZM48.855 5.32224C50.1226 5.32663 51.4184 5.3907 52.7195 5.45039L53.5757 7.19625C52.3802 7.14183 51.181 7.08214 50.0039 7.07776L49.6145 7.06898L48.4242 5.31346L48.855 5.32224ZM40.8974 5.54168C41.744 5.49164 42.587 5.43196 43.438 5.3907L45.0133 7.14183C44.2213 7.1787 43.438 7.23312 42.6556 7.27876C41.8995 7.35249 41.1217 7.40692 40.3752 7.49382L38.4298 5.77077C39.235 5.67861 40.0728 5.6198 40.8974 5.54168ZM33.5024 6.49229L35.8241 8.16091C34.4369 8.40844 33.1455 8.72355 31.8867 9.06149L29.2406 7.47099C30.5952 7.10496 31.9967 6.76703 33.5024 6.49229ZM22.2579 10.2052C22.9542 9.81198 23.741 9.46 24.5244 9.10802L27.5457 10.5704C26.8134 10.8951 26.0899 11.2199 25.449 11.5851L25.2249 11.7044L22.0197 10.3325L22.2579 10.2052ZM19.451 11.9923L22.8575 13.2361C22.149 13.7836 21.4917 14.3941 20.8937 15.0601L17.3218 13.9673C17.9694 13.2452 18.6821 12.5841 19.451 11.9923ZM15.2251 17.3958C15.3623 17.0122 15.5504 16.6322 15.7289 16.2486L19.4149 17.1676C19.2498 17.5196 19.08 17.8716 18.9525 18.2279C18.8224 18.5846 18.7166 18.9497 18.636 19.3208L14.8858 18.5799C14.9679 18.177 15.0814 17.7811 15.2251 17.3958ZM15.1056 23.5129C14.9417 22.9186 14.8195 22.3135 14.7401 21.7021L18.5077 22.2007C18.5755 22.7666 18.6889 23.3261 18.847 23.8737L18.9112 24.0659L15.1796 23.7183L15.1056 23.5129ZM17.0378 27.5085L16.6038 26.8458L16.2414 26.1875L19.8949 26.3428L20.2299 26.9511L20.6281 27.5585C20.8982 27.9804 21.1902 28.388 21.5028 28.7795L17.9864 28.8295C17.6567 28.3863 17.3033 27.9474 17.0378 27.5085ZM23.4343 34.1874C22.4057 33.3767 21.4186 32.5149 20.4769 31.605L23.8052 31.3443C24.6734 32.1875 25.586 32.9839 26.5391 33.7301L23.4343 34.1874ZM31.1219 39.2073L30.7836 39.0247L29.3267 38.1926C28.8468 37.9135 28.3931 37.6256 27.9353 37.3421L30.6868 36.6425C31.1176 36.9032 31.5298 37.1683 31.9737 37.429L33.3196 38.197L33.6264 38.3664L31.1219 39.2073ZM40.1097 43.3995C39.2904 43.0659 38.457 42.7368 37.6693 42.3848L36.4747 41.8634L35.3116 41.3236L37.4953 40.3185L38.5713 40.8162L39.6702 41.2964C40.4025 41.6211 41.1717 41.9231 41.9321 42.2338L40.1097 43.3995ZM50.8973 47.0018C49.9899 46.7455 49.0791 46.4945 48.1912 46.2153C47.2842 45.9459 46.4051 45.6623 45.526 45.3701L46.9315 44.0534C47.7377 44.3185 48.5526 44.588 49.3859 44.8302C50.2149 45.0909 51.0527 45.3244 51.8995 45.5614L50.8973 47.0018ZM62.3799 49.5482L61.9359 49.471L60.9329 49.2972L59.9351 49.1049C59.2617 48.9724 58.5936 48.853 57.9301 48.7073L58.3872 47.1344C59.0006 47.2713 59.6143 47.381 60.2323 47.5048L61.1623 47.683L62.0871 47.8427L62.4985 47.9112L62.3799 49.5482ZM70.5572 50.6366C69.6184 50.5401 68.6751 50.4444 67.7327 50.3303L67.4391 48.6336C68.305 48.7389 69.1744 48.8302 70.0447 48.9171C70.9009 48.9855 71.7748 49.0821 72.6266 49.1321L73.3501 50.8648C72.4297 50.8148 71.4917 50.7139 70.5572 50.6366ZM81.8158 51.1027C80.9323 51.1027 80.0576 51.1299 79.1514 51.1071L77.9741 49.3516C78.8128 49.3744 79.6137 49.3472 80.4383 49.3472C81.2532 49.3375 82.0452 49.2972 82.8505 49.2743L84.4302 51.0246C83.5608 51.0474 82.7046 51.0931 81.8158 51.1027ZM83.959 48.099C62.902 49.6763 36.7533 42.0328 25.6732 31.0652C14.5887 20.0976 22.7018 9.89361 43.759 8.32154C64.8114 6.7442 90.9549 14.3877 102.039 25.3554C113.124 36.3221 105.011 46.5261 83.959 48.099ZM93.9719 49.9686L93.1755 50.1152L92.3606 50.2434C91.8068 50.3206 91.2705 50.4172 90.6982 50.4813L88.6428 48.7758C89.1782 48.7161 89.6679 48.6248 90.1769 48.5563L90.9364 48.4369L91.6643 48.3L91.994 48.2403L94.3247 49.9046L93.9719 49.9686ZM100.318 48.3966C99.6632 48.5932 99.0311 48.803 98.3445 48.9855L95.7029 47.3907C96.3349 47.2256 96.916 47.029 97.5209 46.8464C98.0879 46.6454 98.6786 46.4532 99.2193 46.2382L102.159 47.733C101.568 47.9665 100.932 48.1719 100.318 48.3966ZM107.049 45.2788C106.572 45.5614 106.142 45.8634 105.62 46.1284L102.41 44.7574C102.9 44.5151 103.294 44.2316 103.733 43.9709C104.15 43.6962 104.54 43.4135 104.919 43.13L108.336 44.3685C107.919 44.6749 107.497 44.9812 107.049 45.2788ZM111.92 40.2905L111.458 41.0769L110.909 41.8362L107.301 40.7934L107.809 40.0895L108.23 39.3627L108.33 39.2029L112.021 40.1123L111.92 40.2905ZM113.001 36.7022C112.973 37.1105 112.91 37.5158 112.813 37.9135L109.063 37.1726C109.15 36.803 109.206 36.427 109.232 36.0482C109.246 35.8604 109.273 35.6734 109.273 35.4812L109.26 34.9054L113.032 35.4628L113.051 36.0895C113.047 36.2949 113.015 36.4959 113.001 36.7022Z" fill="#3FC976"/>
<path d="M102.038 25.3554C90.9533 14.3878 64.8099 6.74428 43.7575 8.32162C22.7003 9.89369 14.5872 20.0977 25.6717 31.0653C36.7518 42.0329 62.9005 49.6764 83.9575 48.0991C105.009 46.5261 113.122 36.3222 102.038 25.3554ZM83.3939 47.5417C62.9277 49.0725 37.5166 41.6484 26.7477 30.9872C15.9744 20.3267 23.859 10.4107 44.3208 8.879C64.7818 7.34731 90.1929 14.7767 100.962 25.438C111.735 36.094 103.851 46.0144 83.3939 47.5417Z" fill="#71FFA9"/>
<path d="M107.382 24.9549L104.043 25.2051C104.591 25.7774 105.162 26.3479 105.626 26.9246L109.096 26.8158C108.585 26.1926 107.975 25.5729 107.382 24.9549Z" fill="#71FFA9"/>
<path d="M108.329 39.1992L108.232 39.366L111.916 40.2877L112.021 40.1121L108.329 39.1992Z" fill="#71FFA9"/>
<path d="M107.778 30.0038C107.884 30.2074 108.008 30.411 108.102 30.6121L108.375 31.2159C108.548 31.6074 108.697 32.009 108.821 32.4185L112.558 32.7687C112.42 32.3245 112.256 31.8889 112.066 31.4644L111.778 30.8104C111.671 30.5919 111.542 30.3716 111.425 30.153L107.778 30.0038Z" fill="#71FFA9"/>
<path d="M109.256 34.9047L109.274 35.4823C109.271 35.6745 109.247 35.8597 109.231 36.0502C109.204 36.4277 109.147 36.8025 109.061 37.1711L112.812 37.9145C112.909 37.5167 112.971 37.1115 113 36.7032C113.014 36.497 113.043 36.2951 113.048 36.0888L113.033 35.463L109.256 34.9047Z" fill="#71FFA9"/>
<path d="M108.233 39.3663L107.811 40.0861L107.301 40.7971L110.905 41.8328L111.459 41.0779L111.916 40.288L108.233 39.3663Z" fill="#71FFA9"/>
<path d="M91.9937 48.2404L91.6597 48.3019L93.9717 49.9696L94.3234 49.9082L91.9937 48.2404Z" fill="#71FFA9"/>
<path d="M104.92 43.13C104.539 43.4152 104.151 43.6979 103.735 43.97C103.295 44.2324 102.899 44.5133 102.412 44.7556L105.622 46.1284C106.144 45.8651 106.572 45.5605 107.05 45.2787C107.498 44.9829 107.92 44.6757 108.336 44.3685L104.92 43.13Z" fill="#71FFA9"/>
<path d="M99.2187 46.2373C98.6798 46.4532 98.0881 46.6437 97.522 46.8482C96.9154 47.0281 96.337 47.2256 95.7031 47.3898L98.3465 48.9838C99.0296 48.803 99.6617 48.5905 100.32 48.3957C100.932 48.1745 101.569 47.9673 102.158 47.7338L99.2187 46.2373Z" fill="#71FFA9"/>
<path d="M91.6655 48.3026L90.9367 48.4378L90.1772 48.5545C89.6673 48.6247 89.1776 48.716 88.6458 48.7739L90.7011 50.4803C91.2716 50.4189 91.807 50.3214 92.3599 50.2424L93.1775 50.116L93.9742 49.9703L91.6655 48.3026Z" fill="#71FFA9"/>
<path d="M62.0876 47.8455L61.9381 49.4694L62.3776 49.5484L62.5007 47.9158L62.0876 47.8455Z" fill="#71FFA9"/>
<path d="M77.9709 49.3505L79.148 51.106C80.0544 51.1297 80.9299 51.1025 81.8152 51.1007C82.703 51.0911 83.5584 51.0489 84.4304 51.0244L82.8498 49.275C82.0428 49.2978 81.2525 49.3373 80.4376 49.347C79.6122 49.347 78.8095 49.3742 77.9709 49.3505Z" fill="#71FFA9"/>
<path d="M67.437 48.6363L67.7324 50.3304C68.673 50.4436 69.6163 50.5411 70.5552 50.6385C71.4888 50.7149 72.4302 50.814 73.3498 50.8667L72.6237 49.1323C71.7747 49.0822 70.9007 48.9883 70.0429 48.9198C69.175 48.8303 68.3038 48.739 67.437 48.6363Z" fill="#71FFA9"/>
<path d="M58.3885 47.1342L57.933 48.7062C58.5958 48.8537 59.2648 48.9713 59.9338 49.1056L60.9333 49.2978L61.9391 49.4716L62.0867 47.8416L61.1619 47.681L60.2362 47.5046C59.6182 47.3799 59.0002 47.2728 58.3885 47.1342Z" fill="#71FFA9"/>
<path d="M33.3195 38.199L30.7833 39.0258L31.1235 39.2084L33.6271 38.3649L33.3195 38.199Z" fill="#71FFA9"/>
<path d="M46.9324 44.0536L45.5278 45.3693C46.4076 45.6607 47.2876 45.946 48.1914 46.2137C49.0809 46.4929 49.9908 46.7465 50.9006 47.0002L51.9001 45.5607C51.0562 45.3263 50.2175 45.092 49.3894 44.8321C48.5552 44.5864 47.7412 44.3204 46.9324 44.0536Z" fill="#71FFA9"/>
<path d="M37.4963 40.3184L35.3119 41.3252L36.4757 41.865L37.6712 42.3864C38.458 42.7384 39.2914 43.0649 40.1107 43.3985L41.9315 42.2328C41.1736 41.9247 40.4019 41.6228 39.673 41.2963L38.5705 40.8161L37.4963 40.3184Z" fill="#71FFA9"/>
<path d="M30.687 36.6405L27.9335 37.341C28.3951 37.6227 28.8443 37.9142 29.3269 38.1915L30.7826 39.0254L33.3189 38.1986L31.9756 37.4279C31.5273 37.1698 31.1178 36.903 30.687 36.6405Z" fill="#71FFA9"/>
<path d="M15.1075 23.5137L15.1779 23.7156L18.9141 24.0667L18.8437 23.8736L15.1075 23.5137Z" fill="#71FFA9"/>
<path d="M23.8053 31.3442L20.477 31.604C21.4194 32.5146 22.407 33.3774 23.4361 34.1891L26.5392 33.7317C25.5871 32.9838 24.6745 32.1868 23.8053 31.3442Z" fill="#71FFA9"/>
<path d="M16.2448 26.1882L16.6068 26.8448L17.0375 27.5075C17.3056 27.9464 17.6582 28.3879 17.9887 28.8286L21.5033 28.7785C21.1905 28.3868 20.8979 27.9792 20.6269 27.5576L20.2304 26.9493L19.8972 26.3419L16.2448 26.1882Z" fill="#71FFA9"/>
<path d="M14.7424 21.703C14.8195 22.3148 14.942 22.9201 15.109 23.5138L18.846 23.8746C18.6902 23.3269 18.5779 22.7678 18.5102 22.2024L14.7424 21.703Z" fill="#71FFA9"/>
<path d="M22.2559 10.207L22.0185 10.3299L25.2272 11.6992L25.447 11.5851L22.2559 10.207Z" fill="#71FFA9"/>
<path d="M15.7258 16.2502C15.55 16.6312 15.3619 17.0104 15.223 17.3966C15.0799 17.7824 14.9668 18.1785 14.8845 18.5816L18.6356 19.3198C18.7157 18.9496 18.8203 18.5851 18.9486 18.2287C19.0796 17.8697 19.2492 17.5195 19.4145 17.1693L15.7258 16.2502Z" fill="#71FFA9"/>
<path d="M19.4511 11.9931C18.6819 12.5844 17.9693 13.2459 17.3227 13.9689L20.8909 15.0618C21.4887 14.3949 22.1461 13.7838 22.8549 13.236L19.4511 11.9931Z" fill="#71FFA9"/>
<path d="M24.5252 9.1055C23.7409 9.45924 22.9567 9.8121 22.2587 10.2053L25.4483 11.5861C26.0925 11.2209 26.8151 10.8944 27.5448 10.5696L24.5252 9.1055Z" fill="#71FFA9"/>
<path d="M48.4257 5.30916L49.6125 7.07345H49.9993L48.8565 5.31794L48.4257 5.30916Z" fill="#71FFA9"/>
<path d="M33.5013 6.49425C31.9963 6.76548 30.5968 7.10604 29.2386 7.47207L31.8873 9.06081C33.1472 8.72551 34.4367 8.41039 35.8239 8.16111L33.5013 6.49425Z" fill="#71FFA9"/>
<path d="M40.8961 5.5434C40.0741 5.61801 39.2346 5.68121 38.4285 5.77074L40.3756 7.4929C41.1202 7.40776 41.8991 7.35245 42.656 7.2796C43.4402 7.23396 44.2191 7.17866 45.012 7.14092L43.4402 5.39067C42.5857 5.4328 41.7464 5.49073 40.8961 5.5434Z" fill="#71FFA9"/>
<path d="M48.8546 5.32149L50.0045 7.07613C51.1791 7.08228 52.3798 7.14109 53.5763 7.19551L52.7182 5.44789C51.4207 5.39171 50.1232 5.32851 48.8546 5.32149Z" fill="#71FFA9"/>
<path d="M82.0508 11.0058L80.6619 12.3312L81.0399 12.4541L82.464 11.1462L82.0508 11.0058Z" fill="#71FFA9"/>
<path d="M59.8044 6.06674L60.1148 7.76521C61.8563 7.98378 63.6031 8.2234 65.3498 8.53062L65.4739 6.89711C63.5828 6.56531 61.6892 6.30462 59.8044 6.06674Z" fill="#71FFA9"/>
<path d="M71.4403 8.07205L70.8575 9.61602C72.5779 10.0145 74.2921 10.4323 75.9755 10.9063L76.9821 9.46856C75.1617 8.95595 73.3075 8.50303 71.4403 8.07205Z" fill="#71FFA9"/>
<path d="M82.4665 11.1451L81.0397 12.4547C82.179 12.8418 83.3184 13.2351 84.4155 13.659L86.1183 12.4477C84.9297 11.9904 83.7017 11.5656 82.4665 11.1451Z" fill="#71FFA9"/>
<path d="M107.168 24.7514L103.845 25.0147L104.047 25.2078L107.379 24.9533L107.168 24.7514Z" fill="#71FFA9"/>
<path d="M92.2617 15.0292L90.0833 16.0404C91.5224 16.7005 92.8674 17.4001 94.1869 18.1093L96.7003 17.2702C95.2797 16.5004 93.8203 15.7446 92.2617 15.0292Z" fill="#71FFA9"/>
<path d="M100.903 19.8016L98.0597 20.4442L98.9142 21.0129L99.7238 21.5931C100.271 21.9758 100.767 22.3691 101.268 22.7615L104.376 22.3094C103.838 21.8846 103.3 21.4606 102.704 21.0454L101.825 20.4169L100.903 19.8016Z" fill="#71FFA9"/>
<path d="M97.6205 37.0954C96.0061 34.6124 93.6015 32.7443 90.7941 31.792C86.2491 29.8821 81.3517 28.9507 76.4218 29.0587C75.3019 29.0866 74.1888 28.876 73.1568 28.4407L72.7999 28.2906C71.7467 27.8333 71.12 27.211 71.1701 26.6764C71.2158 26.1779 71.8294 25.8074 72.814 25.6889C77.1312 25.1719 79.8283 23.5498 80.034 21.3458C80.368 17.6609 73.7115 13.4644 65.1994 11.988C62.6356 11.5268 60.025 11.3794 57.4255 11.5491C52.6959 11.9011 49.3765 13.5241 49.1514 15.9923C48.9501 18.2192 51.3131 20.7331 55.4747 22.7177C56.345 23.1338 56.8392 23.664 56.7977 24.1344L56.7705 24.4223C56.725 24.9297 56.0558 25.2869 55.0211 25.3642L54.8154 25.3826C53.7425 25.4354 52.6707 25.261 51.6701 24.8709C47.0709 23.0992 42.1465 22.326 37.2247 22.6027C35.7773 22.5352 34.3323 22.78 32.9882 23.3205C31.6441 23.8609 30.4325 24.6843 29.4359 25.7346C28.3555 27.4629 29.1431 29.5291 31.6619 31.5541C37.0142 35.1508 43.3415 37.024 49.7923 36.9216C50.4155 36.912 51.015 36.8892 51.5917 36.8479C56.0786 36.51 59.1467 35.0652 59.7647 32.9305C59.9018 32.4275 60.5981 32.0799 61.6099 32.0027L61.9897 31.9746C63.1854 31.9089 64.3803 32.1169 65.4832 32.5829C66.459 33.0033 67.0631 33.5616 67.1086 34.0777C67.3012 36.3502 69.9886 38.8185 74.3069 40.6881C79.1879 42.7432 84.475 43.6565 89.7638 43.3583C91.7935 43.2719 93.7842 42.7741 95.6151 41.895C97.8216 40.7066 98.5319 39.0019 97.6205 37.0954ZM94.6305 41.4702C92.9391 42.2842 91.0991 42.7448 89.2232 42.8237C84.3318 43.1003 79.442 42.2541 74.9291 40.3502C70.9362 38.6263 68.4458 36.3362 68.2717 34.2427C68.2075 33.5519 67.4023 32.812 66.1065 32.2493C64.6361 31.6296 63.0435 31.3528 61.4499 31.44L61.0701 31.4672C59.719 31.5682 58.7986 32.0255 58.6062 32.6882C58.039 34.6632 55.2048 35.9982 51.0564 36.309C50.521 36.3502 49.9575 36.3731 49.3808 36.3774C43.417 36.4731 37.5669 34.742 32.6182 31.4172C30.2921 29.5432 29.5642 27.6323 30.563 26.0365C31.4848 25.066 32.6051 24.3051 33.8478 23.8057C35.0905 23.3063 36.4264 23.0801 37.7645 23.1426C42.3164 22.8836 46.8714 23.5973 51.1251 25.236C52.4715 25.7587 53.9134 25.9908 55.356 25.9172L55.5617 25.8996C56.963 25.7987 57.8737 25.3054 57.9335 24.6233L57.9608 24.3354C58.0162 23.6955 57.3472 22.9784 56.1569 22.4114C52.3152 20.5778 50.1271 18.2552 50.3144 16.1933C50.521 13.9076 53.5882 12.4084 57.9705 12.0837C60.371 11.9276 62.7817 12.0643 65.1491 12.4909C73.0241 13.8532 79.1822 17.7391 78.871 21.1404C78.6881 23.1838 76.1924 24.683 72.196 25.1632C70.8905 25.3185 70.0712 25.8074 70.007 26.471C69.9429 27.1934 70.7806 28.0159 72.1819 28.6242L72.5388 28.7795C73.9115 29.3558 75.3912 29.6347 76.8798 29.5976C81.4387 29.4998 85.9672 30.3612 90.1709 32.1256C92.768 33.0082 94.9931 34.7357 96.4898 37.0314C97.3319 38.7957 96.6726 40.3686 94.6305 41.4702Z" fill="#71FFA9"/>
</svg>
