<svg width="52" height="36" viewBox="0 0 52 36" fill="none" xmlns="http://www.w3.org/2000/svg">
<g filter="url(#filter0_f_72_623)">
<path d="M7.0626 19.2263L7.86976 23.4145C8.37329 26.0268 11.9058 27.9993 17.7554 28.4368C26.8514 29.1173 38.1074 25.8278 42.8961 21.0892C43.6142 20.5262 44.1806 19.7935 44.5444 18.9574C44.9082 18.1212 45.0579 17.2078 44.9799 16.2995L44.1728 12.1112C44.2506 13.0195 44.1009 13.9329 43.7371 14.7691C43.3732 15.6053 42.8068 16.3379 42.0887 16.901C37.3002 21.6395 26.044 24.9291 16.9482 24.2485C11.0987 23.811 7.56614 21.8385 7.0626 19.2263Z" fill="#37AB65"/>
<path d="M34.2882 7.08915C25.191 6.40863 13.9351 9.69793 9.14639 14.4367C4.35769 19.1755 7.85103 23.5683 16.9482 24.2485C26.0439 24.929 37.3002 21.6395 42.0886 16.9009C46.8773 12.1621 43.3839 7.76939 34.2882 7.08915Z" fill="#3CAE6A"/>
<path d="M14.2142 14.8159C17.5244 11.5404 25.3329 9.25822 31.6198 9.72835C37.908 10.1987 40.3309 13.2461 37.0206 16.5219C33.7107 19.7975 25.9021 22.0796 19.6139 21.6092C13.327 21.1391 10.9042 18.0914 14.2142 14.8159Z" fill="#49D581"/>
<path d="M7.52736 16.5626L7.59894 16.4278C7.64535 16.3423 7.69485 16.2578 7.74531 16.1707C7.83397 16.0248 7.93105 15.8783 8.03656 15.7311C8.08735 15.658 8.14082 15.5835 8.19701 15.5104C8.40965 15.2296 8.63839 14.9613 8.88208 14.7069C8.96663 14.6171 9.05524 14.5273 9.1452 14.4372H9.14654C9.96782 13.6408 10.8709 12.9331 11.8409 12.3258C17.2023 9.22067 23.2222 7.42346 29.4108 7.08045C29.6839 7.06345 29.9567 7.04808 30.2282 7.03675C30.4956 7.02407 30.7644 7.01571 31.0302 7.0087C31.3074 7.00303 31.5832 7.00025 31.8576 7.00034C32.0516 7.00034 32.2458 7.00169 32.4401 7.00573L32.5062 7.00735C32.8944 7.01436 33.2812 7.02839 33.6641 7.04808L33.7161 7.05078C33.9061 7.06211 34.0973 7.07478 34.2859 7.08881C35.2984 7.16143 36.3058 7.29419 37.3025 7.48638C42.9908 8.61006 45.4628 11.5393 43.635 14.9108C43.5421 15.0821 43.4367 15.2564 43.3214 15.4306L43.3184 15.4346C43.0658 15.8102 42.7846 16.1658 42.4772 16.4982C42.3956 16.588 42.3111 16.6765 42.2225 16.7666L42.0888 16.9014C41.8467 17.1401 41.5893 17.3761 41.315 17.6065C41.0476 17.8328 40.7662 18.0552 40.4709 18.2738C40.3007 18.3989 40.1262 18.5225 39.9474 18.646L39.9461 18.6476C39.7659 18.7698 39.583 18.8906 39.3944 19.0112L39.3931 19.0128C38.7348 19.4328 38.0257 19.8347 37.2741 20.2166L37.2728 20.218C32.6847 22.4318 27.7264 23.7801 22.6477 24.1951C22.5099 24.2064 22.3735 24.2174 22.2368 24.2274C20.4764 24.3663 18.7081 24.3733 16.9467 24.2485L16.92 24.2458C16.7471 24.2331 16.5753 24.2191 16.4064 24.2034C15.9604 24.1613 15.529 24.1104 15.1122 24.0505C15.029 24.0392 14.9461 24.0265 14.8645 24.0138L14.7027 23.9884C14.6295 23.9774 14.5579 23.9647 14.486 23.952C14.3847 23.9353 14.2835 23.917 14.1822 23.8986C14.0976 23.8833 14.0133 23.8679 13.9304 23.8509C13.8445 23.8342 13.7599 23.8158 13.6756 23.7988L13.6446 23.7918C13.5743 23.7778 13.5041 23.7624 13.4349 23.747H13.4336L13.2999 23.716C13.1043 23.671 12.913 23.6232 12.7258 23.5741H12.7232C12.5697 23.5321 12.4206 23.49 12.2728 23.4476H12.2701C7.84395 22.1371 6.01487 19.5296 7.52736 16.5626ZM8.69785 20.5651L8.70621 20.5748L8.7289 20.6045C10.8545 22.6052 13.6598 23.7284 16.5809 23.7484C16.8413 23.7751 17.1085 23.7988 17.38 23.8185C17.6502 23.8396 17.9222 23.8565 18.1961 23.8692C26.6843 24.2695 36.8578 21.2 41.2643 16.8394C45.2277 12.9173 43.2201 9.24499 36.924 7.93575C35.9102 7.73106 34.8843 7.59123 33.8526 7.51713C33.7188 7.50742 33.5825 7.49906 33.4474 7.49043C24.8806 6.96932 14.448 10.0668 9.96965 14.499C7.71289 16.7312 7.39228 18.8836 8.69785 20.5651Z" fill="#49D280"/>
<path d="M9.96984 14.499C14.4481 10.0669 24.8808 6.96936 33.4476 7.49047C33.5827 7.4991 33.719 7.50746 33.8528 7.51717C34.8845 7.59127 35.9104 7.7311 36.9242 7.93579C43.2203 9.24503 45.2279 12.9173 41.2645 16.8394C36.858 21.2001 26.6845 24.2695 18.1963 23.8693C17.9221 23.8566 17.6501 23.8397 17.3802 23.8186C17.1087 23.7989 16.8415 23.7751 16.5811 23.7484C13.66 23.7285 10.8547 22.6052 8.7291 20.6045L8.70641 20.5748L8.69804 20.5651C7.39247 18.8837 7.71307 16.7313 9.96984 14.499ZM10.8915 16.4672L10.8029 16.6681C10.7443 16.7988 10.694 16.9331 10.6521 17.07L11.8002 16.9619C11.8386 16.8362 11.8842 16.7128 11.9367 16.5923L12.0212 16.4068C12.0507 16.345 12.0888 16.2819 12.1212 16.2201L10.9999 16.2665C10.9648 16.3323 10.9237 16.3998 10.8915 16.4672ZM12.2422 14.6692C12.0607 14.8588 11.8721 15.0484 11.716 15.2408L12.7825 15.2731C12.9246 15.0962 13.1004 14.9206 13.2679 14.745L13.3311 14.6873L12.3097 14.6058L12.2422 14.6692ZM14.2329 13.0846L13.9503 13.2742L13.6801 13.4665C13.497 13.5943 13.3311 13.7252 13.1666 13.8557L14.1218 13.9949C14.2753 13.8741 14.4271 13.7532 14.5959 13.6351L14.845 13.4568L15.1067 13.2825L14.2329 13.0846ZM16.8894 11.6178C16.4096 11.8384 15.962 12.0701 15.5246 12.3061L16.297 12.5648C16.7035 12.3469 17.1157 12.1322 17.559 11.9299L16.8894 11.6178ZM20.0254 10.383L19.8987 10.4251C19.5189 10.5545 19.1417 10.6851 18.776 10.8256L19.2992 11.1978C19.6369 11.0673 19.9873 10.9465 20.3363 10.827L20.4544 10.7889L20.0254 10.383ZM23.2867 9.48104C22.714 9.61321 22.1443 9.75238 21.5843 9.90963L21.8939 10.3506C22.4115 10.2061 22.9377 10.0769 23.4666 9.95468L23.2867 9.48104ZM25.1212 9.1188L25.1593 9.62157C25.6952 9.52743 26.2328 9.45299 26.7674 9.38556L26.863 8.86445C26.2833 8.93754 25.7023 9.01765 25.1212 9.1188ZM30.227 8.63545C29.8375 8.6368 29.4393 8.65649 29.0395 8.67483L28.7764 9.21132C29.1438 9.19459 29.5123 9.17625 29.874 9.1749L29.9936 9.17221L30.3594 8.63276L30.227 8.63545ZM32.6723 8.70288C32.4122 8.68751 32.1531 8.66917 31.8916 8.65649L31.4075 9.19459C31.6509 9.20592 31.8916 9.22264 32.132 9.23667C32.3644 9.25933 32.6034 9.27605 32.8328 9.30275L33.4306 8.77328C33.1831 8.74496 32.9257 8.72689 32.6723 8.70288ZM34.9447 8.995L34.2313 9.50774C34.6575 9.58381 35.0544 9.68064 35.4412 9.78448L36.2543 9.29574C35.838 9.18326 35.4074 9.07942 34.9447 8.995ZM38.4 10.1359C38.186 10.0151 37.9443 9.90694 37.7035 9.79878L36.7751 10.2481C37.0001 10.3479 37.2225 10.4477 37.4194 10.5599L37.4883 10.5966L38.4732 10.175L38.4 10.1359ZM39.2625 10.6851L38.2158 11.0673C38.4335 11.2355 38.6354 11.4231 38.8192 11.6278L39.9168 11.292C39.7178 11.0701 39.4988 10.8669 39.2625 10.6851ZM40.5611 12.3455C40.5189 12.2277 40.4611 12.1109 40.4063 11.993L39.2736 12.2754C39.3243 12.3836 39.3765 12.4917 39.4157 12.6012C39.4557 12.7108 39.4882 12.823 39.513 12.937L40.6653 12.7094C40.6401 12.5856 40.6053 12.4639 40.5611 12.3455ZM40.5978 14.2252C40.6482 14.0426 40.6857 13.8567 40.7101 13.6688L39.5524 13.822C39.5316 13.9959 39.4967 14.1678 39.4481 14.3361L39.4284 14.3952L40.5751 14.2884L40.5978 14.2252ZM40.0041 15.453L40.1374 15.2494L40.2488 15.0471L39.1261 15.0948L39.0232 15.2818L38.9008 15.4684C38.8178 15.598 38.7281 15.7233 38.632 15.8436L39.7126 15.859C39.8139 15.7228 39.9225 15.5879 40.0041 15.453ZM38.0385 17.5054C38.3546 17.2563 38.6579 16.9914 38.9473 16.7118L37.9245 16.6317C37.6577 16.8908 37.3773 17.1355 37.0844 17.3648L38.0385 17.5054ZM35.6762 19.0479L35.7802 18.9918L36.2278 18.7361C36.3753 18.6503 36.5147 18.5619 36.6554 18.4748L35.8099 18.2598C35.6775 18.3399 35.5509 18.4214 35.4144 18.5015L35.0009 18.7375L34.9066 18.7895L35.6762 19.0479ZM32.9143 20.3361C33.1661 20.2336 33.4222 20.1325 33.6642 20.0243L34.0313 19.8641L34.3887 19.6982L33.7177 19.3894L33.3871 19.5423L33.0494 19.6899C32.8244 19.7897 32.588 19.8825 32.3544 19.9779L32.9143 20.3361ZM29.5995 21.4431C29.8783 21.3643 30.1582 21.2872 30.431 21.2014C30.7097 21.1186 30.9798 21.0315 31.25 20.9417L30.8181 20.5371C30.5704 20.6185 30.32 20.7013 30.0639 20.7758C29.8091 20.8559 29.5517 20.9276 29.2915 21.0005L29.5995 21.4431ZM26.071 22.2256L26.2074 22.2018L26.5156 22.1484L26.8223 22.0893C27.0292 22.0486 27.2345 22.0119 27.4384 21.9672L27.2979 21.4838C27.1094 21.5259 26.9208 21.5596 26.7309 21.5976L26.4451 21.6524L26.161 21.7015L26.0345 21.7225L26.071 22.2256ZM23.5582 22.56C23.8467 22.5303 24.1366 22.5009 24.4261 22.4659L24.5164 21.9445C24.2503 21.9769 23.9831 22.0049 23.7157 22.0316C23.4526 22.0527 23.1841 22.0823 22.9223 22.0977L22.7 22.6301C22.9828 22.6148 23.271 22.5837 23.5582 22.56ZM20.0986 22.7032C20.3701 22.7032 20.6389 22.7116 20.9173 22.7046L21.2791 22.1651C21.0214 22.1721 20.7753 22.1638 20.5219 22.1638C20.2715 22.1608 20.0281 22.1484 19.7806 22.1414L19.2952 22.6792C19.5624 22.6862 19.8255 22.7003 20.0986 22.7032ZM19.44 21.7802C25.9105 22.2649 33.9457 19.9162 37.3505 16.546C40.7567 13.1757 38.2636 10.0402 31.793 9.5571C25.3238 9.07241 17.2902 11.4212 13.8841 14.7914C10.478 18.1613 12.971 21.2969 19.44 21.7802ZM16.3631 22.3548L16.6079 22.3998L16.8583 22.4392C17.0285 22.4629 17.1933 22.4926 17.3691 22.5123L18.0007 21.9882C17.8362 21.9699 17.6857 21.9418 17.5293 21.9208L17.2959 21.8841L17.0722 21.842L16.9709 21.8237L16.2548 22.3351L16.3631 22.3548ZM14.413 21.8717C14.6143 21.9321 14.8085 21.9966 15.0195 22.0527L15.8312 21.5626C15.637 21.5119 15.4585 21.4514 15.2726 21.3953C15.0984 21.3336 14.9168 21.2745 14.7507 21.2084L13.8474 21.6678C14.0289 21.7395 14.2245 21.8026 14.413 21.8717ZM12.3449 20.9136C12.4913 21.0005 12.6234 21.0932 12.7838 21.1747L13.7701 20.7534C13.6196 20.679 13.4986 20.5918 13.3636 20.5117C13.2355 20.4273 13.1158 20.3404 12.9991 20.2533L11.9494 20.6339C12.0774 20.728 12.2071 20.8222 12.3449 20.9136ZM10.8478 19.3808L10.9898 19.6224L11.1587 19.8558L12.2674 19.5353L12.1112 19.319L11.9818 19.0957L11.951 19.0466L10.8169 19.326L10.8478 19.3808ZM10.5158 18.2781C10.5244 18.4036 10.5437 18.5281 10.5736 18.6503L11.7257 18.4227C11.6992 18.3091 11.6818 18.1936 11.6739 18.0772C11.6695 18.0195 11.6612 17.962 11.6612 17.9029L11.6652 17.726L10.5061 17.8973L10.5004 18.0899C10.5017 18.153 10.5115 18.2147 10.5158 18.2781Z" fill="#3FC976"/>
<path d="M13.8846 14.7914C17.2908 11.4212 25.3243 9.07243 31.7935 9.55713C38.2641 10.0402 40.7571 13.1758 37.351 16.546C33.9462 19.9162 25.911 22.265 19.4405 21.7803C12.9716 21.2969 10.4785 18.1614 13.8846 14.7914ZM19.6137 21.609C25.9027 22.0794 33.7112 19.7981 37.0204 16.522C40.3309 13.2462 37.908 10.1991 31.6203 9.7284C25.3329 9.25773 17.5244 11.5407 14.2153 14.8168C10.9047 18.0912 13.3273 21.1397 19.6137 21.609Z" fill="#71FFA9"/>
<path d="M12.2424 14.6684L13.2684 14.7452C13.1001 14.9211 12.9245 15.0964 12.7821 15.2736L11.7156 15.2402C11.8726 15.0487 12.0601 14.8582 12.2424 14.6684Z" fill="#71FFA9"/>
<path d="M11.9514 19.0455L11.9811 19.0967L10.8493 19.3799L10.8169 19.326L11.9514 19.0455Z" fill="#71FFA9"/>
<path d="M12.1208 16.2198C12.0881 16.2824 12.05 16.345 12.0211 16.4067L11.9374 16.5923C11.8842 16.7126 11.8383 16.836 11.8001 16.9618L10.6518 17.0694C10.6942 16.933 10.7447 16.7991 10.8031 16.6686L10.8914 16.4677C10.9244 16.4005 10.9641 16.3328 11 16.2657L12.1208 16.2198Z" fill="#71FFA9"/>
<path d="M11.6664 17.7258L11.661 17.9033C11.6618 17.9623 11.6694 18.0193 11.6742 18.0778C11.6825 18.1938 11.6999 18.309 11.7264 18.4222L10.5737 18.6507C10.5441 18.5284 10.5249 18.4039 10.5162 18.2785C10.5119 18.2151 10.5029 18.153 10.5013 18.0897L10.5059 17.8973L11.6664 17.7258Z" fill="#71FFA9"/>
<path d="M11.9811 19.0968L12.1108 19.318L12.2675 19.5365L11.1599 19.8547L10.9897 19.6228L10.8492 19.38L11.9811 19.0968Z" fill="#71FFA9"/>
<path d="M16.9711 21.8237L17.0737 21.8426L16.3633 22.3551L16.2552 22.3362L16.9711 21.8237Z" fill="#71FFA9"/>
<path d="M12.999 20.2533C13.1159 20.341 13.2353 20.4278 13.3631 20.5115C13.4984 20.5921 13.62 20.6784 13.7697 20.7529L12.7833 21.1747C12.6229 21.0938 12.4914 21.0002 12.3444 20.9136C12.2066 20.8227 12.0772 20.7283 11.9492 20.6339L12.999 20.2533Z" fill="#71FFA9"/>
<path d="M14.7509 21.2082C14.9165 21.2745 15.0983 21.333 15.2723 21.3959C15.4587 21.4512 15.6364 21.5119 15.8312 21.5623L15.0189 22.0521C14.809 21.9966 14.6147 21.9313 14.4124 21.8714C14.2244 21.8034 14.0288 21.7398 13.8478 21.668L14.7509 21.2082Z" fill="#71FFA9"/>
<path d="M17.0719 21.8428L17.2958 21.8843L17.5292 21.9202C17.6859 21.9418 17.8364 21.9698 17.9998 21.9876L17.3682 22.512C17.1929 22.4931 17.0284 22.4632 16.8585 22.4389L16.6073 22.4001L16.3625 22.3553L17.0719 21.8428Z" fill="#71FFA9"/>
<path d="M26.1609 21.7024L26.2068 22.2014L26.0717 22.2256L26.0339 21.7239L26.1609 21.7024Z" fill="#71FFA9"/>
<path d="M21.2801 22.1648L20.9184 22.7042C20.6399 22.7115 20.3708 22.7032 20.0988 22.7026C19.826 22.6997 19.5631 22.6867 19.2951 22.6792L19.7809 22.1416C20.0288 22.1486 20.2717 22.1608 20.5221 22.1637C20.7757 22.1637 21.0224 22.1721 21.2801 22.1648Z" fill="#71FFA9"/>
<path d="M24.517 21.9453L24.4263 22.4659C24.1372 22.5007 23.8474 22.5306 23.5588 22.5606C23.272 22.5841 22.9827 22.6145 22.7001 22.6307L22.9232 22.0977C23.1841 22.0824 23.4527 22.0535 23.7163 22.0325C23.983 22.005 24.2507 21.9769 24.517 21.9453Z" fill="#71FFA9"/>
<path d="M27.2975 21.4838L27.4375 21.9668C27.2338 22.0122 27.0282 22.0483 26.8227 22.0896L26.5155 22.1486L26.2065 22.202L26.1611 21.7012L26.4453 21.6518L26.7297 21.5976C26.9196 21.5593 27.1096 21.5264 27.2975 21.4838Z" fill="#71FFA9"/>
<path d="M35.0009 18.7381L35.7803 18.9922L35.6757 19.0483L34.9064 18.789L35.0009 18.7381Z" fill="#71FFA9"/>
<path d="M30.8178 20.5371L31.2495 20.9415C30.9791 21.031 30.7087 21.1187 30.4309 21.2009C30.1576 21.2867 29.878 21.3647 29.5984 21.4426L29.2913 21.0003C29.5506 20.9282 29.8083 20.8562 30.0628 20.7764C30.3192 20.7009 30.5693 20.6191 30.8178 20.5371Z" fill="#71FFA9"/>
<path d="M33.7174 19.3894L34.3887 19.6987L34.0311 19.8646L33.6637 20.0248C33.4219 20.133 33.1658 20.2333 32.9141 20.3358L32.3545 19.9776C32.5875 19.883 32.8246 19.7902 33.0486 19.6898L33.3873 19.5423L33.7174 19.3894Z" fill="#71FFA9"/>
<path d="M35.8098 18.2592L36.6559 18.4744C36.5141 18.561 36.3761 18.6506 36.2278 18.7358L35.7804 18.992L35.0011 18.7379L35.4139 18.5011C35.5516 18.4218 35.6775 18.3398 35.8098 18.2592Z" fill="#71FFA9"/>
<path d="M40.5972 14.2255L40.5756 14.2875L39.4275 14.3954L39.4491 14.3361L40.5972 14.2255Z" fill="#71FFA9"/>
<path d="M37.9245 16.6317L38.9473 16.7115C38.6577 16.9913 38.3542 17.2564 38.038 17.5059L37.0844 17.3653C37.377 17.1355 37.6574 16.8906 37.9245 16.6317Z" fill="#71FFA9"/>
<path d="M40.2478 15.0473L40.1366 15.2491L40.0042 15.4527C39.9218 15.5876 39.8135 15.7233 39.7119 15.8587L38.6319 15.8433C38.728 15.7229 38.8179 15.5977 38.9012 15.4681L39.0231 15.2812L39.1254 15.0945L40.2478 15.0473Z" fill="#71FFA9"/>
<path d="M40.7095 13.6691C40.6858 13.8571 40.6481 14.0431 40.5968 14.2255L39.4485 14.3364C39.4964 14.1681 39.5309 13.9963 39.5517 13.8225L40.7095 13.6691Z" fill="#71FFA9"/>
<path d="M38.4006 10.1365L38.4736 10.1743L37.4876 10.595L37.42 10.56L38.4006 10.1365Z" fill="#71FFA9"/>
<path d="M40.4072 11.9935C40.4613 12.1106 40.5191 12.2271 40.5618 12.3458C40.6057 12.4643 40.6405 12.586 40.6658 12.7099L39.5131 12.9367C39.4885 12.823 39.4563 12.711 39.4169 12.6015C39.3767 12.4912 39.3246 12.3835 39.2738 12.2759L40.4072 11.9935Z" fill="#71FFA9"/>
<path d="M39.2625 10.6853C39.4989 10.8671 39.7179 11.0703 39.9166 11.2925L38.8201 11.6283C38.6364 11.4234 38.4344 11.2356 38.2166 11.0673L39.2625 10.6853Z" fill="#71FFA9"/>
<path d="M37.7033 9.798C37.9443 9.9067 38.1853 10.0151 38.3998 10.136L37.4197 10.5603C37.2217 10.448 36.9997 10.3477 36.7754 10.2479L37.7033 9.798Z" fill="#71FFA9"/>
<path d="M30.3589 8.63144L29.9943 9.17359H29.8754L30.2266 8.63414L30.3589 8.63144Z" fill="#71FFA9"/>
<path d="M34.9451 8.99561C35.4075 9.07895 35.8376 9.1836 36.2549 9.29608L35.441 9.78428C35.0539 9.68124 34.6576 9.58441 34.2314 9.50781L34.9451 8.99561Z" fill="#71FFA9"/>
<path d="M32.6727 8.70341C32.9253 8.72634 33.1833 8.74576 33.431 8.77327L32.8326 9.30247C32.6038 9.2763 32.3645 9.25931 32.1319 9.23692C31.8909 9.2229 31.6516 9.20591 31.4079 9.19431L31.8909 8.65648C32.1535 8.66943 32.4114 8.68723 32.6727 8.70341Z" fill="#71FFA9"/>
<path d="M30.2272 8.63524L29.8738 9.17442C29.5129 9.17631 29.1439 9.19438 28.7763 9.2111L29.0399 8.67408C29.4386 8.65682 29.8374 8.6374 30.2272 8.63524Z" fill="#71FFA9"/>
<path d="M20.0264 10.3819L20.4532 10.7892L20.337 10.827L19.8994 10.4251L20.0264 10.3819Z" fill="#71FFA9"/>
<path d="M26.8624 8.86424L26.7671 9.38616C26.2319 9.45332 25.6952 9.52696 25.1584 9.62136L25.1203 9.1194C25.7014 9.01745 26.2833 8.93734 26.8624 8.86424Z" fill="#71FFA9"/>
<path d="M23.2868 9.48044L23.4659 9.95488C22.9373 10.0773 22.4105 10.2057 21.8932 10.3514L21.5839 9.90957C22.1433 9.75205 22.7131 9.61287 23.2868 9.48044Z" fill="#71FFA9"/>
<path d="M19.8987 10.4248L20.3371 10.8272C19.987 10.9461 19.6369 11.067 19.2998 11.1973L18.7765 10.825C19.1417 10.6845 19.5191 10.554 19.8987 10.4248Z" fill="#71FFA9"/>
<path d="M12.3082 14.6058L13.3293 14.6867L13.2672 14.746L12.2433 14.6678L12.3082 14.6058Z" fill="#71FFA9"/>
<path d="M16.8887 11.6183L17.5581 11.929C17.1159 12.1319 16.7026 12.3468 16.2971 12.5648L15.5248 12.3069C15.9613 12.0704 16.4098 11.8381 16.8887 11.6183Z" fill="#71FFA9"/>
<path d="M14.2334 13.0848L15.1071 13.2822L14.8445 13.457L14.5957 13.6353C14.4274 13.7529 14.275 13.8738 14.1213 13.9943L13.1661 13.8554C13.3315 13.7249 13.4967 13.5946 13.6799 13.467L13.9501 13.2739L14.2334 13.0848Z" fill="#71FFA9"/>
<path d="M15.242 18.399C15.7381 17.636 16.477 17.0619 17.3397 16.7693C18.7363 16.1824 20.2412 15.8962 21.7561 15.9294C22.1002 15.938 22.4423 15.8732 22.7594 15.7395L22.8691 15.6934C23.1927 15.5529 23.3853 15.3616 23.3699 15.1974C23.3558 15.0441 23.1673 14.9303 22.8647 14.8939C21.5381 14.735 20.7093 14.2366 20.6461 13.5593C20.5435 12.427 22.5889 11.1374 25.2046 10.6838C25.9924 10.542 26.7946 10.4968 27.5935 10.5489C29.0468 10.6571 30.0668 11.1558 30.136 11.9143C30.1978 12.5985 29.4717 13.371 28.1929 13.9809C27.9255 14.1087 27.7736 14.2717 27.7863 14.4162L27.7947 14.5047C27.8087 14.6606 28.0143 14.7704 28.3323 14.7941L28.3955 14.7998C28.7252 14.816 29.0545 14.7624 29.362 14.6425C30.7753 14.0981 32.2885 13.8605 33.8009 13.9456C34.2457 13.9248 34.6897 14 35.1027 14.1661C35.5157 14.3322 35.8881 14.5852 36.1943 14.9079C36.5263 15.439 36.2843 16.074 35.5103 16.6962C33.8656 17.8014 31.9213 18.377 29.939 18.3456C29.7475 18.3426 29.5633 18.3356 29.3861 18.3229C28.0073 18.2191 27.0645 17.7751 26.8746 17.1191C26.8325 16.9646 26.6185 16.8578 26.3076 16.834L26.1909 16.8254C25.8235 16.8052 25.4563 16.8691 25.1174 17.0123C24.8176 17.1415 24.6319 17.3131 24.6179 17.4717C24.5588 18.17 23.733 18.9285 22.406 19.503C20.9061 20.1345 19.2815 20.4151 17.6563 20.3235C17.0326 20.297 16.4208 20.144 15.8583 19.8739C15.1802 19.5086 14.9619 18.9848 15.242 18.399ZM16.1608 19.7433C16.6805 19.9934 17.2459 20.135 17.8224 20.1592C19.3255 20.2442 20.828 19.9842 22.2148 19.3991C23.4418 18.8694 24.207 18.1657 24.2605 17.5224C24.2803 17.3101 24.5277 17.0827 24.9259 16.9098C25.3777 16.7194 25.8671 16.6344 26.3568 16.6612L26.4735 16.6695C26.8887 16.7005 27.1715 16.8411 27.2306 17.0447C27.4049 17.6516 28.2758 18.0618 29.5506 18.1573C29.7151 18.17 29.8883 18.177 30.0655 18.1784C31.8981 18.2078 33.6958 17.6758 35.2164 16.6541C35.9312 16.0783 36.1549 15.4911 35.8479 15.0007C35.5647 14.7025 35.2204 14.4687 34.8386 14.3152C34.4567 14.1618 34.0462 14.0923 33.635 14.1114C32.2363 14.0319 30.8366 14.2512 29.5295 14.7547C29.1157 14.9153 28.6727 14.9867 28.2294 14.964L28.1662 14.9586C27.7356 14.9276 27.4557 14.776 27.4373 14.5665L27.4289 14.478C27.4119 14.2814 27.6175 14.061 27.9833 13.8868C29.1638 13.3233 29.8361 12.6096 29.7786 11.976C29.7151 11.2737 28.7726 10.813 27.426 10.7132C26.6883 10.6652 25.9475 10.7072 25.2201 10.8383C22.8002 11.2569 20.9079 12.451 21.0035 13.4962C21.0597 14.1241 21.8266 14.5848 23.0546 14.7323C23.4558 14.7801 23.7076 14.9303 23.7273 15.1342C23.747 15.3562 23.4896 15.609 23.059 15.7959L22.9493 15.8436C22.5275 16.0207 22.0728 16.1064 21.6154 16.095C20.2145 16.065 18.8229 16.3296 17.5312 16.8718C16.7331 17.143 16.0494 17.6739 15.5895 18.3793C15.3307 18.9215 15.5333 19.4048 16.1608 19.7433Z" fill="#71FFA9"/>
</g>
<defs>
<filter id="filter0_f_72_623" x="0" y="0" width="52" height="35.526" filterUnits="userSpaceOnUse" color-interpolation-filters="sRGB">
<feFlood flood-opacity="0" result="BackgroundImageFix"/>
<feBlend mode="normal" in="SourceGraphic" in2="BackgroundImageFix" result="shape"/>
<feGaussianBlur stdDeviation="3.5" result="effect1_foregroundBlur_72_623"/>
</filter>
</defs>
</svg>
