<svg width="122" height="76" viewBox="0 0 122 76" fill="none" xmlns="http://www.w3.org/2000/svg">
<path d="M119.921 25.4944L121.298 38.3782C121.404 39.3777 121.414 40.3849 121.327 41.3863C119.878 58.3244 91.8391 73.6273 58.8253 75.4978C27.7967 77.256 3.24706 66.535 1.60579 51.1786L0.229187 38.2948C1.87046 53.6512 26.42 64.3722 57.4486 62.614C90.4615 60.7435 118.501 45.4406 119.95 28.5025C120.037 27.5012 120.027 26.4938 119.921 25.4944Z" fill="#37AB65"/>
<path d="M62.7034 1.17237C95.7172 -0.698142 121.397 11.5607 119.948 28.5014C118.499 45.4396 90.4593 60.7425 57.4464 62.613C24.4296 64.4835 -1.25169 52.2247 0.19794 35.2865C1.64757 18.3458 29.6866 3.04287 62.7034 1.17237Z" fill="#71FFA9"/>
<path d="M62.5737 2.70755C31.1563 4.48765 4.57094 18.9979 3.19138 35.1171C1.81208 51.2355 26.1621 62.857 57.5784 61.0769C88.9896 59.2968 115.574 44.7901 116.954 28.6709C118.333 12.5517 93.9846 0.92833 62.5737 2.70755Z" fill="#49D581"/>
<path d="M120.002 26.7416C119.996 26.4993 119.982 26.2588 119.963 26.0183L119.951 25.7813L119.946 25.741V25.7357L119.919 25.5075C119.35 21.2259 117.278 17.2847 114.072 14.3845C113.884 14.2019 113.687 14.0141 113.486 13.8315C112.667 13.0787 111.806 12.3719 110.908 11.7144C109.984 11.0332 108.995 10.3802 107.95 9.75782C107.163 9.28734 106.345 8.83472 105.497 8.39993C104.081 7.67315 102.575 6.992 100.991 6.36177C99.7228 5.85355 98.4027 5.38103 97.031 4.9442C94.9792 4.28149 92.821 3.69777 90.5564 3.19305C89.8057 3.02452 89.0409 2.86828 88.2673 2.71819C87.8778 2.64007 87.4887 2.56692 87.0999 2.49875C86.3122 2.35655 85.5201 2.2284 84.714 2.10551C82.7044 1.79918 80.6379 1.55515 78.5146 1.37346C77.6636 1.3006 76.8074 1.23653 75.9415 1.1865C71.5334 0.920856 67.1133 0.916164 62.7047 1.17245C42.58 1.42822 23.1436 8.52505 7.60118 21.2925C6.89615 21.992 6.23677 22.7051 5.62316 23.4316C5.51855 23.5553 5.4175 23.6738 5.32168 23.7976C4.82236 24.4003 4.35818 25.013 3.92918 25.6356C3.76039 25.8823 3.59071 26.1289 3.43072 26.3808C3.18809 26.7556 2.95864 27.1304 2.74352 27.5096C2.60172 27.7616 2.45929 28.017 2.32655 28.2689C2.19381 28.5243 2.07075 28.7763 1.9468 29.0317C1.82285 29.288 1.7086 29.5443 1.59871 29.7997C1.27418 30.5586 0.998995 31.3376 0.774959 32.1319C0.701115 32.3926 0.637857 32.6524 0.573683 32.9131C0.481377 33.3064 0.404016 33.704 0.344237 34.0972L0.28535 34.4949C0.248428 34.7556 0.22115 35.0206 0.198293 35.2857C0.110163 36.287 0.120772 37.2946 0.22995 38.2938L0.23431 38.3166C0.257166 38.5317 0.285297 38.7467 0.317208 38.9574C0.348592 39.1812 0.385518 39.4007 0.431495 39.6201C0.458483 39.7843 0.495446 39.9493 0.532368 40.109L0.573683 40.2688L0.582469 40.3012C0.628182 40.4979 0.678261 40.6901 0.733644 40.8814C0.788148 41.0833 0.847906 41.2843 0.916476 41.481L0.985356 41.682C1.02641 41.8233 1.0774 41.9655 1.1319 42.1024L1.16879 42.1937C1.23736 42.3815 1.31063 42.5685 1.39301 42.7563V42.7607L1.42024 42.8204C1.49848 43.0118 1.58552 43.2084 1.68134 43.4006L1.69978 43.4375C1.79121 43.6385 1.89229 43.8351 1.9969 44.0361V44.0405C2.10239 44.2468 2.21672 44.4566 2.33627 44.6576C2.57891 45.0789 2.83554 45.4941 3.11422 45.9014V45.9057C3.25136 46.1067 3.39403 46.3034 3.54058 46.5053C3.66365 46.6738 3.79201 46.8432 3.92475 47.0073C4.03025 47.1399 4.13576 47.2777 4.25004 47.4102L4.38277 47.5744L4.47862 47.6885V47.6937C4.55686 47.785 4.62979 47.8763 4.71269 47.9632L4.92785 48.2055C5.08345 48.3837 5.24343 48.5575 5.4131 48.7313L5.82035 49.1473L5.90277 49.2298L6.07682 49.4036L6.34228 49.6547C6.47969 49.7916 6.62181 49.9241 6.76335 50.0479C6.91042 50.1848 7.06137 50.3174 7.21258 50.4499L7.27147 50.5008C7.39981 50.6149 7.5282 50.7246 7.66094 50.83C7.85786 50.9985 8.05916 51.1635 8.26048 51.3189L8.43452 51.4558L8.66866 51.6384L8.80555 51.7437C8.91984 51.835 9.03933 51.9272 9.158 52.0044L9.35056 52.151C9.46924 52.2423 9.59321 52.3292 9.71716 52.4161C9.89562 52.5442 10.0784 52.6671 10.2613 52.7909C10.4538 52.9278 10.6507 53.0604 10.8521 53.1885L11.1633 53.3895C11.3101 53.4861 11.4613 53.5774 11.6125 53.6687C11.7543 53.7599 11.8964 53.8468 12.0423 53.9337L12.2674 54.0663L12.6246 54.2769L12.867 54.4183L13.2283 54.6237C13.4208 54.7334 13.6179 54.8387 13.8146 54.9484L13.9474 55.0169L14.2542 55.1775C14.4467 55.282 14.6383 55.3829 14.8353 55.4786C15.1104 55.6208 15.3899 55.7577 15.6686 55.8903C15.9481 56.0272 16.2321 56.1597 16.5204 56.2923C17.0057 56.5214 17.5051 56.7408 18.0088 56.9506H18.0134C18.6997 57.2482 19.4004 57.5273 20.1151 57.7968L20.1195 57.8011L20.5819 57.9706H20.5863L21.0584 58.1444L21.1041 58.1628C21.4056 58.2672 21.7124 58.377 22.0192 58.4779C22.2346 58.556 22.45 58.6289 22.6697 58.6973C23.0636 58.8299 23.4618 58.958 23.8645 59.0765C24.4139 59.2503 24.9724 59.4151 25.54 59.5707C25.7782 59.6436 26.0209 59.7076 26.2594 59.7717C26.529 59.8498 26.8044 59.9183 27.0784 59.9868C27.3035 60.0456 27.532 60.1053 27.7606 60.1606L27.7747 60.165C28.0041 60.2246 28.2374 60.2791 28.4709 60.3344L28.7681 60.4028H28.7724L28.8322 60.416L29.0793 60.4757C29.3817 60.5485 29.6885 60.6179 29.9997 60.6811C30.1553 60.7179 30.3161 60.7548 30.4761 60.7864L30.7328 60.8417L31.0572 60.9058C31.3324 60.9646 31.6066 61.0199 31.8862 61.0699C32.0559 61.1068 32.2299 61.1384 32.4042 61.1665L32.8022 61.2437C33.0176 61.2806 33.2321 61.3218 33.4519 61.3578C33.6716 61.3991 33.8914 61.436 34.1165 61.4719L34.4549 61.5316L34.6931 61.5685L35.174 61.6413C35.9019 61.7555 36.6389 61.8608 37.385 61.9573C37.6645 61.9933 37.9528 62.0302 38.2368 62.0618C38.7361 62.1259 39.2442 62.1812 39.7523 62.2356C40.082 62.2681 40.4116 62.3041 40.7457 62.3321C41.1765 62.3778 41.6116 62.4138 42.0503 62.4463C42.4353 62.4823 42.8195 62.5103 43.209 62.5375C43.5386 62.5604 43.8727 62.5832 44.212 62.6016C44.5918 62.6244 44.9715 62.6473 45.3522 62.6657C46.0018 62.7017 46.6568 62.7254 47.3161 62.7429H47.3205C47.637 62.757 47.9482 62.7658 48.2637 62.771C48.5708 62.7798 48.8773 62.7842 49.1841 62.7886H49.1886C50.2329 62.807 51.2908 62.8088 52.3621 62.7938H52.5036C52.8192 62.7842 53.1357 62.7798 53.4557 62.771C53.6667 62.771 53.8821 62.7614 54.0922 62.757L54.3533 62.7482L54.6926 62.7385C55.2649 62.7201 55.8321 62.6973 56.4094 62.6657C56.7523 62.6517 57.1004 62.6332 57.4485 62.6157C57.9795 62.5832 58.5105 62.5516 59.0371 62.5147C59.7105 62.4691 60.3786 62.4138 61.0476 62.355C80.1032 61.5702 98.3514 54.4572 112.9 42.1437C113.129 41.9102 113.353 41.6723 113.573 41.4353C113.683 41.3159 113.793 41.1974 113.898 41.0737C114.114 40.8358 114.324 40.5979 114.525 40.3557C114.631 40.2328 114.732 40.1134 114.827 39.9905C115.029 39.7483 115.221 39.506 115.409 39.2585C115.693 38.8933 115.963 38.5229 116.219 38.1525C116.393 37.9058 116.558 37.6583 116.718 37.4073C118.119 35.2978 119.117 32.9481 119.662 30.4765C119.718 30.2158 119.764 29.956 119.805 29.69C119.868 29.2977 119.919 28.8991 119.951 28.5015C119.976 28.2066 119.993 27.9108 120.002 27.6167C120.011 27.3236 120.011 27.0318 120.002 26.7416ZM116.957 28.6709C115.578 44.7129 89.2475 59.1547 58.0396 61.0471L57.5818 61.0743C56.9635 61.1112 56.35 61.1384 55.7407 61.1612C54.6929 61.2069 53.6535 61.2344 52.6226 61.2437C52.3343 61.2481 52.0459 61.2525 51.7622 61.2481C51.4737 61.2578 51.1899 61.2578 50.911 61.2481C50.7688 61.2525 50.627 61.2525 50.4846 61.2481C50.2238 61.2481 49.9677 61.2437 49.711 61.2393C48.6262 61.2253 47.5549 61.1931 46.4971 61.1428C41.8775 60.9481 37.2793 60.4026 32.7427 59.511C31.7539 59.3144 30.7863 59.1011 29.8399 58.8711L29.6114 58.8115C29.469 58.7799 29.3221 58.7474 29.1806 58.7061C28.7727 58.606 28.3701 58.5007 27.9719 58.3954C27.4822 58.2629 26.9969 58.1259 26.5161 57.9846C25.1746 57.5914 23.8803 57.1659 22.6331 56.7083C21.6898 56.366 20.7747 56 19.8862 55.6208C8.95262 50.93 2.46486 43.6569 3.19276 35.1172C4.5703 18.9971 31.1586 4.48688 62.5722 2.70854C93.9858 0.930201 118.335 12.5517 116.957 28.6709ZM29.6111 58.8115L29.7157 58.894L29.8396 58.8711L29.6111 58.8115Z" fill="#71FFA9"/>
<path d="M115.313 28.7642L110.717 29.0249C110.647 29.8343 110.508 30.6362 110.301 31.422L114.854 31.3764C114.95 30.9392 115.068 30.503 115.143 30.0668L115.313 28.7642Z" fill="#71FFA9"/>
<path d="M94.6748 48.0204L94.2942 48.2302L97.4212 49.7206L97.8273 49.4906L94.6748 48.0204Z" fill="#71FFA9"/>
<path d="M108.508 35.6973C107.823 36.8679 107.037 37.9766 106.159 39.0108L110.342 39.6577L111.072 38.7659C111.302 38.4649 111.51 38.1638 111.729 37.8627C112.188 37.2615 112.519 36.6488 112.909 36.0405L108.508 35.6973Z" fill="#71FFA9"/>
<path d="M102.834 42.379C101.597 43.4576 100.298 44.4624 98.9428 45.388L102.481 46.6195C102.878 46.3597 103.24 46.0867 103.605 45.8181C103.972 45.5469 104.354 45.2827 104.7 45.0044C105.386 44.4514 106.097 43.9046 106.72 43.3331L102.834 42.379Z" fill="#71FFA9"/>
<path d="M94.2936 48.2299C93.1499 48.854 91.9597 49.455 90.7228 50.0328L93.52 51.6857L95.5059 50.7228L97.4205 49.7204L94.2936 48.2299Z" fill="#71FFA9"/>
<path d="M58.3717 57.8442L57.8559 57.875L57.6537 60.2362L58.2143 60.1967L58.3717 57.8442Z" fill="#71FFA9"/>
<path d="M83.7256 52.8656C81.796 53.5389 79.7926 54.1568 77.7293 54.7124L79.3398 56.7901L81.0048 56.3187L81.84 56.0844L82.6558 55.829L84.2865 55.3181L85.8777 54.7712L83.7256 52.8656Z" fill="#71FFA9"/>
<path d="M71.0695 56.2431C68.9491 56.6512 66.7795 56.9953 64.5736 57.2683L64.9745 59.568C66.1701 59.4372 67.351 59.2406 68.5404 59.0712C69.132 58.9825 69.7157 58.8728 70.3082 58.7736C70.8963 58.6683 71.4889 58.577 72.0682 58.4532L71.0695 56.2431Z" fill="#71FFA9"/>
<path d="M53.2103 58.0293L52.5931 60.3993C53.4362 60.3817 54.2731 60.3782 55.1179 60.3466L57.6535 60.236L57.8558 57.8748C56.2872 57.9635 54.7387 58.015 53.2103 58.0293Z" fill="#71FFA9"/>
<path d="M22.7113 52.2854L19.2969 54.1471L19.6899 54.3253L23.0621 52.4513L22.7113 52.2854Z" fill="#71FFA9"/>
<path d="M38.9595 57.0455L37.0414 59.3294L38.6826 59.5725C39.2338 59.6454 39.7973 59.7068 40.3547 59.7744C41.4571 59.921 42.6087 60.0018 43.7418 60.108L45.0982 57.7573C42.9895 57.5914 40.9383 57.3527 38.9595 57.0455Z" fill="#71FFA9"/>
<path d="M27.5687 54.2698L24.6062 56.3053C25.0528 56.4756 25.5284 56.6196 26.0031 56.7714C26.4787 56.918 26.9376 57.076 27.4246 57.2138C28.4039 57.4859 29.3657 57.772 30.3918 58.0082L32.8671 55.8322C31.0131 55.3749 29.2469 54.8541 27.5687 54.2698Z" fill="#71FFA9"/>
<path d="M19.7272 50.7008L16.0473 52.4159L17.6287 53.306L19.299 54.1468L22.7134 52.2851C21.6656 51.7857 20.6701 51.2576 19.7272 50.7008Z" fill="#71FFA9"/>
<path d="M9.4334 34.7635L4.8364 35.0242L4.82239 35.3103L9.41294 35.0277L9.4334 34.7635Z" fill="#71FFA9"/>
<path d="M12.5578 44.6452L8.2309 45.8065L8.89757 46.6053L9.23312 47.002L9.60233 47.3882L10.3513 48.1598L11.1777 48.9085L15.2513 47.4874C14.2672 46.6255 13.3655 45.674 12.5578 44.6452Z" fill="#71FFA9"/>
<path d="M9.58076 38.1798L5.01147 38.7451C5.11281 39.3468 5.25161 39.9416 5.42704 40.5261C5.5088 40.8219 5.63974 41.1115 5.74348 41.4021C5.84182 41.6988 5.9587 41.989 6.09338 42.2711L10.5865 41.41C10.1172 40.3795 9.77931 39.2943 9.58076 38.1798Z" fill="#71FFA9"/>
<path d="M5.29552 32.4113C5.20497 32.8458 5.08126 33.2847 5.01155 33.7183L4.83569 35.0244L9.43276 34.7637C9.5025 33.9543 9.64154 33.1523 9.84832 32.3665L5.29552 32.4113Z" fill="#71FFA9"/>
<path d="M22.7292 14.065L22.3231 14.2968L25.4746 15.767L25.8555 15.5572L22.7292 14.065Z" fill="#71FFA9"/>
<path d="M9.80639 24.1295L9.07587 25.0213C8.84643 25.3206 8.63802 25.6243 8.41913 25.9254C7.96024 26.5266 7.62888 27.1393 7.23944 27.745L11.6401 28.0908C12.3251 26.9202 13.1111 25.8115 13.9891 24.7773L9.80639 24.1295Z" fill="#71FFA9"/>
<path d="M17.6675 17.1686C17.2701 17.4275 16.9088 17.7014 16.5431 17.97C16.1766 18.2412 15.7942 18.5045 15.4487 18.7828C14.763 19.3366 14.0518 19.8826 13.4294 20.4523L17.315 21.4082C18.5513 20.3298 19.8503 19.325 21.205 18.3992L17.6675 17.1686Z" fill="#71FFA9"/>
<path d="M26.6305 12.0995L24.6438 13.065L22.7299 14.0648L25.8563 15.5569C26.9997 14.932 28.19 14.331 29.4269 13.754L26.6305 12.0995Z" fill="#71FFA9"/>
<path d="M62.5019 3.55112L61.9359 3.5915L61.7794 5.94039L62.3007 5.90965L62.5019 3.55112Z" fill="#71FFA9"/>
<path d="M40.8108 6.99536L39.1458 7.46671L38.3107 7.70371L37.4952 7.95914L35.8642 8.46912L34.273 9.01333L36.4241 10.9207C38.3537 10.2475 40.3572 9.62951 42.4205 9.07389L40.8108 6.99536Z" fill="#71FFA9"/>
<path d="M55.1717 4.22014C53.975 4.35093 52.7953 4.54403 51.6059 4.71607C51.0142 4.80472 50.4305 4.91533 49.838 5.01451C49.2499 5.11897 48.6577 5.21025 48.0781 5.33402L49.0758 7.54247C51.1973 7.13431 53.3629 6.79257 55.5724 6.51724L55.1717 4.22014Z" fill="#71FFA9"/>
<path d="M62.5005 3.55107L62.2993 5.90963C63.8667 5.82098 65.413 5.76949 66.9384 5.75515L67.5556 3.38869C66.7126 3.40624 65.8757 3.40975 65.0306 3.44047L62.5005 3.55107Z" fill="#71FFA9"/>
<path d="M100.457 9.46306L97.0846 11.3353L97.4371 11.5012L100.85 9.63861L100.457 9.46306Z" fill="#71FFA9"/>
<path d="M76.4063 3.6765L75.0516 6.02714C77.1615 6.19303 79.2077 6.43061 81.1904 6.73987L83.1077 4.45507L81.4655 4.21281C80.9144 4.13908 80.3508 4.07764 79.7935 4.01005C78.6911 3.8661 77.5395 3.78622 76.4063 3.6765Z" fill="#71FFA9"/>
<path d="M89.7559 5.77875L87.2813 7.95296C89.1327 8.40939 90.9023 8.93253 92.5787 9.51536L95.5412 7.47896C95.0946 7.31218 94.619 7.16824 94.1496 7.01551C93.6688 6.8698 93.2108 6.70829 92.7229 6.57399C91.7436 6.30188 90.7818 6.01574 89.7559 5.77875Z" fill="#71FFA9"/>
<path d="M100.85 9.63826L97.437 11.5009C98.4861 12.0012 99.4812 12.5296 100.422 13.0861L104.102 11.3692L102.52 10.4818L100.85 9.63826Z" fill="#71FFA9"/>
<path d="M115.325 28.4744L110.734 28.7597L110.714 29.0248L115.311 28.7641L115.325 28.4744Z" fill="#71FFA9"/>
<path d="M108.97 14.8794L104.897 16.3005C105.882 17.1614 106.783 18.1123 107.589 19.1409L111.917 17.9779L111.251 17.1817L110.915 16.7859L110.545 16.3997L109.797 15.6246L108.97 14.8794Z" fill="#71FFA9"/>
<path d="M114.056 21.5162L109.563 22.3781C110.032 23.4085 110.37 24.4938 110.568 25.6083L115.138 25.043C115.036 24.4402 114.897 23.8442 114.722 23.2585C114.64 22.9636 114.509 22.6766 114.411 22.3851C114.308 22.0894 114.19 21.7993 114.056 21.5162Z" fill="#71FFA9"/>
<path d="M110.566 25.6073C110.368 24.4924 110.032 23.4066 109.563 22.3754C109.035 21.2231 108.373 20.1369 107.59 19.1391C106.784 18.1101 105.882 17.1594 104.897 16.2996C103.512 15.0892 102.014 14.0132 100.424 13.0861C99.4812 12.5287 98.4878 12.0029 97.439 11.5L97.0865 11.335C95.6163 10.6533 94.1125 10.046 92.5811 9.51535C90.9055 8.93077 89.1333 8.40937 87.2837 7.95206C85.3382 7.47222 83.3084 7.06846 81.1942 6.74076C79.2119 6.43003 77.1653 6.19215 75.0546 6.02714C72.4358 5.82174 69.7246 5.72606 66.9414 5.75327C65.416 5.7717 63.8699 5.82349 62.3033 5.90864L61.7808 5.94024C59.6842 6.0684 57.6139 6.265 55.5771 6.51692C53.3697 6.79078 51.2039 7.13194 49.0797 7.54039C46.7993 7.97927 44.5802 8.48983 42.4223 9.07208C40.3573 9.62945 38.352 10.2474 36.4242 10.9189C34.0459 11.7454 31.711 12.6914 29.4283 13.7532C28.1923 14.3299 26.9977 14.9329 25.8575 15.5543L25.4779 15.765C23.9665 16.6059 22.538 17.4837 21.2055 18.3983C19.852 19.3244 18.5539 20.3289 17.3179 21.4064C16.1266 22.4459 15.0142 23.5723 13.9897 24.7761C13.1134 25.8118 12.3276 26.9207 11.641 28.0905C10.8544 29.4282 10.2523 30.8658 9.85089 32.3643C9.64446 33.1514 9.50515 33.9545 9.43445 34.765L9.41574 35.0257C9.34352 36.0797 9.39871 37.1386 9.58013 38.1795C9.78114 39.2942 10.1195 40.3797 10.5876 41.4114C11.1152 42.5621 11.7761 43.6471 12.5567 44.6442C13.3655 45.6731 14.2681 46.6249 15.253 47.4873C16.6398 48.6966 18.1376 49.7728 19.7266 50.7016C20.6699 51.2546 21.6677 51.7848 22.712 52.2877L23.0646 52.4528C24.1769 52.9736 25.3473 53.4595 26.5757 53.9107C26.9009 54.0345 27.235 54.153 27.5702 54.2671C28.6547 54.6463 29.7778 54.9968 30.9395 55.3186C31.5716 55.5012 32.2125 55.6706 32.8674 55.8304C34.8084 56.3105 36.8462 56.7178 38.9613 57.0469C40.9393 57.3533 42.9902 57.5912 45.0965 57.7553C45.3708 57.7781 45.6503 57.7966 45.9298 57.8106C47.2801 57.9107 48.6521 57.9762 50.0458 58.0072C51.0901 58.0344 52.1433 58.0388 53.2096 58.03C54.7343 58.016 56.2865 57.966 57.8521 57.8747C58.0262 57.865 58.2003 57.8562 58.3699 57.8422C60.4666 57.714 62.5345 57.5221 64.5737 57.2664C66.7803 56.9969 68.951 56.6493 71.0714 56.242C73.3512 55.8032 75.57 55.2926 77.7279 54.7103C79.7929 54.1574 81.7922 53.5418 83.726 52.8635C86.1043 52.0381 88.4395 51.0936 90.7227 50.0336C91.9587 49.4578 93.149 48.856 94.2936 48.2281L94.6733 48.0227C96.1845 47.1809 97.6131 46.3032 98.9405 45.3894C100.297 44.4633 101.596 43.4571 102.832 42.3761C104.024 41.3387 105.137 40.2141 106.161 39.0116C107.038 37.9756 107.823 36.8668 108.51 35.6972C109.297 34.359 109.899 32.9212 110.3 31.4225C110.507 30.6357 110.646 29.8329 110.717 29.0227L110.735 28.7576C110.808 27.7045 110.751 26.6465 110.566 25.6073ZM109.448 29.0955C108.254 43.0625 85.1361 55.6847 57.912 57.2251C54.5314 57.4206 51.1427 57.4311 47.761 57.2567C45.6872 57.1523 43.6635 56.9732 41.704 56.7266C39.3736 56.4343 37.1301 56.0454 34.9913 55.5706C32.8745 55.1043 30.7851 54.5212 28.733 53.8238C17.1353 49.8827 9.99244 42.9615 10.7019 34.6913C11.8974 20.7252 35.0194 8.10305 62.2433 6.56258C89.4682 5.02211 110.644 15.1295 109.448 29.0955Z" fill="#71FFA9"/>
<path d="M96.9354 19.1623C94.6317 17.8446 91.9704 17.2861 89.3304 17.5665L37.707 20.4921L31.8918 28.9958L46.7083 28.1593L47.7568 26.6232L75.9751 25.0231C76.5633 24.9612 77.156 25.0858 77.6692 25.3794C77.7575 25.423 77.835 25.4857 77.896 25.563C77.957 25.6402 78 25.73 78.0219 25.826C78.0438 25.9219 78.044 26.0214 78.0225 26.1174C78.001 26.2135 77.9584 26.3035 77.8977 26.381L72.4544 34.344C72.1822 34.6305 71.8539 34.8579 71.4898 35.0121C71.1258 35.1663 70.7338 35.2439 70.3384 35.2402L40.724 36.9185L41.7728 35.378L26.9565 36.2189L21.1465 44.7262L75.1004 41.6724C77.8678 41.7099 80.6129 41.1739 83.1624 40.0984C85.7118 39.0228 88.0102 37.4311 89.9123 35.4236L97.9797 23.6195C98.2465 23.272 98.4328 22.8698 98.5251 22.4417C98.6174 22.0137 98.6134 21.5706 98.5135 21.1442C98.4136 20.7179 98.2203 20.319 97.9474 19.9763C97.6745 19.6336 97.3288 19.3556 96.9354 19.1623ZM96.9037 23.5002L88.8363 35.3087C87.0781 37.1623 84.9543 38.632 82.5988 39.625C80.2433 40.618 77.7072 41.1128 75.1506 41.0782L22.7711 44.0503L27.7485 36.7578L40.1517 36.0592L39.103 37.5952L70.2883 35.8257C70.8943 35.8346 71.4955 35.7181 72.0542 35.4837C72.6129 35.2492 73.1171 34.9018 73.5348 34.4634L78.9781 26.4951C79.0679 26.3769 79.1305 26.2405 79.1615 26.0954C79.1925 25.9504 79.1911 25.8003 79.1574 25.6559C79.1238 25.5114 79.0587 25.3761 78.9668 25.2596C78.8748 25.1431 78.7583 25.0483 78.6256 24.9818C77.8381 24.5306 76.9282 24.3386 76.0252 24.4332L46.9647 26.079L45.916 27.6151L33.513 28.3191L38.4893 21.0319L89.2803 18.1564C91.606 17.9089 93.9505 18.4017 95.9789 19.5643C96.3265 19.7348 96.6319 19.9801 96.8731 20.2827C97.1143 20.5852 97.2852 20.9374 97.3737 21.3138C97.4621 21.6903 97.4659 22.0816 97.3846 22.4597C97.3034 22.8377 97.1391 23.1931 96.9037 23.5002Z" fill="#71FFA9"/>
<path d="M24.4822 29.7498L20.0225 36.2785L50.9105 34.5274L55.3748 27.9986L24.4822 29.7498ZM50.1272 33.9876L21.6439 35.6018L25.2699 30.2896L53.7579 28.6754L50.1272 33.9876Z" fill="#71FFA9"/>
</svg>
