<svg width="201" height="165" viewBox="0 0 201 165" fill="none" xmlns="http://www.w3.org/2000/svg">
<path d="M197.025 110.163L190.335 127.249C182.424 147.454 160.572 161.852 129.536 163.971C79.3026 167.401 23.7376 137.382 5.67742 97.0577C2.4113 90.4835 0.510553 83.3177 0.0895108 75.9912C-0.331532 68.6647 0.735844 61.3289 3.2274 54.4248L9.9173 37.3392C7.42557 44.2431 6.35813 51.5788 6.77918 58.9052C7.20022 66.2316 9.10107 73.3973 12.3674 79.9712C30.4275 120.296 85.9925 150.315 136.225 146.885C167.262 144.766 189.114 130.368 197.025 110.163Z" fill="#37AB65"/>
<path d="M70.7172 0.617354C120.955 -2.81206 176.514 27.203 194.576 67.5308C212.636 107.856 186.463 143.455 136.226 146.885C85.9933 150.315 30.4283 120.296 12.3681 79.9713C-5.6929 39.6435 20.4848 4.04676 70.7172 0.617354Z" fill="#71FFA9"/>
<path d="M190.019 67.8432C172.833 29.4693 120.152 1.00786 72.3577 4.27138C24.5552 7.53489 -0.263482 41.2874 16.9228 79.6614C34.1092 118.034 86.7883 146.49 134.591 143.225C182.385 139.963 207.206 106.216 190.019 67.8432Z" fill="#49D581"/>
<path d="M194.578 67.5309C194.176 66.6356 193.759 65.7438 193.319 64.8617L193.315 64.8573C192.299 62.7902 191.177 60.7564 189.968 58.7533L189.963 58.7489C189.62 58.1775 189.268 57.6061 188.905 57.0443L188.901 57.0391C187.459 54.7718 185.901 52.5484 184.226 50.369C184.016 50.0951 183.805 49.8204 183.59 49.5509C183.168 49.012 182.739 48.4721 182.299 47.942L182.295 47.9376C180.074 45.2264 177.719 42.6279 175.239 40.1518C174.24 39.1459 173.218 38.157 172.171 37.185C171.644 36.6961 171.113 36.2116 170.578 35.7314C170.042 35.246 169.502 34.7712 168.957 34.2998C159.044 25.8096 147.978 18.7621 136.088 13.367C135.052 12.8912 134.009 12.4278 132.96 11.9766C132.607 11.8309 132.259 11.6799 131.902 11.5289C129.096 10.3448 126.247 9.24616 123.354 8.23293H123.35C122.626 7.98102 121.901 7.73407 121.175 7.4921C106.834 2.63625 91.7765 0.228196 76.6344 0.369086C74.6564 0.401563 72.6846 0.485534 70.7189 0.621002C57.5265 1.25644 44.6577 4.91679 33.1103 11.3183C31.8471 12.0547 30.6245 12.8227 29.4427 13.6224C28.6551 14.1578 27.8859 14.705 27.1351 15.2638C26.3846 15.8264 25.6565 16.4023 24.9418 16.9877C23.8751 17.8699 22.8513 18.7795 21.8702 19.7167C21.5407 20.0318 21.2187 20.3487 20.9041 20.6673C15.9744 25.564 12.1496 31.456 9.68595 37.9487C9.64957 38.0286 9.61902 38.111 9.59453 38.1953C9.48025 38.4972 9.37034 38.7983 9.26924 39.1047L9.15938 39.4154C9.02664 39.8042 8.90355 40.1887 8.78399 40.5819C8.66092 40.9743 8.54136 41.3772 8.43147 41.7748L8.38577 41.953C8.28995 42.2822 8.2029 42.6069 8.12466 42.9361C8.09417 43.0304 8.06979 43.1266 8.05169 43.224C7.96027 43.5944 7.87326 43.9648 7.79062 44.3352L7.78184 44.3668C7.70799 44.7048 7.63911 45.043 7.57523 45.3815C7.38798 46.2962 7.23238 47.224 7.10842 48.157L7.09525 48.2439C7.04443 48.6047 6.99856 48.9707 6.96251 49.3358C6.93895 49.5096 6.92136 49.6834 6.90712 49.8572L6.90272 49.8941C6.87547 50.1451 6.85176 50.3971 6.83418 50.6525L6.82888 50.6753C6.8113 50.8491 6.79722 51.0229 6.79283 51.1923L6.78844 51.2195C6.76558 51.503 6.74713 51.7865 6.73307 52.0701L6.72428 52.2579C6.7016 52.6327 6.68737 53.0075 6.67858 53.3823L6.66888 53.5693C6.56807 57.8796 6.97525 62.1868 7.88204 66.4022C8.03782 67.1333 8.2073 67.8654 8.39542 68.6009C8.60113 69.4418 8.83001 70.2862 9.08202 71.1342C9.31586 71.9294 9.56757 72.7261 9.83715 73.5243C9.92419 73.7903 10.0158 74.0597 10.1125 74.3248C10.3919 75.1245 10.6892 75.9276 11.0046 76.7343C11.1101 77.0037 11.2201 77.2732 11.3299 77.5436C11.5454 78.0825 11.774 78.6223 12.0076 79.1613C12.1219 79.4316 12.2459 79.7011 12.3645 79.9706C13.0335 81.4654 13.7523 82.9436 14.521 84.405C14.8332 84.9902 15.1491 85.5739 15.4686 86.1562C16.2792 87.6053 17.1354 89.0393 18.0374 90.4581C18.5782 91.3086 19.137 92.1545 19.7138 92.9957C20.4777 94.1104 21.2713 95.2167 22.0946 96.3145C22.5067 96.8631 22.9248 97.407 23.3488 97.9462C23.7743 98.4905 24.2051 99.025 24.6446 99.5604C26.1787 101.434 27.7918 103.269 29.4841 105.064C29.9649 105.577 30.4548 106.088 30.9495 106.591C31.4436 107.095 31.9441 107.598 32.451 108.1C41.9458 117.305 52.7636 125.043 64.5468 131.059L64.5925 131.086H64.5969C66.2549 131.945 67.9322 132.773 69.6288 133.568C77.4456 137.237 85.5704 140.213 93.9095 142.46C95.8507 142.981 97.8056 143.466 99.7696 143.901H99.7748L99.839 143.919L100.008 143.955C111.879 146.656 124.077 147.643 136.229 146.886C136.93 146.84 137.626 146.785 138.317 146.721C138.775 146.685 139.228 146.639 139.681 146.593C139.855 146.579 140.029 146.561 140.199 146.538C140.474 146.515 140.749 146.483 141.023 146.451C141.238 146.428 141.458 146.406 141.673 146.378L141.825 146.36L141.934 146.346C142.443 146.287 142.946 146.218 143.445 146.149H143.449C143.94 146.085 144.425 146.017 144.906 145.94L144.956 145.934C145.199 145.898 145.441 145.861 145.684 145.816C146.174 145.743 146.664 145.66 147.149 145.574C147.442 145.528 147.735 145.473 148.024 145.418L148.624 145.308L148.747 145.286L148.761 145.281C149.205 145.199 149.644 145.107 150.084 145.016L150.129 145.006L150.303 144.97C150.482 144.934 150.661 144.897 150.84 144.856C151.091 144.805 151.343 144.751 151.59 144.691L151.677 144.673C151.902 144.623 152.126 144.572 152.346 144.518C152.818 144.412 153.289 144.298 153.751 144.179C154.241 144.06 154.722 143.937 155.203 143.804L155.226 143.8C155.725 143.667 156.224 143.53 156.718 143.388L156.787 143.365L156.984 143.306C157.414 143.187 157.84 143.059 158.261 142.926L158.422 142.876C158.792 142.762 159.163 142.644 159.53 142.524L159.882 142.41H159.887L160.083 142.342C160.674 142.145 161.261 141.944 161.842 141.733L162.675 141.431L162.684 141.423C162.881 141.354 163.078 141.28 163.27 141.203L163.33 141.18C163.522 141.112 163.719 141.034 163.911 140.951C164.053 140.901 164.195 140.847 164.337 140.787H164.342C164.452 140.746 164.566 140.7 164.676 140.65C164.827 140.595 164.983 140.531 165.134 140.462C165.395 140.362 165.651 140.253 165.907 140.143C166.471 139.905 167.029 139.663 167.579 139.406C167.849 139.288 168.119 139.164 168.385 139.04C168.746 138.872 169.105 138.698 169.461 138.52C169.726 138.392 169.987 138.264 170.243 138.131C170.591 137.957 170.94 137.779 171.287 137.596C171.658 137.404 172.024 137.203 172.391 137.001L172.556 136.91C172.729 136.814 172.909 136.719 173.087 136.609C173.187 136.559 173.285 136.504 173.38 136.444C173.608 136.316 173.837 136.183 174.066 136.046C174.355 135.881 174.643 135.709 174.932 135.529C175.715 135.054 176.482 134.564 177.235 134.057C177.468 133.902 177.702 133.742 177.935 133.582C178.068 133.496 178.201 133.399 178.333 133.303C178.517 133.175 178.704 133.043 178.883 132.91L179.034 132.805C179.272 132.636 179.511 132.462 179.744 132.284L179.808 132.238L179.927 132.146C180.22 131.927 180.514 131.708 180.802 131.479L180.912 131.392L180.921 131.388C181.168 131.191 181.416 130.995 181.658 130.794L181.754 130.716L182.001 130.519L182.382 130.2L182.637 129.98C182.775 129.865 182.913 129.751 183.05 129.628L183.21 129.486L183.315 129.395C183.572 129.175 183.823 128.951 184.076 128.718H184.08C184.359 128.462 184.634 128.206 184.904 127.945C185.146 127.716 185.385 127.484 185.623 127.246L185.696 127.177C185.938 126.94 186.181 126.697 186.415 126.451C186.658 126.208 186.891 125.966 187.12 125.719C187.225 125.609 187.327 125.504 187.418 125.395C187.812 124.979 188.187 124.553 188.549 124.124C188.727 123.917 188.905 123.712 189.079 123.501C189.181 123.387 189.272 123.278 189.359 123.163C189.515 122.976 189.666 122.789 189.817 122.596C189.906 122.494 189.99 122.388 190.068 122.277C190.22 122.093 190.357 121.911 190.499 121.728C190.742 121.417 190.975 121.102 191.2 120.786C191.369 120.549 191.538 120.311 191.704 120.073L191.854 119.858C192.015 119.634 192.166 119.41 192.312 119.182C192.509 118.898 192.693 118.61 192.871 118.322C193.205 117.81 193.516 117.298 193.819 116.772L193.942 116.562L194.038 116.398C194.153 116.201 194.267 116 194.373 115.798L194.46 115.643C194.565 115.456 194.665 115.268 194.762 115.081C194.831 114.957 194.899 114.834 194.959 114.711C195.092 114.459 195.224 114.203 195.347 113.947C195.426 113.796 195.499 113.65 195.563 113.499C195.805 113.015 196.03 112.53 196.241 112.04C196.346 111.808 196.446 111.574 196.543 111.341C196.607 111.2 196.666 111.057 196.721 110.916L196.794 110.747C196.873 110.555 196.95 110.359 197.024 110.162C197.128 109.901 197.23 109.641 197.325 109.376C199.649 102.564 200.603 95.3605 200.131 88.1797C199.66 80.9989 197.773 73.9817 194.578 67.5309ZM134.59 143.224C121.884 144.006 109.133 142.805 96.7982 139.663L96.5055 139.589C87.9956 137.449 79.7079 134.508 71.7536 130.807L71.6437 130.761C47.9753 120.647 28.6101 102.563 16.9209 79.6599C-0.262764 41.2903 24.5532 7.53336 72.3576 4.27336C120.15 1.00985 172.83 29.4677 190.018 67.8426C207.206 106.217 182.382 139.964 134.59 143.224Z" fill="#34BA6A"/>
<path d="M183.19 68.3094L178.27 68.6456C178.761 69.8736 179.337 71.1025 179.771 72.3349L184.788 72.2366C184.319 70.9252 183.717 69.6164 183.19 68.3094Z" fill="#71FFA9"/>
<path d="M180.175 73.476L180.36 74.0027L185.406 74.0115L185.212 73.4584L180.175 73.476Z" fill="#71FFA9"/>
<path d="M180.708 75.056L181.06 76.2849L186.159 76.4517L185.781 75.135L180.708 75.056Z" fill="#71FFA9"/>
<path d="M182.759 85.1238L182.874 86.3351L188.096 87.1602L187.973 85.8699L182.759 85.1238Z" fill="#71FFA9"/>
<path d="M182.915 87.1955L182.95 88.3805L188.172 89.346L188.146 88.0732L182.915 87.1955Z" fill="#71FFA9"/>
<path d="M181.378 77.3994L181.492 77.8032L186.626 78.0753L186.503 77.6364L181.378 77.3994Z" fill="#71FFA9"/>
<path d="M182.521 95.3671L182.433 95.8499L187.629 97.307L187.726 96.7891L182.521 95.3671Z" fill="#71FFA9"/>
<path d="M182.258 96.8329L182.038 97.9653L187.207 99.5628L187.436 98.3515L182.258 96.8329Z" fill="#71FFA9"/>
<path d="M181.783 98.9748L181.687 99.3435L186.838 101.038L186.935 100.634L181.783 98.9748Z" fill="#71FFA9"/>
<path d="M181.747 78.9156C182.144 80.623 182.452 82.3498 182.67 84.089L187.873 84.7649C187.64 82.9134 187.313 81.0748 186.894 79.2561L181.747 78.9156Z" fill="#71FFA9"/>
<path d="M182.982 89.467L182.883 91.9634C182.852 92.7999 182.716 93.61 182.644 94.429L187.841 95.7904C187.932 94.9162 188.069 94.0516 188.101 93.1606L188.21 90.501L182.982 89.467Z" fill="#71FFA9"/>
<path d="M181.686 99.3444C181.409 100.46 181.076 101.56 180.687 102.641L185.762 104.54C186.147 103.381 186.562 102.233 186.837 101.034L181.686 99.3444Z" fill="#71FFA9"/>
<path d="M180.314 103.636L180.12 104.092L185.158 106.085L185.36 105.602L180.314 103.636Z" fill="#71FFA9"/>
<path d="M179.745 104.998C179.606 105.353 179.449 105.701 179.275 106.041L184.259 108.17C184.445 107.809 184.612 107.437 184.758 107.057L179.745 104.998Z" fill="#71FFA9"/>
<path d="M174.917 113.186L174.188 114.099L178.847 116.758L179.62 115.775L174.917 113.186Z" fill="#71FFA9"/>
<path d="M173.679 114.757L172.879 115.643L177.45 118.4L178.294 117.452L173.679 114.757Z" fill="#71FFA9"/>
<path d="M178.811 106.971L178.635 107.322L183.584 109.526L183.769 109.157L178.811 106.971Z" fill="#71FFA9"/>
<path d="M167.697 120.602C167.572 120.719 167.421 120.817 167.277 120.928L171.478 124.027C171.628 123.908 171.783 123.802 171.922 123.677L167.697 120.602Z" fill="#71FFA9"/>
<path d="M166.433 121.568L165.44 122.314L169.519 125.509L170.574 124.711L166.433 121.568Z" fill="#71FFA9"/>
<path d="M164.508 122.964L164.156 123.201L168.139 126.449L168.517 126.194L164.508 122.964Z" fill="#71FFA9"/>
<path d="M178.16 108.244L176.921 110.35L175.523 112.378L180.27 114.924L181.747 112.756L183.066 110.508L178.16 108.244Z" fill="#71FFA9"/>
<path d="M172.163 116.444C170.992 117.684 169.751 118.856 168.445 119.953L172.722 122.993C174.114 121.824 175.436 120.573 176.681 119.248L172.163 116.444Z" fill="#71FFA9"/>
<path d="M164.152 123.197C163.623 123.546 163.108 123.907 162.566 124.242L160.899 125.217L164.679 128.602L166.451 127.558C167.037 127.206 167.581 126.816 168.141 126.446L164.152 123.197Z" fill="#71FFA9"/>
<path d="M159.858 125.808L159.366 126.071L163.041 129.503L163.568 129.231L159.858 125.808Z" fill="#71FFA9"/>
<path d="M158.356 126.578C157.962 126.774 157.594 126.99 157.186 127.173L160.719 130.683C161.148 130.492 161.555 130.267 161.975 130.056L158.356 126.578Z" fill="#71FFA9"/>
<path d="M147.972 130.697L146.609 131.075L149.44 134.84L150.899 134.445L147.972 130.697Z" fill="#71FFA9"/>
<path d="M145.638 131.346C145.18 131.473 144.729 131.598 144.247 131.692L146.926 135.505C147.43 135.403 147.921 135.274 148.399 135.133L145.638 131.346Z" fill="#71FFA9"/>
<path d="M156.088 127.669L155.674 127.853L159.112 131.408L159.542 131.215L156.088 127.669Z" fill="#71FFA9"/>
<path d="M135.674 133.26L135.032 133.348L137.098 137.272L137.775 137.175L135.674 133.26Z" fill="#71FFA9"/>
<path d="M133.759 133.497L132.238 133.629L134.128 137.57L135.745 137.429L133.759 133.497Z" fill="#71FFA9"/>
<path d="M130.875 133.752L130.374 133.804L132.141 137.745L132.678 137.701L130.875 133.752Z" fill="#71FFA9"/>
<path d="M154.577 128.342L151.888 129.394C150.997 129.746 150.037 130.015 149.115 130.336L152.109 134.059C153.098 133.72 154.116 133.427 155.072 133.049L157.935 131.932L154.577 128.342Z" fill="#71FFA9"/>
<path d="M142.973 131.983L141.486 132.322L139.953 132.597C138.931 132.768 137.926 132.978 136.865 133.099L139.054 137.006C140.179 136.875 141.254 136.653 142.347 136.469L143.98 136.174L145.568 135.815L142.973 131.983Z" fill="#71FFA9"/>
<path d="M125.73 133.988L127.201 137.951C128.866 137.932 130.486 137.815 132.139 137.75L130.37 133.8C128.816 133.859 127.297 133.975 125.73 133.988Z" fill="#71FFA9"/>
<path d="M123.606 134.006L124.933 137.974L125.654 137.965L124.274 133.997L123.606 134.006Z" fill="#71FFA9"/>
<path d="M120.678 133.945L121.821 137.912L123.508 137.965L122.26 133.998L120.678 133.945Z" fill="#71FFA9"/>
<path d="M107.445 132.69L107.709 136.578L109.432 136.824L109.063 132.927L107.445 132.69Z" fill="#71FFA9"/>
<path d="M104.659 132.216L104.747 136.06L106.47 136.367L106.285 132.505L104.659 132.216Z" fill="#71FFA9"/>
<path d="M118.708 133.883L119.728 137.842L120.281 137.86L119.244 133.901L118.708 133.883Z" fill="#71FFA9"/>
<path d="M94.3404 129.819L93.7338 133.497L94.4634 133.716L95.026 130.012L94.3404 129.819Z" fill="#71FFA9"/>
<path d="M91.3407 128.95L90.5407 132.575L92.255 133.076L92.9495 129.415L91.3407 128.95Z" fill="#71FFA9"/>
<path d="M89.3646 128.301L88.4415 131.891L89.0041 132.075L89.9008 128.476L89.3646 128.301Z" fill="#71FFA9"/>
<path d="M110.457 133.131L110.913 137.035C113.343 137.33 115.779 137.598 118.179 137.732L117.265 133.786C115.01 133.655 112.734 133.403 110.457 133.131Z" fill="#71FFA9"/>
<path d="M96.3294 130.358L95.859 134.081C97.0818 134.377 98.2924 134.721 99.517 134.984L103.182 135.771L103.2 131.944L99.7587 131.203C98.6194 130.962 97.4748 130.633 96.3294 130.358Z" fill="#71FFA9"/>
<path d="M84.6031 126.634L83.3557 130.112C85.04 130.723 86.72 131.36 88.4351 131.888L89.3652 128.304C87.7547 127.803 86.1854 127.205 84.6031 126.634Z" fill="#71FFA9"/>
<path d="M82.4784 125.808L81.0806 129.231L81.8015 129.521L83.1465 126.071L82.4784 125.808Z" fill="#71FFA9"/>
<path d="M79.5802 124.624L78.0023 127.967C78.5526 128.215 79.102 128.441 79.6646 128.661L81.1292 125.271C80.6081 125.069 80.0894 124.853 79.5802 124.624Z" fill="#71FFA9"/>
<path d="M67.2285 118.496L64.8462 121.437L66.3934 122.306L68.6878 119.313L67.2285 118.496Z" fill="#71FFA9"/>
<path d="M64.7767 117.057L62.2273 119.901L63.7393 120.814L66.192 117.908L64.7767 117.057Z" fill="#71FFA9"/>
<path d="M77.6812 123.789L75.9758 127.072L76.5208 127.317L78.1823 124.017L77.6812 123.789Z" fill="#71FFA9"/>
<path d="M56.0739 111.251L52.9522 113.716C53.1544 113.865 53.3425 114.022 53.5474 114.158L56.6286 111.66C56.4352 111.531 56.2532 111.388 56.0739 111.251Z" fill="#71FFA9"/>
<path d="M53.6809 109.438L50.4106 111.79L51.782 112.826L54.9731 110.412L53.6809 109.438Z" fill="#71FFA9"/>
<path d="M52.1423 108.191L48.7666 110.465L49.2062 110.816L52.5555 108.525L52.1423 108.191Z" fill="#71FFA9"/>
<path d="M69.9278 119.997L67.7301 123.034L71.0706 124.781L74.4991 126.414L76.2837 123.166L73.075 121.63L69.9278 119.997Z" fill="#71FFA9"/>
<path d="M57.7071 112.421L54.6979 114.967C56.6909 116.399 58.7699 117.756 60.871 119.07L63.496 116.273C61.5233 115.037 59.5681 113.767 57.7071 112.421Z" fill="#71FFA9"/>
<path d="M48.5131 105.106L44.908 107.17L46.8051 108.838C47.438 109.385 48.1072 109.916 48.7654 110.461L52.1422 108.189C51.5258 107.681 50.8911 107.189 50.2942 106.667L48.5131 105.106Z" fill="#71FFA9"/>
<path d="M46.9475 103.662L43.2377 105.637L43.7476 106.129L47.431 104.127L46.9475 103.662Z" fill="#71FFA9"/>
<path d="M44.852 101.665L41.0016 103.502C41.3893 103.897 41.8016 104.269 42.2024 104.655L45.979 102.748C45.6063 102.388 45.2195 102.034 44.852 101.665Z" fill="#71FFA9"/>
<path d="M36.7136 92.3214L32.3181 93.5503L33.2588 94.7967L37.5839 93.4976L36.7136 92.3214Z" fill="#71FFA9"/>
<path d="M35.24 90.3156L30.7469 91.3953C31.0317 91.8236 31.3352 92.2371 31.6497 92.6566L36.0884 91.4918C35.7886 91.1056 35.5022 90.7115 35.24 90.3156Z" fill="#71FFA9"/>
<path d="M43.5365 100.3L39.5893 102.056L39.9673 102.442L43.8969 100.669L43.5365 100.3Z" fill="#71FFA9"/>
<path d="M30.5332 82.6396L25.7333 83.2276L26.0322 83.7719L30.8145 83.1662L30.5332 82.6396Z" fill="#71FFA9"/>
<path d="M29.4013 80.3749L24.5223 80.805L25.1553 82.1129L29.9815 81.595L29.4013 80.3749Z" fill="#71FFA9"/>
<path d="M28.669 78.8567L23.7549 79.199L23.957 79.6291L28.8624 79.2692L28.669 78.8567Z" fill="#71FFA9"/>
<path d="M38.3942 94.4886L34.1119 95.8526C34.8266 96.7128 35.5097 97.5958 36.2675 98.4394L38.5584 100.99L42.5618 99.3057L40.4212 96.9217C39.7003 96.1229 39.0683 95.2979 38.3942 94.4886Z" fill="#71FFA9"/>
<path d="M31.3508 84.1434L26.6047 84.8271C27.0828 85.7444 27.6727 86.6467 28.2212 87.5526L29.0564 88.9061L29.9618 90.2482L34.5041 89.2396L33.6505 87.9757L32.8708 86.7055C32.353 85.8524 31.7983 85.0088 31.3508 84.1434Z" fill="#71FFA9"/>
<path d="M22.1538 75.2684C22.6216 76.579 23.2254 77.8877 23.7511 79.1956L28.6714 78.8594C28.18 77.6314 27.613 76.4016 27.1708 75.1701L22.1538 75.2684Z" fill="#71FFA9"/>
<path d="M21.5309 73.4847L21.7243 74.0465L26.7703 74.0289L26.5945 73.5023L21.5309 73.4847Z" fill="#71FFA9"/>
<path d="M20.7844 71.0531L21.1536 72.3609L26.2347 72.4487L25.8831 71.2111L20.7844 71.0531Z" fill="#71FFA9"/>
<path d="M18.8521 60.3446L18.9752 61.6349L24.1794 62.3722L24.0739 61.1697L18.8521 60.3446Z" fill="#71FFA9"/>
<path d="M18.7625 58.1588L18.7976 59.4227L24.0283 60.3093L23.9931 59.1155L18.7625 58.1588Z" fill="#71FFA9"/>
<path d="M20.3201 69.4292L20.4432 69.8681L25.5596 70.1051L25.4453 69.6925L20.3201 69.4292Z" fill="#71FFA9"/>
<path d="M19.3177 50.1976L19.221 50.7155L24.4165 52.1374L24.5044 51.6547L19.3177 50.1976Z" fill="#71FFA9"/>
<path d="M19.7379 47.9416L19.5093 49.1529L24.6872 50.6715L24.8982 49.5392L19.7379 47.9416Z" fill="#71FFA9"/>
<path d="M20.1081 46.4672L20.0027 46.8622L25.1629 48.53L25.2508 48.1525L20.1081 46.4672Z" fill="#71FFA9"/>
<path d="M19.0713 62.7393C19.3045 64.5912 19.6316 66.4302 20.0514 68.249L25.1942 68.5826C24.7988 66.877 24.4919 65.1523 24.2746 63.4152L19.0713 62.7393Z" fill="#71FFA9"/>
<path d="M19.0987 51.7084C19.0108 52.5888 18.8736 53.4534 18.8394 54.3373L18.7321 57.004L23.961 58.0371L24.0594 55.5407C24.0902 54.7042 24.2265 53.8949 24.3073 53.0751L19.0987 51.7084Z" fill="#71FFA9"/>
<path d="M21.178 42.9581C20.7956 44.1238 20.3808 45.271 20.1063 46.4709L25.2543 48.1536C25.5031 47.0309 25.8996 45.953 26.2565 44.8637L21.178 42.9581Z" fill="#71FFA9"/>
<path d="M21.7799 41.42L21.5865 41.9028L26.6325 43.869L26.8259 43.4126L21.7799 41.42Z" fill="#71FFA9"/>
<path d="M22.6824 39.3344C22.4955 39.696 22.3289 40.0675 22.1832 40.4474L27.1956 42.5058C27.3407 42.1503 27.4849 41.7948 27.6633 41.4569L22.6824 39.3344Z" fill="#71FFA9"/>
<path d="M28.0995 30.7464L27.3171 31.7295L32.0202 34.3189L32.7499 33.3973L28.0995 30.7464Z" fill="#71FFA9"/>
<path d="M29.4874 29.1049L28.6435 30.0441L33.2675 32.7389L34.0675 31.8611L29.4874 29.1049Z" fill="#71FFA9"/>
<path d="M23.36 37.9704L23.1754 38.3391L28.1335 40.5335L28.3005 40.1824L23.36 37.9704Z" fill="#71FFA9"/>
<path d="M35.4655 23.478C35.3125 23.5903 35.1606 23.7018 35.0215 23.8264L39.2473 26.903C39.3721 26.7862 39.5304 26.687 39.6666 26.5756L35.4655 23.478Z" fill="#71FFA9"/>
<path d="M37.4165 21.9951L36.3615 22.7938L40.5109 25.9362L41.4955 25.1813L37.4165 21.9951Z" fill="#71FFA9"/>
<path d="M38.7993 21.0559L38.4213 21.3105L42.4387 24.5406L42.7904 24.3036L38.7993 21.0559Z" fill="#71FFA9"/>
<path d="M26.6657 32.5808L25.1888 34.7488L23.8702 36.9959L28.7844 39.2605L30.0151 37.1539L31.4216 35.1263L26.6657 32.5808Z" fill="#71FFA9"/>
<path d="M34.2209 24.5125C32.8285 25.6812 31.5064 26.931 30.2615 28.2553L34.7792 31.0606C35.9491 29.8185 37.1895 28.6444 38.4943 27.5443L34.2209 24.5125Z" fill="#71FFA9"/>
<path d="M42.2614 18.9028L40.4899 19.9464C39.9035 20.2984 39.3604 20.6882 38.7993 21.0586L42.7889 24.3072C43.3171 23.9587 43.8322 23.5979 44.3746 23.2626L46.0422 22.2874L42.2614 18.9028Z" fill="#71FFA9"/>
<path d="M43.907 18.0016L43.3707 18.2737L47.0893 21.6969L47.5816 21.4336L43.907 18.0016Z" fill="#71FFA9"/>
<path d="M46.2182 16.8145C45.7918 17.0128 45.3848 17.2375 44.9725 17.4482L48.5803 20.9197C48.9741 20.7231 49.3461 20.5151 49.753 20.3308L46.2182 16.8145Z" fill="#71FFA9"/>
<path d="M57.4969 12.656L56.0464 13.0597L58.965 16.8078L60.3364 16.4303L57.4969 12.656Z" fill="#71FFA9"/>
<path d="M60.0145 11.9922C59.5143 12.1011 59.0229 12.2301 58.5447 12.3714L61.3138 16.1572C61.7614 16.0247 62.2228 15.9053 62.694 15.8052L60.0145 11.9922Z" fill="#71FFA9"/>
<path d="M47.8362 16.0966L47.3967 16.2897L50.8603 19.8358L51.2647 19.6515L47.8362 16.0966Z" fill="#71FFA9"/>
<path d="M69.8372 10.2333L69.1603 10.3299L71.2701 14.2447L71.9119 14.1569L69.8372 10.2333Z" fill="#71FFA9"/>
<path d="M72.8114 9.93492L71.2027 10.0754L73.1982 14.0077L74.7103 13.8761L72.8114 9.93492Z" fill="#71FFA9"/>
<path d="M74.8135 9.7506L74.2685 9.80327L76.0706 13.7532L76.5805 13.7005L74.8135 9.7506Z" fill="#71FFA9"/>
<path d="M54.8346 13.4451C53.8456 13.7839 52.8276 14.0779 51.8729 14.4545L49.007 15.5657L52.3643 19.1557L55.0561 18.1103C55.9466 17.7584 56.904 17.4828 57.8288 17.1685L54.8346 13.4451Z" fill="#71FFA9"/>
<path d="M67.8876 10.4985C66.7604 10.6232 65.6853 10.8461 64.5961 11.0357L62.9618 11.3307L61.3735 11.6897L63.9684 15.5211L65.4558 15.1823L66.989 14.9084C68.0079 14.7302 69.0197 14.5187 70.0766 14.4054L67.8876 10.4985Z" fill="#71FFA9"/>
<path d="M74.813 9.75409L76.5819 13.704C78.1272 13.6452 79.6463 13.5285 81.2128 13.5171L79.7421 9.55397C78.0824 9.56538 76.4569 9.69001 74.813 9.75409Z" fill="#71FFA9"/>
<path d="M81.2944 9.53976L82.6746 13.5072L83.3339 13.4985L82.0065 9.53099L81.2944 9.53976Z" fill="#71FFA9"/>
<path d="M83.4456 9.53961L84.6763 13.5071L86.2675 13.551L85.1246 9.59228L83.4456 9.53961Z" fill="#71FFA9"/>
<path d="M97.5121 10.6807L97.8725 14.5692L99.49 14.8062L99.2351 10.9265L97.5121 10.6807Z" fill="#71FFA9"/>
<path d="M100.465 11.1372L100.65 14.9993L102.276 15.2977L102.197 11.4444L100.465 11.1372Z" fill="#71FFA9"/>
<path d="M86.6647 9.64513L87.702 13.6038L88.2295 13.6126L87.2185 9.66267L86.6647 9.64513Z" fill="#71FFA9"/>
<path d="M112.484 13.788L111.921 17.4834L112.616 17.6853L113.214 13.9987L112.484 13.788Z" fill="#71FFA9"/>
<path d="M114.681 14.4288L113.987 18.0803L115.595 18.5543L116.395 14.9291L114.681 14.4288Z" fill="#71FFA9"/>
<path d="M117.943 15.4295L117.046 19.0284L117.574 19.2039L118.506 15.6139L117.943 15.4295Z" fill="#71FFA9"/>
<path d="M88.7598 9.76524L89.6767 13.7187C91.9289 13.8425 94.2084 14.1005 96.4932 14.3726L96.0266 10.4631C93.5984 10.1743 91.1632 9.90656 88.7598 9.76524Z" fill="#71FFA9"/>
<path d="M103.762 11.7324L103.744 15.5594L107.187 16.3011C108.325 16.5425 109.466 16.8647 110.615 17.1464L111.085 13.4238C109.871 13.1263 108.652 12.7822 107.427 12.5197L103.762 11.7324Z" fill="#71FFA9"/>
<path d="M118.508 15.6165L117.578 19.2013C119.185 19.6946 120.757 20.3002 122.336 20.8629L123.587 17.3931C121.903 16.7822 120.223 16.144 118.508 15.6165Z" fill="#71FFA9"/>
<path d="M125.144 17.9839L123.799 21.4248L124.476 21.6969L125.856 18.2736L125.144 17.9839Z" fill="#71FFA9"/>
<path d="M127.285 18.8432L125.812 22.234C126.333 22.4359 126.849 22.6439 127.361 22.8809L128.936 19.5305C128.389 19.29 127.839 19.0635 127.285 18.8432Z" fill="#71FFA9"/>
<path d="M140.554 25.1988L138.26 28.192L139.719 29.0084L142.101 26.0678L140.554 25.1988Z" fill="#71FFA9"/>
<path d="M143.207 26.6913L140.754 29.588L142.17 30.4482L144.71 27.6042L143.207 26.6913Z" fill="#71FFA9"/>
<path d="M130.418 20.187L128.756 23.4873L129.266 23.7155L130.971 20.4239L130.418 20.187Z" fill="#71FFA9"/>
<path d="M153.391 33.341L150.309 35.8374C150.505 35.9726 150.687 36.1165 150.868 36.2534L153.986 33.7817C153.786 33.6395 153.598 33.4824 153.391 33.341Z" fill="#71FFA9"/>
<path d="M155.162 34.6788L151.962 37.0838L153.254 38.0669L156.533 35.7145L155.162 34.6788Z" fill="#71FFA9"/>
<path d="M157.74 36.6889L154.391 38.9798L154.795 39.3134L158.18 37.04L157.74 36.6889Z" fill="#71FFA9"/>
<path d="M132.447 21.0912L130.663 24.339L133.862 25.8663L137.01 27.5077L139.216 24.4706L135.867 22.7239L132.447 21.0912Z" fill="#71FFA9"/>
<path d="M146.08 28.4266L143.449 31.2319C145.422 32.4678 147.377 33.7379 149.239 35.0827L152.245 32.5301C150.254 31.1064 148.176 29.7494 146.08 28.4266Z" fill="#71FFA9"/>
<path d="M158.178 37.0435L154.798 39.3091C155.415 39.8164 156.052 40.3158 156.646 40.8311L158.43 42.3988L162.034 40.3343L160.147 38.6656C159.502 38.1127 158.833 37.5825 158.178 37.0435Z" fill="#71FFA9"/>
<path d="M163.191 41.3761L159.516 43.3774L159.991 43.8338L163.709 41.8676L163.191 41.3761Z" fill="#71FFA9"/>
<path d="M164.748 42.8489L160.963 44.7554C161.336 45.117 161.73 45.4699 162.087 45.8315L165.938 43.9952C165.553 43.6081 165.138 43.2289 164.748 42.8489Z" fill="#71FFA9"/>
<path d="M173.685 52.7081L169.351 54.0072L170.221 55.1746L174.626 53.9545L173.685 52.7081Z" fill="#71FFA9"/>
<path d="M175.291 54.8479L170.853 56.0127C171.153 56.3989 171.439 56.793 171.701 57.1888L176.192 56.1022C175.91 55.6809 175.604 55.2604 175.291 54.8479Z" fill="#71FFA9"/>
<path d="M166.97 45.054L163.049 46.8358L163.409 47.1957L167.348 45.449L166.97 45.054Z" fill="#71FFA9"/>
<path d="M180.902 63.724L176.12 64.3385L176.401 64.8563L181.21 64.277L180.902 63.724Z" fill="#71FFA9"/>
<path d="M181.792 65.3918L176.957 65.9097L177.546 67.1297L182.416 66.6909L181.792 65.3918Z" fill="#71FFA9"/>
<path d="M182.987 67.8755L178.081 68.2355L178.266 68.648L183.189 68.3057L182.987 67.8755Z" fill="#71FFA9"/>
<path d="M168.383 46.5144L164.38 48.1988L166.52 50.5828C167.242 51.3816 167.873 52.2067 168.556 53.0151L172.83 51.651C172.115 50.7908 171.433 49.9087 170.671 49.0581L168.383 46.5144Z" fill="#71FFA9"/>
<path d="M176.977 57.2496L172.437 58.2651L173.288 59.523L174.07 60.7992C174.588 61.6524 175.144 62.4959 175.587 63.3544L180.337 62.6767C179.858 61.7604 179.269 60.858 178.719 59.9522L177.89 58.5917L176.977 57.2496Z" fill="#71FFA9"/>
<path d="M86.4971 18.6009L85.5581 18.5965C83.319 18.5737 81.08 18.6377 78.8594 18.7931L78.7363 18.8019L77.8293 18.8703L78.484 20.3292L79.3956 20.2695L79.5187 20.2607C81.6754 20.1141 83.8488 20.0486 86.0389 20.0641L86.9769 20.0685L86.4971 18.6009ZM73.0266 19.3917L72.1519 19.5287C69.9814 19.8578 67.8891 20.2791 65.8655 20.7768L65.0364 20.9831L66.0307 22.3954L66.8588 22.19C68.8324 21.7003 70.8745 21.2982 72.9809 20.9691L73.8645 20.8409L73.0266 19.3917ZM100.617 19.9175L99.6508 19.7665C97.289 19.3961 94.9234 19.1126 92.5541 18.916L91.5974 18.8388L91.886 20.2967L92.8423 20.3748C95.1543 20.5671 97.459 20.843 99.7563 21.2025L100.718 21.3579L100.617 19.9175ZM60.7148 22.2629L59.9359 22.5367C58.0636 23.1937 56.2267 23.9476 54.4328 24.7952L53.7234 25.134L55.0235 26.4366L55.7427 26.0934C57.4869 25.2692 59.2734 24.537 61.0946 23.8999L61.8682 23.6296L60.7148 22.2629ZM113.899 23.0265C111.55 22.3173 109.174 21.6871 106.793 21.1429L105.823 20.919L105.732 22.3226L106.702 22.542C109.028 23.0722 111.331 23.6893 113.615 24.3748L114.573 24.668L114.857 23.3144L113.899 23.0265ZM50.0558 27.1222L49.4105 27.5251C47.8412 28.4877 46.3347 29.5487 44.8999 30.7017L44.3276 31.159L45.8889 32.3018L46.4612 31.8454C47.8588 30.7267 49.3238 29.6946 50.8479 28.7548L51.4975 28.3519L50.0558 27.1222ZM127.741 28.2422C125.502 27.2187 123.217 26.2725 120.905 25.4035L119.966 25.0471L119.495 26.3366L120.438 26.6929C122.686 27.5338 124.906 28.4616 127.09 29.4544L128.006 29.8652L128.651 28.6539L127.741 28.2422ZM41.4523 33.7738L40.9536 34.2865C39.7534 35.5345 38.6369 36.8601 37.6113 38.2548L37.2034 38.8166L38.9528 39.7628L39.36 39.201C40.3586 37.843 41.4478 36.5539 42.6204 35.3424L43.1145 34.8254L41.4523 33.7738ZM140.647 35.1958C138.601 33.902 136.495 32.6766 134.347 31.5162L133.468 31.0449L132.644 32.1649L133.519 32.6363C135.616 33.7695 137.664 34.9641 139.663 36.2202L140.492 36.7459L141.481 35.7128L140.647 35.1958ZM35.2211 41.9572L34.9002 42.5655C34.1051 44.0494 33.4168 45.5879 32.8405 47.1693L32.6066 47.8136L34.4844 48.522L34.7217 47.8821C35.2773 46.3408 35.9445 44.842 36.7182 43.3976L37.048 42.7893L35.2211 41.9572ZM152.14 43.6214C150.363 42.1082 148.517 40.6467 146.6 39.237L145.821 38.6656L144.676 39.5846L145.46 40.156C147.323 41.528 149.113 42.9447 150.848 44.4211L151.563 45.039L152.863 44.2385L152.14 43.6214ZM31.5992 51.3563L31.462 52.0286C31.1162 53.7022 30.8868 55.3977 30.7755 57.103L30.7341 57.8069L32.6664 58.2511L32.7165 57.5462C32.8189 55.8887 33.0393 54.2405 33.3758 52.6141L33.513 51.9373L31.5992 51.3563ZM161.755 53.2083C160.326 51.5213 158.806 49.8799 157.213 48.2894L156.558 47.6398L155.13 48.3166L155.775 48.9705C157.332 50.5198 158.816 52.1111 160.207 53.7525L160.784 54.4337L162.341 53.8851L161.755 53.2083ZM33.44 67.8424C33.0946 66.1248 32.8576 64.3872 32.7306 62.6399L32.6796 61.9263L30.743 61.6155L30.7939 62.3379C30.9259 64.1327 31.1705 65.9175 31.5262 67.6817L31.673 68.4138L33.5771 68.5735L33.44 67.8424ZM169.127 63.5905C168.087 61.7981 166.965 60.0426 165.738 58.3283L165.244 57.6244L163.587 58.0264L164.085 58.7356C165.267 60.4086 166.37 62.1185 167.373 63.86L167.785 64.578L169.542 64.3085L169.127 63.5905ZM36.8553 78.3614L36.8282 78.3018C36.0676 76.6044 35.3982 74.8678 34.8228 73.0993L34.5758 72.3637L32.7024 72.3497L32.946 73.0808C33.5351 74.8989 34.2241 76.6832 35.0101 78.4255L35.0382 78.4843L35.3679 79.2208L37.185 79.0926L36.8553 78.3614ZM174.016 74.4844C173.421 72.6453 172.725 70.84 171.933 69.0765L171.874 68.9527L171.544 68.2172L169.717 68.3444L170.056 69.0765L170.11 69.2047C170.882 70.9186 171.56 72.6736 172.139 74.4616L172.372 75.2024L174.254 75.2164L174.016 74.4844ZM42.8173 88.7067C41.6314 87.0381 40.537 85.3315 39.5339 83.5868L39.1172 82.86L37.3687 83.1295L37.7854 83.8475C38.8062 85.6442 39.9418 87.3945 41.1593 89.1184L41.6544 89.8224L43.3114 89.4107L42.8173 88.7067ZM176.145 85.2282C176.022 83.433 175.782 81.6476 175.426 79.8835L175.285 79.1523L173.371 78.9926L173.512 79.7237C173.857 81.4411 174.091 83.1789 174.213 84.9262L174.259 85.639L176.195 85.9409L176.145 85.2282ZM51.1047 98.4762C49.5477 96.927 48.0763 95.3315 46.6906 93.6898L46.1043 93.0043L44.5571 93.5529L45.1293 94.234C46.5623 95.921 48.0778 97.5607 49.676 99.153L50.3213 99.8069L51.7641 99.1301L51.1047 98.4762ZM174.268 89.315L174.227 90.0102C174.115 91.6695 173.887 93.319 173.545 94.9467L173.407 95.6235L175.326 96.2046L175.463 95.5278C175.816 93.8552 176.047 92.1593 176.154 90.4535L176.21 89.7583L174.268 89.315ZM61.4198 107.299C59.5518 105.928 57.7555 104.504 56.031 103.026L55.3075 102.408L54.0205 103.217L54.7354 103.825C56.5119 105.347 58.357 106.809 60.2709 108.21L61.0533 108.786L62.1979 107.866L61.4198 107.299ZM172.436 99.0345L172.203 99.6787C171.639 101.217 170.967 102.714 170.193 104.159L169.863 104.763L171.69 105.595L172.011 104.991C172.811 103.508 173.503 101.97 174.08 100.387L174.309 99.7472L172.436 99.0345ZM73.3518 114.825C71.2455 113.696 69.1958 112.5 67.2026 111.236L66.378 110.71L65.3846 111.738L66.2224 112.269C68.2601 113.558 70.3617 114.784 72.5272 115.949L73.3931 116.416L74.2212 115.296L73.3518 114.825ZM167.945 107.784L167.542 108.347C166.541 109.706 165.449 110.995 164.273 112.205L163.778 112.721L165.445 113.769L165.935 113.261C167.142 112.016 168.263 110.69 169.291 109.293L169.708 108.735L167.945 107.784ZM86.4187 120.786C84.1708 119.936 81.955 119.012 79.771 118.015L78.8594 117.6L78.2097 118.811L79.1248 119.227C81.3639 120.246 83.641 121.194 85.9563 122.07L86.8908 122.422L87.3664 121.143L86.4187 120.786ZM161.008 115.236L160.432 115.698C159.031 116.813 157.565 117.843 156.04 118.783L155.391 119.182L156.828 120.416L157.479 120.009C159.045 119.045 160.551 117.987 161.988 116.841L162.565 116.388L161.008 115.236ZM100.155 124.942C97.8382 124.407 95.5254 123.794 93.2361 123.099L92.2796 122.811L92.0045 124.159L92.9618 124.448C95.3056 125.157 97.6727 125.787 100.063 126.341L101.034 126.565L101.121 125.161L100.155 124.942ZM151.856 121.101L151.132 121.435C149.389 122.26 147.603 122.992 145.78 123.625L144.997 123.894L146.156 125.262L146.929 124.992C148.807 124.336 150.649 123.582 152.447 122.733L153.156 122.4L151.856 121.101ZM114.975 127.2L114.019 127.122L114.014 127.118C111.706 126.925 109.404 126.643 107.1 126.285L106.139 126.134L106.244 127.57L107.206 127.721C109.568 128.092 111.935 128.378 114.307 128.581L115.264 128.658L114.975 127.2ZM140.83 125.129L140.002 125.335C138.037 125.815 135.998 126.217 133.885 126.542L133.006 126.674L133.839 128.115L134.709 127.982C136.874 127.653 138.981 127.237 141.009 126.743L141.838 126.537L140.83 125.129ZM128.373 127.182L127.465 127.241L127.424 127.246C125.236 127.397 123.034 127.456 120.826 127.438L119.883 127.428L120.364 128.9L121.299 128.906C123.569 128.928 125.833 128.861 128.089 128.704H128.12L129.027 128.64L128.373 127.182Z" fill="#71FFA9"/>
<path d="M150.671 84.2863L149.856 82.4623C146.169 75.4394 139.843 70.1633 132.265 67.7914C133.003 66.3573 133.39 64.7688 133.394 63.1565C133.398 61.5441 133.019 59.9538 132.288 58.5161L131.573 56.9291C128.888 52.1959 124.923 48.3128 120.131 45.7241C115.339 43.1354 109.915 41.9456 104.478 42.2907L102.508 42.4232L96.6248 29.2849L84.5695 30.1074L90.4535 43.2466L84.428 43.6582L78.5442 30.519L66.4936 31.3424L72.3764 44.4807L51.6816 45.8939L56.3101 56.2304L69.5837 55.3202L88.0587 96.5793L76.7447 97.3517L79.2538 107.835L100.114 106.413L105.823 119.163L117.874 118.34L112.164 105.59L118.19 105.179L123.899 117.929L135.956 117.106L130.246 104.355L136.221 103.949C148.661 103.098 155.143 94.2796 150.671 84.2863ZM135.566 102.481L127.768 103.012L133.482 115.766L125.067 116.342L119.353 103.587L109.688 104.246L115.402 117L106.995 117.576L101.281 104.821L80.7419 106.221L78.9512 98.714L90.5403 97.9232L70.7466 53.7297L57.4688 54.6346L54.1537 47.2334L74.8583 45.8202L68.9752 32.6818L77.3768 32.1051L83.2649 45.2443L92.9297 44.586L87.0468 31.4468L95.4571 30.871L101.341 44.0102L105.132 43.7495C110.073 43.4371 115.002 44.5189 119.356 46.8714C123.711 49.2239 127.315 52.7521 129.756 57.0529L130.465 58.639C131.189 60.0398 131.531 61.6058 131.457 63.1802C131.383 64.7545 130.896 66.2818 130.044 67.6088L129.541 68.3496L130.781 68.7376C134.449 69.7515 137.872 71.5027 140.838 73.8839C143.805 76.265 146.253 79.2259 148.033 82.5852L148.853 84.4092C152.964 93.594 147.003 101.699 135.566 102.481ZM125.054 77.5977C121.876 75.8409 118.269 75.0109 114.642 75.2023L97.2109 76.3908L106.433 96.9725L123.863 95.7841C130.928 95.2995 134.609 90.2884 132.068 84.6154C130.555 81.5776 128.093 79.1141 125.054 77.5977ZM123.203 94.3164L107.595 95.3812L99.6882 77.7259L115.297 76.6603C118.408 76.4998 121.502 77.2125 124.229 78.7178C126.836 80.0196 128.947 82.1328 130.246 84.7383C132.429 89.6073 129.266 93.9004 123.203 94.3164ZM114.926 57.9991C113.743 55.6216 111.817 53.693 109.44 52.5043C106.956 51.1293 104.136 50.4782 101.3 50.625L86.1448 51.6625L93.3561 67.7598L108.506 66.7267C114.032 66.3466 116.912 62.4335 114.926 57.9991ZM94.5279 66.1737L88.6309 53.002L101.955 52.0926C104.275 51.9734 106.583 52.5055 108.616 53.6287C110.561 54.6 112.137 56.1777 113.103 58.1228C114.729 61.748 112.38 64.9571 107.851 65.2634L94.5279 66.1737ZM132.068 84.6154C130.555 81.5776 128.093 79.1141 125.054 77.5977C121.876 75.8409 118.269 75.0109 114.642 75.2023L97.2109 76.3908L106.433 96.9725L123.863 95.7841C130.928 95.2995 134.609 90.2884 132.068 84.6154ZM123.203 94.3164L107.595 95.3812L99.6882 77.7259L115.297 76.6603C118.408 76.4998 121.502 77.2125 124.229 78.7178C126.836 80.0196 128.947 82.1328 130.246 84.7383C132.429 89.6073 129.266 93.9004 123.203 94.3164ZM114.926 57.9991C113.743 55.6216 111.817 53.693 109.44 52.5043C106.956 51.1293 104.136 50.4782 101.3 50.625L86.1448 51.6625L93.3561 67.7598L108.506 66.7267C114.032 66.3466 116.912 62.4335 114.926 57.9991ZM94.5279 66.1737L88.6309 53.002L101.955 52.0926C104.275 51.9734 106.583 52.5055 108.616 53.6287C110.561 54.6 112.137 56.1777 113.103 58.1228C114.729 61.748 112.38 64.9571 107.851 65.2634L94.5279 66.1737ZM114.926 57.9991C113.743 55.6216 111.817 53.693 109.44 52.5043C106.956 51.1293 104.136 50.4782 101.3 50.625L86.1448 51.6625L93.3561 67.7598L108.506 66.7267C114.032 66.3466 116.912 62.4335 114.926 57.9991ZM107.851 65.2634L94.5279 66.1737L88.6309 53.002L101.955 52.0926C104.275 51.9734 106.583 52.5055 108.616 53.6287C110.561 54.6 112.137 56.1777 113.103 58.1228C114.729 61.748 112.38 64.9571 107.851 65.2634ZM132.068 84.6154C130.555 81.5776 128.093 79.1141 125.054 77.5977C121.876 75.8409 118.269 75.0109 114.642 75.2023L97.2109 76.3908L106.433 96.9725L123.863 95.7841C130.928 95.2995 134.609 90.2884 132.068 84.6154ZM123.203 94.3164L107.595 95.3812L99.6882 77.7259L115.297 76.6603C118.408 76.4998 121.502 77.2125 124.229 78.7178C126.836 80.0196 128.947 82.1328 130.246 84.7383C132.429 89.6073 129.266 93.9004 123.203 94.3164Z" fill="#71FFA9"/>
</svg>
