<svg width="145" height="108" viewBox="0 0 145 108" fill="none" xmlns="http://www.w3.org/2000/svg">
<path d="M135.157 9.9624L143.415 25.0204C144.926 28.9557 145.367 33.2205 144.693 37.3811C144.019 41.5418 142.253 45.45 139.576 48.7085C124.639 73.0673 84.3623 98.5566 49.7857 105.531C29.0892 109.706 15.0562 106.314 10.3284 97.6937L2.07019 82.6357C6.79797 91.2562 20.831 94.6479 41.5275 90.4733C76.1043 83.4986 116.381 58.0102 131.318 33.6514C133.995 30.3927 135.76 26.4843 136.435 22.3235C137.109 18.1627 136.668 13.8979 135.157 9.9624Z" fill="#36AB65"/>
<path d="M95.6998 2.12676C130.277 -4.84793 146.252 9.29541 131.317 33.6524C116.38 58.0111 76.1041 83.4995 41.5272 90.4742C6.9544 97.448 -9.02686 83.3073 5.90986 58.9486C20.8441 34.5925 61.1267 9.10056 95.6998 2.12676Z" fill="#71FFA9"/>
<path d="M94.3469 4.33254C61.4458 10.9684 23.2544 35.1376 9.04214 58.3157C-5.16933 81.4939 9.98275 94.899 42.8837 88.2623C75.7786 81.6264 113.967 57.4625 128.179 34.2844C142.391 11.1062 127.242 -2.30333 94.3469 4.33254Z" fill="#49D581"/>
<path d="M92.5856 7.20564C61.9825 13.3816 26.3386 35.9382 13.1197 57.4934C-0.0983715 79.0486 14.0445 91.5654 44.6475 85.3939C75.2471 79.218 110.891 56.6613 124.109 35.1061C137.323 13.5509 123.185 1.0341 92.5856 7.20564ZM122.855 35.358C109.939 56.4234 75.0907 78.4771 45.1882 84.5073C15.2761 90.5419 1.45412 78.3077 14.3742 57.2423C27.2951 36.1717 62.138 14.1224 92.0458 8.08777C121.949 2.05756 135.776 14.2874 122.855 35.358Z" fill="#38B46A"/>
<path d="M112.458 22.7488L87.6564 18.8086C87.5725 18.7956 87.4869 18.7986 87.4041 18.8173C87.3234 18.8362 87.2441 18.8605 87.1668 18.8902L47.7586 34.4932C47.4869 34.5957 47.2479 34.7694 47.0668 34.9962C46.9437 35.184 46.9894 35.3253 47.1767 35.3578L71.9795 39.3025C72.0635 39.3117 72.1483 39.3072 72.2309 39.2893C72.3138 39.272 72.395 39.2474 72.4735 39.2156L111.886 23.6125C112.156 23.512 112.392 23.338 112.568 23.1104C112.692 22.9226 112.655 22.776 112.458 22.7488ZM72.8544 38.3194L49.3928 34.5898L86.7817 19.7864L110.242 23.5169L72.8544 38.3194Z" fill="#71FFA9"/>
<path d="M69.1793 41.1545L46.3413 37.5197C46.2574 37.5072 46.1718 37.5101 46.089 37.5285C45.9509 37.5615 45.8172 37.6107 45.6907 37.675C45.472 37.7751 45.284 37.9314 45.1457 38.128L26.1405 69.1234C26.0309 69.3016 26.0764 69.4385 26.2595 69.4666L49.1016 73.0961C49.1859 73.1046 49.2711 73.0998 49.3539 73.0821C49.4925 73.0533 49.6265 73.0058 49.7522 72.9408C49.9682 72.8365 50.1553 72.681 50.2972 72.4879L69.3024 41.4968C69.4123 41.3186 69.3622 41.1817 69.1793 41.1545ZM49.4269 72.0262L27.6376 68.566L46.016 38.5897L67.8055 42.0551L49.4269 72.0262Z" fill="#71FFA9"/>
<path d="M110.968 25.3224C110.859 25.2908 110.743 25.2893 110.633 25.3181C110.552 25.3345 110.473 25.3574 110.395 25.3865L75.8724 39.0603C75.5968 39.1622 75.3568 39.3418 75.1814 39.5773L66.9261 53.036C66.8206 53.2098 66.8617 53.3423 67.0404 53.3739L90.519 57.7083C90.6077 57.7211 90.698 57.7163 90.7848 57.6942C90.9184 57.6673 91.0478 57.6227 91.1696 57.5617C91.3894 57.4577 91.5798 57.3005 91.7234 57.1044L111.008 25.6472C111.101 25.4962 111.086 25.3734 110.968 25.3224ZM90.8628 56.6242L68.4185 52.483L76.2935 39.6413L109.291 26.575L90.8628 56.6242Z" fill="#71FFA9"/>
</svg>
