<svg width="26" height="25" viewBox="0 0 26 25" fill="none" xmlns="http://www.w3.org/2000/svg">
<path d="M26 11.7204C26 18.1933 20.1793 23.4407 13 23.4407C11.7124 23.4425 10.4302 23.2703 9.18612 22.9284C8.23712 23.424 6.058 24.375 2.392 24.9945C2.067 25.0481 1.82 24.6998 1.94837 24.3884C2.52362 22.9886 3.04362 21.1234 3.19963 19.4223C1.209 17.3629 0 14.6672 0 11.7204C0 5.24737 5.82075 0 13 0C20.1793 0 26 5.24737 26 11.7204ZM8.125 11.7204C8.125 11.2763 7.95379 10.8504 7.64905 10.5364C7.3443 10.2224 6.93098 10.046 6.5 10.046C6.06902 10.046 5.6557 10.2224 5.35095 10.5364C5.0462 10.8504 4.875 11.2763 4.875 11.7204C4.875 12.1644 5.0462 12.5903 5.35095 12.9043C5.6557 13.2183 6.06902 13.3947 6.5 13.3947C6.93098 13.3947 7.3443 13.2183 7.64905 12.9043C7.95379 12.5903 8.125 12.1644 8.125 11.7204ZM14.625 11.7204C14.625 11.2763 14.4538 10.8504 14.149 10.5364C13.8443 10.2224 13.431 10.046 13 10.046C12.569 10.046 12.1557 10.2224 11.851 10.5364C11.5462 10.8504 11.375 11.2763 11.375 11.7204C11.375 12.1644 11.5462 12.5903 11.851 12.9043C12.1557 13.2183 12.569 13.3947 13 13.3947C13.431 13.3947 13.8443 13.2183 14.149 12.9043C14.4538 12.5903 14.625 12.1644 14.625 11.7204ZM19.5 13.3947C19.931 13.3947 20.3443 13.2183 20.649 12.9043C20.9538 12.5903 21.125 12.1644 21.125 11.7204C21.125 11.2763 20.9538 10.8504 20.649 10.5364C20.3443 10.2224 19.931 10.046 19.5 10.046C19.069 10.046 18.6557 10.2224 18.351 10.5364C18.0462 10.8504 17.875 11.2763 17.875 11.7204C17.875 12.1644 18.0462 12.5903 18.351 12.9043C18.6557 13.2183 19.069 13.3947 19.5 13.3947Z" fill="white"/>
</svg>
