<svg width="143" height="48" viewBox="0 0 143 48" fill="none" xmlns="http://www.w3.org/2000/svg">
<g clip-path="url(#clip0_147_85)">
<path d="M101.908 37.0055V0H109.292V37.0055H101.908Z" fill="#F7A600"/>
<path d="M15.8616 47.9943H0.0343323V10.9945H15.2267C22.6055 10.9945 26.9126 15.0512 26.9126 21.3897C26.9126 25.4982 24.1499 28.1431 22.2337 29.0305C24.5159 30.0677 27.4389 32.4072 27.4389 37.3455C27.4389 44.2488 22.6055 47.9943 15.8616 47.9943ZM14.6432 17.4425H7.41313V25.965H14.6432C17.7778 25.965 19.5338 24.2478 19.5338 21.7009C19.5338 19.1539 17.7778 17.4425 14.6432 17.4425ZM15.118 32.4591H7.41313V41.552H15.1123C18.4642 41.552 20.0543 39.4718 20.0543 36.9767C20.0543 34.4817 18.4585 32.4591 15.118 32.4591Z" fill="white"/>
<path d="M49.9585 32.8164V47.9943H42.6255V32.8164L31.2598 10.9945H39.285L46.3435 25.9074L53.3047 10.9945H61.3241L49.9585 32.8164Z" fill="white"/>
<path d="M82.2536 47.9943H66.4264V10.9945H81.6187C88.9975 10.9945 93.3047 15.0512 93.3047 21.3897C93.3047 25.4982 90.5419 28.1431 88.6257 29.0305C90.908 30.0677 93.8309 32.4072 93.8309 37.3455C93.8309 44.2488 89.0032 47.9943 82.2536 47.9943ZM81.0353 17.4425H73.8109V25.965H81.0353C84.1698 25.965 85.9259 24.2478 85.9259 21.7009C85.9201 19.1539 84.1641 17.4425 81.0353 17.4425ZM81.51 32.4591H73.8109V41.552H81.51C84.8619 41.552 86.4521 39.4718 86.4521 36.9767C86.4521 34.4817 84.8562 32.4591 81.51 32.4591Z" fill="white"/>
<path d="M133.087 17.4425V48H125.703V17.4425H115.824V10.9945H142.966V17.4425H133.087Z" fill="white"/>
</g>
<defs>
<clipPath id="clip0_147_85">
<rect width="143" height="48" fill="white"/>
</clipPath>
</defs>
</svg>
