<svg width="237" height="47" viewBox="0 0 237 47" fill="none" xmlns="http://www.w3.org/2000/svg">
<g clip-path="url(#clip0_147_63)">
<path d="M14.3138 19.7498L23.5341 10.6227L32.7593 19.7546L38.1243 14.4436L23.5341 0L8.94879 14.4388L14.3138 19.7498Z" fill="#F3BA2F"/>
<path d="M10.5251 23.4991L5.16016 18.1882L-0.205022 23.4994L5.15989 28.8103L10.5251 23.4991Z" fill="#F3BA2F"/>
<path d="M14.3138 27.2502L23.5341 36.3773L32.7589 27.2457L38.1269 32.5537L38.1243 32.5567L23.5341 47L8.94842 32.5615L8.94092 32.5541L14.3138 27.2502Z" fill="#F3BA2F"/>
<path d="M41.9086 28.8129L47.2737 23.5017L41.9088 18.1908L36.5436 23.502L41.9086 28.8129Z" fill="#F3BA2F"/>
<path d="M28.976 23.4972H28.9782L23.5341 18.1079L19.5108 22.0907H19.5104L19.0484 22.5484L18.0948 23.4924L18.0873 23.4998L18.0948 23.5076L23.5341 28.8921L28.9782 23.5028L28.9808 23.4998L28.976 23.4972Z" fill="#F3BA2F"/>
<path d="M55.6375 11.3885H67.3061C70.2022 11.3885 72.3921 12.1243 73.8764 13.5958C75.025 14.7354 75.5991 16.1479 75.5991 17.8329V17.9041C75.5991 18.6161 75.5102 19.2453 75.3313 19.791C75.1528 20.3374 74.9143 20.8293 74.6162 21.2685C74.3189 21.708 73.9731 22.0937 73.5801 22.4255C73.1868 22.7581 72.7641 23.0432 72.3115 23.2801C73.7672 23.8265 74.9132 24.5678 75.7487 25.5055C76.5838 26.4436 77.0019 27.7432 77.0019 29.4044V29.4753C77.0019 30.6149 76.7807 31.6116 76.3378 32.4666C75.8949 33.3207 75.2605 34.0331 74.4343 34.6029C73.6082 35.1727 72.6149 35.5996 71.4539 35.8847C70.2929 36.1694 69.0063 36.3116 67.5945 36.3116H55.6375V11.3885ZM66.1395 21.4645C67.3628 21.4645 68.334 21.2573 69.0528 20.8416C69.7721 20.4262 70.1317 19.7554 70.1317 18.8299V18.7587C70.1317 17.9283 69.8197 17.2935 69.1965 16.854C68.5729 16.4148 67.6736 16.1951 66.4992 16.1951H61.0321V21.4645H66.1395ZM67.6144 31.5055C68.8372 31.5055 69.7957 31.2865 70.4917 30.8469C71.1869 30.4078 71.5349 29.7251 71.5349 28.7993V28.7284C71.5349 27.8976 71.2109 27.2391 70.5637 26.7521C69.9161 26.2661 68.8732 26.0226 67.4344 26.0226H61.0321V31.5058L67.6144 31.5055Z" fill="#F3BA2F"/>
<path d="M83.9513 11.3885H89.4906V36.3123H83.9513V11.3885Z" fill="#F3BA2F"/>
<path d="M97.8803 11.3885H102.987L114.785 26.7346V11.3885H120.252V36.3123H115.54L103.347 20.4681V36.3123H97.8803V11.3885Z" fill="#F3BA2F"/>
<path d="M137.021 11.2107H142.128L152.919 36.3123H147.128L144.826 30.7225H134.18L131.878 36.3123H126.23L137.021 11.2107ZM142.848 25.8797L139.503 17.7975L136.158 25.8797H142.848Z" fill="#F3BA2F"/>
<path d="M158.898 11.3885H164.006L175.803 26.7346V11.3885H181.27V36.3123H176.558L164.365 20.4681V36.3123H158.898V11.3885Z" fill="#F3BA2F"/>
<path d="M201.204 36.7393C199.357 36.7393 197.644 36.4067 196.061 35.7426C194.478 35.0785 193.111 34.1701 191.961 33.0186C190.809 31.8674 189.91 30.5084 189.263 28.9419C188.616 27.375 188.292 25.7015 188.292 23.9212V23.8503C188.292 22.0699 188.616 20.4028 189.263 18.8478C189.91 17.2931 190.809 15.9282 191.961 14.7533C193.111 13.5784 194.49 12.6522 196.096 11.9758C197.702 11.2995 199.478 10.9613 201.42 10.9613C202.594 10.9613 203.667 11.0567 204.638 11.246C205.609 11.4365 206.49 11.6971 207.282 12.0293C208.074 12.3619 208.804 12.7654 209.477 13.2398C210.147 13.715 210.771 14.2369 211.346 14.8067L207.822 18.83C206.838 17.952 205.837 17.2631 204.819 16.7649C203.799 16.2667 202.655 16.0173 201.384 16.0173C200.328 16.0173 199.351 16.2192 198.453 16.6227C197.554 17.0262 196.78 17.5838 196.132 18.2958C195.485 19.0078 194.982 19.833 194.621 20.7703C194.263 21.7084 194.083 22.711 194.083 23.779V23.8499C194.083 24.9179 194.263 25.9272 194.621 26.8761C194.982 27.826 195.478 28.6564 196.115 29.3684C196.75 30.0804 197.517 30.6446 198.416 31.06C199.316 31.4758 200.305 31.6829 201.384 31.6829C202.823 31.6829 204.039 31.422 205.034 30.8997C206.029 30.3781 207.019 29.6658 208.002 28.7633L211.526 32.2884C210.879 32.977 210.206 33.5943 209.512 34.1396C208.817 34.6861 208.056 35.1546 207.228 35.5466C206.401 35.9378 205.495 36.2352 204.513 36.4364C203.529 36.6379 202.427 36.7393 201.204 36.7393Z" fill="#F3BA2F"/>
<path d="M218.045 11.3885H237V16.2667H223.513V21.3227H235.382V26.2004H223.513V31.4346H237.181V36.3123H218.045V11.3885Z" fill="#F3BA2F"/>
</g>
<defs>
<clipPath id="clip0_147_63">
<rect width="237" height="47" fill="white"/>
</clipPath>
</defs>
</svg>
