<svg width="238" height="45" viewBox="0 0 238 45" fill="none" xmlns="http://www.w3.org/2000/svg">
<g clip-path="url(#clip0_147_95)">
<path d="M0 13.0453H7.8064L14.2038 31.2158L21.0773 13.0453H25.8563L32.6155 31.0074L39.013 13.0453H46.8765L35.2906 44.9527H30.2355L23.4382 26.8011L16.4696 44.9527H11.4811L0 13.0453Z" fill="white"/>
<path d="M51.4175 -0.0473633H59.3382V17.0811C60.8995 15.7358 62.4607 14.7316 64.0411 14.059C65.6214 13.3863 67.2112 13.0547 68.8296 13.0547C71.9903 13.0547 74.5987 14.1063 76.8074 16.3326C78.6543 18.2274 79.5872 21.0032 79.5872 24.66V44.9621H71.7237V31.7274C71.7237 28.0421 71.5523 25.5505 71.2001 24.2432C70.8479 22.9358 70.2481 21.96 69.4008 21.3253C68.5535 20.6811 67.5063 20.359 66.2592 20.359C64.6408 20.359 63.2509 20.899 62.0895 21.9695C60.928 23.04 60.1283 24.5084 59.6809 26.3558C59.4429 27.3126 59.3287 29.4916 59.3287 32.9021V44.9621H51.408L51.4175 -0.0473633Z" fill="white"/>
<path d="M90.4114 13.0453C88.1647 13.0453 86.4225 14.8927 86.4225 17.0527V44.9527H94.4003V17.0432C94.4003 14.8927 92.6581 13.0453 90.4114 13.0453Z" fill="white"/>
<path d="M110.594 13.0453V-0.0473633H102.616V44.9526H110.594V19.9895H115.325V13.0453H110.594Z" fill="white"/>
<path fill-rule="evenodd" clip-rule="evenodd" d="M150.587 31.1968H126.169C126.521 33.3568 127.463 35.0716 128.996 36.341C130.529 37.6105 132.48 38.2547 134.86 38.2547C137.697 38.2547 140.144 37.26 142.181 35.2705L148.588 38.2831C146.989 40.5473 145.075 42.2337 142.848 43.3231C140.62 44.4126 137.973 44.9526 134.908 44.9526C130.157 44.9526 126.283 43.4558 123.293 40.4431C120.304 37.44 118.81 33.6789 118.81 29.16C118.81 24.5274 120.304 20.681 123.284 17.621C126.264 14.561 129.996 13.0358 134.489 13.0358C139.259 13.0358 143.143 14.5705 146.132 17.621C149.121 20.681 150.616 24.7168 150.616 29.7379L150.587 31.1968ZM142.99 25.2C142.486 23.5042 141.496 22.1305 140.02 21.0695C138.545 20.0084 136.821 19.4779 134.87 19.4779C132.747 19.4779 130.89 20.0747 129.291 21.2589C128.291 22.0073 127.359 23.3147 126.502 25.1905H142.99V25.2Z" fill="white"/>
<path d="M90.3352 -0.0473633C91.7823 -0.0473633 93.0199 0.46422 94.048 1.49685C95.0857 2.52948 95.5998 3.77054 95.5998 5.23896C95.5998 6.67896 95.0857 7.91054 94.0671 8.93369C93.0484 9.95685 91.8204 10.459 90.3924 10.459C88.9263 10.459 87.6792 9.9379 86.6415 8.90527C85.6038 7.86316 85.0897 6.60316 85.0897 5.1158C85.0897 3.69474 85.6038 2.47264 86.6224 1.46843C87.6506 0.454742 88.8882 -0.0473633 90.3352 -0.0473633Z" fill="#F2D080"/>
<path d="M200.091 -0.0473633H208.45V44.9526H200.091V-0.0473633ZM213.553 -0.0473633H238V8.39369H229.946V44.9526H221.407V8.39369H213.562L213.553 -0.0473633Z" fill="#F2D080"/>
<path d="M173.645 16.5695L172.778 18.18C172.674 18.379 172.598 18.5305 172.569 18.6347C172.54 18.7389 172.521 18.8432 172.521 18.9474C172.521 19.2221 172.626 19.4684 172.836 19.6768C173.045 19.8853 173.321 19.999 173.635 19.999C173.94 19.999 174.206 19.8947 174.416 19.6958C174.635 19.4969 174.74 19.2411 174.74 18.9474C174.74 18.6442 174.635 18.3884 174.425 18.18C174.264 18.019 174.073 17.9242 173.864 17.8863L174.378 16.92L173.645 16.5695ZM173.902 18.9284C173.902 19.0137 173.873 19.08 173.826 19.1368C173.711 19.2411 173.559 19.2505 173.445 19.1368C173.388 19.08 173.359 19.0137 173.359 18.9284C173.359 18.8432 173.388 18.7768 173.435 18.72C173.483 18.6726 173.54 18.6442 173.616 18.6442C173.702 18.6442 173.759 18.6726 173.816 18.72C173.873 18.7768 173.902 18.8432 173.902 18.9284ZM177.738 4.14948L176.348 6.12L176.329 6.14843V6.83053H177.7V7.44632H178.538V6.83053H178.814V6.06316H178.538V4.14L177.738 4.14948ZM177.348 6.07263L177.691 5.58948V6.07263H177.348ZM159.498 32.1537L160.64 29.9274H159.403V29.1505H161.716L161.707 29.6242L160.241 32.4947L159.498 32.1537ZM173.854 39.8842C173.921 39.8179 173.959 39.7326 173.959 39.6189C173.959 39.5147 173.93 39.4295 173.864 39.3632C173.769 39.2684 173.654 39.24 173.511 39.3063C173.464 39.3347 173.407 39.3726 173.359 39.42L173.312 39.4674L172.636 39.3253L173.064 37.4495H174.759V38.2169H173.711L173.645 38.4821C173.654 38.4821 173.664 38.4821 173.683 38.4821C173.997 38.4821 174.273 38.5863 174.483 38.7947C174.692 39.0032 174.797 39.2684 174.797 39.5905C174.797 39.9126 174.682 40.1874 174.444 40.4147C174.216 40.6326 173.93 40.7463 173.597 40.7463C173.302 40.7463 173.045 40.6611 172.826 40.5C172.607 40.339 172.464 40.1116 172.407 39.8368L172.369 39.6853H173.235L173.273 39.7516C173.312 39.8274 173.359 39.8747 173.416 39.9126C173.559 40.0169 173.74 39.9979 173.854 39.8842ZM173.464 23.8358C173.683 23.6368 173.788 23.3811 173.788 23.0874C173.788 22.7842 173.683 22.5284 173.473 22.32C173.312 22.159 173.121 22.0642 172.912 22.0263L173.426 21.06L172.693 20.7095L171.826 22.32C171.722 22.519 171.646 22.6705 171.617 22.7747C171.588 22.879 171.569 22.9832 171.569 23.0874C171.569 23.3621 171.674 23.6084 171.884 23.8169C172.093 24.0253 172.369 24.139 172.683 24.139C172.988 24.139 173.245 24.0347 173.464 23.8358ZM172.407 23.0779C172.407 22.9926 172.436 22.9263 172.483 22.8695C172.531 22.8126 172.588 22.7937 172.664 22.7937C172.75 22.7937 172.807 22.8221 172.864 22.8695C172.921 22.9263 172.94 22.9832 172.94 23.0684C172.94 23.1537 172.912 23.22 172.864 23.2768C172.759 23.3811 172.598 23.3905 172.483 23.2768C172.436 23.2295 172.407 23.1632 172.407 23.0779ZM190.724 32.3716V31.7558H191V30.9884H190.724V29.0653H189.933L188.544 31.0358L188.525 31.0642V31.7463H189.895V32.3621L190.724 32.3716ZM189.543 30.9884L189.886 30.5053V30.9884H189.543ZM170.903 24.0158C171.074 23.9305 171.217 23.8074 171.322 23.6368C171.427 23.4663 171.474 23.2863 171.474 23.0969C171.474 22.9169 171.427 22.7463 171.341 22.5947C171.274 22.4811 171.189 22.3863 171.084 22.3011C171.16 22.2158 171.208 22.14 171.246 22.0642C171.293 21.96 171.322 21.8463 171.322 21.7137C171.322 21.5432 171.274 21.3726 171.189 21.2305C171.093 21.079 170.97 20.9558 170.808 20.88C170.494 20.719 170.027 20.719 169.713 20.88C169.551 20.9653 169.418 21.079 169.332 21.2211C169.237 21.3726 169.199 21.5337 169.199 21.7042C169.199 21.8368 169.227 21.96 169.275 22.0737C169.313 22.1495 169.361 22.2253 169.418 22.3011C169.313 22.3958 169.228 22.4905 169.161 22.6042C169.085 22.7558 169.037 22.9168 169.037 23.0874C169.037 23.2863 169.085 23.4758 169.189 23.6368C169.294 23.7979 169.427 23.9305 169.599 24.0063C169.761 24.0821 169.989 24.12 170.256 24.12C170.522 24.139 170.732 24.1011 170.903 24.0158ZM170.408 21.9221C170.332 21.9979 170.179 22.0074 170.094 21.9221C170.046 21.8842 170.027 21.8274 170.027 21.7611C170.027 21.6947 170.046 21.6474 170.084 21.6095C170.122 21.5716 170.17 21.5526 170.237 21.5526C170.313 21.5526 170.36 21.5716 170.408 21.6095C170.446 21.6474 170.465 21.6947 170.465 21.7516C170.465 21.8274 170.446 21.8747 170.408 21.9221ZM169.989 22.8505C170.065 22.7842 170.151 22.7558 170.265 22.7558C170.37 22.7558 170.456 22.7842 170.532 22.8505C170.598 22.9168 170.636 22.9832 170.636 23.0684C170.636 23.1537 170.608 23.2295 170.541 23.2768C170.418 23.3905 170.122 23.3905 169.989 23.2674C169.922 23.2105 169.894 23.1347 169.894 23.0495C169.884 22.9737 169.913 22.9074 169.989 22.8505ZM178.205 40.68V38.2263H177.462L177.967 37.4495H179.052V40.68H178.205ZM167.79 38.4347C167.609 38.6053 167.523 38.8137 167.523 39.0695C167.523 39.2495 167.562 39.4011 167.638 39.5432C167.714 39.6758 167.828 39.78 167.971 39.8558C168.237 39.9979 168.609 40.0074 168.885 39.8937C169.009 39.8368 169.161 39.7326 169.323 39.5811L169.418 39.4958L169.999 40.0737L169.913 40.159C169.665 40.3863 169.437 40.5474 169.218 40.6326C168.999 40.7179 168.742 40.7653 168.466 40.7653C167.942 40.7653 167.514 40.6042 167.181 40.2916C166.847 39.979 166.676 39.5621 166.676 39.0695C166.676 38.7474 166.752 38.4632 166.905 38.2169C167.057 37.9705 167.276 37.7621 167.561 37.6105C168.076 37.3358 168.713 37.3074 169.275 37.5537C169.532 37.6674 169.751 37.819 169.941 38.0274L170.018 38.1126L169.418 38.6526L169.332 38.5674C169.075 38.3021 168.79 38.179 168.466 38.179C168.19 38.1695 167.971 38.2547 167.79 38.4347ZM171.198 40.7558C171.503 40.7558 171.769 40.6516 171.979 40.4526C172.198 40.2537 172.302 39.9979 172.302 39.7042C172.302 39.4011 172.198 39.1453 171.988 38.9368C171.826 38.7758 171.636 38.6811 171.427 38.6432L171.941 37.6768L171.208 37.3263L170.341 38.9368C170.237 39.1358 170.16 39.2874 170.132 39.3916C170.103 39.4958 170.084 39.6 170.084 39.7042C170.084 39.979 170.189 40.2253 170.398 40.4337C170.608 40.6516 170.884 40.7558 171.198 40.7558ZM170.922 39.6947C170.922 39.6095 170.951 39.5432 170.998 39.4863C171.046 39.4295 171.103 39.4105 171.179 39.4105C171.255 39.4105 171.322 39.439 171.379 39.4863C171.436 39.5432 171.455 39.6 171.455 39.6853C171.455 39.7705 171.427 39.8368 171.379 39.8937C171.265 39.9979 171.112 40.0074 170.998 39.8937C170.951 39.8463 170.922 39.78 170.922 39.6947ZM179.985 40.4621L181.127 38.2358H179.89V37.459H182.203L182.194 37.9326L180.728 40.8032L179.985 40.4621ZM176.015 22.5758C176.12 22.3769 176.196 22.2253 176.225 22.1305C176.253 22.0263 176.272 21.9221 176.272 21.8179C176.272 21.5432 176.168 21.2968 175.958 21.0884C175.749 20.88 175.473 20.7663 175.158 20.7663C174.854 20.7663 174.597 20.8705 174.378 21.0695C174.159 21.2684 174.054 21.5242 174.054 21.8179C174.054 22.1211 174.159 22.3769 174.368 22.5758C174.53 22.7369 174.721 22.8316 174.939 22.8695L174.416 23.8358L175.149 24.1863L176.015 22.5758ZM175.435 21.8274C175.435 21.9126 175.406 21.979 175.358 22.0263C175.254 22.1305 175.082 22.1211 174.978 22.0263C174.92 21.9695 174.892 21.9032 174.892 21.8274C174.892 21.7421 174.92 21.6758 174.978 21.6189C175.035 21.5621 175.092 21.5432 175.168 21.5432C175.235 21.5432 175.292 21.5716 175.349 21.6189C175.406 21.6758 175.435 21.7421 175.435 21.8274ZM171.417 19.1179C171.484 19.0516 171.522 18.9663 171.522 18.8526C171.522 18.7484 171.493 18.6632 171.427 18.5969C171.331 18.5021 171.217 18.4737 171.074 18.54C171.027 18.5684 170.97 18.6063 170.922 18.6537L170.874 18.7011L170.199 18.559L170.627 16.6832H172.321V17.4505H171.274L171.208 17.7158C171.217 17.7158 171.236 17.7158 171.246 17.7158C171.569 17.7158 171.836 17.82 172.045 18.0284C172.255 18.2369 172.36 18.5021 172.36 18.8242C172.36 19.1463 172.245 19.4211 172.007 19.6484C171.779 19.8758 171.493 19.98 171.16 19.98C170.865 19.98 170.608 19.9042 170.389 19.7337C170.17 19.5726 170.027 19.3453 169.97 19.0705L169.932 18.9189H170.798L170.836 18.9853C170.874 19.0611 170.922 19.1084 170.979 19.1463C171.112 19.2505 171.303 19.2316 171.417 19.1179ZM189.772 26.64C189.772 27.0568 189.819 27.36 189.914 27.5969C190.01 27.8337 190.152 28.0137 190.333 28.1274C190.514 28.2411 190.743 28.3074 191 28.3074C191.266 28.3074 191.485 28.2505 191.657 28.1274C191.828 28.0137 191.971 27.8242 192.066 27.5874C192.171 27.3505 192.209 27.0284 192.209 26.6211C192.209 26.2137 192.161 25.8916 192.066 25.6547C191.971 25.4084 191.818 25.2284 191.638 25.1053C191.447 24.9821 191.228 24.9253 190.971 24.9253C190.581 24.9253 190.267 25.0769 190.038 25.38C189.867 25.6453 189.772 26.0621 189.772 26.64ZM190.628 26.6495C190.628 26.3747 190.647 26.1568 190.686 26.0242C190.714 25.9011 190.762 25.8158 190.819 25.7684C190.876 25.7305 190.933 25.7021 191 25.7021C191.066 25.7021 191.162 25.7211 191.247 25.8632C191.304 25.9484 191.371 26.1569 191.371 26.6116C191.371 26.9716 191.323 27.2368 191.238 27.379C191.162 27.5116 191.066 27.5211 191 27.5211C190.933 27.5211 190.838 27.5021 190.743 27.36C190.695 27.2842 190.628 27.0853 190.628 26.6495ZM160.479 8.26105L159.612 9.87158C159.508 10.0705 159.431 10.2221 159.403 10.3263C159.374 10.4305 159.355 10.5347 159.355 10.639C159.355 10.9137 159.46 11.16 159.669 11.3684C159.879 11.5768 160.155 11.6905 160.469 11.6905C160.774 11.6905 161.04 11.5863 161.25 11.3874C161.469 11.1884 161.573 10.9326 161.573 10.639C161.573 10.3358 161.469 10.08 161.259 9.87158C161.097 9.71053 160.907 9.61579 160.698 9.5779L161.212 8.61159L160.479 8.26105ZM160.736 10.62C160.736 10.7053 160.707 10.7716 160.659 10.8284C160.545 10.9326 160.393 10.9421 160.279 10.8284C160.222 10.7716 160.193 10.7053 160.193 10.62C160.193 10.5347 160.222 10.4684 160.269 10.4116C160.317 10.3642 160.374 10.3358 160.45 10.3358C160.536 10.3358 160.593 10.3642 160.65 10.4116C160.717 10.4684 160.736 10.5347 160.736 10.62ZM160.745 19.1274C160.812 19.0611 160.84 18.9947 160.84 18.9C160.84 18.8053 160.793 18.72 160.707 18.6537C160.602 18.5779 160.45 18.54 160.25 18.54H160.126V17.82L160.241 17.8105C160.402 17.8011 160.479 17.7726 160.517 17.7537C160.564 17.7347 160.602 17.7063 160.631 17.6684C160.66 17.6305 160.669 17.5926 160.669 17.5547C160.669 17.5074 160.65 17.4695 160.621 17.4411C160.602 17.4221 160.564 17.3937 160.479 17.3937C160.421 17.3937 160.374 17.4126 160.326 17.4411C160.279 17.4695 160.25 17.5168 160.231 17.5737L160.203 17.659H159.393L159.412 17.5263C159.441 17.28 159.546 17.0811 159.698 16.9295C159.917 16.7211 160.184 16.6168 160.507 16.6168C160.793 16.6168 161.04 16.7021 161.24 16.8821C161.44 17.0621 161.545 17.28 161.545 17.5263C161.545 17.6874 161.497 17.8295 161.412 17.9526C161.364 18.019 161.307 18.0758 161.24 18.1232C161.354 18.18 161.44 18.2558 161.516 18.3505C161.64 18.5116 161.707 18.6916 161.707 18.9C161.707 19.2032 161.592 19.459 161.354 19.6674C161.126 19.8758 160.831 19.98 160.479 19.98C160.136 19.98 159.86 19.8853 159.641 19.6863C159.422 19.4874 159.308 19.2221 159.289 18.8905L159.279 18.7579H160.117L160.136 18.8621C160.155 18.9853 160.203 19.08 160.269 19.1368C160.374 19.2505 160.612 19.2505 160.745 19.1274ZM168.009 5.51368C168.076 5.39053 168.114 5.28632 168.114 5.20106C168.114 5.1158 168.085 5.04948 168.028 5.00212C167.914 4.8979 167.714 4.88843 167.581 5.02106C167.514 5.08737 167.485 5.19158 167.476 5.31474V5.42843H166.638L166.648 5.30527C166.667 4.95474 166.781 4.67053 167 4.46211C167.219 4.25369 167.504 4.14948 167.847 4.14948C168.057 4.14948 168.247 4.18737 168.409 4.28211C168.571 4.36737 168.704 4.49053 168.809 4.66105C168.904 4.82211 168.961 4.99264 168.961 5.16316C168.961 5.35264 168.904 5.57053 168.79 5.78842C168.675 6.00632 168.485 6.25263 168.19 6.54632L168.047 6.6979H168.989V7.46527H166.562V7.02L167.571 6.04422C167.79 5.81685 167.942 5.63684 168.009 5.51368ZM168.761 16.5695L167.895 18.18C167.79 18.379 167.714 18.5305 167.685 18.6347C167.657 18.7389 167.638 18.8432 167.638 18.9474C167.638 19.2221 167.742 19.4684 167.952 19.6768C168.161 19.8853 168.437 19.999 168.751 19.999C169.056 19.999 169.323 19.8947 169.532 19.6958C169.751 19.4969 169.856 19.2411 169.856 18.9474C169.856 18.6442 169.751 18.3884 169.542 18.18C169.38 18.019 169.189 17.9242 168.98 17.8863L169.494 16.92L168.761 16.5695ZM169.018 18.9284C169.018 19.0137 168.989 19.08 168.942 19.1368C168.837 19.2411 168.675 19.2505 168.561 19.1368C168.504 19.08 168.475 19.0137 168.475 18.9284C168.475 18.8432 168.504 18.7768 168.552 18.72C168.599 18.6726 168.656 18.6442 168.732 18.6442C168.818 18.6442 168.875 18.6726 168.932 18.72C168.999 18.7768 169.018 18.8432 169.018 18.9284ZM167.799 33.1863L166.933 34.7969C166.828 34.9958 166.752 35.1474 166.724 35.2516C166.695 35.3558 166.676 35.46 166.676 35.5642C166.676 35.839 166.781 36.0853 166.99 36.2937C167.2 36.5021 167.476 36.6158 167.79 36.6158C168.095 36.6158 168.361 36.5116 168.571 36.3126C168.79 36.1137 168.894 35.8579 168.894 35.5642C168.894 35.2611 168.79 35.0053 168.58 34.7969C168.418 34.6358 168.228 34.5411 168.018 34.5032L168.533 33.5368L167.799 33.1863ZM168.066 35.5453C168.066 35.6305 168.037 35.6968 167.99 35.7537C167.885 35.8579 167.723 35.8674 167.609 35.7537C167.552 35.6968 167.523 35.6305 167.523 35.5453C167.523 35.46 167.552 35.3937 167.6 35.3368C167.647 35.2895 167.704 35.2611 167.78 35.2611C167.866 35.2611 167.923 35.2895 167.98 35.3368C168.037 35.3937 168.066 35.46 168.066 35.5453ZM159.412 27.5874C159.517 27.8242 159.65 28.0042 159.831 28.1179C160.012 28.2316 160.241 28.2979 160.498 28.2979C160.764 28.2979 160.983 28.2411 161.155 28.1179C161.326 28.0042 161.469 27.8147 161.564 27.5779C161.611 27.4737 161.64 27.3505 161.669 27.2179V27.6063H163.039V28.2221H163.877V27.6063H164.153V26.839H163.877V24.9158H163.087L161.716 26.8674C161.726 26.7821 161.726 26.6968 161.726 26.6116C161.726 26.2042 161.678 25.8821 161.583 25.6453C161.488 25.3989 161.335 25.219 161.155 25.0958C160.964 24.9726 160.745 24.9158 160.488 24.9158C160.098 24.9158 159.784 25.0674 159.555 25.3705C159.365 25.6453 159.27 26.0526 159.27 26.6305C159.26 27.0474 159.308 27.36 159.412 27.5874ZM162.697 26.839L163.039 26.3558V26.839H162.697ZM160.117 26.6495C160.117 26.3747 160.136 26.1568 160.174 26.0242C160.203 25.9011 160.25 25.8158 160.307 25.7684C160.364 25.7305 160.422 25.7021 160.488 25.7021C160.555 25.7021 160.65 25.7211 160.736 25.8632C160.793 25.9484 160.859 26.1569 160.859 26.6116C160.859 26.9716 160.812 27.2368 160.726 27.379C160.65 27.5116 160.555 27.5211 160.488 27.5211C160.422 27.5211 160.326 27.5021 160.231 27.36C160.183 27.2842 160.117 27.0853 160.117 26.6495ZM167.799 20.7189L166.933 22.3295C166.828 22.5284 166.752 22.68 166.724 22.7842C166.695 22.8884 166.676 22.9926 166.676 23.0969C166.676 23.3716 166.781 23.6179 166.99 23.8263C167.2 24.0347 167.476 24.1484 167.79 24.1484C168.095 24.1484 168.361 24.0442 168.571 23.8453C168.79 23.6463 168.894 23.3905 168.894 23.0969C168.894 22.7937 168.79 22.5379 168.58 22.3295C168.418 22.1684 168.228 22.0737 168.018 22.0358L168.533 21.0695L167.799 20.7189ZM168.066 23.0779C168.066 23.1632 168.037 23.2295 167.99 23.2863C167.885 23.3905 167.723 23.4 167.609 23.2863C167.552 23.2295 167.523 23.1632 167.523 23.0779C167.523 22.9926 167.552 22.9263 167.6 22.8695C167.647 22.8126 167.704 22.7937 167.78 22.7937C167.866 22.7937 167.923 22.8221 167.98 22.8695C168.037 22.9358 168.066 22.9926 168.066 23.0779ZM165.391 15.8779L166.257 14.2674C166.372 14.0684 166.438 13.9169 166.467 13.8221C166.495 13.7179 166.514 13.6137 166.514 13.5095C166.514 13.2347 166.41 12.9884 166.2 12.78C165.991 12.5716 165.715 12.4579 165.4 12.4579C165.096 12.4579 164.839 12.5621 164.62 12.7611C164.401 12.96 164.296 13.2158 164.296 13.5095C164.296 13.8126 164.401 14.0684 164.61 14.2674C164.772 14.4284 164.963 14.5232 165.181 14.5611L164.658 15.5274L165.391 15.8779ZM165.124 13.5189C165.124 13.4337 165.153 13.3674 165.21 13.3105C165.267 13.2537 165.324 13.2347 165.4 13.2347C165.467 13.2347 165.524 13.2632 165.581 13.3105C165.638 13.3674 165.667 13.4337 165.667 13.5189C165.667 13.6042 165.638 13.6705 165.591 13.7179C165.486 13.8221 165.315 13.8126 165.21 13.7179C165.153 13.6611 165.124 13.6042 165.124 13.5189ZM180.271 14.9779C180.337 14.9116 180.366 14.8453 180.366 14.7505C180.366 14.6558 180.318 14.5705 180.233 14.5042C180.128 14.4284 179.976 14.3905 179.776 14.3905H179.652V13.6705L179.766 13.6611C179.928 13.6516 180.004 13.6232 180.042 13.6042C180.09 13.5853 180.128 13.5568 180.156 13.5189C180.185 13.4811 180.195 13.4432 180.195 13.4147C180.195 13.3674 180.176 13.3295 180.147 13.3011C180.128 13.2821 180.09 13.2537 180.004 13.2537C179.947 13.2537 179.899 13.2726 179.852 13.3011C179.804 13.3295 179.776 13.3769 179.757 13.4337L179.728 13.5189H178.919L178.938 13.3863C178.976 13.14 179.071 12.9411 179.223 12.7895C179.442 12.5811 179.709 12.4768 180.033 12.4768C180.318 12.4768 180.566 12.5621 180.766 12.7421C180.966 12.9221 181.07 13.14 181.07 13.3863C181.07 13.5474 181.023 13.6895 180.937 13.8221C180.889 13.8884 180.832 13.9453 180.766 13.9926C180.88 14.0495 180.966 14.1253 181.042 14.22C181.166 14.3811 181.232 14.5611 181.232 14.7695C181.232 15.0726 181.118 15.3284 180.88 15.5368C180.651 15.7453 180.356 15.8495 180.004 15.8495C179.671 15.8495 179.385 15.7453 179.176 15.5558C178.966 15.3663 178.843 15.0916 178.824 14.76L178.814 14.6274H179.652L179.671 14.7316C179.69 14.8547 179.738 14.9495 179.795 15.0063C179.899 15.1011 180.137 15.1011 180.271 14.9779ZM161.716 10.639C161.716 10.8379 161.764 11.0274 161.869 11.1884C161.973 11.3495 162.107 11.4821 162.278 11.5579C162.449 11.6337 162.668 11.6716 162.935 11.6716C163.192 11.6716 163.401 11.6337 163.573 11.5484C163.744 11.4632 163.887 11.34 163.982 11.1695C164.087 10.999 164.134 10.8189 164.134 10.6295C164.134 10.4495 164.087 10.279 164.001 10.1274C163.934 10.0137 163.849 9.91896 163.744 9.83369C163.82 9.74843 163.868 9.67264 163.906 9.59685C163.953 9.49264 163.982 9.37895 163.982 9.24632C163.982 9.07579 163.934 8.90527 163.849 8.76316C163.753 8.61158 163.63 8.48843 163.468 8.41264C163.154 8.25159 162.687 8.25159 162.373 8.41264C162.211 8.4979 162.078 8.61159 161.992 8.75369C161.897 8.90527 161.859 9.06632 161.859 9.23685C161.859 9.36948 161.888 9.49264 161.935 9.60632C161.973 9.68211 162.021 9.75791 162.078 9.83369C161.973 9.92843 161.888 10.0232 161.821 10.1368C161.754 10.2979 161.716 10.4684 161.716 10.639ZM163.078 9.45475C162.992 9.53054 162.849 9.54001 162.763 9.45475C162.716 9.40738 162.697 9.36 162.697 9.29369C162.697 9.22737 162.716 9.18001 162.754 9.14211C162.792 9.10422 162.84 9.08527 162.906 9.08527C162.982 9.08527 163.03 9.10422 163.078 9.14211C163.116 9.18001 163.135 9.22737 163.135 9.28422C163.144 9.36948 163.125 9.41685 163.078 9.45475ZM162.935 10.2884C163.04 10.2884 163.125 10.3168 163.201 10.3832C163.268 10.4495 163.306 10.5158 163.306 10.6011C163.306 10.6863 163.278 10.7621 163.211 10.8095C163.078 10.9232 162.792 10.9232 162.659 10.8C162.592 10.7337 162.563 10.6674 162.563 10.5821C162.563 10.5063 162.602 10.44 162.668 10.3737C162.735 10.3168 162.83 10.2884 162.935 10.2884ZM162.916 12.4105L162.049 14.0211C161.945 14.22 161.869 14.3716 161.84 14.4758C161.811 14.58 161.792 14.6842 161.792 14.7884C161.792 15.0632 161.897 15.3095 162.107 15.5179C162.316 15.7263 162.592 15.84 162.906 15.84C163.211 15.84 163.468 15.7358 163.687 15.5368C163.906 15.3379 164.011 15.0821 164.011 14.7884C164.011 14.4853 163.906 14.2295 163.696 14.0211C163.535 13.86 163.344 13.7653 163.135 13.7274L163.649 12.7611L162.916 12.4105ZM163.182 14.7695C163.182 14.8547 163.154 14.9211 163.106 14.9779C162.992 15.0821 162.84 15.0916 162.725 14.9779C162.668 14.9211 162.64 14.8547 162.64 14.7695C162.64 14.6842 162.668 14.6179 162.716 14.5611C162.763 14.5137 162.83 14.4853 162.897 14.4853C162.973 14.4853 163.039 14.5137 163.097 14.5611C163.154 14.6274 163.182 14.6842 163.182 14.7695ZM165.572 26.28C165.638 26.1569 165.677 26.0526 165.677 25.9674C165.677 25.8821 165.648 25.8158 165.591 25.7684C165.477 25.6642 165.277 25.6547 165.143 25.7874C165.077 25.8537 165.039 25.9579 165.039 26.0811V26.1947H164.201L164.21 26.0716C164.23 25.7211 164.344 25.4369 164.563 25.2284C164.782 25.02 165.067 24.9158 165.41 24.9158C165.619 24.9158 165.81 24.9632 165.972 25.0484C166.134 25.1337 166.267 25.2663 166.371 25.4274C166.467 25.5884 166.524 25.7589 166.524 25.9295C166.524 26.1189 166.467 26.3369 166.352 26.5547C166.238 26.7726 166.048 27.019 165.753 27.3126L165.61 27.4642H166.552V28.2316H164.125V27.7863L165.134 26.8105C165.353 26.5832 165.496 26.4126 165.572 26.28ZM165.362 8.26105L164.496 9.87158C164.391 10.0705 164.315 10.2221 164.287 10.3263C164.258 10.4305 164.239 10.5347 164.239 10.639C164.239 10.9137 164.344 11.16 164.553 11.3684C164.763 11.5768 165.039 11.6905 165.353 11.6905C165.658 11.6905 165.915 11.5863 166.133 11.3874C166.352 11.1884 166.457 10.9326 166.457 10.639C166.457 10.3358 166.352 10.08 166.143 9.87158C165.981 9.71053 165.791 9.61579 165.581 9.5779L166.095 8.61159L165.362 8.26105ZM165.619 10.62C165.619 10.7053 165.591 10.7716 165.534 10.8284C165.429 10.9326 165.267 10.9421 165.153 10.8284C165.096 10.7716 165.067 10.7053 165.067 10.62C165.067 10.5347 165.096 10.4684 165.143 10.4116C165.191 10.3642 165.258 10.3358 165.324 10.3358C165.41 10.3358 165.467 10.3642 165.524 10.4116C165.6 10.4684 165.619 10.5347 165.619 10.62ZM161.945 23.8453L163.087 21.6189H161.849V20.8421H164.163L164.153 21.3158L162.687 24.1863L161.945 23.8453ZM164.229 18.2937C164.229 17.9716 164.306 17.6874 164.458 17.4411C164.61 17.1947 164.829 16.9863 165.115 16.8347C165.629 16.56 166.267 16.5316 166.828 16.7779C167.086 16.8916 167.304 17.0526 167.495 17.2516L167.571 17.3368L166.971 17.8768L166.886 17.7916C166.629 17.5263 166.343 17.4032 166.019 17.4032C165.753 17.4032 165.534 17.4884 165.353 17.659C165.172 17.8295 165.086 18.0379 165.086 18.2937C165.086 18.4737 165.124 18.6253 165.201 18.7674C165.277 18.9 165.391 19.0042 165.534 19.0895C165.8 19.2316 166.172 19.2411 166.448 19.1274C166.571 19.0705 166.724 18.9663 166.886 18.8147L166.981 18.7295L167.561 19.3074L167.476 19.3926C167.228 19.62 167 19.7811 166.781 19.8663C166.562 19.9516 166.305 19.999 166.029 19.999C165.505 19.999 165.077 19.8379 164.744 19.5253C164.401 19.1937 164.229 18.7863 164.229 18.2937ZM167.923 28.2221H168.761V27.6063H169.037V26.839H168.761V24.9158H167.971L166.581 26.8863L166.562 26.9147V27.5969H167.933V28.2221H167.923ZM167.581 26.839L167.923 26.3558V26.839H167.581ZM162.116 19.6674C162.326 19.8758 162.602 19.9895 162.916 19.9895C163.22 19.9895 163.477 19.8853 163.696 19.6863C163.915 19.4874 164.02 19.2316 164.02 18.9379C164.02 18.6347 163.915 18.379 163.706 18.1705C163.544 18.0095 163.354 17.9147 163.144 17.8768L163.658 16.9105L162.925 16.56L162.059 18.1705C161.954 18.3695 161.878 18.5211 161.849 18.6253C161.821 18.7295 161.802 18.8337 161.802 18.9379C161.802 19.2126 161.907 19.459 162.116 19.6674ZM162.64 18.9284C162.64 18.8432 162.668 18.7768 162.716 18.72C162.763 18.6726 162.83 18.6442 162.897 18.6442C162.973 18.6442 163.039 18.6726 163.097 18.72C163.154 18.7768 163.173 18.8337 163.173 18.9189C163.173 19.0042 163.144 19.0705 163.097 19.1274C162.982 19.2316 162.83 19.2411 162.716 19.1274C162.668 19.08 162.64 19.0137 162.64 18.9284ZM167.162 32.3337C167.333 32.4095 167.552 32.4474 167.819 32.4474C168.076 32.4474 168.285 32.4095 168.456 32.3242C168.628 32.2389 168.771 32.1158 168.866 31.9453C168.97 31.7747 169.018 31.5947 169.018 31.4053C169.018 31.2253 168.97 31.0547 168.885 30.9032C168.818 30.7895 168.732 30.6947 168.628 30.6095C168.704 30.5242 168.752 30.4484 168.79 30.3726C168.837 30.2684 168.866 30.1547 168.866 30.0221C168.866 29.8516 168.818 29.6811 168.732 29.539C168.637 29.3874 168.514 29.2642 168.352 29.1884C168.038 29.0274 167.571 29.0274 167.257 29.1884C167.095 29.2737 166.962 29.3874 166.876 29.5295C166.781 29.6811 166.743 29.8421 166.743 30.0126C166.743 30.1453 166.771 30.2684 166.828 30.3821C166.867 30.4579 166.914 30.5337 166.971 30.6095C166.867 30.7042 166.781 30.799 166.724 30.9126C166.638 31.0642 166.6 31.2253 166.6 31.3958C166.6 31.5947 166.648 31.7842 166.752 31.9453C166.857 32.1253 166.99 32.2484 167.162 32.3337ZM167.961 30.2211C167.876 30.2968 167.733 30.3063 167.647 30.2211C167.6 30.1832 167.581 30.1263 167.581 30.06C167.581 29.9937 167.6 29.9463 167.638 29.9084C167.676 29.8705 167.723 29.8516 167.79 29.8516C167.866 29.8516 167.914 29.8705 167.961 29.9084C167.999 29.9463 168.018 29.9937 168.018 30.0505C168.028 30.1358 168.009 30.1832 167.961 30.2211ZM167.819 31.0547C167.923 31.0547 168.009 31.0832 168.085 31.1495C168.152 31.2158 168.19 31.2821 168.19 31.3674C168.19 31.4526 168.161 31.5284 168.095 31.5758C167.971 31.6895 167.676 31.6895 167.542 31.5663C167.476 31.5095 167.447 31.4337 167.447 31.3484C167.447 31.2726 167.485 31.2063 167.552 31.14C167.619 31.0926 167.714 31.0547 167.819 31.0547ZM164.715 36.4263C164.896 36.54 165.115 36.6063 165.381 36.6063C165.648 36.6063 165.867 36.5495 166.038 36.4263C166.21 36.3126 166.352 36.1232 166.448 35.8863C166.543 35.6495 166.59 35.3274 166.59 34.92C166.59 34.5126 166.543 34.1905 166.448 33.9537C166.352 33.7074 166.2 33.5274 166.019 33.4042C165.829 33.2811 165.61 33.2242 165.353 33.2242C164.963 33.2242 164.648 33.3758 164.42 33.679C164.229 33.9537 164.134 34.3611 164.134 34.939C164.134 35.3558 164.182 35.659 164.277 35.8958C164.391 36.1326 164.534 36.3126 164.715 36.4263ZM165.001 34.9579C165.001 34.6832 165.02 34.4653 165.058 34.3326C165.096 34.2095 165.134 34.1242 165.191 34.0768C165.248 34.0389 165.305 34.0105 165.372 34.0105C165.439 34.0105 165.534 34.0295 165.619 34.1716C165.677 34.2568 165.743 34.4653 165.743 34.92C165.743 35.28 165.696 35.5453 165.61 35.6874C165.534 35.82 165.439 35.8295 165.372 35.8295C165.305 35.8295 165.21 35.8105 165.115 35.6684C165.067 35.5926 165.001 35.3937 165.001 34.9579ZM159.412 15.1295C159.517 15.3663 159.65 15.5369 159.831 15.66C160.012 15.7737 160.241 15.84 160.498 15.84C160.764 15.84 160.983 15.7832 161.155 15.66C161.326 15.5463 161.469 15.3568 161.564 15.12C161.659 14.8832 161.707 14.5611 161.707 14.1537C161.707 13.7463 161.659 13.4242 161.564 13.1874C161.469 12.9411 161.316 12.7611 161.135 12.6379C160.945 12.5147 160.726 12.4579 160.469 12.4579C160.079 12.4579 159.765 12.6095 159.536 12.9126C159.346 13.1874 159.251 13.5947 159.251 14.1726C159.26 14.5895 159.308 14.9021 159.412 15.1295ZM160.117 14.1821C160.117 13.9074 160.136 13.6895 160.174 13.5568C160.203 13.4337 160.25 13.3484 160.307 13.3011C160.364 13.2632 160.422 13.2347 160.488 13.2347C160.555 13.2347 160.65 13.2537 160.736 13.3958C160.793 13.4811 160.859 13.6895 160.859 14.1442C160.859 14.5042 160.812 14.7695 160.726 14.9116C160.65 15.0442 160.555 15.0537 160.488 15.0537C160.422 15.0537 160.326 15.0347 160.231 14.8926C160.183 14.8168 160.117 14.6274 160.117 14.1821ZM159.412 23.4379C159.517 23.6747 159.65 23.8453 159.831 23.9684C160.012 24.0821 160.241 24.1484 160.498 24.1484C160.764 24.1484 160.983 24.0916 161.155 23.9684C161.326 23.8547 161.469 23.6653 161.564 23.4284C161.659 23.1916 161.707 22.8695 161.707 22.4526C161.707 22.0453 161.659 21.7232 161.564 21.4863C161.469 21.24 161.316 21.06 161.135 20.9368C160.945 20.8137 160.726 20.7568 160.469 20.7568C160.079 20.7568 159.765 20.9084 159.536 21.2116C159.346 21.4863 159.251 21.8937 159.251 22.4716C159.26 22.8979 159.308 23.2105 159.412 23.4379ZM160.117 22.4905C160.117 22.2158 160.136 21.9979 160.174 21.8653C160.203 21.7421 160.25 21.6568 160.307 21.6095C160.364 21.5716 160.422 21.5432 160.488 21.5432C160.555 21.5432 160.65 21.5621 160.736 21.7042C160.793 21.7895 160.859 21.9979 160.859 22.4526C160.859 22.8126 160.812 23.0779 160.726 23.22C160.65 23.3526 160.555 23.3621 160.488 23.3621C160.422 23.3621 160.326 23.3432 160.231 23.2011C160.183 23.1253 160.117 22.9358 160.117 22.4905ZM167.828 11.7189L168.694 10.1084C168.799 9.90947 168.875 9.7579 168.904 9.66316C168.932 9.55895 168.951 9.45474 168.951 9.35053C168.951 9.07579 168.847 8.82948 168.637 8.62106C168.428 8.41264 168.152 8.29895 167.838 8.29895C167.533 8.29895 167.276 8.40317 167.057 8.60212C166.838 8.81054 166.733 9.05684 166.733 9.35053C166.733 9.65368 166.838 9.90947 167.047 10.1084C167.209 10.2695 167.4 10.3642 167.619 10.4021L167.095 11.3684L167.828 11.7189ZM167.571 9.36001C167.571 9.27475 167.6 9.20842 167.657 9.15158C167.714 9.09474 167.771 9.0758 167.847 9.0758C167.914 9.0758 167.971 9.10421 168.028 9.15158C168.085 9.20842 168.114 9.27475 168.114 9.36001C168.114 9.44527 168.085 9.51159 168.037 9.55896C167.933 9.66317 167.761 9.65369 167.657 9.55896C167.6 9.51159 167.571 9.44527 167.571 9.36001ZM164.382 23.8453L165.524 21.6189H164.287V20.8421H166.6L166.59 21.3158L165.124 24.1863L164.382 23.8453ZM166.733 12.5337H169.047L169.037 13.0074L167.571 15.8779L166.838 15.5368L167.98 13.3105H166.743L166.733 12.5337ZM164.106 36.5305H161.678V36.0853L162.687 35.1095C162.916 34.8916 163.059 34.7211 163.135 34.5979C163.201 34.4747 163.239 34.3705 163.239 34.2853C163.239 34.2 163.211 34.1337 163.154 34.0863C163.04 33.9821 162.84 33.9726 162.706 34.1053C162.64 34.1716 162.611 34.2758 162.602 34.399V34.5126H161.764L161.773 34.3895C161.792 34.039 161.907 33.7547 162.126 33.5463C162.345 33.3379 162.63 33.2337 162.973 33.2337C163.182 33.2337 163.373 33.2811 163.535 33.3663C163.696 33.4516 163.83 33.5842 163.934 33.7453C164.03 33.9063 164.077 34.0768 164.077 34.2474C164.077 34.4368 164.02 34.6547 163.906 34.8726C163.792 35.0905 163.601 35.3368 163.306 35.6305L163.163 35.7821H164.106V36.5305ZM164.144 29.6242L162.678 32.4947L161.945 32.1537L163.087 29.9274H161.849V29.1505H164.163L164.144 29.6242ZM165.362 29.0274L164.496 30.6379C164.391 30.8369 164.315 30.9884 164.287 31.0926C164.258 31.1968 164.239 31.3011 164.239 31.4053C164.239 31.68 164.344 31.9263 164.553 32.1347C164.763 32.3432 165.039 32.4568 165.353 32.4568C165.658 32.4568 165.915 32.3526 166.133 32.1537C166.352 31.9547 166.457 31.699 166.457 31.4053C166.457 31.1021 166.352 30.8463 166.143 30.6379C165.981 30.4769 165.791 30.3821 165.581 30.3442L166.095 29.3779L165.362 29.0274ZM165.619 31.3863C165.619 31.4716 165.591 31.5379 165.534 31.5947C165.429 31.699 165.267 31.7084 165.153 31.5947C165.096 31.5379 165.067 31.4716 165.067 31.3863C165.067 31.3011 165.096 31.2347 165.143 31.1779C165.191 31.1211 165.258 31.1021 165.324 31.1021C165.41 31.1021 165.467 31.1305 165.524 31.1779C165.6 31.2442 165.619 31.3011 165.619 31.3863ZM161.659 7.45579H159.231V7.01053L160.241 6.03474C160.469 5.81684 160.612 5.64633 160.688 5.52317C160.755 5.40001 160.793 5.29579 160.793 5.21053C160.793 5.12527 160.764 5.05895 160.707 5.01159C160.593 4.90738 160.383 4.8979 160.26 5.03053C160.193 5.09685 160.164 5.20105 160.155 5.32421V5.4379H159.317L159.327 5.31474C159.346 4.96421 159.46 4.68 159.679 4.47158C159.898 4.26316 160.183 4.15896 160.526 4.15896C160.736 4.15896 160.926 4.19685 161.088 4.29159C161.25 4.37685 161.393 4.50001 161.488 4.67054C161.583 4.83159 161.64 5.00211 161.64 5.17263C161.64 5.36211 161.583 5.58 161.469 5.7979C161.354 6.01579 161.164 6.26211 160.869 6.55579L160.726 6.70738H161.669L161.659 7.45579ZM163.087 0.843165H161.849V0.0663221H164.163L164.153 0.540006L162.687 3.41053L161.954 3.06948L163.087 0.843165ZM160.64 0.843165H159.403V0.0663221H161.716L161.707 0.540006L160.241 3.41053L159.508 3.06948L160.64 0.843165ZM162.068 40.4621C161.85 40.2632 161.735 39.9979 161.716 39.6663L161.707 39.5337H162.544L162.563 39.6379C162.583 39.7611 162.63 39.8558 162.697 39.9126C162.821 40.0263 163.059 40.0263 163.201 39.9032C163.268 39.8368 163.297 39.7705 163.297 39.6758C163.297 39.5811 163.249 39.4958 163.163 39.4295C163.059 39.3537 162.906 39.3158 162.706 39.3158H162.583V38.5958L162.697 38.5863C162.859 38.5769 162.935 38.5484 162.973 38.5295C163.02 38.5105 163.059 38.4726 163.087 38.4442C163.116 38.4063 163.125 38.3684 163.125 38.34C163.125 38.2926 163.106 38.2547 163.078 38.2263C163.059 38.2074 163.011 38.179 162.935 38.179C162.878 38.179 162.83 38.1979 162.782 38.2263C162.735 38.2547 162.706 38.3021 162.687 38.359L162.659 38.4442H161.849L161.869 38.3116C161.907 38.0653 162.002 37.8663 162.154 37.7147C162.373 37.5063 162.64 37.4021 162.963 37.4021C163.249 37.4021 163.496 37.4874 163.696 37.6674C163.896 37.8474 164.001 38.0653 164.001 38.3116C164.001 38.4726 163.953 38.6147 163.868 38.7474C163.82 38.8137 163.763 38.8705 163.696 38.9179C163.811 38.9747 163.896 39.0505 163.972 39.1453C164.096 39.3063 164.163 39.4863 164.163 39.6947C164.163 39.9979 164.049 40.2537 163.811 40.4621C163.582 40.6705 163.287 40.7747 162.935 40.7747C162.564 40.7558 162.287 40.6611 162.068 40.4621ZM160.469 40.7558C160.774 40.7558 161.04 40.6516 161.25 40.4526C161.469 40.2537 161.573 39.9979 161.573 39.7042C161.573 39.4011 161.469 39.1453 161.259 38.9368C161.097 38.7758 160.907 38.6811 160.698 38.6432L161.212 37.6768L160.479 37.3263L159.612 38.9368C159.508 39.1358 159.431 39.2874 159.403 39.3916C159.374 39.4958 159.355 39.6 159.355 39.7042C159.355 39.979 159.46 40.2253 159.669 40.4337C159.888 40.6516 160.155 40.7558 160.469 40.7558ZM160.203 39.6947C160.203 39.6095 160.231 39.5432 160.279 39.4863C160.326 39.4295 160.383 39.4105 160.46 39.4105C160.545 39.4105 160.602 39.439 160.659 39.4863C160.717 39.5432 160.736 39.6 160.736 39.6853C160.736 39.7705 160.707 39.8368 160.659 39.8937C160.545 39.9979 160.393 40.0074 160.279 39.8937C160.222 39.8463 160.203 39.78 160.203 39.6947ZM159.403 41.6084H161.716L161.707 42.0821L160.241 44.9526L159.508 44.6116L160.65 42.3853H159.412L159.403 41.6084ZM165.353 3.37263C165.658 3.37263 165.915 3.26843 166.133 3.06948C166.352 2.87053 166.457 2.61474 166.457 2.32106C166.457 2.0179 166.352 1.76211 166.143 1.56316C165.981 1.40211 165.791 1.30738 165.581 1.26948L166.095 0.303164L165.362 -0.0473633L164.496 1.56316C164.391 1.76211 164.315 1.91369 164.287 2.0179C164.258 2.12212 164.239 2.22632 164.239 2.33053C164.239 2.60527 164.344 2.85159 164.553 3.06001C164.772 3.26843 165.039 3.37263 165.353 3.37263ZM165.077 2.31159C165.077 2.22632 165.105 2.16 165.153 2.10316C165.201 2.05579 165.267 2.02738 165.334 2.02738C165.419 2.02738 165.477 2.05579 165.534 2.10316C165.591 2.16 165.619 2.21685 165.619 2.30212C165.619 2.38738 165.591 2.45369 165.534 2.51053C165.429 2.61474 165.267 2.62422 165.153 2.51053C165.105 2.46316 165.077 2.39685 165.077 2.31159ZM159.669 36.36C159.45 36.199 159.308 35.9716 159.251 35.6969L159.212 35.5453H160.079L160.117 35.6116C160.155 35.6874 160.203 35.7347 160.26 35.7726C160.393 35.8579 160.574 35.839 160.688 35.7253C160.755 35.659 160.793 35.5737 160.793 35.46C160.793 35.3558 160.764 35.2705 160.698 35.2042C160.602 35.1095 160.488 35.0811 160.345 35.1379C160.298 35.1663 160.241 35.2042 160.193 35.2516L160.145 35.299L159.469 35.1568L159.898 33.2811H161.592V34.0484H160.545L160.479 34.3137C160.488 34.3137 160.498 34.3137 160.517 34.3137C160.84 34.3137 161.107 34.4179 161.316 34.6263C161.526 34.8347 161.631 35.1 161.631 35.4221C161.631 35.7442 161.516 36.019 161.278 36.2463C161.05 36.4642 160.764 36.5779 160.431 36.5779C160.145 36.6063 159.888 36.5211 159.669 36.36ZM164.02 4.87895C163.925 4.63264 163.773 4.45263 163.592 4.32947C163.401 4.20632 163.182 4.14948 162.925 4.14948C162.535 4.14948 162.221 4.30106 161.992 4.60421C161.802 4.87895 161.707 5.28632 161.707 5.86422C161.707 6.27159 161.754 6.58422 161.849 6.82106C161.945 7.0579 162.088 7.22842 162.268 7.35158C162.449 7.46527 162.678 7.53158 162.935 7.53158C163.201 7.53158 163.42 7.47474 163.592 7.35158C163.763 7.2379 163.906 7.04843 164.011 6.81159C164.049 6.70738 164.087 6.58421 164.115 6.45158V6.84H165.486V7.45579H166.324V6.84H166.6V6.07263H166.324V4.14948H165.534L164.163 6.10106C164.172 6.0158 164.172 5.93053 164.172 5.83579C164.163 5.42842 164.115 5.10632 164.02 4.87895ZM163.306 5.84526C163.306 6.20526 163.258 6.47054 163.173 6.61264C163.097 6.74527 163.001 6.75475 162.935 6.75475C162.868 6.75475 162.773 6.73579 162.678 6.59369C162.621 6.50842 162.554 6.31895 162.554 5.87369C162.554 5.59895 162.573 5.38106 162.611 5.24843C162.649 5.12527 162.687 5.04 162.744 4.99263C162.802 4.95474 162.859 4.92632 162.925 4.92632C162.992 4.92632 163.087 4.94526 163.173 5.08737C163.239 5.18211 163.306 5.39053 163.306 5.84526ZM165.134 6.07263L165.477 5.58948V6.07263H165.134ZM173.902 6.62211L173.864 6.47054H174.73L174.768 6.53685C174.806 6.61264 174.854 6.66 174.911 6.6979C175.044 6.78316 175.235 6.76421 175.349 6.65053C175.416 6.58421 175.454 6.49895 175.454 6.38527C175.454 6.28106 175.425 6.19579 175.358 6.12947C175.263 6.03474 175.149 6.00632 175.006 6.07263C174.959 6.10106 174.901 6.13896 174.854 6.18633L174.806 6.23369L174.13 6.09159L174.559 4.21579H176.253V4.98316H175.206L175.139 5.24843C175.149 5.24843 175.158 5.24843 175.177 5.24843C175.492 5.24843 175.768 5.35263 175.977 5.56105C176.187 5.76947 176.291 6.03474 176.291 6.35684C176.291 6.67895 176.177 6.95369 175.939 7.18106C175.711 7.40843 175.425 7.51264 175.092 7.51264C174.797 7.51264 174.54 7.43684 174.321 7.26632C174.102 7.12421 173.959 6.89685 173.902 6.62211ZM175.292 0.843165H174.054V0.0663221H176.367L176.358 0.540006L174.882 3.41053L174.149 3.06948L175.292 0.843165ZM172.493 2.10316L171.969 3.06948L172.702 3.42L173.569 1.80948C173.683 1.61053 173.75 1.45895 173.778 1.36422C173.807 1.26001 173.826 1.15579 173.826 1.05158C173.826 0.776845 173.721 0.530534 173.511 0.322113C173.302 0.113692 173.026 5.1409e-06 172.712 5.1409e-06C172.407 5.1409e-06 172.15 0.104217 171.931 0.303164C171.712 0.502112 171.607 0.757898 171.607 1.05158C171.607 1.35474 171.712 1.61053 171.922 1.80948C172.093 1.97053 172.283 2.06526 172.493 2.10316ZM172.455 1.05158C172.455 0.966319 172.483 0.900007 172.54 0.843165C172.598 0.786323 172.655 0.767371 172.731 0.767371C172.798 0.767371 172.855 0.795797 172.912 0.843165C172.969 0.900007 172.997 0.966319 172.997 1.05158C172.997 1.13684 172.969 1.20316 172.921 1.25053C172.817 1.35474 172.645 1.34526 172.54 1.25053C172.474 1.20316 172.455 1.13684 172.455 1.05158ZM176.32 1.99895V2.68106H177.691V3.29685H178.529V2.68106H178.805V1.91368H178.529V-0.00946623H177.738L176.348 1.96105L176.32 1.99895ZM177.348 1.91368L177.691 1.43053V1.91368H177.348ZM170.237 3.37263C170.541 3.37263 170.808 3.26843 171.017 3.06948C171.236 2.87053 171.341 2.61474 171.341 2.32106C171.341 2.0179 171.236 1.76211 171.027 1.56316C170.865 1.40211 170.675 1.30738 170.465 1.26948L170.979 0.303164L170.246 -0.0473633L169.38 1.56316C169.275 1.76211 169.199 1.91369 169.17 2.0179C169.142 2.12212 169.123 2.22632 169.123 2.33053C169.123 2.60527 169.228 2.85159 169.437 3.06001C169.656 3.26843 169.922 3.37263 170.237 3.37263ZM169.961 2.31159C169.961 2.22632 169.989 2.16 170.037 2.10316C170.084 2.05579 170.151 2.02738 170.218 2.02738C170.294 2.02738 170.36 2.05579 170.417 2.10316C170.475 2.16 170.503 2.21685 170.503 2.30212C170.503 2.38738 170.475 2.45369 170.417 2.51053C170.313 2.61474 170.151 2.62422 170.037 2.51053C169.989 2.46316 169.961 2.39685 169.961 2.31159ZM167.162 3.25896C167.333 3.33474 167.552 3.37263 167.819 3.37263C168.076 3.37263 168.285 3.33475 168.456 3.24948C168.628 3.16422 168.771 3.04106 168.866 2.87054C168.97 2.70001 169.018 2.52 169.018 2.33053C169.018 2.15053 168.97 1.98001 168.885 1.82843C168.818 1.71475 168.732 1.62 168.628 1.53474C168.704 1.44947 168.752 1.37368 168.79 1.2979C168.837 1.19368 168.866 1.08001 168.866 0.947374C168.866 0.776847 168.818 0.615797 168.732 0.464218C168.637 0.312639 168.514 0.18948 168.352 0.113691C168.038 -0.0473621 167.571 -0.0473621 167.257 0.113691C167.095 0.198954 166.962 0.312636 166.876 0.454741C166.781 0.596846 166.743 0.767376 166.743 0.937902C166.743 1.07053 166.771 1.19369 166.828 1.30738C166.867 1.38317 166.914 1.45895 166.971 1.53474C166.867 1.62947 166.781 1.72422 166.724 1.8379C166.638 1.98948 166.6 2.15053 166.6 2.32106C166.6 2.52001 166.648 2.70948 166.752 2.87054C166.857 3.05054 166.99 3.17369 167.162 3.25896ZM167.961 1.14632C167.876 1.22211 167.733 1.23158 167.647 1.14632C167.6 1.09895 167.581 1.05159 167.581 0.985271C167.581 0.918955 167.6 0.871583 167.638 0.833688C167.676 0.795793 167.723 0.776848 167.79 0.776848C167.866 0.776848 167.914 0.795793 167.961 0.833688C167.999 0.871583 168.018 0.918951 168.018 0.975793C168.028 1.06106 168.009 1.10842 167.961 1.14632ZM167.819 1.98001C167.923 1.98001 168.009 2.00843 168.085 2.07474C168.152 2.14106 168.19 2.20737 168.19 2.29263C168.19 2.3779 168.161 2.45369 168.095 2.50106C167.971 2.61474 167.676 2.61475 167.542 2.49159C167.476 2.42527 167.447 2.35895 167.447 2.27369C167.447 2.1979 167.485 2.13159 167.552 2.06527C167.619 2.0179 167.714 1.98001 167.819 1.98001ZM171.208 4.14948H170.417L169.028 6.12L169.009 6.14843V6.83053H170.379V7.44632H171.217V6.83053H171.493V6.06316H171.217V4.14948H171.208ZM170.018 6.07263L170.36 5.58948V6.07263H170.018ZM172.493 6.25264L171.969 7.21895L172.702 7.56948L173.569 5.95895C173.683 5.76001 173.75 5.60842 173.778 5.51368C173.807 5.40947 173.826 5.30527 173.826 5.20106C173.826 4.92632 173.721 4.68 173.511 4.47158C173.302 4.26316 173.026 4.14948 172.712 4.14948C172.407 4.14948 172.15 4.25369 171.931 4.45264C171.712 4.65158 171.607 4.90738 171.607 5.20106C171.607 5.50422 171.712 5.76001 171.922 5.95895C172.093 6.12001 172.283 6.21474 172.493 6.25264ZM172.455 5.21053C172.455 5.12527 172.483 5.05896 172.54 5.00212C172.598 4.94527 172.655 4.92632 172.731 4.92632C172.798 4.92632 172.855 4.95475 172.912 5.00212C172.969 5.05896 172.997 5.12527 172.997 5.21053C172.997 5.29579 172.969 5.36211 172.921 5.40948C172.817 5.51369 172.645 5.51369 172.54 5.40948C172.474 5.36211 172.455 5.29579 172.455 5.21053ZM188.962 37.5632C188.772 37.44 188.553 37.3832 188.296 37.3832C187.906 37.3832 187.592 37.5347 187.363 37.8379C187.173 38.1126 187.077 38.52 187.077 39.0979C187.077 39.5147 187.125 39.8179 187.22 40.0547C187.315 40.2916 187.458 40.4716 187.639 40.5853C187.82 40.699 188.049 40.7653 188.306 40.7653C188.572 40.7653 188.791 40.7084 188.962 40.5853C189.134 40.4716 189.277 40.2821 189.372 40.0453C189.467 39.8084 189.515 39.4863 189.515 39.079C189.515 38.6716 189.467 38.3495 189.372 38.1126C189.286 37.8663 189.143 37.6768 188.962 37.5632ZM188.686 39.079C188.686 39.439 188.639 39.7042 188.553 39.8463C188.477 39.979 188.382 39.9884 188.315 39.9884C188.248 39.9884 188.153 39.9695 188.058 39.8274C188.001 39.7421 187.934 39.5526 187.934 39.1074C187.934 38.8326 187.953 38.6147 187.991 38.4821C188.029 38.3589 188.068 38.2737 188.125 38.2263C188.182 38.1884 188.239 38.16 188.306 38.16C188.372 38.16 188.467 38.179 188.553 38.3211C188.62 38.4158 188.686 38.6147 188.686 39.079ZM185.135 44.0716H186.078V44.839H183.65V44.3937L184.659 43.4179C184.888 43.2 185.031 43.0295 185.107 42.9063C185.174 42.7926 185.212 42.679 185.212 42.5937C185.212 42.5084 185.183 42.4421 185.126 42.3947C185.012 42.2905 184.812 42.2811 184.678 42.4137C184.612 42.48 184.583 42.5842 184.574 42.7074V42.8211H183.736L183.745 42.6979C183.765 42.3474 183.879 42.0632 184.098 41.8547C184.317 41.6463 184.602 41.5421 184.945 41.5421C185.154 41.5421 185.345 41.5895 185.507 41.6747C185.669 41.76 185.802 41.8926 185.907 42.0537C186.002 42.2147 186.059 42.3853 186.059 42.5558C186.059 42.7453 186.002 42.9632 185.887 43.1811C185.773 43.399 185.583 43.6453 185.288 43.939L185.135 44.0716ZM186.087 39.9126H187.03V40.68H184.602V40.2347L185.602 39.259C185.83 39.0411 185.973 38.8705 186.049 38.7474C186.116 38.6242 186.154 38.52 186.154 38.4347C186.154 38.3495 186.125 38.2832 186.068 38.2358C185.954 38.1316 185.754 38.1221 185.621 38.2547C185.554 38.3211 185.526 38.4253 185.516 38.5484V38.6621H184.678L184.688 38.539C184.707 38.1884 184.821 37.9042 185.04 37.6958C185.259 37.4874 185.545 37.3832 185.887 37.3832C186.097 37.3832 186.287 37.4305 186.449 37.5158C186.611 37.6011 186.744 37.7337 186.849 37.8947C186.944 38.0558 187.001 38.2263 187.001 38.3969C187.001 38.5863 186.944 38.8042 186.83 39.0221C186.716 39.24 186.525 39.4863 186.23 39.78L186.087 39.9126ZM180.233 42.8021L180.747 41.8358L180.014 41.4853L179.147 43.0958C179.043 43.2947 178.966 43.4463 178.938 43.5505C178.909 43.6547 178.89 43.759 178.89 43.8632C178.89 44.1379 178.995 44.3842 179.204 44.5926C179.414 44.8011 179.69 44.9147 180.004 44.9147C180.309 44.9147 180.575 44.8105 180.785 44.6116C181.004 44.4126 181.108 44.1568 181.108 43.8632C181.108 43.56 181.004 43.3042 180.794 43.0958C180.632 42.9442 180.442 42.84 180.233 42.8021ZM180.271 43.8537C180.271 43.939 180.242 44.0053 180.195 44.0621C180.08 44.1663 179.928 44.1758 179.814 44.0621C179.757 44.0053 179.728 43.939 179.728 43.8537C179.728 43.7684 179.757 43.7021 179.804 43.6453C179.852 43.5979 179.909 43.5695 179.985 43.5695C180.061 43.5695 180.128 43.5979 180.185 43.6453C180.242 43.7021 180.271 43.7684 180.271 43.8537ZM161.849 41.6084H164.163L164.153 42.0821L162.687 44.9526L161.954 44.6116L163.097 42.3853H161.859L161.849 41.6084ZM179.69 5.42843H178.852L178.862 5.30527C178.881 4.95474 178.995 4.67053 179.214 4.46211C179.433 4.25369 179.719 4.14948 180.061 4.14948C180.271 4.14948 180.461 4.18737 180.623 4.28211C180.785 4.36737 180.928 4.49053 181.023 4.66105C181.118 4.82211 181.175 4.99264 181.175 5.16316C181.175 5.35264 181.118 5.57053 181.004 5.78842C180.89 6.00632 180.699 6.25263 180.404 6.54632L180.261 6.6979H181.204V7.46527H178.776V7.02L179.785 6.04422C180.014 5.82633 180.156 5.6558 180.233 5.53264C180.299 5.40948 180.337 5.30527 180.337 5.22C180.337 5.13474 180.309 5.06843 180.252 5.02106C180.137 4.91685 179.928 4.90737 179.804 5.04C179.738 5.10632 179.709 5.21054 179.699 5.33369L179.69 5.42843ZM192.989 30.6379C192.828 30.4769 192.637 30.3821 192.428 30.3442L192.942 29.3779L192.209 29.0274L191.342 30.6379C191.238 30.8369 191.162 30.9884 191.133 31.0926C191.104 31.1968 191.085 31.3011 191.085 31.4053C191.085 31.68 191.19 31.9263 191.4 32.1347C191.609 32.3432 191.885 32.4568 192.199 32.4568C192.504 32.4568 192.761 32.3526 192.98 32.1537C193.199 31.9547 193.304 31.699 193.304 31.4053C193.304 31.0926 193.199 30.8369 192.989 30.6379ZM192.466 31.3863C192.466 31.4716 192.437 31.5379 192.38 31.5947C192.275 31.699 192.114 31.7084 191.999 31.5947C191.942 31.5379 191.914 31.4716 191.914 31.3863C191.914 31.3011 191.942 31.2347 191.99 31.1779C192.037 31.1211 192.104 31.1021 192.171 31.1021C192.256 31.1021 192.323 31.1305 192.371 31.1779C192.437 31.2442 192.466 31.3011 192.466 31.3863ZM188.782 35.7632H189.724V36.5305H187.296V36.0853L188.306 35.1095C188.534 34.8916 188.677 34.7211 188.753 34.5979C188.82 34.4747 188.858 34.3705 188.858 34.2853C188.858 34.2 188.829 34.1337 188.772 34.0863C188.658 33.9821 188.448 33.9726 188.325 34.1053C188.258 34.1716 188.229 34.2758 188.22 34.399V34.5126H187.382L187.392 34.3895C187.411 34.039 187.525 33.7547 187.744 33.5463C187.963 33.3379 188.248 33.2337 188.591 33.2337C188.801 33.2337 188.991 33.2811 189.153 33.3663C189.315 33.4516 189.448 33.5842 189.553 33.7453C189.648 33.9063 189.705 34.0768 189.705 34.2474C189.705 34.4368 189.648 34.6547 189.534 34.8726C189.419 35.0905 189.229 35.3368 188.934 35.6305L188.782 35.7632ZM191.657 33.4042C191.466 33.2811 191.247 33.2242 190.99 33.2242C190.6 33.2242 190.286 33.3758 190.057 33.679C189.867 33.9537 189.772 34.3611 189.772 34.939C189.772 35.3558 189.819 35.659 189.914 35.8958C190.01 36.1326 190.152 36.3126 190.333 36.4263C190.514 36.54 190.743 36.6063 191 36.6063C191.266 36.6063 191.485 36.5495 191.657 36.4263C191.828 36.3126 191.971 36.1232 192.066 35.8863C192.171 35.6495 192.209 35.3274 192.209 34.92C192.209 34.5126 192.161 34.1905 192.066 33.9537C191.98 33.7074 191.837 33.5274 191.657 33.4042ZM191.381 34.92C191.381 35.28 191.333 35.5453 191.247 35.6874C191.171 35.82 191.076 35.8295 191.009 35.8295C190.943 35.8295 190.847 35.8105 190.752 35.6684C190.695 35.5832 190.628 35.3937 190.628 34.9484C190.628 34.6737 190.647 34.4558 190.686 34.3232C190.714 34.2 190.762 34.1147 190.819 34.0674C190.876 34.0295 190.933 34.0011 191 34.0011C191.066 34.0011 191.162 34.02 191.247 34.1621C191.314 34.2663 191.381 34.4653 191.381 34.92ZM183.289 42.9632C183.498 43.1716 183.603 43.4369 183.603 43.759C183.603 44.0811 183.488 44.3558 183.25 44.5832C183.022 44.8011 182.736 44.9147 182.403 44.9147C182.108 44.9147 181.851 44.8295 181.632 44.6684C181.413 44.5074 181.27 44.28 181.213 44.0053L181.175 43.8537H182.041L182.079 43.92C182.118 43.9958 182.165 44.0432 182.222 44.0811C182.356 44.1663 182.546 44.1474 182.66 44.0337C182.727 43.9674 182.765 43.8821 182.765 43.7684C182.765 43.6642 182.736 43.579 182.67 43.5126C182.575 43.4179 182.46 43.3895 182.317 43.4463C182.27 43.4747 182.213 43.5126 182.165 43.56L182.118 43.6074L181.442 43.4653L181.87 41.5895H183.565V42.3568H182.517L182.451 42.6221C182.46 42.6221 182.479 42.6221 182.489 42.6221C182.813 42.6505 183.079 42.7547 183.289 42.9632ZM165.581 38.6526L166.095 37.6863L165.362 37.3358L164.496 38.9463C164.391 39.1453 164.315 39.2969 164.287 39.4011C164.258 39.5053 164.239 39.6095 164.239 39.7137C164.239 39.9884 164.344 40.2347 164.553 40.4432C164.763 40.6516 165.039 40.7653 165.353 40.7653C165.658 40.7653 165.915 40.6611 166.133 40.4621C166.352 40.2632 166.457 40.0074 166.457 39.7137C166.457 39.4105 166.352 39.1547 166.143 38.9463C165.981 38.7853 165.791 38.6905 165.581 38.6526ZM165.619 39.6947C165.619 39.78 165.591 39.8463 165.534 39.9032C165.429 40.0074 165.267 40.0168 165.153 39.9032C165.096 39.8463 165.067 39.78 165.067 39.6947C165.067 39.6095 165.096 39.5432 165.143 39.4863C165.191 39.4295 165.258 39.4105 165.324 39.4105C165.41 39.4105 165.467 39.439 165.524 39.4863C165.6 39.5432 165.619 39.6095 165.619 39.6947ZM168.647 43.0768C168.723 42.9916 168.771 42.9158 168.809 42.84C168.856 42.7358 168.885 42.6221 168.885 42.4895C168.885 42.319 168.837 42.1484 168.751 42.0063C168.656 41.8547 168.533 41.7411 168.371 41.6558C168.057 41.4947 167.59 41.4947 167.276 41.6558C167.114 41.7316 166.981 41.8547 166.895 41.9969C166.8 42.1484 166.762 42.3095 166.762 42.48C166.762 42.6126 166.79 42.7358 166.847 42.8495C166.886 42.9253 166.933 43.0011 166.99 43.0768C166.886 43.1716 166.8 43.2663 166.743 43.38C166.657 43.5316 166.619 43.6926 166.619 43.8632C166.619 44.0621 166.667 44.2516 166.771 44.4126C166.876 44.5737 167.009 44.7063 167.181 44.7821C167.352 44.8579 167.571 44.8958 167.838 44.8958C168.095 44.8958 168.304 44.8579 168.475 44.7726C168.647 44.6874 168.79 44.5642 168.885 44.3937C168.99 44.2232 169.037 44.0432 169.037 43.8537C169.037 43.6737 168.999 43.5032 168.904 43.3516C168.837 43.2568 168.752 43.1621 168.647 43.0768ZM167.961 42.6884C167.876 42.7737 167.733 42.7737 167.647 42.6884C167.6 42.6505 167.581 42.5937 167.581 42.5274C167.581 42.4611 167.6 42.4137 167.638 42.3758C167.676 42.3379 167.723 42.319 167.79 42.319C167.866 42.319 167.914 42.3379 167.961 42.3758C167.999 42.4137 168.018 42.4611 168.018 42.5179C168.028 42.5937 168.009 42.6505 167.961 42.6884ZM167.542 43.6169C167.619 43.5505 167.704 43.5221 167.819 43.5221C167.923 43.5221 168.009 43.5505 168.085 43.6169C168.152 43.6832 168.19 43.7495 168.19 43.8347C168.19 43.92 168.161 43.9863 168.095 44.0432C167.971 44.1568 167.676 44.1569 167.542 44.0337C167.476 43.9769 167.447 43.9011 167.447 43.8158C167.438 43.74 167.476 43.6737 167.542 43.6169ZM165.581 42.8021L166.095 41.8358L165.362 41.4853L164.496 43.0958C164.391 43.2947 164.315 43.4463 164.287 43.5505C164.258 43.6547 164.239 43.759 164.239 43.8632C164.239 44.1379 164.344 44.3842 164.553 44.5926C164.763 44.8011 165.039 44.9147 165.353 44.9147C165.658 44.9147 165.915 44.8105 166.133 44.6116C166.352 44.4126 166.457 44.1568 166.457 43.8632C166.457 43.56 166.352 43.3042 166.143 43.0958C165.981 42.9442 165.791 42.84 165.581 42.8021ZM165.619 43.8537C165.619 43.939 165.591 44.0053 165.534 44.0621C165.429 44.1663 165.267 44.1758 165.153 44.0621C165.096 44.0053 165.067 43.939 165.067 43.8537C165.067 43.7684 165.096 43.7021 165.143 43.6453C165.191 43.5979 165.258 43.5695 165.324 43.5695C165.41 43.5695 165.467 43.5979 165.524 43.6453C165.6 43.7021 165.619 43.7684 165.619 43.8537ZM170.465 42.8021L170.979 41.8358L170.246 41.4853L169.38 43.0958C169.275 43.2947 169.199 43.4463 169.17 43.5505C169.142 43.6547 169.123 43.759 169.123 43.8632C169.123 44.1379 169.228 44.3842 169.437 44.5926C169.646 44.8011 169.922 44.9147 170.237 44.9147C170.541 44.9147 170.808 44.8105 171.017 44.6116C171.236 44.4126 171.341 44.1568 171.341 43.8632C171.341 43.56 171.236 43.3042 171.027 43.0958C170.865 42.9442 170.675 42.84 170.465 42.8021ZM170.503 43.8537C170.503 43.939 170.475 44.0053 170.417 44.0621C170.313 44.1663 170.151 44.1758 170.037 44.0621C169.98 44.0053 169.951 43.939 169.951 43.8537C169.951 43.7684 169.98 43.7021 170.027 43.6453C170.075 43.5979 170.141 43.5695 170.208 43.5695C170.284 43.5695 170.351 43.5979 170.408 43.6453C170.475 43.7021 170.503 43.7684 170.503 43.8537ZM176.348 42.0821L174.882 44.9526L174.149 44.6116L175.292 42.3853H174.054V41.6084H176.367L176.348 42.0821ZM178.529 41.5326H177.738L176.348 43.5032L176.329 43.5316V44.2137H177.7V44.8295H178.538V44.2137H178.814V43.4463H178.538V41.5326H178.529ZM177.348 43.4558L177.691 42.9726V43.4558H177.348ZM172.712 41.5326C172.407 41.5326 172.15 41.6368 171.931 41.8358C171.712 42.0347 171.607 42.2905 171.607 42.5842C171.607 42.8874 171.712 43.1432 171.922 43.3421C172.084 43.5032 172.274 43.5979 172.493 43.6358L171.969 44.6021L172.702 44.9526L173.569 43.3421C173.683 43.1432 173.75 42.9916 173.778 42.8969C173.807 42.7926 173.826 42.6884 173.826 42.5842C173.826 42.3095 173.721 42.0632 173.511 41.8547C173.302 41.6369 173.035 41.5326 172.712 41.5326ZM172.988 42.5937C172.988 42.679 172.959 42.7453 172.912 42.7926C172.807 42.8968 172.636 42.8874 172.531 42.7926C172.474 42.7358 172.455 42.6695 172.455 42.5937C172.455 42.5084 172.483 42.4421 172.54 42.3853C172.598 42.3284 172.655 42.3095 172.731 42.3095C172.798 42.3095 172.855 42.3379 172.912 42.3853C172.969 42.4421 172.988 42.5084 172.988 42.5937ZM187.715 23.1537L187.573 23.3053H188.515V24.0726H186.087V23.6274L187.097 22.6516C187.325 22.4337 187.468 22.2632 187.544 22.14C187.611 22.0168 187.649 21.9126 187.649 21.8274C187.649 21.7421 187.62 21.6758 187.563 21.6284C187.449 21.5242 187.239 21.5147 187.116 21.6474C187.049 21.7137 187.02 21.8179 187.011 21.9411V22.0547H186.173L186.183 21.9316C186.202 21.5811 186.316 21.2968 186.535 21.0884C186.754 20.88 187.039 20.7758 187.382 20.7758C187.592 20.7758 187.782 20.8137 187.944 20.9084C188.106 20.9937 188.248 21.1263 188.344 21.2874C188.439 21.4484 188.496 21.619 188.496 21.7895C188.496 21.979 188.439 22.1968 188.325 22.4147C188.21 22.6137 188.01 22.86 187.715 23.1537ZM184.926 17.0716C184.736 17.3463 184.64 17.7537 184.64 18.3316C184.64 18.739 184.688 19.0516 184.783 19.2884C184.878 19.5253 185.021 19.6958 185.202 19.8189C185.383 19.9326 185.611 19.999 185.868 19.999C186.135 19.999 186.354 19.9421 186.525 19.8189C186.697 19.7053 186.839 19.5158 186.944 19.279C187.039 19.0421 187.087 18.72 187.087 18.3126C187.087 17.9053 187.039 17.5832 186.944 17.3463C186.849 17.1 186.697 16.92 186.516 16.7969C186.325 16.6737 186.106 16.6168 185.849 16.6168C185.459 16.6074 185.145 16.7589 184.926 17.0716ZM186.116 17.5547C186.173 17.64 186.24 17.8484 186.24 18.3032C186.24 18.6632 186.192 18.9284 186.106 19.0705C186.03 19.2032 185.935 19.2126 185.878 19.2126C185.811 19.2126 185.716 19.1937 185.621 19.0516C185.564 18.9663 185.497 18.7768 185.497 18.3316C185.497 18.0568 185.516 17.839 185.554 17.7063C185.592 17.5832 185.63 17.4979 185.688 17.4505C185.745 17.4126 185.802 17.3842 185.868 17.3842C185.935 17.3937 186.03 17.4126 186.116 17.5547ZM180.004 3.37263C180.309 3.37263 180.575 3.26843 180.785 3.06948C181.004 2.87053 181.108 2.61474 181.108 2.32106C181.108 2.0179 181.004 1.76211 180.794 1.56316C180.632 1.40211 180.442 1.30738 180.233 1.26948L180.747 0.303164L180.014 -0.0473633L179.147 1.56316C179.043 1.76211 178.966 1.91369 178.938 2.0179C178.909 2.12212 178.89 2.22632 178.89 2.33053C178.89 2.60527 178.995 2.85159 179.204 3.06001C179.423 3.26843 179.69 3.37263 180.004 3.37263ZM179.728 2.31159C179.728 2.22632 179.757 2.16 179.804 2.10316C179.852 2.05579 179.909 2.02738 179.985 2.02738C180.061 2.02738 180.128 2.05579 180.185 2.10316C180.242 2.16 180.261 2.21685 180.261 2.30212C180.261 2.38738 180.233 2.45369 180.185 2.51053C180.071 2.61474 179.918 2.62422 179.804 2.51053C179.757 2.46316 179.728 2.39685 179.728 2.31159ZM182.451 20.7189L181.584 22.3295C181.48 22.5284 181.404 22.68 181.375 22.7842C181.346 22.8884 181.327 22.9926 181.327 23.0969C181.327 23.3716 181.432 23.6179 181.642 23.8263C181.851 24.0347 182.127 24.1484 182.441 24.1484C182.746 24.1484 183.012 24.0442 183.222 23.8453C183.441 23.6463 183.546 23.3905 183.546 23.0969C183.546 22.7937 183.441 22.5379 183.231 22.3295C183.07 22.1684 182.879 22.0737 182.67 22.0358L183.184 21.0695L182.451 20.7189ZM182.708 23.0779C182.708 23.1632 182.679 23.2295 182.622 23.2863C182.517 23.3905 182.356 23.4 182.241 23.2863C182.184 23.2295 182.156 23.1632 182.156 23.0779C182.156 22.9926 182.184 22.9263 182.232 22.8695C182.279 22.8126 182.337 22.7937 182.413 22.7937C182.489 22.7937 182.555 22.8221 182.613 22.8695C182.689 22.9358 182.708 22.9926 182.708 23.0779ZM187.325 12.4105L186.459 14.0211C186.354 14.22 186.278 14.3716 186.249 14.4758C186.221 14.58 186.202 14.6842 186.202 14.7884C186.202 15.0632 186.306 15.3095 186.516 15.5179C186.725 15.7263 187.001 15.84 187.315 15.84C187.62 15.84 187.887 15.7358 188.096 15.5368C188.315 15.3379 188.42 15.0821 188.42 14.7884C188.42 14.4853 188.315 14.2295 188.106 14.0211C187.944 13.86 187.753 13.7653 187.544 13.7274L188.058 12.7611L187.325 12.4105ZM187.582 14.7695C187.582 14.8547 187.553 14.9211 187.506 14.9779C187.401 15.0821 187.239 15.0916 187.125 14.9779C187.068 14.9211 187.039 14.8547 187.039 14.7695C187.039 14.6842 187.068 14.6179 187.116 14.5611C187.163 14.5137 187.23 14.4853 187.296 14.4853C187.373 14.4853 187.439 14.5137 187.496 14.5611C187.563 14.6274 187.582 14.6842 187.582 14.7695ZM183.793 18.9947L183.65 19.1463H184.593V19.9137H182.165V19.4684L183.174 18.4926C183.403 18.2747 183.546 18.1042 183.622 17.9811C183.688 17.8579 183.726 17.7537 183.726 17.6684C183.726 17.5832 183.698 17.5168 183.641 17.4695C183.527 17.3653 183.317 17.3558 183.193 17.4884C183.127 17.5547 183.098 17.6589 183.089 17.7821V17.8958H182.251L182.26 17.7726C182.279 17.4221 182.394 17.1379 182.613 16.9295C182.832 16.7211 183.117 16.6168 183.46 16.6168C183.669 16.6168 183.86 16.6547 184.022 16.7495C184.183 16.8347 184.326 16.9579 184.421 17.1284C184.517 17.2895 184.574 17.46 184.574 17.6305C184.574 17.82 184.517 18.0379 184.402 18.2558C184.288 18.4547 184.088 18.7011 183.793 18.9947ZM180.147 25.9768C180.147 26.28 180.252 26.5358 180.461 26.7347C180.623 26.8958 180.813 26.9905 181.032 27.0284L180.509 27.9947L181.242 28.3453L182.108 26.7347C182.222 26.5358 182.289 26.3842 182.317 26.2895C182.346 26.1853 182.365 26.0811 182.365 25.9768C182.365 25.7021 182.26 25.4558 182.051 25.2474C181.842 25.039 181.565 24.9253 181.251 24.9253C180.947 24.9253 180.69 25.0295 180.471 25.2284C180.252 25.4274 180.147 25.6832 180.147 25.9768ZM180.985 25.9768C180.985 25.8916 181.013 25.8253 181.07 25.7684C181.127 25.7116 181.185 25.6926 181.261 25.6926C181.327 25.6926 181.385 25.7211 181.442 25.7684C181.499 25.8253 181.527 25.8916 181.527 25.9768C181.527 26.0621 181.499 26.1284 181.451 26.1758C181.346 26.28 181.175 26.28 181.07 26.1758C181.013 26.1284 180.985 26.0621 180.985 25.9768ZM183.622 28.2979C183.327 28.2979 183.07 28.2126 182.851 28.0516C182.632 27.8905 182.489 27.6632 182.432 27.3884L182.394 27.2368H183.26L183.298 27.3032C183.336 27.3789 183.384 27.4263 183.441 27.4642C183.574 27.54 183.755 27.5305 183.879 27.4169C183.945 27.3505 183.983 27.2653 183.983 27.1516C183.983 27.0474 183.955 26.9621 183.888 26.8958C183.793 26.8011 183.679 26.7726 183.536 26.839C183.488 26.8674 183.431 26.9053 183.384 26.9526L183.336 27L182.66 26.8579L183.089 24.9821H184.783V25.7495H183.736L183.669 26.0147C183.679 26.0147 183.688 26.0147 183.707 26.0147C184.022 26.0147 184.298 26.119 184.507 26.3274C184.717 26.5358 184.821 26.8011 184.821 27.1232C184.821 27.4453 184.707 27.72 184.469 27.9474C184.241 28.1842 183.955 28.2979 183.622 28.2979ZM185.554 12.6379C185.364 12.5147 185.145 12.4579 184.888 12.4579C184.498 12.4579 184.183 12.6095 183.955 12.9126C183.765 13.1874 183.669 13.5947 183.669 14.1726C183.669 14.58 183.717 14.8926 183.812 15.1295C183.907 15.3663 184.05 15.5369 184.231 15.66C184.412 15.7737 184.64 15.84 184.897 15.84C185.164 15.84 185.383 15.7832 185.554 15.66C185.726 15.5463 185.868 15.3568 185.964 15.12C186.059 14.8832 186.106 14.5611 186.106 14.1537C186.106 13.7463 186.059 13.4242 185.964 13.1874C185.878 12.9411 185.735 12.7611 185.554 12.6379ZM185.269 14.1537C185.269 14.5137 185.221 14.779 185.135 14.9211C185.059 15.0537 184.964 15.0632 184.897 15.0632C184.831 15.0632 184.736 15.0442 184.64 14.9021C184.583 14.8169 184.517 14.6274 184.517 14.1821C184.517 13.9074 184.536 13.6895 184.574 13.5568C184.612 13.4337 184.65 13.3484 184.707 13.3011C184.764 13.2632 184.821 13.2347 184.888 13.2347C184.955 13.2347 185.05 13.2537 185.135 13.3958C185.202 13.4905 185.269 13.6895 185.269 14.1537ZM183.212 32.1442C183.431 31.9453 183.536 31.6895 183.536 31.3958C183.536 31.0926 183.431 30.8369 183.222 30.6284C183.06 30.4674 182.87 30.3726 182.66 30.3347L183.174 29.3684L182.441 29.0179L181.575 30.6284C181.47 30.8274 181.394 30.979 181.365 31.0832C181.337 31.1874 181.318 31.2916 181.318 31.3958C181.318 31.6705 181.423 31.9168 181.632 32.1253C181.842 32.3337 182.118 32.4474 182.432 32.4474C182.736 32.4474 183.003 32.3432 183.212 32.1442ZM182.156 31.3863C182.156 31.3011 182.184 31.2347 182.232 31.1779C182.279 31.1211 182.337 31.1021 182.413 31.1021C182.489 31.1021 182.555 31.1305 182.613 31.1779C182.67 31.2347 182.689 31.2916 182.689 31.3768C182.689 31.4621 182.66 31.5284 182.613 31.5853C182.498 31.6895 182.346 31.699 182.232 31.5853C182.184 31.5379 182.156 31.4716 182.156 31.3863ZM188.924 27.3032L188.782 27.4547H189.724V28.2221H187.296V27.7768L188.306 26.8011C188.534 26.5832 188.677 26.4126 188.753 26.2895C188.82 26.1663 188.858 26.0621 188.858 25.9768C188.858 25.8916 188.829 25.8253 188.772 25.7779C188.658 25.6737 188.448 25.6642 188.325 25.7969C188.258 25.8632 188.229 25.9674 188.22 26.0905V26.2042H187.382L187.392 26.0811C187.411 25.7305 187.525 25.4463 187.744 25.2379C187.963 25.0295 188.248 24.9253 188.591 24.9253C188.801 24.9253 188.991 24.9726 189.153 25.0579C189.315 25.1432 189.448 25.2758 189.553 25.4368C189.648 25.5979 189.705 25.7684 189.705 25.939C189.705 26.1284 189.648 26.3463 189.534 26.5642C189.419 26.7632 189.219 27.0095 188.924 27.3032ZM182.613 8.29895L181.223 10.2695L181.204 10.2979V10.98H182.575V11.5958H183.412V10.98H183.688V10.2126H183.412V8.28948L182.613 8.29895ZM182.222 10.2221L182.565 9.73896V10.2221H182.222ZM187.544 10.8095C187.611 10.7432 187.649 10.6579 187.649 10.5442C187.649 10.44 187.62 10.3547 187.553 10.2884C187.458 10.1937 187.344 10.1653 187.201 10.2316C187.154 10.26 187.097 10.2979 187.049 10.3453L187.001 10.3926L186.325 10.2505L186.754 8.37474H188.448V9.14211H187.401L187.335 9.40738C187.344 9.40738 187.354 9.40738 187.373 9.40738C187.696 9.40738 187.963 9.51158 188.172 9.72C188.382 9.92842 188.486 10.1937 188.486 10.5158C188.486 10.8379 188.372 11.1126 188.134 11.34C187.906 11.5674 187.62 11.6716 187.287 11.6716C186.992 11.6716 186.735 11.5958 186.516 11.4253C186.297 11.2642 186.154 11.0368 186.097 10.7621L186.059 10.6105H186.925L186.963 10.6768C187.001 10.7526 187.049 10.8 187.106 10.8379C187.239 10.9421 187.42 10.9232 187.544 10.8095ZM187.068 28.2221V27.6063H187.344V26.839H187.068V24.9158H186.278L184.888 26.8863L184.869 26.9147V27.5969H186.24V28.2126L187.068 28.2221ZM185.878 26.839L186.221 26.3558V26.839H185.878ZM184.907 32.4947L185.773 30.8842C185.878 30.6853 185.954 30.5337 185.983 30.439C186.011 30.3347 186.03 30.2305 186.03 30.1263C186.03 29.8516 185.926 29.6053 185.716 29.3969C185.507 29.1884 185.231 29.0747 184.916 29.0747C184.612 29.0747 184.355 29.179 184.136 29.3779C183.917 29.5768 183.812 29.8326 183.812 30.1263C183.812 30.4295 183.917 30.6853 184.126 30.8842C184.288 31.0453 184.479 31.14 184.697 31.1779L184.174 32.1442L184.907 32.4947ZM184.65 30.1358C184.65 30.0505 184.678 29.9842 184.736 29.9274C184.793 29.8705 184.85 29.8516 184.926 29.8516C184.993 29.8516 185.05 29.88 185.107 29.9274C185.164 29.9842 185.193 30.0505 185.193 30.1358C185.193 30.2211 185.164 30.2874 185.116 30.3347C185.012 30.4389 184.831 30.4389 184.736 30.3347C184.669 30.2779 184.65 30.2116 184.65 30.1358ZM181.175 17.9716C181.242 17.8484 181.28 17.7442 181.28 17.659C181.28 17.5737 181.251 17.5074 181.194 17.46C181.08 17.3558 180.88 17.3463 180.747 17.479C180.68 17.5453 180.651 17.6495 180.642 17.7726V17.8863H179.804L179.814 17.7632C179.833 17.4126 179.947 17.1284 180.166 16.92C180.385 16.7116 180.671 16.6074 181.013 16.6074C181.223 16.6074 181.413 16.6453 181.575 16.74C181.737 16.8253 181.87 16.9484 181.975 17.1189C182.07 17.28 182.127 17.4505 182.127 17.6211C182.127 17.8105 182.07 18.0284 181.956 18.2463C181.842 18.4642 181.651 18.7105 181.356 19.0042L181.204 19.1558H182.146V19.9232H179.719V19.4779L180.728 18.5021C180.956 18.2747 181.108 18.1042 181.175 17.9716ZM182.651 13.8221C182.717 13.699 182.755 13.5947 182.755 13.5095C182.755 13.4242 182.727 13.3579 182.67 13.3105C182.556 13.2063 182.356 13.1968 182.222 13.3295C182.156 13.3958 182.127 13.5 182.118 13.6232L182.108 13.7368H181.27L181.28 13.6137C181.299 13.2632 181.413 12.979 181.632 12.7705C181.851 12.5621 182.137 12.4579 182.479 12.4579C182.689 12.4579 182.879 12.4958 183.041 12.5905C183.203 12.6758 183.336 12.8084 183.441 12.9695C183.536 13.1305 183.593 13.3011 183.593 13.4716C183.593 13.6611 183.536 13.879 183.422 14.0969C183.308 14.3147 183.117 14.5611 182.822 14.8547L182.679 15.0063H183.622V15.7737H181.194V15.3284L182.203 14.3526C182.432 14.1253 182.584 13.9453 182.651 13.8221ZM181.242 36.6442L182.108 35.0337C182.222 34.8347 182.289 34.6832 182.317 34.5884C182.346 34.4842 182.365 34.38 182.365 34.2758C182.365 34.0011 182.26 33.7547 182.051 33.5463C181.842 33.3379 181.565 33.2242 181.251 33.2242C180.947 33.2242 180.69 33.3284 180.471 33.5274C180.252 33.7263 180.147 33.9821 180.147 34.2758C180.147 34.579 180.252 34.8347 180.461 35.0337C180.623 35.1947 180.813 35.2895 181.032 35.3274L180.509 36.2937L181.242 36.6442ZM180.985 34.2853C180.985 34.2 181.013 34.1337 181.07 34.0768C181.127 34.02 181.185 34.0011 181.261 34.0011C181.327 34.0011 181.385 34.0295 181.442 34.0768C181.499 34.1337 181.527 34.2 181.527 34.2853C181.527 34.3705 181.499 34.4368 181.451 34.4842C181.346 34.5884 181.175 34.5884 181.07 34.4842C181.013 34.4368 180.985 34.3705 180.985 34.2853ZM184.307 20.8421H186.002V21.6095H184.955L184.888 21.8747C184.897 21.8747 184.907 21.8747 184.926 21.8747C185.24 21.8747 185.516 21.9789 185.726 22.1874C185.935 22.3958 186.04 22.6611 186.04 22.9832C186.04 23.3053 185.926 23.58 185.688 23.8074C185.459 24.0253 185.173 24.139 184.84 24.139C184.545 24.139 184.288 24.0632 184.069 23.8926C183.85 23.7316 183.717 23.5042 183.65 23.2295L183.612 23.0779H184.479L184.517 23.1442C184.555 23.22 184.602 23.2674 184.659 23.3053C184.793 23.3905 184.974 23.3716 185.097 23.2579C185.164 23.1916 185.202 23.1063 185.202 22.9926C185.202 22.8884 185.174 22.8032 185.107 22.7368C185.012 22.6421 184.897 22.6137 184.755 22.68C184.707 22.7084 184.65 22.7463 184.602 22.7937L184.555 22.8411L183.869 22.6989L184.307 20.8421ZM187.496 5.00212H186.259V4.22527H188.572L188.563 4.69895L187.097 7.56948L186.363 7.22843L187.496 5.00212ZM184.897 35.5074L184.888 35.3747H185.726L185.745 35.479C185.764 35.6021 185.811 35.6968 185.868 35.7537C185.992 35.8674 186.23 35.8674 186.373 35.7442C186.44 35.6779 186.468 35.6116 186.468 35.5168C186.468 35.4221 186.421 35.3369 186.335 35.2705C186.23 35.1947 186.078 35.1568 185.878 35.1568H185.754V34.4368L185.868 34.4274C186.03 34.4179 186.106 34.3895 186.145 34.3705C186.192 34.3516 186.23 34.3232 186.259 34.2853C186.287 34.2474 186.297 34.2095 186.297 34.1811C186.297 34.1337 186.278 34.0958 186.249 34.0674C186.23 34.0484 186.192 34.02 186.106 34.02C186.049 34.02 186.002 34.039 185.954 34.0674C185.907 34.0958 185.878 34.1432 185.859 34.2L185.83 34.2853H185.021L185.04 34.1526C185.078 33.9063 185.173 33.7074 185.326 33.5558C185.545 33.3474 185.811 33.2432 186.135 33.2432C186.421 33.2432 186.668 33.3284 186.868 33.5084C187.068 33.6884 187.173 33.9063 187.173 34.1526C187.173 34.3137 187.125 34.4558 187.039 34.5884C186.992 34.6547 186.935 34.7116 186.868 34.759C186.982 34.8158 187.068 34.8916 187.144 34.9863C187.268 35.1474 187.335 35.3274 187.335 35.5358C187.335 35.839 187.22 36.0947 186.982 36.3032C186.754 36.5116 186.459 36.6158 186.106 36.6158C185.764 36.6158 185.488 36.5116 185.269 36.3221C185.04 36.1137 184.916 35.839 184.897 35.5074ZM188.544 29.6242L187.077 32.4947L186.344 32.1537L187.487 29.9274H186.249V29.1505H188.563L188.544 29.6242ZM185.059 5.00212H183.822V4.22527H186.135L186.125 4.69895L184.659 7.56948L183.926 7.22843L185.059 5.00212ZM189.448 9.5779H188.61L188.62 9.45475C188.639 9.10422 188.753 8.82001 188.972 8.61159C189.191 8.40317 189.477 8.29895 189.819 8.29895C190.029 8.29895 190.219 8.33685 190.381 8.43158C190.543 8.51685 190.676 8.64001 190.781 8.81053C190.876 8.97158 190.933 9.14212 190.933 9.31264C190.933 9.50212 190.876 9.72001 190.762 9.9379C190.648 10.1558 190.457 10.4021 190.162 10.6958L190.019 10.8474H190.962V11.6147H188.534V11.1695L189.534 10.1937C189.762 9.97579 189.905 9.80526 189.981 9.68211C190.048 9.55895 190.086 9.45474 190.086 9.36948C190.086 9.29369 190.057 9.22738 190 9.17054C189.886 9.06633 189.686 9.05685 189.553 9.18948C189.486 9.25579 189.457 9.36 189.448 9.48316V9.5779ZM182.67 2.50106C182.736 2.43474 182.774 2.34948 182.774 2.23579C182.774 2.13158 182.746 2.04632 182.679 1.98001C182.584 1.88527 182.47 1.85685 182.327 1.92317C182.279 1.95159 182.222 1.98948 182.175 2.03685L182.127 2.08422L181.451 1.94211L181.88 0.0663221H183.574V0.833688H182.527L182.46 1.09895C182.47 1.09895 182.489 1.09895 182.498 1.09895C182.822 1.09895 183.089 1.20317 183.298 1.41159C183.507 1.62001 183.612 1.88527 183.612 2.20738C183.612 2.52948 183.498 2.80422 183.26 3.03158C183.031 3.25895 182.746 3.36316 182.413 3.36316C182.118 3.36316 181.861 3.28738 181.642 3.11685C181.423 2.9558 181.28 2.72843 181.223 2.45369L181.185 2.30212H182.051L182.089 2.36843C182.127 2.44422 182.175 2.49158 182.232 2.52947C182.365 2.63368 182.556 2.61474 182.67 2.50106ZM183.117 4.32947C182.927 4.20632 182.708 4.14948 182.451 4.14948C182.06 4.14948 181.746 4.30106 181.518 4.60421C181.327 4.87895 181.232 5.28632 181.232 5.86422C181.232 6.27159 181.28 6.58422 181.375 6.82106C181.47 7.0579 181.613 7.22842 181.794 7.35158C181.975 7.46527 182.203 7.53158 182.46 7.53158C182.727 7.53158 182.946 7.47474 183.117 7.35158C183.289 7.2379 183.431 7.04843 183.536 6.81159C183.631 6.57474 183.679 6.25263 183.679 5.84526C183.679 5.4379 183.631 5.11579 183.536 4.87895C183.45 4.63264 183.308 4.45263 183.117 4.32947ZM182.841 5.84526C182.841 6.20526 182.793 6.47054 182.708 6.61264C182.632 6.74527 182.536 6.75475 182.47 6.75475C182.403 6.75475 182.308 6.73579 182.213 6.59369C182.156 6.50842 182.089 6.31895 182.089 5.87369C182.089 5.59895 182.108 5.38106 182.146 5.24843C182.175 5.12527 182.222 5.04 182.279 4.99263C182.337 4.95474 182.394 4.92632 182.46 4.92632C182.527 4.92632 182.622 4.94526 182.708 5.08737C182.774 5.18211 182.841 5.39053 182.841 5.84526ZM184.878 11.6811C185.183 11.6811 185.45 11.5768 185.659 11.3779C185.878 11.179 185.983 10.9232 185.983 10.6295C185.983 10.3263 185.878 10.0705 185.669 9.86211C185.507 9.70106 185.316 9.60632 185.107 9.56843L185.621 8.60212L184.888 8.25158L184.022 9.86211C183.917 10.0611 183.841 10.2126 183.812 10.3168C183.784 10.4211 183.765 10.5253 183.765 10.6295C183.765 10.9042 183.869 11.1505 184.079 11.359C184.298 11.5768 184.564 11.6811 184.878 11.6811ZM184.602 10.62C184.602 10.5347 184.631 10.4684 184.678 10.4116C184.726 10.3642 184.783 10.3358 184.859 10.3358C184.945 10.3358 185.002 10.3642 185.059 10.4116C185.116 10.4684 185.135 10.5253 185.135 10.6105C185.135 10.6958 185.107 10.7621 185.059 10.8189C184.955 10.9232 184.793 10.9326 184.678 10.8189C184.631 10.7716 184.602 10.7053 184.602 10.62ZM176.082 40.7558C176.387 40.7558 176.653 40.6516 176.863 40.4526C177.082 40.2537 177.186 39.9979 177.186 39.7042C177.186 39.4011 177.082 39.1453 176.872 38.9368C176.71 38.7758 176.52 38.6811 176.31 38.6432L176.824 37.6768L176.091 37.3263L175.225 38.9368C175.12 39.1358 175.044 39.2874 175.016 39.3916C174.987 39.4958 174.968 39.6 174.968 39.7042C174.968 39.979 175.073 40.2253 175.282 40.4337C175.492 40.6516 175.758 40.7558 176.082 40.7558ZM175.806 39.6947C175.806 39.6095 175.834 39.5432 175.882 39.4863C175.93 39.4295 175.987 39.4105 176.063 39.4105C176.139 39.4105 176.206 39.439 176.263 39.4863C176.32 39.5432 176.339 39.6 176.339 39.6853C176.339 39.7705 176.31 39.8368 176.263 39.8937C176.158 39.9979 175.996 40.0074 175.882 39.8937C175.834 39.8463 175.806 39.78 175.806 39.6947ZM175.52 16.6832H176.605V19.9137H175.758V17.46H175.016L175.52 16.6832ZM178.928 8.37474H181.242L181.232 8.84843L179.766 11.7189L179.033 11.3779L180.175 9.15158H178.938L178.928 8.37474ZM184.888 33.7737L183.422 36.6442L182.689 36.3032L183.831 34.0768H182.594V33.3H184.907L184.888 33.7737ZM177.453 16.6832H179.766L179.757 17.1568L178.291 20.0274L177.557 19.6863L178.7 17.46H177.462L177.453 16.6832ZM184.593 40.68H182.165V40.2347L183.174 39.259C183.403 39.0411 183.546 38.8705 183.622 38.7474C183.688 38.6242 183.726 38.52 183.726 38.4347C183.726 38.3495 183.698 38.2832 183.641 38.2358C183.527 38.1316 183.317 38.1221 183.193 38.2547C183.127 38.3211 183.098 38.4253 183.089 38.5484V38.6621H182.251L182.26 38.539C182.279 38.1884 182.394 37.9042 182.613 37.6958C182.832 37.4874 183.117 37.3832 183.46 37.3832C183.669 37.3832 183.86 37.4305 184.022 37.5158C184.183 37.6011 184.326 37.7337 184.421 37.8947C184.517 38.0558 184.574 38.2263 184.574 38.3969C184.574 38.5863 184.517 38.8042 184.402 39.0221C184.288 39.24 184.098 39.4863 183.803 39.78L183.66 39.9316H184.602L184.593 40.68ZM177.319 24.1863L176.586 23.8453L177.729 21.6189H176.491V20.8421H178.805L178.795 21.3158L177.319 24.1863ZM180.128 24.0632H180.966V23.4474H181.242V22.68H180.966V20.7568H180.175L178.786 22.7368L178.767 22.7653V23.4474H180.137V24.0632H180.128ZM179.785 22.6895L180.128 22.2063V22.6895H179.785Z" fill="#F2D080"/>
</g>
<defs>
<clipPath id="clip0_147_95">
<rect width="238" height="45" fill="white"/>
</clipPath>
</defs>
</svg>
