<svg width="211" height="38" viewBox="0 0 211 38" fill="none" xmlns="http://www.w3.org/2000/svg">
<g clip-path="url(#clip0_147_76)">
<path d="M42.5854 10.6089C34.9202 10.6089 28.931 16.4752 28.931 24.3286C28.931 32.1819 34.7689 37.9981 42.5854 37.9981C50.4018 37.9981 56.3412 32.0815 56.3412 24.2784C56.3412 16.5254 50.5033 10.6089 42.5854 10.6089ZM42.6371 32.3383C38.272 32.3383 35.0735 28.9205 35.0735 24.3305C35.0735 19.6884 38.2203 16.2725 42.5854 16.2725C47.0021 16.2725 50.1988 19.7405 50.1988 24.3305C50.1988 28.9205 47.0021 32.3383 42.6371 32.3383ZM58.0152 16.5776H61.8229V37.4902H67.9136V11.1187H58.0152V16.5776ZM13.6026 16.2705C16.8012 16.2705 19.339 18.2595 20.3025 21.2177H26.7494C25.5811 14.8937 20.404 10.6089 13.6544 10.6089C5.98923 10.6089 0 16.4752 0 24.3305C0 32.1858 5.83791 38 13.6544 38C20.2527 38 25.5313 33.7151 26.6996 27.339H20.3025C19.3888 30.2973 16.851 32.3383 13.6524 32.3383C9.2357 32.3383 6.14054 28.9205 6.14054 24.3305C6.14245 19.6884 9.18782 16.2705 13.6026 16.2705ZM173.743 21.7797L169.277 21.1173C167.145 20.8122 165.622 20.0978 165.622 18.4139C165.622 16.5776 167.603 15.6603 170.292 15.6603C173.236 15.6603 175.114 16.9348 175.521 19.0261H181.408C180.747 13.7216 176.687 10.6108 170.445 10.6108C163.998 10.6108 159.734 13.9263 159.734 18.6186C159.734 23.1063 162.527 25.7092 168.16 26.5241L172.626 27.1864C174.81 27.4915 176.028 28.3605 176.028 29.9922C176.028 32.0834 173.896 32.9505 170.952 32.9505C167.348 32.9505 165.318 31.4713 165.013 29.2275H159.024C159.583 34.3794 163.592 38 170.901 38C177.551 38 181.966 34.9394 181.966 29.6851C181.966 24.9928 178.769 22.5443 173.743 21.7797ZM64.8683 0.254891C62.635 0.254891 60.9591 1.88658 60.9591 4.13039C60.9591 6.37421 62.6331 8.00589 64.8683 8.00589C67.1015 8.00589 68.7775 6.37421 68.7775 4.13039C68.7775 1.88658 67.1015 0.254891 64.8683 0.254891ZM154.253 20.148C154.253 14.4361 150.801 10.6108 143.492 10.6108C136.59 10.6108 132.732 14.131 131.97 19.5378H138.011C138.315 17.4465 139.939 15.7125 143.391 15.7125C146.488 15.7125 148.011 17.0893 148.011 18.7731C148.011 20.9667 145.218 21.5267 141.767 21.8839C137.097 22.3937 131.311 24.0254 131.311 30.1467C131.311 34.8911 134.814 37.9498 140.397 37.9498C144.762 37.9498 147.503 36.1134 148.874 33.2053C149.078 35.8064 151.006 37.4902 153.697 37.4902H157.25V32.0332H154.255V20.148H154.253ZM148.263 26.779C148.263 30.2992 145.218 32.9002 141.512 32.9002C139.227 32.9002 137.298 31.9309 137.298 29.8918C137.298 27.2907 140.395 26.5763 143.238 26.2712C145.979 26.0163 147.501 25.4041 148.263 24.2301V26.779ZM115.931 10.6089C112.529 10.6089 109.687 12.0378 107.657 14.4342V0H101.566V37.4902H107.555V34.0222C109.585 36.5209 112.479 38 115.931 38C123.24 38 128.773 32.1858 128.773 24.3305C128.773 16.4752 123.138 10.6089 115.931 10.6089ZM115.017 32.3383C110.652 32.3383 107.454 28.9205 107.454 24.3305C107.454 19.7405 110.702 16.2725 115.067 16.2725C119.484 16.2725 122.579 19.6903 122.579 24.3305C122.579 28.9205 119.382 32.3383 115.017 32.3383ZM86.9979 10.6089C83.039 10.6089 80.4494 12.2406 78.9268 14.5365V11.1187H72.8858V37.4883H78.9766V23.1565C78.9766 19.1265 81.5144 16.2705 85.2703 16.2705C88.7735 16.2705 90.955 18.7692 90.955 22.3918V37.4902H97.0458V21.9341C97.0477 15.3012 93.648 10.6089 86.9979 10.6089ZM211 23.4635C211 15.9152 205.518 10.6108 198.158 10.6108C190.341 10.6108 184.605 16.5274 184.605 24.3305C184.605 32.543 190.747 38 198.259 38C204.605 38 209.579 34.2249 210.847 28.8703H204.501C203.588 31.2164 201.354 32.543 198.359 32.543C194.45 32.543 191.506 30.0945 190.847 25.8096H210.998V23.4635H211ZM191.203 21.4224C192.169 17.7497 194.909 15.9654 198.056 15.9654C201.508 15.9654 204.147 17.9544 204.756 21.4224H191.203Z" fill="#0052FF"/>
</g>
<defs>
<clipPath id="clip0_147_76">
<rect width="211" height="38" fill="white"/>
</clipPath>
</defs>
</svg>
