<svg width="225" height="62" viewBox="0 0 225 62" fill="none" xmlns="http://www.w3.org/2000/svg">
<g clip-path="url(#clip0_147_82)">
<path d="M177.518 57.7969V61.6451H203.967V44.2392H200.102V57.7969H177.518ZM177.518 0.329468V4.17762H200.102V17.7353H203.942V0.329468H177.518ZM163.886 30.1972V21.2267H169.939C172.889 21.2267 173.932 22.2206 173.932 24.8965V26.4765C173.932 29.2288 172.915 30.1718 169.939 30.1718L163.886 30.1972ZM173.474 31.7773C176.221 31.0637 178.154 28.4898 178.154 25.4062C178.154 23.4948 177.365 21.6345 175.966 20.3348C174.161 18.6018 171.745 17.7353 168.591 17.7353H160.097V44.2392H163.886V33.6631H169.557C172.457 33.6631 173.627 34.8864 173.627 37.8936V44.2137H177.492V38.5052C177.492 34.3512 176.501 32.7457 173.499 32.287L173.474 31.7773ZM141.658 32.6692H153.306V29.1779H141.658V21.2267H154.425V17.7353H137.818V44.2392H155.01V40.7478H141.658V32.6692ZM129.018 34.0454V35.8548C129.018 39.6775 127.62 40.9262 124.11 40.9262H123.271C119.761 40.9262 118.057 39.7794 118.057 34.5296V27.4194C118.057 22.1187 119.837 21.0228 123.347 21.0228H124.11C127.543 21.0228 128.637 22.2971 128.688 25.8649H132.833C132.452 20.6406 128.993 17.3531 123.779 17.3531C121.236 17.3531 119.125 18.1431 117.548 19.6722C115.158 21.9148 113.861 25.6865 113.861 30.9873C113.861 36.0842 115.005 39.8813 117.345 42.2259C118.947 43.755 121.058 44.6215 123.271 44.6215C125.534 44.6215 127.62 43.704 128.662 41.7417H129.196V44.2647H132.681V30.605H122.431V34.0709H129.018V34.0454ZM95.7019 21.2267H99.822C103.713 21.2267 105.824 22.2206 105.824 27.4959V34.4532C105.824 39.7539 103.713 40.7478 99.822 40.7478H95.7019V21.2267ZM100.153 44.2392C107.375 44.2392 110.046 38.76 110.046 30.9873C110.046 23.1126 107.172 17.7353 100.076 17.7353H91.9125V44.2392H100.153ZM73.6775 32.6692H85.3255V29.1779H73.6775V21.2267H86.4445V17.7353H69.8118V44.2392H87.0041V40.7478H73.6775V32.6692ZM51.3733 17.7353H47.5076V44.2392H64.8779V40.7478H51.3733V17.7353ZM21.058 44.2392V61.6451H47.5076V57.7714H24.8983V44.2137H21.058V44.2392ZM21.058 0.329468V17.7353H24.8983V4.17762H47.4822V0.329468H21.058Z" fill="white"/>
</g>
<defs>
<clipPath id="clip0_147_82">
<rect width="225" height="62" fill="white"/>
</clipPath>
</defs>
</svg>
