<svg width="32" height="32" viewBox="0 0 32 32" fill="none" xmlns="http://www.w3.org/2000/svg">
<path fill-rule="evenodd" clip-rule="evenodd" d="M12.5985 4.37361C12.3555 5.10258 11.8009 5.67564 11.1295 6.04945C11.0251 6.10759 10.9217 6.16738 10.8194 6.22879C10.1598 6.62476 9.38536 6.81918 8.63166 6.66495L7.02929 6.33705C5.90478 6.10693 4.75918 6.6222 4.18527 7.61624L3.3573 9.05034C2.78339 10.0444 2.90995 11.2941 3.67149 12.1529L4.75819 13.3784C5.26741 13.9527 5.48749 14.7185 5.47533 15.4859C5.47342 15.6064 5.47342 15.7269 5.47533 15.8474C5.48748 16.6148 5.26741 17.3806 4.75819 17.9548L3.67149 19.1803C2.90995 20.0391 2.78339 21.2889 3.3573 22.2829L4.18527 23.717C4.75918 24.711 5.90478 25.2263 7.02929 24.9962L8.63155 24.6683C9.38526 24.5141 10.1597 24.7085 10.8193 25.1045C10.9217 25.1659 11.0251 25.2257 11.1295 25.2839C11.8009 25.6577 12.3555 26.2308 12.5985 26.9597L13.1152 28.5099C13.4782 29.5989 14.4972 30.3333 15.6451 30.3333H17.301C18.4488 30.3333 19.4679 29.5989 19.8308 28.5099L20.3476 26.9597C20.5906 26.2308 21.1452 25.6577 21.8165 25.2839C21.921 25.2257 22.0244 25.1659 22.1267 25.1045C22.7863 24.7085 23.5608 24.5141 24.3145 24.6683L25.9167 24.9962C27.0412 25.2263 28.1868 24.711 28.7607 23.717L29.5887 22.2829C30.1626 21.2889 30.036 20.0391 29.2745 19.1803L28.1879 17.9549C27.6786 17.3807 27.4586 16.6148 27.4707 15.8474C27.4726 15.7269 27.4726 15.6063 27.4707 15.4858C27.4586 14.7184 27.6786 13.9526 28.1879 13.3783L29.2745 12.1529C30.036 11.2941 30.1626 10.0444 29.5887 9.05034L28.7607 7.61624C28.1868 6.62221 27.0412 6.10693 25.9167 6.33705L24.3144 6.66494C23.5607 6.81917 22.7862 6.62475 22.1266 6.22879C22.0243 6.16738 21.921 6.10759 21.8165 6.04945C21.1452 5.67564 20.5906 5.10258 20.3476 4.37361L19.8308 2.82339C19.4679 1.73448 18.4488 1 17.301 1H15.6451C14.4972 1 13.4782 1.73448 13.1152 2.82339L12.5985 4.37361ZM20.4731 15.6667C20.4731 17.8758 18.6822 19.6667 16.4731 19.6667C14.264 19.6667 12.4731 17.8758 12.4731 15.6667C12.4731 13.4575 14.264 11.6667 16.4731 11.6667C18.6822 11.6667 20.4731 13.4575 20.4731 15.6667Z" fill="#7B839A"/>
</svg>
