<svg width="80" height="80" viewBox="0 0 80 80" fill="none" xmlns="http://www.w3.org/2000/svg">
<g filter="url(#filter0_b_347_30)">
<path d="M0 39.8954C0 17.8618 17.9664 0 40 0C62.0336 0 80 17.8618 80 39.8954C80 61.929 62.0336 79.7908 40 79.7908C17.9664 79.7908 0 61.929 0 39.8954Z" fill="url(#paint0_radial_347_30)"/>
<path d="M0.5 39.8954C0.5 18.1396 18.2408 0.5 40 0.5C61.7592 0.5 79.5 18.1396 79.5 39.8954C79.5 61.6512 61.7592 79.2908 40 79.2908C18.2408 79.2908 0.5 61.6512 0.5 39.8954Z" stroke="url(#paint1_radial_347_30)"/>
<path d="M0.5 39.8954C0.5 18.1396 18.2408 0.5 40 0.5C61.7592 0.5 79.5 18.1396 79.5 39.8954C79.5 61.6512 61.7592 79.2908 40 79.2908C18.2408 79.2908 0.5 61.6512 0.5 39.8954Z" stroke="url(#paint2_radial_347_30)"/>
<path d="M0.5 39.8954C0.5 18.1396 18.2408 0.5 40 0.5C61.7592 0.5 79.5 18.1396 79.5 39.8954C79.5 61.6512 61.7592 79.2908 40 79.2908C18.2408 79.2908 0.5 61.6512 0.5 39.8954Z" stroke="url(#paint3_radial_347_30)"/>
</g>
<path fill-rule="evenodd" clip-rule="evenodd" d="M59.75 26.9564C59.75 25.6425 59.2273 24.3809 58.2991 23.4509C57.3691 22.5227 56.1075 22 54.7936 22C48.8982 22 31.8518 22 25.9564 22C24.6425 22 23.3809 22.5227 22.4509 23.4509C21.5227 24.3809 21 25.6425 21 26.9564V46.782C21 48.0959 21.5227 49.3575 22.4509 50.2875C23.3809 51.2157 24.6425 51.7384 25.9564 51.7384H34.2922L39.2936 58.407C39.5495 58.7476 39.9497 58.9477 40.375 58.9477C40.8003 58.9477 41.2005 58.7476 41.4564 58.407L46.4578 51.7384H54.7936C56.1075 51.7384 57.3691 51.2157 58.2991 50.2875C59.2273 49.3575 59.75 48.0959 59.75 46.782C59.75 42.3771 59.75 31.3613 59.75 26.9564ZM30.109 37.4477C28.8149 38.5922 27.9065 40.1656 27.6055 41.9409C27.6019 41.9626 27.5983 41.9842 27.5965 42.0058C27.519 42.6456 27.7191 43.2891 28.148 43.7721C28.577 44.2551 29.1916 44.5309 29.8368 44.5291C32.1798 44.5291 38.2212 44.5291 40.566 44.5038C41.1897 44.5038 41.797 44.2299 42.2188 43.7541C42.6423 43.2765 42.8406 42.642 42.7631 42.0094C42.7613 41.9914 42.7595 41.9734 42.7559 41.9572C42.4693 40.1747 41.5681 38.5976 40.2759 37.4495C39.1278 39.0103 37.2786 40.0233 35.1933 40.0233C33.108 40.0233 31.257 39.0085 30.109 37.4477ZM49.6119 35.5174V33.2645C49.6119 32.5184 49.0063 31.9128 48.2602 31.9128C47.514 31.9128 46.9084 32.5184 46.9084 33.2645V35.5174H44.6555C43.9094 35.5174 43.3038 36.123 43.3038 36.8692C43.3038 37.6153 43.9094 38.2209 44.6555 38.2209H46.9084V40.4738C46.9084 41.22 47.514 41.8256 48.2602 41.8256C49.0063 41.8256 49.6119 41.22 49.6119 40.4738V38.2209H51.8648C52.611 38.2209 53.2166 37.6153 53.2166 36.8692C53.2166 36.123 52.611 35.5174 51.8648 35.5174H49.6119ZM35.1933 29.2093C32.7061 29.2093 30.6875 31.2279 30.6875 33.7151C30.6875 36.2023 32.7061 38.2209 35.1933 38.2209C37.6805 38.2209 39.6991 36.2023 39.6991 33.7151C39.6991 31.2279 37.6805 29.2093 35.1933 29.2093Z" fill="#46DF83"/>
<defs>
<filter id="filter0_b_347_30" x="-5" y="-5" width="90" height="89.7908" filterUnits="userSpaceOnUse" color-interpolation-filters="sRGB">
<feFlood flood-opacity="0" result="BackgroundImageFix"/>
<feGaussianBlur in="BackgroundImageFix" stdDeviation="2.5"/>
<feComposite in2="SourceAlpha" operator="in" result="effect1_backgroundBlur_347_30"/>
<feBlend mode="normal" in="SourceGraphic" in2="effect1_backgroundBlur_347_30" result="shape"/>
</filter>
<radialGradient id="paint0_radial_347_30" cx="0" cy="0" r="1" gradientUnits="userSpaceOnUse" gradientTransform="translate(6.69204) rotate(47.9449) scale(119.431 86.7751)">
<stop stop-color="white" stop-opacity="0.36"/>
<stop offset="1" stop-color="white" stop-opacity="0"/>
</radialGradient>
<radialGradient id="paint1_radial_347_30" cx="0" cy="0" r="1" gradientUnits="userSpaceOnUse" gradientTransform="translate(-42.5965 8.1628) rotate(35.0407) scale(92.1512 54.3882)">
<stop stop-color="white"/>
<stop offset="1" stop-color="white" stop-opacity="0.06"/>
</radialGradient>
<radialGradient id="paint2_radial_347_30" cx="0" cy="0" r="1" gradientUnits="userSpaceOnUse" gradientTransform="translate(103.421 53.4008) rotate(161.385) scale(66.8428 45.1784)">
<stop stop-color="#8470FF"/>
<stop offset="1" stop-color="#865CFF" stop-opacity="0"/>
</radialGradient>
<radialGradient id="paint3_radial_347_30" cx="0" cy="0" r="1" gradientUnits="userSpaceOnUse" gradientTransform="translate(40.871 -18.2359) rotate(47.2149) scale(44.643 32.0879)">
<stop/>
<stop offset="1" stop-color="white" stop-opacity="0"/>
</radialGradient>
</defs>
</svg>
