<svg width="80" height="80" viewBox="0 0 80 80" fill="none" xmlns="http://www.w3.org/2000/svg">
<g filter="url(#filter0_b_347_2)">
<path d="M0 39.8954C0 17.8618 17.9664 0 40 0C62.0336 0 80 17.8618 80 39.8954C80 61.929 62.0336 79.7908 40 79.7908C17.9664 79.7908 0 61.929 0 39.8954Z" fill="url(#paint0_radial_347_2)"/>
<path d="M0.5 39.8954C0.5 18.1396 18.2408 0.5 40 0.5C61.7592 0.5 79.5 18.1396 79.5 39.8954C79.5 61.6512 61.7592 79.2908 40 79.2908C18.2408 79.2908 0.5 61.6512 0.5 39.8954Z" stroke="url(#paint1_radial_347_2)"/>
<path d="M0.5 39.8954C0.5 18.1396 18.2408 0.5 40 0.5C61.7592 0.5 79.5 18.1396 79.5 39.8954C79.5 61.6512 61.7592 79.2908 40 79.2908C18.2408 79.2908 0.5 61.6512 0.5 39.8954Z" stroke="url(#paint2_radial_347_2)"/>
<path d="M0.5 39.8954C0.5 18.1396 18.2408 0.5 40 0.5C61.7592 0.5 79.5 18.1396 79.5 39.8954C79.5 61.6512 61.7592 79.2908 40 79.2908C18.2408 79.2908 0.5 61.6512 0.5 39.8954Z" stroke="url(#paint3_radial_347_2)"/>
</g>
<g clip-path="url(#clip0_347_2)">
<path d="M40.2429 38.8384C42.6359 38.8384 44.7081 37.9801 46.4012 36.2867C48.0943 34.5936 48.9525 32.522 48.9525 30.1287C48.9525 27.7363 48.0943 25.6644 46.4009 23.9707C44.7075 22.2779 42.6356 21.4196 40.2429 21.4196C37.8496 21.4196 35.778 22.2779 34.0849 23.971C32.3918 25.6641 31.5332 27.736 31.5332 30.1287C31.5332 32.522 32.3918 34.5939 34.0851 36.287C35.7785 37.9798 37.8504 38.8384 40.2429 38.8384Z" fill="#46DF83"/>
<path d="M55.4827 49.2254C55.4338 48.5208 55.3351 47.7522 55.1897 46.9405C55.0429 46.1228 54.8539 45.3498 54.6277 44.6432C54.394 43.913 54.0762 43.1918 53.6834 42.5007C53.2756 41.7834 52.7967 41.1588 52.2592 40.6448C51.6973 40.1072 51.0092 39.6748 50.2136 39.3595C49.4207 39.0458 48.542 38.8869 47.602 38.8869C47.2329 38.8869 46.8759 39.0384 46.1865 39.4872C45.7622 39.764 45.2658 40.084 44.7119 40.4379C44.2382 40.7398 43.5965 41.0225 42.8039 41.2786C42.0305 41.5288 41.2454 41.6557 40.4704 41.6557C39.6955 41.6557 38.9106 41.5288 38.1364 41.2786C37.3447 41.0228 36.7029 40.74 36.2298 40.4382C35.6811 40.0876 35.1845 39.7675 34.7538 39.487C34.0652 39.0381 33.7079 38.8866 33.3388 38.8866C32.3986 38.8866 31.5202 39.0458 30.7276 39.3598C29.9325 39.6746 29.2441 40.1069 28.6816 40.6451C28.1445 41.1594 27.6652 41.7837 27.258 42.5007C26.8655 43.1918 26.5476 43.9127 26.3137 44.6435C26.0877 45.35 25.8988 46.1228 25.752 46.9405C25.6066 47.751 25.5078 48.5199 25.459 49.2262C25.411 49.9181 25.3867 50.6362 25.3867 51.3615C25.3867 53.2491 25.9868 54.7772 27.17 55.9042C28.3387 57.0163 29.885 57.5805 31.7654 57.5805H49.1771C51.0575 57.5805 52.6033 57.0166 53.7722 55.9042C54.9557 54.7781 55.5558 53.2497 55.5558 51.3613C55.5555 50.6327 55.5309 49.914 55.4827 49.2254Z" fill="#46DF83"/>
</g>
<defs>
<filter id="filter0_b_347_2" x="-5" y="-5" width="90" height="89.7908" filterUnits="userSpaceOnUse" color-interpolation-filters="sRGB">
<feFlood flood-opacity="0" result="BackgroundImageFix"/>
<feGaussianBlur in="BackgroundImageFix" stdDeviation="2.5"/>
<feComposite in2="SourceAlpha" operator="in" result="effect1_backgroundBlur_347_2"/>
<feBlend mode="normal" in="SourceGraphic" in2="effect1_backgroundBlur_347_2" result="shape"/>
</filter>
<radialGradient id="paint0_radial_347_2" cx="0" cy="0" r="1" gradientUnits="userSpaceOnUse" gradientTransform="translate(6.69204) rotate(47.9449) scale(119.431 86.7751)">
<stop stop-color="white" stop-opacity="0.36"/>
<stop offset="1" stop-color="white" stop-opacity="0"/>
</radialGradient>
<radialGradient id="paint1_radial_347_2" cx="0" cy="0" r="1" gradientUnits="userSpaceOnUse" gradientTransform="translate(-42.5965 8.1628) rotate(35.0407) scale(92.1512 54.3882)">
<stop stop-color="white"/>
<stop offset="1" stop-color="white" stop-opacity="0.06"/>
</radialGradient>
<radialGradient id="paint2_radial_347_2" cx="0" cy="0" r="1" gradientUnits="userSpaceOnUse" gradientTransform="translate(103.421 53.4008) rotate(161.385) scale(66.8428 45.1784)">
<stop stop-color="#8470FF"/>
<stop offset="1" stop-color="#865CFF" stop-opacity="0"/>
</radialGradient>
<radialGradient id="paint3_radial_347_2" cx="0" cy="0" r="1" gradientUnits="userSpaceOnUse" gradientTransform="translate(40.871 -18.2359) rotate(47.2149) scale(44.643 32.0879)">
<stop/>
<stop offset="1" stop-color="white" stop-opacity="0"/>
</radialGradient>
<clipPath id="clip0_347_2">
<rect width="36.1607" height="36.1607" fill="white" transform="translate(22.4199 21.4196)"/>
</clipPath>
</defs>
</svg>
