<svg width="11" height="8" viewBox="0 0 11 8" fill="none" xmlns="http://www.w3.org/2000/svg">
<path d="M3.40287 6.48429L1.10914 4.25764C1.04916 4.1987 0.97773 4.15191 0.898982 4.11997C0.820235 4.08803 0.73574 4.07159 0.650397 4.07159C0.565054 4.07159 0.480559 4.08803 0.401812 4.11997C0.323064 4.15191 0.25163 4.1987 0.191651 4.25764C0.130939 4.31586 0.082737 4.38521 0.0498386 4.46165C0.0169402 4.53809 0 4.62012 0 4.70297C0 4.78581 0.0169402 4.86784 0.0498386 4.94428C0.082737 5.02073 0.130939 5.09007 0.191651 5.1483L2.93757 7.81392C3.19316 8.06203 3.60603 8.06203 3.86162 7.81392L10.8083 1.07671C10.8691 1.01848 10.9173 0.949135 10.9502 0.872691C10.9831 0.796247 11 0.714223 11 0.631376C11 0.548529 10.9831 0.466505 10.9502 0.390061C10.9173 0.313616 10.8691 0.244271 10.8083 0.186046C10.7484 0.12711 10.6769 0.0803172 10.5982 0.0483809C10.5194 0.0164446 10.4349 0 10.3496 0C10.2643 0 10.1798 0.0164446 10.101 0.0483809C10.0223 0.0803172 9.95084 0.12711 9.89086 0.186046L3.40287 6.48429Z" fill="white"/>
</svg>
